<?xml version="1.0" encoding="utf-8"?>
<!-- Generator: Adobe Illustrator 22.1.0, SVG Export Plug-In . SVG Version: 6.00 Build 0)  -->
<svg version="1.1" id="圖層_1" xmlns="http://www.w3.org/2000/svg" xmlns:xlink="http://www.w3.org/1999/xlink" x="0px" y="0px"
	 viewBox="0 0 1029.3 1029.3" style="enable-background:new 0 0 1029.3 1029.3;" xml:space="preserve">
<style type="text/css">
	.st0{fill:#BA6363;}
	.st1{fill:#B32D2D;}
	.st2{clip-path:url(#SVGID_2_);}
	.st3{clip-path:url(#SVGID_4_);}
</style>
<g>
	<path class="st0" d="M242.7,393.4c1.3-2.1,0.8-4.6,1.4-6.9c0.8-3.3,1.1-6.6,1.7-9.9c0.1-0.7,0.5-1.4,0.8-2.3c1.2,1,1.2,2.7,2.7,3.3
		c4-0.6,4.1-0.8,4.4-7.2c4.7-4.8,6.3-10.7,7.2-16.8c-1.3-0.9-1.7-0.1-2.3,0.3c-1.3,1-2.1,2.5-2.4,4c-0.7,3.7-3.6,6.2-5.3,9.4
		c-0.6,1.1-1.6,2.2-3.5,2.2c2.3-12.5,6.1-24.3,10-36.1c4.5-3,7.1-7.1,8.7-12c-0.2-1.3-0.4-2.6-0.7-4.1c3-3.5,4.9-7.9,7.1-12
		c1.2-2.3,1.7-4.5,0.6-7.1c2.5-4.5,4.9-9.1,7.6-13.5c5.4-8.7,11-17.3,17.4-25.3c4.1-5.2,8.3-10.3,12.7-15.3
		c5.5-6.3,11.5-12.1,17.5-17.9c5.5-5.3,11.4-10.3,17.5-15.1c3.1-2.4,6.5-3.9,10-5.4c3.6-1.6,7.4-1.5,11.1-2.3
		c3.5-0.8,7-1.7,10.6-1.9c3.1-0.1,6.1-0.3,9.2-0.3c0.7,0,1.4,0.3,2,1c-2.3,1.4-5.1,1-7.5,2.1c0,1.1,0.8,1,1.4,1.1
		c1.4,0.1,2.9,0,4.4,0.1c1.8,0,4,0.3,5,1.8c2,3.1,5.2,3.1,8,3.2c4.3,0.1,8.3,1.4,12.5,1.8c1.7,0.2,3.7,0.7,4.3,2.8
		c0.1,1.4-1,2.1-1.6,3.2c-0.7,1.2-1.6,2.1-1.9,3.7c-0.3,1.5-1.7,2.6-3.3,3.5c-4.8,2.4-9.5,2.3-14.4,0.7c-0.9-0.3-1.8-0.6-2.8-0.8
		c-1.3,0.8-2.4,1.4-3,3c-0.7,1.7-2.4,2.7-3.6,4s-2.4,2.6-3.1,4.4c-1.3,3.3-2.7,3.7-5.7,1.6c-1.4-1-2.7-0.9-4.1-0.4
		c-2,0.7-3.8,0.3-5.4-1.3c0.3-1.5,2.6-2.2,1.2-4.7c-0.9-1.1-3.5-0.4-5.1-1.9c0.9-3.6,5.7-3.9,6.4-7.6c-0.7-1.6-2.2-2.1-3.8-2.2
		c-1.1-0.1-2.2-0.1-3.3,0c-2.5,0.2-4.6-0.4-4.9-3.5c-4.4-0.5-7.9,0.9-11.6,4.1c4,1.1,7.4,1.4,10.9,1.7c0.4,2.4-1.5,4-1.5,6.2
		c0,0.7-1,1.3-1.8,1.6c-3.2,1.3-6.1,3.4-9.7,3.9c-0.2,0-0.3,0.3-0.8,0.7c1.9,1,4.5-0.4,6,2c-1.5,2.1-5.5,0.8-6,4.5
		c1,0.8,2,0.4,3-0.3c1.4-1,2.8-2,4.7-0.8c0.9,1.4,0.6,3.3,2,5c0.2,0.1,0.9,0.3,1.5,0.7c1.4,1.2,2.9,1.2,4.3,0.2
		c2.1-1.4,4.5-1.5,7-1.5c2,0,4.1,0.3,6.1-0.5c1.2-0.5,2.3,0.5,3.5,0.5c1.7-0.4,2.3-2.2,4.3-2.8c4,1.3,8.2,1.7,10.6-3.1
		c1-0.6,2,0.6,2.6-0.7c-0.1-1.9-2.1-1.5-3.3-2.6c1-1.2,2.3-2.3,2.2-4.1c3-0.8,5.3,0.2,7.8,1.7c0,3.4-3.7,5-4.2,8.4
		c2.3,0.7,4.6,0.5,6.8,0.3c4.7-0.4,8.8,1,12.6,3.5c0.9,0.8,0.4,2.1,1.3,3.2c1.1,0.8,2.8,1.1,4.2,1.2c2.5,0.1,4.4,0.9,6.4,2.6
		c2.2,1.9,5.4,2.8,8.5,1.1c0.6-0.3,1.3-0.8,2.1-0.4c1.2,0.8,0.4,2,0.5,3c1,0.9,4,0.5,7.5-0.9c1.5,1.1,3.7-0.1,5.3,1.3
		c0,1.3-0.8,1.9-1.7,2.1c-5.6,1.1-10.4,3.4-13.7,8.3c-0.5,0.7-1.5,0.7-2.1,1.9c-0.3,1.3,0,3-0.8,4.6c1,1.3,2,2.6,2.8,3.7
		c0.8,0.5,1.5,0.6,2.2,0.5c5.1-0.9,10.4-0.4,15.4-1.7c2.7-0.7,5.4,0,7.9-0.6c3.4-0.7,6.1,0.5,8.9,2.2c-1.7,5.1-1.6,10.1,1,14.7
		c0,1.6-1.4,1.9-1.9,2.8c-0.6,2.6,0.7,5.7-2.2,7.8c-2-0.4-4.1-0.6-6.3-0.7c-1.9,0-3.2,0.8-4.3,2.2c-2.8,3.5-3.4,3.8-7.5,1.9
		c-2.8-1.2-5.6-1.3-8.5-1.1c-2.4,0.1-4.4-0.1-5.8-2.6c-1.1-1.8-3.6-2.4-4.8-4.3c-0.6-1-1.5-1.9-1.9-3c-0.2-0.9,1-1.4,0.8-2.2
		c-1.4-4.5-4.7-6.4-9-6.7c-1.8-0.1-3.3-0.7-4.6-2.1c-0.3-1.4,0.9-3-0.5-4.6c-1.2-0.9-2.8-0.8-4.2-0.2c-4.4,1.9-8.4,1-12.6-0.8
		c-5.5-2.4-10.3-0.6-13,4.7c-0.5,1-1.2,1.9-2.1,2.4c-2.9,1.9-5.6,4.1-9,5.3c-5.3,1.9-9,5.9-12.6,10c-0.4,0.4-0.5,1.1-0.7,1.5
		c-0.2,1.5,1.1,2.1,1.5,3.4c-3.9,1.3-3.2-2.8-5.1-3.8c0.2-1.4,1.8-2.3,0.5-4.1c-1.5-1.2-2.9,1-4.9,0.9c0.1-1.8,1.4-2.5,2.5-3.3
		c1.2-0.8,2.6-1.4,3.9-2c1.8-0.8,3.4-1.7,4.3-3.7c4.3,0.3,6.7-2.2,8.4-5.6c0.9-1.7,2.2-2.9,3.9-3.7c0.9-0.4,1.7-0.9,2.6-1.4
		c0.2-1.3,0.4-2.6,0.5-3.8c-0.9-1.2-2-0.9-3.3-0.8c-1.3,2.1-3.2,3.4-5.5,2.8c-1.6,0.7-2,2-2.6,3c-1.6,2.6-4.1,3.8-6.8,5
		c-3.7,1.7-7.4,3.5-10.1,6.7c-1.1,1.3-1.6,3-1.6,4.7c0,1.6-0.6,2.8-1.8,3.7c-1.9,1.4-2.6,4.1-5.1,4.9c0.7,5-1,7.7-5.6,8.8
		c-1.2-1.2-0.2-3-0.9-4.3c-1-0.7-1.5,0.6-2.3,0.5c-0.9-0.3-1.3-1-1.8-2.2c3-2,5.4-4.6,6.8-8c-1.3-0.8-1.9,0.7-3,0.9
		c-0.3,0-0.5-0.2-0.7-0.5c-0.9-1.8-2.4-2-4.2-1.6c-2.1,0.5-3.8,2.2-6.6,1.5c1.2,1.3,2.5,0.5,3.1,1.4c0.4,1.4-1.5,1.4-1.7,2.6
		c-0.3,1.2,1.2,1.7,1,3.1c-2.5,1.7-3.7,4.7-5.9,7c-2.2,2.2-5,3.7-7.3,5.4c-1.5-0.1-2-1.6-3.5-1.9c-1.5,0-2.6,1.1-3.8,2.1
		c-2.9,2.6-4.6,2.8-8.2,0.9c-1,0.3-2,0.5-3.1,0.8c-0.1,0.3-0.4,0.6-0.4,0.9c-0.2,1.5-0.2,3.1-0.6,4.6c-0.3,1.1-0.4,2.5,0,3.6
		c1.4,3.2,1.6,6.5,2.1,9.8c0.1,0.9,0.6,1.6,1.1,2.3c2.4,0.5,4.3-0.8,6.3-1.4c2.1-0.6,4-1.2,6.3-0.7c3.1,0.7,5.9-0.9,8.7-2
		c3.3-1.4,6.3-3.4,10-4c2.3-0.4,3.6-2.7,5-4.4c2.7-1.1,5.2-1.1,7.7,0.3c3,1.6,1.6,4.8,2.3,7.1c1,1.1,1.9,1.4,3.3,1.2
		c2.2-0.4,4.2-1.3,6.1-2.3c3.2-1.7,6.3-3.6,9.3-5.6c3.5-2.4,7.4-3.5,11.5-3.9c2.5-0.2,4.6-1.1,6.4-2.9c2.3-2.3,3.3-4.7,1.5-7.8
		c-0.4-0.6-0.5-1.3-0.4-1.9c0.2-1.5,1.5-2,2.2-3.9c0.2-0.6-1.1-1.2-1.3-2.2c0.1-0.1,0.1-0.3,0.2-0.3c3.4,0.6,5.7-5.1,9.7-1.8
		c1.2,1,2.8,0.5,4.2-0.1c2-0.8,3.8-1.2,5.9,0.1c1.5,0.9,3.3,0.8,4.9,0.2c5-2,9.9-1.2,14.9,0c4.4,1,8.6,2.2,12.8,3.8
		c7.2,2.8,12.8,1.9,19-1.9c1.7,0.5,2.3,2,2.7,3.5c0.4,1.2,1.1,2.1,2.1,2.8c4.1,2.9,8.1,6,12.3,8.8c3.1,2,4.3,5.1,4.4,8.3
		c0.2,5.8,3.7,9.3,8.4,11.1c8.5,3.3,13.4,9.5,16.7,17.4c1.5,3.6,3.1,7.3,5.8,10.3c1.4,1.6,1.9,3.4,1.4,5.7c-0.6,2.7-1.2,5.4-2,8.1
		c-1.5,4.8-1.9,9.7-0.3,14.6c0.9,2.9,2.8,5.3,4.7,7.6c0.1,1.2-0.5,2-1,2.7c-2,2.7-3,5.8-3,9.1c0,1.6-0.7,2.7-1.8,3.8
		c-3.6,3.8-7.9,6.8-11.4,10.6c-2,2.1-3.8,4.4-5.1,7c-1.7,3.6-4.2,6.2-8,8c-4.3,2-8.2,4.7-10.9,8.7c-0.8,1.2-2,1.9-3.3,2
		c-2.6,0.1-5.3,0.4-7.9-0.4c-2.5-0.8-5.2-1.2-7.7-1.9c-3.3-0.9-6.5-0.9-9.6,0.4c-3.3,1.4-6.2,1.7-9.1-0.9c-0.4-0.4-1-0.6-1.6-0.8
		c-6.5-2.1-12.7-5.2-19.7-5.9c-1.1-0.1-2.1-0.6-3.2-0.6c-2.5-0.2-3.7,0.7-3.9,3.2c-0.2,2.2-0.8,4.2-1.2,6.2c-1.5,1.1-3,1-4.4,0.6
		c-2.4-0.7-4.8-0.5-7.2-0.6c-4.2-0.1-7.2,1.7-9,5.6c1.1,2.7,1.6,5.5,1.4,8.5c-0.1,1.4,0.2,2.7,1.4,3.6c3,2.3,2.8,7.4,1,10.7
		c-1.9,3.6-4.3,7-7.1,10c-2.3,2.5-3.9,5.1-4.2,8.5c-0.4,4.3-2.4,8.3-3,12.6c-0.5,3.1-1.1,6.1-1.7,9.2c-0.6,3,0.9,5.6,2.3,8.2
		c1.7,3,3.6,6,5.3,9.1c3.4,6.1,3.2,12.2,0.3,18.4c-1.8,3.8-3.6,7.7-6.6,10.9c1.2,4.4,0.7,8.9,0.6,13.3c0,2.6-0.9,4.9-2.9,6.8
		c-3.1,3.1-4.3,7.2-5.6,11.2c-0.4,1.1-0.3,2.4,0.2,3.6c0.6,1.5,0.4,3.1,0.3,4.5c-3,2-5.6,1.5-8.3-0.1c-1.2-0.8-2.5-1.5-3.6-2.4
		c-1.7-1.3-3.6-1.9-5.7-1.9c-1.1,0-2.2-0.1-3.1-0.7c-6.5-3.6-13.3-6.7-17.6-13.3c-1.7-2.7-4.4-4.8-6.8-7c-2.1-1.9-3.5-4.3-5-6.6
		c-0.7-1-1.3-2.3-1-3.4c1-4.1-2-5.8-4.6-7.2c-2.5-1.4-4.1-3.2-4.9-5.9c-0.8-3.1-2.2-6.1-1-9.5c0.7-1.9-0.1-3.6-1.6-5.2
		c-2.6-2.8-4.4-6.3-7.4-8.8c-1.8-1.6-3.9-2.9-5.5-4.7c-2.7-2.8-4.5-5.9-4.2-10c0.2-2.3-0.7-4.5-0.9-6.8c-0.2-2.1-0.9-4.2-1.9-6
		c0-0.5,0-0.7,0.1-0.9c1.9-3.7,2.3-7.6,2-11.6c0-0.4-0.1-0.8,0-1.1c1.6-5,0.1-9.3-2.3-13.7c-1.8-3.2-3-6.5-6-8.9
		c-1.2-1-1.5-2.5-1.8-3.9c-0.6-3.7-2.9-6.3-5.2-8.8c-3.3-3.5-5.5-7.5-7.3-11.9c-2.1-4.9-4-9.8-5.2-15c-0.7-3.2-1.3-6.4-1.9-9.5
		c-0.3-1.4,0-2.3,0.9-4.2c2.9,1.5,5.4,4.3,8.5,3.4c1.8,0.3,2,1.8,3.4,2c2.8-2.1,3.1-5.3,3.2-8.7c1.4-1.1,2.9-2.2,3.4-4.1
		c0.7-2.5,2.3-4.5,4.2-6.2c2-1.8,2.9-4.2,3.1-6.7c0.2-2.1,0.8-3.9,1.9-5.7c1.3-2.2,2.4-4.5,3.5-6.8c0.9-1.9,1.5-3.9,1.2-6
		c-0.2-2,0.3-3.8,1.6-5.4c1.7-2.1,2.5-4.5,3.5-7c1.7-4.4,3.7-8.6,5.8-12.9c1.3-2.7,2.4-5.4,3.3-8.3c-1.4,1.3-2.4,2.9-3.9,4
		c-0.8,0.4-1.1-1-2.4-0.4c0.1-0.1-0.1,0.1-0.3,0.5c-1.5,3-3.3,5.9-5.1,8.7c-1,1.6-1.6,3.4-1.9,5.4c-0.3,2.1-2.9,2.3-3.8,4.2
		c-1.2,2.7-2.2,5.4-2.5,8.3c-0.3,2.8-0.9,5.2-3.2,7c-0.7,0.5-1.1,1.2-1.3,2.1c-0.5,3.4-2.2,6.4-4.2,9.1c-1.1,1.5-1.8,3.2-1.6,5.1
		c0.3,3.3-0.8,6.4-0.9,9.7c-0.1,2-1,4-3.1,5.1c-1.7-0.9-2.6-2.4-3.8-3.7c-0.8-0.5-1.5,0.1-2.4,0c-2.7-2.3-5-5.3-8.5-7.1
		c0-2.5-1.4-4-3.9-4.4c-1-2.4-1.9-4.6-2.8-6.9C242.7,396.3,242.7,394.8,242.7,393.4z M296.8,292.3c-2.5,2.4-4.7,4.9-7.4,7
		c-2.9,2.3-5.8,4.7-6.6,8.5c0.6,1.2,1.6,1.5,2.6,1.1c3.5-1.3,7.2-1.7,10.2-4.4c3.2-2.8,7.1-4.4,11.3-3.3c2.2,0.5,4.3,0.5,6.4-0.2
		c1.3-0.4,2.5-0.8,3.8,1.2c0.3-2.6,1.7-3.5,2.8-4.8c1.5-1.6,1.5-2.3,0.3-4.1c-0.4-0.6-1.1-1-1.2-1.8c1.2-4.6-2.9-5.9-4.9-8.7
		c-2.2,1-4.1,1.8-5.3,2.7c-1,1.1-0.2,1.8-0.5,2.6c-0.8,0.9-1.7,1.7-2.6,2.5c-2.3,2.2-3.5,2.3-6.7,0.5c0.5-1.3,2.4-1.2,2.7-2.8
		c-1.9-1.2-4-1.3-6.1-0.9c-0.3,0.9-0.7,1.8-1,2.7C295.3,291,296,291.6,296.8,292.3z M332.9,237.2c0.5,1.2,1.1,1.6,1.6,1.4
		c2.2-0.8,4.5-1.3,6.6-3c-1.1-0.7-2-1.1-3.2-1C336.4,235.5,334.7,236.3,332.9,237.2z"/>
	<path class="st0" d="M558.4,156c2.1,1.3,4.7,1.2,6.9,1.3c8,0.6,15.8,1.9,23.4,3.9c11.4,3,22.6,6.9,33.5,11.4
		c8,3.3,15.9,7.1,23.6,11.1c5.4,2.8,10.6,6,16.7,9.5c-3.7,0.9-7.5-0.6-9.3,3.2c0,0.8,1.3,1,1.1,2.2c-3.5-0.1-6.7-3.6-11-1.2
		c3.7,1.9,8.4,0.8,10.6,5.1c-4.8,1.6-8.1-2.9-12.7-3.2c0.8,1.7,1.7,2.6,3,2.9c3.6,0.8,6.1,3.3,9,5.4c-0.3,1.5-0.9,2.5-2.3,3.4
		c-2,1.3-4,2.5-5.7,4.4c-3.2,3.5-7.4,5.7-12.6,4c-2.1-0.7-4.2-1-6.2,0.4c-0.3,0.2-0.7,0.4-1,0.4c-2.5-0.1-5.1-0.2-7.4-1.3
		c-2.2-1.1-4.3-2.7-4.8-5.5c-0.3-1.7-1.7-2.6-3.1-3.4c-1.4-0.8-2.9-1.2-4.3-2.6c0.5-3.2-1.6-4.3-4.5-4.9c-2.5-0.5-5.2-0.8-7.5-2.4
		c-0.6-0.4-1.6-0.2-2.5-0.2c-1-0.1-2,0.1-2.9-0.2c-3.1-1-6.4-1.1-9-2.3c-1.3-1.2-0.7-2.6-1.4-4c-1.8-1.6-4.4-2.3-7-2.9
		c-3.3-0.8-6.6-1-10-1.4c-7-0.9-14.1-1.7-20.8-4c-2-0.7-4.4,0-6.6-1.9c4.3,0,8.2,0,12.6,0c-2.6-2.8-5.3-2.7-8-1.6
		c-3,1.3-5.8,0.9-8.9,0.7c0.1-3.3,3.5-2.1,4.9-3.7c-0.7-0.7-1.6-0.2-2.3-0.6c-1-0.4-0.7-1.8-2.1-2.5c-3.2,0.6-5.6-2.4-9.2-2.6
		c1.2-0.9,2.6,0,3.6-1c-0.5-1.6-2.4-0.3-3-1.6c0.3-1.9,2-2,3.8-2.5c-3.6-1-7,0.5-10.2-1c0.8-2,3-1,4.2-2.3
		c-4.5-2.2-9.5-1.7-13.9-3.3c-4.7-1.7-9.6,0.1-14.5-1.6c1-1.3,2.1-1.5,3.3-1.5c9.1,0,18.1,0,27.2,0c2,0,3.9,1.5,6,0.3
		c0.3-0.9-0.4-1.7-0.3-2.5C537.6,156,548,156,558.4,156z"/>
	<path class="st0" d="M674.5,156c2.2,2.1,5.1,2.6,7.8,3.7c7.5,3.1,14.5,7.2,21.4,11.3c11.4,6.9,21.8,15,32.2,23.2
		c3.3,2.6,5.9,5.7,8.2,9c5.3,7.6,10.6,15.2,15.7,23c3.4,5.1,6.8,10.3,9.6,15.7c3.4,6.5,6.3,13.3,8.9,20.2c1.7,4.5,3.4,9,5.1,13.4
		c-0.9,0.6-1,0-1.3-0.4c-6.6-8.6-12.9-17.4-19.7-25.8c-3.8-4.8-7.8-9.5-12.1-13.9c-3.4-3.6-6.7-7.2-10.2-10.7
		c-4.3-4.4-9.1-8.3-13.6-12.4c-1.3-1.2-2.3-2.7-3.6-4c-8.8-8.8-17.6-17.6-26.4-26.4c-5.2-5.2-11-9.7-16.8-14.3
		c-4.7-3.7-9.5-7.4-14.2-11.1c-0.2-0.1-0.2-0.4-0.4-0.6C668.2,156,671.4,156,674.5,156z"/>
	<path class="st0" d="M371.9,156c-1.9,2.8-4.9,4.2-7.5,6.2c-6,4.8-12.1,9.5-18,14.5c-5.5,4.7-11,9.4-15.9,14.7
		c-4.7,5-9.5,9.9-14,15.1c-3,3.5-6.3,6.6-9.9,9.6c-3.5,2.9-6.7,6.3-9.8,9.6c-2.1,2.2-4.7,3.8-6.7,6c-8.7,9.1-16.8,18.6-24.1,28.8
		c-3.4,4.8-7,9.5-10.5,14.3c-0.2,0.3-0.5,0.5-1.1,0.4c-0.1-1.8,1.1-3.4,1.7-5c3.9-10.3,8.5-20.3,13.9-29.9
		c6.7-12,14.1-23.6,22.2-34.7c1.4-1.9,3.1-3.8,4.3-5.8c2.3-3.9,5.7-6.4,9.3-8.9c8.5-5.8,17-11.5,25.5-17.2
		c9.4-6.3,19.3-11.5,29.6-15.9c1.1-0.5,2.3-0.8,3.1-1.8C366.6,156,369.2,156,371.9,156z"/>
	<path class="st0" d="M338.5,659c-3.9-2.5-7.8-5.2-11.8-7.6c-7.5-4.6-14.5-10-21.5-15.2c-1.9-1.4-3.9-2.9-5.7-4.4
		c-1.4-1.1-2.7-2.4-3.7-3.9c-8.6-12.8-17.2-25.7-25.1-38.9c-3.4-5.6-6-11.6-8.5-17.6c-2.5-5.9-4.9-11.8-7.4-17.7
		c-0.2-0.5-0.3-0.9,0-1.6c1.4,0.6,1.9,2,2.7,3c6,7.7,11.7,15.6,17.8,23.2c3.6,4.5,7.4,8.9,11.3,13.2c4,4.5,8.1,9,12.6,13
		c15.4,14.2,29.7,29.4,44.7,44c3.5,3.3,7.4,6.2,11.1,9.2c0.5,0.4,0.9,0.8,1.2,1.3C350.1,659,344.3,659,338.5,659z"/>
	<path class="st0" d="M681.8,659c2.2-3.1,5.5-5,8.2-7.6c3-3,6.5-5.4,9.5-8.3c5.4-5.2,10.8-10.4,15.9-15.9c4.2-4.5,8.2-9.2,12.8-13.3
		c9-8.1,17.4-16.8,25.9-25.3c5-5,9.1-10.9,13.4-16.6c4.8-6.5,9.5-13,14.2-19.6c0.3-0.5,0.7-1,1.7-1.1c-1.6,4.4-3,8.7-4.8,12.9
		c-3.3,7.8-6.7,15.5-10.7,23c-4.7,9-10.2,17.5-16.1,25.7c-3.7,5.2-7.7,10.2-11.5,15.3c-2.3,3.2-5.2,5.7-8.3,7.9
		c-8.7,6.2-17.6,12.3-26.3,18.5c-2.1,1.5-4.8,2.2-6.4,4.5C693.4,659,687.6,659,681.8,659z"/>
	<path class="st0" d="M242.7,238c3.2-4.2,5.2-9.2,7.9-13.8c5.1-8.6,10.2-17.2,16.2-25.2c3.9-5.2,7.8-10.4,11.7-15.6
		c3.5-4.7,7.8-8.4,12.4-11.9c6.5-5,13-9.9,19.9-14.4c0.4-0.3,0.6-0.7,0.9-1.1c6.8,0,13.5,0,20.3,0c-0.5,1.2-1.5,1.9-2.3,2.7
		c-6,6.1-12.2,12-18.1,18.3c-3.9,4.1-7.8,8.2-11.4,12.6c-1.5,1.9-3.2,3.6-5.2,5c-2.9,2-5.2,4.6-7.8,6.9
		c-9.6,8.5-18.8,17.4-27.5,26.7c-5.8,6.2-11.1,13-16.1,19.9c-0.2,0.3-0.5,0.5-0.7,0.8C242.7,245.3,242.7,241.7,242.7,238z"/>
	<path class="st0" d="M726.1,156c1.5,2,3.8,2.9,5.8,4.3c6.4,4.5,12.7,9.1,18.7,14.1c4.7,4,8,9.3,11.7,14.2
		c4.5,5.9,9.1,11.8,13.2,18.1c4.1,6.3,8.5,12.3,12,18.9c1.4,2.8,3.1,5.4,4.7,8.1c0,4.1,0,8.2,0,12.3c-0.5-0.4-1.1-0.6-1.4-1.1
		c-3.9-5.6-8.5-10.7-12.7-16.2c-0.6-0.8-1.3-1.4-2-2.1c-4.1-4.1-8.1-8.3-12.3-12.3c-6.5-6-12.8-12-19.6-17.7
		c-3.5-2.9-6.8-6.2-9.6-9.9c-1.7-2.3-3.8-4.4-5.7-6.5c-7.1-7.5-14-15.4-21.6-22.5c-0.7-0.7-1.5-1.3-2.2-1.9
		C712,156,719.1,156,726.1,156z"/>
	<path class="st0" d="M294.2,659c-2.7-2.3-5.5-4.6-8.1-7c-5.9-5.4-10.2-12.1-15.1-18.3c-6.6-8.5-12.4-17.4-18.1-26.5
		c-3-4.8-5.6-9.8-8.4-14.8c-0.6-1-0.9-2.3-1.9-3.1c0-3.6,0-7.3,0-10.9c0.7,0.2,1.2,0.8,1.7,1.3c4.6,6.6,10,12.6,14.9,19
		c0.4,0.6,1,1.1,1.5,1.6c8.1,8.1,16,16.4,24.7,23.9c5.1,4.4,10.5,8.5,14.9,13.6c6.1,7.1,13,13.6,18.6,21.1
		C310.7,659,302.4,659,294.2,659z"/>
	<path class="st0" d="M718.8,659c1.9-2.5,3.8-5,6-7.2c4.8-4.7,9.2-9.8,13.6-15c1.9-2.2,4.2-3.9,6.4-5.9c4.5-4,8.8-8.2,13.2-12.3
		c4.3-4.1,8.8-7.9,12.9-12.1c6.8-7,13-14.5,18.9-22.2c0.7-0.9,1.2-1.8,2.3-2.2c0,4.4,0,8.7,0,13.1c-0.7,0.4-0.9,1.1-1.2,1.8
		c-4.1,8-8.7,15.6-13.7,23c-5.7,8.7-12,16.9-18.5,24.9c-2.6,3.3-5.4,6.3-9,8.8c-2.2,1.5-4.7,2.9-6.2,5.4
		C735.3,659,727,659,718.8,659z"/>
	<path class="st0" d="M242.7,256.2c0.4-0.4,1-0.7,1.3-1.2c3.6-5.6,7.9-10.6,12.2-15.6c7.1-8.5,15-16.3,22.8-24.2
		c0.5-0.5,0.9-1.2,2.1-1.5c-0.8,1.6-1.5,2.9-2.2,4.1c-5.6,9.5-11,19.2-16.4,28.9c-5,9.2-8.8,19-12.7,28.7
		c-2.1,5.4-4.1,10.8-5.9,16.3c-0.2,0.8-0.5,1.6-1.3,2.1C242.7,281.3,242.7,268.8,242.7,256.2z"/>
	<path class="st0" d="M242.7,533.4c2.1,3.3,2.7,7.2,4.2,10.7c3,7.2,5.4,14.7,8.4,21.9c2.3,5.4,5,10.7,7.8,15.9
		c3.7,6.8,7.6,13.4,11.4,20.1c2.2,3.7,4.4,7.5,6.6,11.3c-2.1-1-10.9-9.5-13.9-13c-4.2-4.8-8.6-9.4-12.7-14.3
		c-4.1-4.9-8.2-9.7-11.9-14.9C242.7,558.6,242.7,546,242.7,533.4z"/>
	<path class="st0" d="M792.1,575.5c-1.9,0.8-2.6,2.8-3.8,4.3c-4.4,5.3-8.8,10.5-13.4,15.6c-5.2,5.9-11,11.2-16.4,16.9
		c-0.2,0.2-0.5,0.5-1.1,0.3c0.7-2.8,2.7-5,4-7.5c2.6-4.8,5.4-9.4,8-14.2c2.9-5.3,6-10.5,8.6-15.9c2.5-5.2,4.6-10.6,6.8-16
		c2.3-5.8,4.4-11.7,6.6-17.6c0.1-0.3,0.4-0.6,0.7-0.8C792.1,552.3,792.1,563.9,792.1,575.5z"/>
	<path class="st0" d="M792.1,285.9c-1.6-2.3-2-5.1-2.9-7.7c-3.4-9.5-6.8-19.1-11.7-28c-4.4-7.9-9.1-15.6-13.7-23.4
		c-2.4-4-4.8-8-7.1-12c0.6-0.4,0.9-0.1,1.2,0.1c4.4,4.7,9.3,8.8,13.3,13.8c2.6,3.3,5.9,6.1,8.6,9.3c3.6,4.4,7.3,8.6,10.9,13
		c0.4,0.6,1.1,0.9,1.6,1.4C792.1,263.7,792.1,274.8,792.1,285.9z"/>
	<path class="st0" d="M700.7,156c1.1,1.8,2.6,3.2,4.2,4.4c6.2,4.9,11.3,10.9,16.9,16.4c0.1,0.1,0.1,0.4,0.1,0.9
		c-4.6-2.7-9-5.3-13.5-7.8c-4.6-2.6-9.2-5.2-13.8-7.9c-3.5-2.1-7.3-3.7-10.7-6C689.5,156,695.1,156,700.7,156z"/>
	<path class="st0" d="M353.7,156c-3.1,2.7-7,4.3-10.5,6.2c-8.3,4.6-16.3,9.7-25.1,14.7c0.7-2.1,2.1-3.2,3.3-4.1c2.8-2,5-4.5,7.4-6.9
		c2.5-2.4,4.9-5,7.7-7.1c1-0.8,2-1.7,2.7-2.9C344.1,156,348.9,156,353.7,156z"/>
	<path class="st0" d="M324.7,659c-1.3-2.1-3.3-3.4-4.9-5.2c-0.6-0.7-1.7-1.1-1.2-2.7c4.4,2.5,8.8,4.7,12.6,7.9
		C329.1,659,326.9,659,324.7,659z"/>
	<path class="st0" d="M705.7,659c4.1-3,8.7-5.3,13.2-7.8c-1.7,3.1-4.7,4.9-6.6,7.8C710.1,659,707.9,659,705.7,659z"/>
	<path class="st0" d="M660.7,659c0.5-2.4,2.4-1.1,3.5-1.4c0.5,0.6,0.2,1,0.1,1.4C663.2,659,662,659,660.7,659z"/>
	<path class="st0" d="M760.4,432c1.6,0.9,2.9,2.3,5.2,1.8c1-1.1,2-2.4,3.1-3.7c0.9-1,0.9-2.2,0.9-3.4c0-4.7,0.1-9.4,0-14.2
		c-0.1-2.4,0.6-4.2,3-5.4c2.1-0.1,4.3,1.3,6.6,0.4c-0.5-6.6-2.9-12.9-3.9-19.3c4-1.2,5.6-0.4,6.5,3.1c0.5,2,1.2,3.9,1.9,6
		c1.4,0.2,2.8,1,4,1.6c2.1-0.7,1-2.7,2-3.8c1.2,1.7,1.9,10.5,1.2,13.7c-0.6-0.1-1.7-0.8-2.1-1.3c-0.3,0.2-0.6,0.3-0.9,0.5
		c-1,0.8-1.3,2.1-1.4,3.3c-0.7,5.1-4.7,6.5-8.9,8.2c-1.7,3.4-3.2,7.3-3.8,11.7c-1.9,0.6-3.3,1.8-4,3.7c-0.2,0.5-0.5,1.3-1,1.5
		c-2.3,1-3.8,3.1-5.6,4.7c-1.3-1.4-1.3-1.4-1.1-3.9c-0.6-0.9-1.2-1.7-2.6-2.4c-1.8,7-3.5,13.8-4,21.5c2.5,2.5,3.6,6.5,6,10.3
		c0,4,0,8.5,0,12.8c-0.2,1.3-1.7,1.4-1.9,2.6c0,0.2,0,0.3,0,0.4c3.3,4.7,2.1,8.8-1.1,13.2c-2.6,3.6-4.5,7.7-5.9,11.9
		c-1.5,4.3-2.3,8.9-5.1,12.7c-0.5,0.6-0.3,1.4-0.5,2.1c-0.5,3.1-2.2,5.5-4.6,7.4c-3.8,3.1-7.6,6.3-11.3,9.6
		c-2.5,2.2-4.1,4.9-4.8,8.3c-0.8,3.9-2.2,7.7-1.8,11.7c0.1,0.7-0.2,1.4-0.3,2.1c-1.2,4.8-1.6,9.7-1.8,14.6
		c-0.2,4.4-1.1,8.6-2.5,12.7c-1.5,4.4-2.2,8.8-0.7,13.4c0.6,1.8,0,3.5-0.9,4.8c-1,1.5-1.3,3.1-1.7,4.7c-0.5,2.5-1.2,4.9-3.5,6.5
		c-0.3,0.2-0.7,0.5-0.7,0.7c-0.3,2.9-2.8,4.1-4.4,6c-5,5.4-10.6,10.1-16.3,14.9c-0.7,0.5-1.3,1.1-2.4,0.4c0.2-3.5,5.2-3.4,5.4-7
		c-2.2-1.3-3.1,1.6-5.1,1.2c-1.2-0.6-0.1-2.2-0.9-3c-0.4-1.1-1.8-0.2-2.1-1.2c-0.1-0.4,0.1-0.7,0.4-0.9c3.1-1.5,3.1-1.5,4.8-4.3
		c-2.5-0.4-4,2.4-6.4,1.5c-1.2-1.1-0.3-2.5-0.5-3.8c-1.2-0.6-2.3-0.3-3.4,0.2c-2.4,1.1-4.9,0.9-7.5,1c-2.1,0.1-3.5-1-4.3-2.8
		c-0.7-1.6,0.5-2.6,1.5-3.7c1.6-1.9,3.2-3.8,5.2-6.3c-2.8,0.3-4.7,1.3-6.6,2.1c-1.5,0.6-2.9,1.3-4.4,1.7c-2,0.6-3.8,0.1-5-1.8
		c-0.3-0.5-0.8-0.9-1-1.5c-1.6-4.2-5.2-6.9-8.2-10c-2-1.9-3.8-4-5.6-5.8c0-3.4,1.8-6.3,1.1-9.6c-1.9-1.3-4-2.3-5.6-4
		c-0.4-0.4-1.1-0.5-1.7-0.6c-2.8-0.7-5.5-1.4-8-3.1c-1.7-1.1-4-0.5-6.1-0.4c-2.7,0.1-5-0.7-7.2-2.4c0.2-2.7-1.6-4.6-3.1-6.6
		c-1.3-1.8-2.5-3.5-2.4-5.9c0-1.3-0.5-2.6-1.3-3.7c-1.2-1.5-1.5-3.2-1.5-5.1c0-2.5,0.1-5.1-0.2-7.6c-0.3-2.3,0.9-4.4,1.5-6.4
		c-0.3-1.4-1-2.2-2-2.7c-3.5-1.8-5.4-5.1-7.8-7.9c-1.4-1.6-2.6-3.5-3.9-5.2c-2.9-3.8-4.4-8.3-5-13c-0.1-0.8-0.1-1.7,0-2.5
		c0.5-4.7,3.1-7.1,7.9-7.2c3.3,0,5.8-1.5,7.9-3.9c2.9-3.3,6.5-5.3,10.8-6.1c1.1-0.2,2.3-0.5,3.2-0.1c3.1,1.1,5.7,0,8.3-1.3
		c0.5-0.3,1.1-0.5,1.7-0.8c1.5,0.4,3,0.8,4.3,1.2c1.1-0.5,1-1.3,1-2c0.1-1.1,0.5-2.1,1.4-2.4c3.1-1.1,5.6-3.4,8.7-4.3
		c3.8-1.1,5.2-0.8,7.5,2.2c0.6,0.8,1.1,1.5,1.7,2.3c0.1,0.2,0.4,0.3,0.7,0.4c1.4-0.2,2.8-0.5,4.4-0.8c1.2-1.4,2.3-3.2,4.4-4.1
		c1-5.6-3.1-9.1-5.4-13c-0.1-0.9,0.2-1.4,0.6-1.9c1.6-1.6,2.5-3.6,3-5.7c1.4-5.9,6-8.4,11-10.5c3.6-1.6,7.5-1.6,11.2-2.2
		c2.5-0.4,4.4-1.3,6.2-3.2c1.6-1.7,3.4-3.4,4.9-5.2c1.5-1.9,3.3-3.1,6-2.4c0.8-3.2,2.4-5.3,5.5-5.9c0.8-0.2,1.4-0.9,1.6-1.2
		c0.7-1.2-0.2-1.5-0.2-2.3c1.9,0,3.9-0.8,5.5,0.7c2,1.8,4,1.9,6.2,0.5c1.8-1.1,4.1-0.1,6.3-0.8c1.1-2.6,4.5-3,6-5.4
		c1.7,0.1,0.5,1.5,1.1,1.9c0.9,1.2,2.6,0.7,3.4,2.3c1.1-1.9-1.4-3.9,1-5.4c2.9,3.1,7,4.2,10.7,6c1.2,3,1.6,6.3,4.1,8.7
		C757.3,436.2,757,432.5,760.4,432z M738.9,435.7c1.9-2.1,2-3.8,1.2-6.1C738.2,431.4,738.2,433.2,738.9,435.7z"/>
	<path class="st0" d="M662.4,268.4c0.5-1.3,1.7-1.2,2.4-1.8c0-1.5,0.1-2.9,0.7-4.2c1.6-1,3.1-0.1,4.6,0.3c1.9,0.5,2.2-2.1,4.2-1.5
		c-1-2-2.8-2.9-3-4.2c-0.3-1.2,0.5-1.5,0.7-2.3c-1.5-2.4-1.5-4.9,1-7c0.8-0.3,1.5,0.7,2.4,0.2c0.5-0.4-0.2-1.2,0.7-1.8
		c2,0.3,4.2,1,6.4,0.4c1-0.2,1.3-1.3,2.2-1.9c0.9-0.1,1.9-0.2,2.9-0.2c0.6-1.2-1.4-1.8-0.5-3c1-1.3,2.9-1.7,3.2-3.9
		c0.1-0.8,1.8-1.4,2.9-2.2c1.6,0.8,3.1,1.6,4.1,3.2c1.5,2.4,4,3.8,6.3,5.4c1.5,1.1,3.2,1,4.7-0.4c0.3-1.4-0.9-2.7-0.8-4.1
		c4.4-0.5,8.8-0.6,12.5,2.2c4.4,3.4,6.6,8.7,10.1,12.9c0,1.1-1.4,0.9-1.9,2.1c0.7,5.2,6.3,7.1,8.9,11.4c-0.6,5.3,0,6.8,4.1,9.7
		c0.3-0.1,0.6-0.3,0.9-0.5c0.7-0.5,1.3-1,1.8-1.7c0.6-1.3-1-2.4-0.1-3.9c2.1,3.2,4.1,6.2,6.1,9.3c1.9,3.1,3.8,6.2,5.7,9.3
		c-0.2,1.7-1.2,3.5-0.3,5.4c3.2,0.6,4.9,2.9,6.3,5.7c6.4,12.5,11.6,25.4,16.2,38.7c2,5.8,3.3,11.8,5.3,17.6c0.1,0.4,0.1,0.9,0.1,1.4
		c-1.3,0.7-2.3-0.3-3.7-0.4c-0.6,0.3-1.3,0.7-2.2,1.1c-1-1.3-0.6-3.2-2.6-4.7c-0.7-0.4-2.5-0.4-3.8-1.6c-0.8,0.5-1.4,0.8-2,1.2
		c-1.3,0.2-1.9-1.6-3.7-0.7c0,5.4-0.2,11.1-3.6,16.2c-1.9-1.4-2.3-3.3-2.3-5.2c0-3.7,0-7.4,1-11.1c1-4.1-0.4-8.1-3-11.5
		c-1.2-1.5-2.6-2.8-4.2-4c-1.1-0.8-2.1-1.6-2.7-2.8c-0.9-1.5-2.3-2.4-3.6-3.2c-1.2-3.3-2.1-6.5-2-10c-2.9-1.3-3.4-4-3.8-6.9
		c-2.5-1.7-3.9-4.3-4.4-7.5c-4.1-1.3-6.4-5.3-11.1-6.1c1.3-4-0.5-6.3-3.5-8.3c-1.6-1-3.1-2.3-4.9-3.1c-1.4-0.6-2.4-1.6-3.3-2.8
		c-1-1.5-2.3-2-4-1.7c1.9,4.2,1.9,4.2-0.4,5.7c-2.6-1.6-4.4-4.4-7.2-5.8c-2.6-1.3-5.5-2.4-7.3-5c1.1-0.6,2.3-1.8,2.6-2.6
		c2.2,0.8,4.5-0.2,6.6,0.2c1.1-0.6,0.7-1.8,1.5-2.6c-1.4-1.4-3.3-2.4-3.4-4.7c3.2-1.4,5.7,1.3,8.8,1.4c-1.2-3.5-3.9-5.2-7.1-6.1
		c-3.8-1-7.8-1.5-11.7-2.3c-3.4-0.7-6.8-1.5-9.5-4.1c-1.9-1.8-4.5-2.7-7-3.6c-0.2-0.1-0.6,0.2-1.1,0.5c2.9,5.3,7.9,9.1,10.7,15.4
		c-3.8-1.6-7.3-1.4-11-2.2c-0.8,0-1.4,1.3-2.5,1.3c-1.4,0-1.9-1.4-3.2-1.9c-1.4,0.3-2.4,1.8-4.2,1.9
		C663,271,662.7,269.6,662.4,268.4z M753.8,295.5c-1.9-0.1-3.6-0.2-5.4-0.4c-1.6,3.2,1.8,2.7,2.7,4c0.7,1.6,1.1,3.4,2.4,4.7
		c2.9-1.6-0.7-4.8,1.9-6.1C754.8,296.8,754.3,296.1,753.8,295.5z M761.3,305.4c0.3,2.8,0.6,5.6,3,7.5
		C763.6,310.3,763.4,307.5,761.3,305.4z M744.4,300.8c-0.7-2-1.1-2.3-4.2-2.7C741.2,299.7,742.9,300.1,744.4,300.8z"/>
	<path class="st0" d="M446.5,245.8c3.2-0.3,5.5,1.3,8,3.5c-2.1,0.4-3.7,0.7-5.2-0.3c-1.2-0.8-2.4-0.8-3.8-0.6
		c-6.1,1.1-12.3,0.4-18.4,0.4c-0.5,0-0.9-0.3-1.1-0.8c-0.2-0.9,0.9-1,1.2-1.7c-1-1-2.4-1.6-3-3.3c1.2-2.2,3.8-1.6,5.7-2.6
		c1.7-2.6,3.8-5,7.1-6c0.7-0.2,1.4-0.9,2-1.5c1.9-2.1,3.9-4,7.7-3.5c-1.8-2-3.1-3.4-4.5-4.9c2.4-2.4,5.5-1.2,8.2-1.8
		c0.2-1.7-1.9-1-2-2.2c0.1-0.2,0.1-0.6,0.2-0.6c4-1.4,7.5-0.9,10.3,2.4c1,0.4,2-0.5,3.1,0.3c-1.9,1.8-4.2,3.4-4.4,6.5
		c-1.1,0.3-2.6-1.1-3.3,0.3c-0.9,1.5,1.1,2.1,0.4,3.4c-1.9,0.7-4,0-6,0.5c-0.7,0.4,0,1.1-0.4,1.5c-0.8,1-2,1-2.9,1.6
		c-0.1,0.4-0.1,0.7,0.2,1c1.5,1.3,3.5,0.5,5.2,1c1.1,1.1-0.7,1.7-0.2,2.8c0.4,1.5,2.7,1,3.8,2.9
		C451.5,243.8,449.1,244.9,446.5,245.8z"/>
	<path class="st0" d="M280.2,561.7c-3-1.2-4.8-3.7-6-6.3c-3.4-7.6-6.9-15.1-9.5-23c-1-3-1.6-6-3.1-8.8c-1.3-2.4-1.1-7.3,0-10.5
		c1.2,3.3,2.5,6.2,4.3,8.9c1.4,2.1,2.9,4.1,4.8,5.8c3.2,2.9,4.8,6.6,4.6,10.9c-0.2,3.7,1.9,6.4,3.5,9.3c0.9,1.6,1.6,3.1,1.7,5
		c0.1,1.7,0.5,3.3,1,4.9C282,559.5,281.7,560.7,280.2,561.7z"/>
	<path class="st0" d="M536.9,194.5c-0.4,1.1-1.7,0.3-2.1,1.4c0.1,0.4,0.3,0.8,0.6,1.3c-1.1,0.1-2.2,0.2-3,0.3
		c-1,0.8-0.1,1.5-0.4,2.2c-13.4,3.6-32.4,3-38.8-2.2c1.7-1.5,4.3-1.6,5.6-3.6c6.3-0.7,12.5-0.2,18.7,0.2c2.1,0.1,4.2,0.8,6.4,0.2
		c0.7-0.2,1.1,0.2,1.6,0.5c1.1,0.7,2.5,0.7,3.4-0.2c1.8-1.9,3.8-1.7,6-0.9C535.4,193.9,536.2,193.8,536.9,194.5z"/>
	<path class="st0" d="M696.8,232c-1.3-0.7-0.5-1.8-1.3-2.2c-1.8-1.2-4.4-0.8-5.5-3c-0.2-0.8,0.2-1.4,0.7-2c1.5-0.2,3,0.7,4.5-0.3
		c0.2-1-0.3-1.6-1-2.2c-1.4-0.3-2.9-0.4-4.2,0.1c-1.3,0.6-2.6,0.2-3.5-0.4c-2.7-1.9-5.6-3.5-8.6-6.5c3.4,0.8,6.2,0.2,8.3,2.2
		c1.4-0.4,2.5-0.7,3.6-1c1-0.5,0.3-2,1.7-2.4c7.2,6.1,14.5,12.3,21.2,19.6c-1.9,1-3.7,1-5.6,0.5C703.7,233.5,700.2,232.4,696.8,232z
		"/>
	<path class="st0" d="M459.8,240.3c-0.2-1.4,1.1-2.8,0.4-4.4c-0.5-0.9-1.9-0.6-2.3-1.8c0.8-3.3,3.9-3.5,6.5-3.9
		c2.8-0.5,5.7-0.1,6.7,2.8c1.5,1.2,3.3,0.2,4.3,1.3c0.6,1.7-1.7,1.7-1.6,3.4c0.4,1.5,3.8,1.5,3.1,4.5c-2.2,1.6-4.6,2.3-7.3,1.2
		c-2.3-1-4.7-1.9-7.3-1.7C461.3,241.7,460.4,241.5,459.8,240.3z"/>
	<path class="st0" d="M755.9,379.8c1.8-0.3,3.2-0.5,4.6-1.1c4.7-2,7.7-0.6,9.7,4.9c-1.6-0.7-2.5-2.2-3.9-2.4
		c-2.8,0.8-5.4,1.5-8.3,2.3c-0.4,2.1-3.6,2.4-3.2,5.1c-2.9,1-5.7,1.8-8.3-0.9c0.8-1.9,2.2-3.1,3.9-3.6
		C752.9,383.5,754.8,382.2,755.9,379.8z"/>
	<path class="st0" d="M740.2,395.1c-0.2,0.3-0.7,1-1.1,1.6c-3.1-2-6-3.5-9.8-3.5c1.5-2.7,3.7-4.1,5.9-5.4c0.4-0.2,1-0.4,1.4-0.3
		c2.2,0.5,4.4,0.7,6.6,0.6c0.6,1.9-1.9,2.9-0.7,4.6c0.9,1.3,3.5-0.3,4.1,2.3C744.4,395.3,742.5,394.4,740.2,395.1z"/>
	<path class="st0" d="M655.2,479.3c2.6-0.2,4.5-1.8,6.6-2.5c2.5,1.7,3.1,2.9,2.3,4.7c-0.9,2-4.2,4.3-6,4
		C656.2,485.1,655,482.9,655.2,479.3z"/>
	<path class="st0" d="M392.8,290.9c-1.2,2-0.1,4.4-1.1,6.5c-0.1,0.3-0.5,0.5-0.8,0.7c-1.5,0.2-2.6-0.5-3.6-1.5
		c-0.7-3-0.4-5.7,2.3-7.6C391.4,289.4,391.4,289.4,392.8,290.9z"/>
	<path class="st0" d="M364.5,310.5c0.7-2,0.4-3.7,0.3-5.4c3.5-0.4,6.7-0.7,10.3-1.1C373.4,306.1,368.1,309.4,364.5,310.5z"/>
	<path class="st0" d="M390.3,288.1c-1.5-1.9-1-3.6-0.8-5.2c1.1-0.9,2-0.6,3,0C392.4,284.8,391.9,286.3,390.3,288.1z"/>
	<path class="st0" d="M694.1,279.5c-1.8,1-2.9,0.4-3.8-0.8c-0.3-1.1,0.3-1.8,0.6-2.8C693,276.4,693.4,278,694.1,279.5z"/>
	<path class="st0" d="M694.2,268.4c2.2-1,3.9-2,6.3-0.4C698.4,269.6,696.6,269.6,694.2,268.4z"/>
	<path class="st0" d="M756.2,395.2c0.4,1.2,0,1.7-0.7,2.2c-1.1,0.3-2-0.4-2.9-0.8c-0.2-0.4-0.1-0.8,0.2-1
		C753.9,395,754.9,394.5,756.2,395.2z"/>
	<path class="st0" d="M386.4,240.1c-1.3-0.6-1.7-1.4-1.2-2.4c0.6-1.2,1.6-1.3,2.7-0.5C387.7,238.8,387.7,238.8,386.4,240.1z"/>
	<path class="st0" d="M720.5,393.8c1.6-1.2,3-1.8,4.7,0C723.5,395.1,722.1,395.2,720.5,393.8z"/>
	<path class="st0" d="M298.3,325.4c1.7-0.4,3-0.2,4.2,0.9c-0.7,1.3-1.8,1.1-2.9,1C298.8,327.1,298.4,326.5,298.3,325.4z"/>
	<path class="st0" d="M461.4,219.7c1.3-0.8,2.2-0.5,3.1,0.5C463.4,221.4,463.4,221.4,461.4,219.7z"/>
	<path class="st0" d="M704.6,426.7c1.7,0.7,2,1.7,1.7,3C704.8,428.9,704.8,428.9,704.6,426.7z"/>
	<path class="st0" d="M324.4,322.3c1.2-1,2.4-1.8,4.4-1.4C327.3,322.3,325.9,322.4,324.4,322.3z"/>
	<path class="st0" d="M387.6,183.7c1.5-0.8,3.1-1.5,4.6-2.3C391.2,183.2,389.7,183.9,387.6,183.7z"/>
</g>
<path class="st1" d="M651.5,867.1c-5.8,6.7-13.4,12.9-20.5,18.6c-46-47.5-100-100.2-151.3-100.2c-31.8,0-54.7,24.2-81.5,41.3
	c-37.1,23.7-88,37.1-131.6,19.7c-23.5-8.9-46.2-22-63.2-43.3c34.3,23.7,85.7,26.9,124.5,10.8c42.8-17.8,86.4-41.4,135.2-41.4
	C535.2,772.6,603.6,821.3,651.5,867.1L651.5,867.1z M119.7,717.7c47.6,54.2,125.3,36.8,188.9,50.3c8.9,1.9,17.2,4.8,26.7,3.4
	c-7.6-4.8-17.6-5.3-26.3-8.6c-49.3-18.6-57-71.4-84-107.7c34.5,22.9,63.1,54.3,95.3,83.8c22.5,20.5,50.4,29.3,79.4,35.2
	c-7,2.5-16.1,1.9-23.6,3.8c-52.1,12.9-109.9,33.3-165.3,15C175,781.1,137.8,753.1,119.7,717.7L119.7,717.7L119.7,717.7z M43.3,592.1
	c29.7,67.3,104.4,72.5,154,113.8c9.4,7.9,18.8,15.1,29.2,19.9l0.5-0.5c-11.5-10.4-23.9-22.7-32.7-35.6
	c-28.4-41.2-18.9-97.6-40.8-141.3c19.9,23.8,38.5,48.3,50,75.6c18.4,43.9,24.7,93.9,66,127.2c-44.7-14.8-96.3-11.8-136.5-38.2
	C90.6,685.3,51.4,641.5,43.3,592.1L43.3,592.1z M11.5,456c4.3,59.3,67.4,90.9,97.5,139.7c6.4,10.4,13,21.1,22.4,29.6
	c-1.5-6.3-6.6-11.9-9.5-18.1c-9.7-20.9-14-45.1-11.6-70c2.9-30.3,15.6-58.4,10.7-90.2c25.9,56,17.6,126,32.6,186.5
	c3.3,13.4,11.5,25.1,16.5,37.8c-25.5-19.4-58.9-36.6-86.9-58.6c-27.1-21.3-50.5-46.3-62.7-78.8C11.6,510.3,9.4,482.4,11.5,456
	L11.5,456L11.5,456z M13.3,346.8c3-13.2,5.4-26.9,11.1-39.1c-10.9,55.9,26.3,96.3,39,144.7c4.8,18.2,6.4,37.6,13.8,54.6
	c0.7,0.4,1.3-0.3,1.7-0.9c-18.4-51.5,8.5-99.1,34.8-139.7c6.9-10.7,10.2-23.1,13.4-35.6c2.8,23.3-2.1,50.3-6.4,74.3
	c-5.6,31-16.1,60-24.5,89.9c-5.5,18.7-4.1,39.7-1.2,59.3l-2.7-2.1c-19.5-36-58-64.2-69.6-103.5C13.3,417.3,6.8,381,13.3,346.8
	L13.3,346.8L13.3,346.8z M33.9,286.6c0-42.3,16.5-76.8,41.2-108.3c0.7-0.4,1.2-1.1,2.2-0.9C50,218.8,74.8,271,71.3,318l-3.6,48.2
	c0.5,0.4,0.5,1.8,1.8,1.2c1.6-5.4,2.1-11.1,3-16.6c6.6-38.8,40.7-65.9,69.6-93.3c6.8-6.5,11.9-14.2,15.1-22.4
	c-2.4,19.3-7.8,39.2-16.5,56.8c-22.3,45.1-65.3,81.5-73,132.7C63.9,375.4,33.9,338.9,33.9,286.6L33.9,286.6L33.9,286.6z
	 M105.6,143.9c13.7-15.2,29-27,47.3-31.7c-35.4,24.4-33.5,67.9-44.4,104.4c-4,13.3-9.8,25.8-12.9,39.6l0.9,0.7
	c5.9-15.6,16-30.5,29.2-43c24.9-23.5,62.4-37.8,74.8-72.2c-0.6,47.8-41.3,84.2-78.5,112.3c-16.7,12.6-30.9,29.5-39.5,47.3
	c1.4-13.2,2.1-24.2,0.9-37.1C79.4,222.5,77,175.6,105.6,143.9L105.6,143.9z M249.5,63.5c-26.3,23.1-43.9,52.8-64.1,79.5
	c-16.8,22.2-39.9,36-59.7,54.6c10.7-22.2,12.7-47.7,26.3-69.2C175.2,91.7,213.6,77.5,249.5,63.5L249.5,63.5L249.5,63.5z"/>
<path class="st1" d="M379.6,867.1c5.8,6.7,13.4,12.9,20.5,18.6c46-47.5,100-100.2,151.3-100.2c31.8,0,54.7,24.2,81.5,41.3
	c37.1,23.7,88,37.1,131.6,19.7c23.5-8.9,46.2-22,63.2-43.3c-34.3,23.7-85.7,26.9-124.5,10.8c-42.8-17.8-86.4-41.4-135.2-41.4
	C496,772.6,427.6,821.3,379.6,867.1L379.6,867.1L379.6,867.1z M911.4,717.7c-47.6,54.2-125.3,36.8-188.9,50.3
	c-8.9,1.9-17.2,4.8-26.7,3.4c7.6-4.8,17.6-5.3,26.3-8.6c49.3-18.6,57-71.4,84-107.7c-34.5,22.9-63.1,54.3-95.3,83.8
	c-22.5,20.5-50.4,29.3-79.4,35.2c7,2.5,16.1,1.9,23.6,3.8c52.1,12.9,109.9,33.3,165.3,15C856.1,781.1,893.4,753.1,911.4,717.7
	L911.4,717.7L911.4,717.7z M987.8,592.1c-29.7,67.3-104.4,72.5-154,113.8c-9.4,7.9-18.8,15.1-29.2,19.9l-0.5-0.5
	c11.5-10.4,23.9-22.7,32.7-35.6c28.4-41.2,18.9-97.6,40.8-141.3c-19.9,23.8-38.5,48.3-50,75.6c-18.4,43.9-24.7,93.9-66,127.2
	c44.7-14.8,96.3-11.8,136.5-38.2C940.5,685.3,979.8,641.5,987.8,592.1L987.8,592.1z M1019.7,456c-4.3,59.3-67.4,90.9-97.5,139.7
	c-6.4,10.4-13,21.1-22.4,29.6c1.5-6.3,6.6-11.9,9.5-18.1c9.7-20.9,14-45.1,11.6-70c-2.9-30.3-15.6-58.4-10.7-90.2
	c-25.9,56-17.6,126-32.6,186.5c-3.3,13.4-11.5,25.1-16.5,37.8c25.5-19.4,58.9-36.6,86.9-58.6c27.1-21.3,50.5-46.3,62.7-78.8
	C1019.5,510.3,1021.8,482.4,1019.7,456L1019.7,456L1019.7,456z M1017.9,346.8c-3-13.2-5.4-26.9-11.1-39.1
	c10.9,55.9-26.3,96.3-39,144.7C963,470.7,961.3,490,954,507c-0.7,0.4-1.3-0.3-1.7-0.9c18.4-51.5-8.5-99.1-34.8-139.7
	c-6.9-10.7-10.2-23.1-13.4-35.6c-2.8,23.3,2.1,50.3,6.4,74.3c5.6,31,16.1,60,24.5,89.9c5.5,18.7,4.1,39.7,1.2,59.3l2.7-2.1
	c19.5-36,58-64.2,69.6-103.5C1017.9,417.3,1024.3,381,1017.9,346.8L1017.9,346.8L1017.9,346.8z M997.3,286.6
	c0-42.3-16.5-76.8-41.2-108.3c-0.7-0.4-1.2-1.1-2.2-0.9c27.2,41.4,2.4,93.6,5.9,140.6l3.6,48.2c-0.5,0.4-0.5,1.8-1.8,1.2
	c-1.6-5.4-2.1-11.1-3-16.6c-6.6-38.8-40.7-65.9-69.6-93.3c-6.8-6.5-11.9-14.2-15.1-22.4c2.4,19.3,7.8,39.2,16.5,56.8
	c22.3,45.1,65.3,81.5,73,132.7C967.2,375.4,997.3,338.9,997.3,286.6L997.3,286.6L997.3,286.6z M925.6,143.9
	c-13.7-15.2-29-27-47.3-31.7c35.4,24.4,33.5,67.9,44.4,104.4c4,13.3,9.8,25.8,12.9,39.6l-0.9,0.7c-5.9-15.6-16-30.5-29.2-43
	c-24.9-23.5-62.4-37.8-74.8-72.2c0.6,47.8,41.3,84.2,78.5,112.3c16.7,12.6,30.9,29.5,39.5,47.3c-1.4-13.2-2.1-24.2-0.9-37.1
	C951.7,222.5,954.2,175.6,925.6,143.9L925.6,143.9L925.6,143.9z M781.7,63.5c26.3,23.1,43.9,52.8,64.1,79.5
	c16.8,22.2,39.9,36,59.7,54.6c-10.7-22.2-12.7-47.7-26.3-69.2C856,91.7,817.5,77.5,781.7,63.5L781.7,63.5L781.7,63.5z"/>
<path class="st0" d="M683.6,142.4c-19.1-14.3-39.9-25.5-39.9-25.5s-31.2-8.9-50.6-11.1c-19.4-2.2-48.9-2.1-48.9-2.1
	s36.8,8.7,50.2,14s40.3,18.5,40.3,18.5s32.3,11.2,46.3,18c14,6.9,40.9,23.1,40.9,23.1S702.7,156.6,683.6,142.4L683.6,142.4z
	 M519.1,104.9c0,0-27.5,2.6-49.8,9c-22.3,6.5-41.1,15.2-41.1,15.2s31.6-4.9,44-5.8s47.7,0.8,47.7,0.8s19.4-1.7,37-1
	c17.7,0.7,52.7,6.8,52.7,6.8s-26.9-12.4-40.7-16C555,110.3,519.1,104.9,519.1,104.9L519.1,104.9z M519.1,100c0,0,29.1-2.1,46.5-1.4
	c17.4,0.6,53.1,6.4,53.1,6.4s-26.8-11.4-49.8-16.9c-23-5.4-49.4-7.8-49.4-7.8s-25.8,1.2-54.7,9c-28.9,7.9-45.7,15.6-45.7,15.6
	s32.8-5.6,50.6-6.2C487.5,98.2,519.1,100,519.1,100L519.1,100z"/>
<path class="st1" d="M825.2,340.6c-3-23.6-10.5-49.9-10.5-49.9s-12.7-23.9-24.6-39.5c-11.9-15.5-34.6-38.3-34.6-38.3
	s21.4,34.1,26.9,47.5c5.5,13.3,14,39.9,14,39.9s17.3,33.9,22.1,48.7c4.8,14.9,9.7,41.1,9.7,41.1S828.2,364.2,825.2,340.6
	L825.2,340.6z M739.3,197.3c0,0-21-18-41.1-29.5s-40.7-17.7-40.7-17.7s25.4,18.9,34.6,27.2c9.3,8.3,33.8,34,33.8,34
	s14.7,12.8,26.4,25.9c11.8,13.2,30.2,38.4,30.2,38.4s-8.3-23.7-15.2-36.2C760.4,226.9,739.3,197.3,739.3,197.3L739.3,197.3z
	 M739.1,191.8c0,0,25.4,21.6,37,34.6c11.7,13,32.3,42.6,32.3,42.6s-11.7-26.8-23.7-47.1c-12.1-20.3-32.5-45.7-32.5-45.7
	s-13.6-12.5-39.4-27.9C687,132.9,667,125.4,667,125.4s28.9,21,41.7,33.4C721.4,171.2,739.1,191.8,739.1,191.8L739.1,191.8z"/>
<path class="st0" d="M851.2,412.1c0,0-0.4-24.1-8.5-53S826.6,314,826.6,314s5.2,29.4,5.9,47.1c0.7,17.8-0.8,51.2-0.8,51.2
	s2.1,27.2,1.6,44.6s-6.1,53.1-6.1,53.1s11.3-26.9,16.6-49.9C849.1,437.3,851.2,412.1,851.2,412.1L851.2,412.1z"/>
<path class="st0" d="M826.7,410.6c0,0-2.7-23.8-9.3-46s-15.5-42.7-15.5-42.7s5,29.6,6,42s0.6,51.7,0.6,51.7s0.7,15.4,0.1,33
	c-0.6,17.7-6.7,55.9-6.7,55.9s12.4-30.1,16-44C821.5,446.6,826.7,410.6,826.7,410.6L826.7,410.6z"/>
<path class="st0" d="M815.5,535.3c0,0,8.7-31.2,10.8-50.7c2.1-19.4,1.8-49,1.8-49s-8.5,36.8-13.7,50.3
	c-5.2,13.4-18.3,40.4-18.3,40.4s-11,32.4-17.8,46.4c-6.8,14.1-22.8,41-22.8,41s20.6-19.3,34.7-38.5
	C804.3,556.2,815.5,535.3,815.5,535.3L815.5,535.3z"/>
<path class="st0" d="M184.4,413.4c0,0,1.1,24.1,9.1,53s15.9,45.9,15.9,45.9s-5.9-30.2-6.5-48s1.8-51.2,1.8-51.2s-2.8-27.2-2.2-44.7
	c0.6-17.4,6.2-53.1,6.2-53.1s-11.4,26.8-16.8,49.8C186.6,388.3,184.4,413.4,184.4,413.4L184.4,413.4z"/>
<path class="st0" d="M209,415c0,0,2.6,23.8,9.2,46c6.5,22.2,15.3,42.8,15.3,42.8s-4.9-29.6-5.9-42c-0.9-12.4,0.4-50.1,0.4-50.1
	s-1.4-17-0.8-34.7c0.6-17.7,6.9-55.9,6.9-55.9s-12.5,30.1-16.2,44C214.3,379.1,209,415,209,415L209,415z"/>
<path class="st0" d="M220.6,290.3c0,0-8.8,31.2-11,50.6s-1.9,49-1.9,49s8.6-36.8,13.9-50.2c5.3-13.4,18.4-40.4,18.4-40.4
	s11.1-32.3,17.9-46.4c6.9-14,23-40.9,23-40.9s-20.6,19.2-34.9,38.3C231.8,269.5,220.6,290.3,220.6,290.3L220.6,290.3z"/>
<path class="st1" d="M280.6,613.6c0,0-20.6-34.1-26.1-47.4c-5.5-13.3-14.9-39.9-14.9-39.9s-16.5-33.9-21.3-48.7
	c-4.8-14.9-10.5-41.1-10.5-41.1s0,25.9,3,49.5s9.7,49.9,9.7,49.9s13.6,23.9,25.5,39.5C257.8,590.8,280.6,613.6,280.6,613.6
	L280.6,613.6z M296.8,629.1c0,0,21,17.2,41.1,28.7s40.7,18.5,40.7,18.5s-25.4-18.9-34.6-27.2c-9.3-8.3-33.8-34-33.8-34
	c-13.8-12-13.9-11.9-26.4-25.9c-11.8-13.2-30.2-38.3-30.2-38.3s9.1,23.7,16.1,36.2C276.5,599.6,296.8,629.1,296.8,629.1L296.8,629.1
	z M297,634.7c0,0-25.4-21.6-37-34.5c-11.7-13-32.3-42.6-32.3-42.6s11.7,26.8,23.8,47.1s30.9,43.3,30.9,43.3s15.2,15,41,30.3
	s46.6,22.8,46.6,22.8s-29.7-21-42.5-33.3C314.7,655.3,297,634.7,297,634.7L297,634.7z"/>
<path class="st0" d="M494.6,723.6c0,0-37.7-9.3-51-14.8c-28.2-11.6-40.3-17.7-40.3-17.7c-27.5-9.5-27.5-9.2-47.1-18.8
	c-14-6.9-40.1-23.1-40.1-23.1s19.2,20.7,38.3,34.9c19.1,14.3,39.9,25.5,39.9,25.5s31.2,8.9,50.6,11.1
	C464.2,723,494.6,723.6,494.6,723.6L494.6,723.6z M517.2,721.6c0,0,29.1-3.4,51.4-9.9c22.3-6.5,39.5-14.4,39.5-14.4
	s-30,4.9-42.4,5.8c-12.4,0.9-47.7,0-47.7,0s-19.4,0.9-37,0.2c-17.7-0.7-53.5-5.9-53.5-5.9s27.7,11.5,41.5,15.2
	C482.9,716.2,517.2,721.6,517.2,721.6L517.2,721.6z M568.2,727.7c-17.8,0.6-49.4-1.2-49.4-1.2s-29.1,2.1-46.5,1.5
	s-53.1-6.3-53.1-6.3s26.8,11.4,49.8,16.8c23,5.4,49.4,7.8,49.4,7.8s25.8-1.2,54.7-9.1c28.9-7.9,45.6-15.7,45.6-15.7
	S586,727.1,568.2,727.7L568.2,727.7z"/>
<path class="st1" d="M719.1,649.9c0,0-33,20.6-46.2,26.3s-40.8,14.5-40.8,14.5s-26.7,14.9-41.5,19.9s-49.3,12.5-49.3,12.5
	s28.2,1.1,51.8-2.2s46.3-10.1,46.3-10.1s28.3-15.7,43.7-27.8C698.3,670.9,719.1,649.9,719.1,649.9L719.1,649.9z M736.1,631.3
	c0,0,17.7-21.2,28.9-41.5s17.6-39.8,17.6-39.8s-18.2,25.8-26.3,35.1c-8.1,9.4-32.8,32.3-32.8,32.3S709.3,633,696.3,645
	s-42.1,34.8-42.1,34.8s27.7-12.6,40.2-19.8C706.8,652.9,736.1,631.3,736.1,631.3L736.1,631.3z M775.4,600.8
	c-12.2,13-35.8,34-35.8,34s-19.1,22-31.9,33.8c-12.8,11.9-42.1,32.9-42.1,32.9s27.1-10.8,47.2-23.2c20.1-12.4,40.5-29.3,40.5-29.3
	s17.4-19,32.4-45c14.9-26,20.5-43.3,20.5-43.3S787.6,587.9,775.4,600.8L775.4,600.8z"/>
<path class="st1" d="M443.8,105.8c-23.6,3.2-48,9.8-48,9.8s-26.8,15.5-42.2,27.6c-15.4,12-36.3,32.9-36.3,32.9s33.1-20.4,46.4-26
	s40.9-15.1,40.9-15.1s26.8-13.9,41.6-18.8c14.8-4.9,49.4-12.2,49.4-12.2S467.4,102.7,443.8,105.8L443.8,105.8z M299.4,194.5
	c0,0-17,21.9-28.3,42.2c-11.3,20.2-17.8,38.9-17.8,38.9s18.3-25.6,26.5-35c8.2-9.3,33-32.1,33-32.1s14.2-16.4,27.3-28.3
	c13-11.8,39.9-31.2,39.9-31.2s-25.4,10-37.9,17.1C329.6,173.2,299.4,194.5,299.4,194.5L299.4,194.5z M296.8,191
	c0,0,19.3-21.8,32.1-33.6c12.9-11.8,41.5-32.7,41.5-32.7s-26.3,10.6-46.5,22.9c-20.2,12.2-40.7,29-40.7,29s-16.8,18.9-31.9,44.8
	s-21.6,43.2-21.6,43.2s18.7-27,30.9-39.9C273,211.9,296.8,191,296.8,191L296.8,191z"/>
<g>
	<g>
		<defs>
			<path id="SVGID_1_" d="M693.6,216c-0.1,0-0.1,0-0.2-0.1c-0.1-0.1-0.1-0.1-0.2-0.2C693.3,215.8,693.5,215.9,693.6,216L693.6,216z"
				/>
		</defs>
		<clipPath id="SVGID_2_">
			<use xlink:href="#SVGID_1_"  style="overflow:visible;"/>
		</clipPath>
		<g class="st2">
			
				<image style="overflow:visible;enable-background:new    ;" width="3" height="3" xlink:href="1E42F3C6750D3BF7.jpeg"  transform="matrix(0.2419 0 0 0.2419 693.0423 215.5312)">
			</image>
		</g>
	</g>
</g>
<g>
	<g>
		<defs>
			<path id="SVGID_3_" d="M397.3,177.8h0.1C397.4,177.8,397.4,177.8,397.3,177.8C397.4,177.8,397.3,177.8,397.3,177.8L397.3,177.8z"
				/>
		</defs>
		<clipPath id="SVGID_4_">
			<use xlink:href="#SVGID_3_"  style="overflow:visible;"/>
		</clipPath>
		<g transform="matrix(1 0 0 1 -3.051758e-05 0)" class="st3">
			
				<image style="overflow:visible;enable-background:new    ;" width="3" height="3" xlink:href="1E42F3C6750D3BF5.jpeg"  transform="matrix(0.2419 0 0 0.2419 397.2767 177.0635)">
			</image>
		</g>
	</g>
</g>
<path class="st1" d="M623.6,532.4c-3.6-1.7-3.1-5.6-8.1-7.1c-0.6-0.1-2-0.2-1.9-1.5c-1.8,0.2-2.7-2-4.6-2c-3.5,0.2-8.1-1.2-10.6-2.9
	c0,0,0-0.1,0-0.2c-0.1,0-0.2,0-0.3-0.1s-0.3-0.3-0.5-0.4c0.1,0.1,0.3,0.2,0.3,0.3c-0.6-0.2-2.2-0.7-2.7-1.2c-1.1,0-2.8,0.2-4.3,0.1
	c-0.7-0.3-2.2-2.3-4.1-2.9c-0.4-0.1-1.8-0.1-1.9-0.7c-2.1,0.2-3.9,3.2-5.4,3.8c-2.3,0.6-2.6,0.9-3.9,2.1c-0.2,0.3-1.8,2.7-3,2.7
	c-0.7,0-3.2-2.6-3.2-3.1c-1.1,0-2.4-0.8-2.4-1.4c0-2.1,0.1-3.8,0.1-5.7c-3-0.6-5-3.1-7.8-3.1c-2.9,0.2-4.1,2.9-6.1,2.8
	c-0.7,0.1-2.3,0.7-2.3,1.5c0,2.2,3.8,1.2,5,3.4c0.1,0.4,0.6,1.4,1,1.4c0.6,0.2,1.7,0.4,2.3,0.4c1.9,0,2.9-0.2,4.8-0.7
	c0.3,0,0.9,0,1.2,0c-1.3,1.9-6,1.9-8.4,2.8c0.3,1,2,0.6,2.9,1.8c0.7,1.3-0.1,1.7,0.7,3.4c0.1,0.4,1.3,0.5,1.6,0.4c1,0,2-1.5,2.5-2.9
	c0,0.4,0,1,0,1.4c2.7-0.8,3.5,3.1,5.9,3.1c2.6-0.1,6.9,0.7,8.7,1.3c1.7,0.7,5.9,2.3,6.6,4.1c0.7,2.4-0.3,4.5,1.8,6.5
	c-0.7,0.4-4,1.4-4.1,3.2c0,1,1.4,1.2,2.5,1.1c0.9,0,2.2,0,3.3-0.1c0.1-0.6,1.9-1,2.4-1c4.1-0.1,4.9,4.4,9,4.2c2.1,0.1,4,0,5.9-0.3
	c0.1-0.9,1.5-1.6,1-3.6c2.3-1.3,2.1-3.8,5.9-4c5.2-0.2,7.5,3.7,10.4,6.5c0.2,0.3,1.5,0.6,1.4,1.1c0,1.7,3.2,2.9,5.4,3.3
	c1-0.1,2.5-0.2,3.8-0.3c0.2,0.3,2.4,1.6,2.6,1.5c0.3,0,0.6-0.1,0.9-0.1c0.1-0.9,1.2-1.7,2.1-2.5c-0.4,0-2.6,0.3-2.9-0.4
	c-0.3-0.5-0.5-1.4-1.3-1.6c-0.5,0-1.5,0.4-1.8-0.2c-0.2-0.5-0.7-1.5-1.1-1.5c-0.9,0-2.8-0.6-3.1-1.2c-1.2-1.7-0.7-2.7-2.1-4.1
	c-0.2-0.2-2.6-2.8-2.6-3.4c0.2-1.1,2.9-0.9,3-2.6C628.3,531.1,625.1,533,623.6,532.4L623.6,532.4z M631.6,294.4
	c-0.5,0-1.5-0.1-2.3-0.2c-1.9-0.1-3.1,2.5-3.1,2.5c-0.1,0.2,0,0.5,0,0.6c2.3,0.1,1.9-2.3,5.4-2.1C631.6,295,631.7,294.6,631.6,294.4
	L631.6,294.4z M618.1,300c-0.3,0.3-0.3,1.1,0.1,1.1c1.3,0.1,3.1-1.8,3.7-2.4c-0.1-0.1-0.4-0.3-0.6-0.4
	C620.3,298.4,618.6,299.3,618.1,300L618.1,300z M598.4,264.8c0.1,1.7,2.5,2.2,2.6,4c0.3,2,0.3,4.1,0.5,6.4c0.1,1.3-0.7,1.7-0.6,3.3
	c0.1,1.4,1.1,1.5,1.2,3.1c0.1,1.6-0.5,3-0.3,5c0,0.5-0.2,3.2,0.2,3.3c2,0.1,1.7-2.2,3.6-2.2c0.4,0.1,1.1,0.1,1.6,0.1
	c0.2,0.3,1.1,1.3,1.6,1.2c0.1,0.1,0.4-0.2,0.5-0.1c-1.3-2-4.7-3.4-4.9-6c-0.2-2.9,0-6.3,4.2-6.1c1.1,0.1,2.5,0.8,3.3,1.6
	c-1.2-2.7-3.3-5-4.7-7.7c-0.4-0.5-1.5-1.9-1.3-3c0-0.8-0.2-1.5-0.2-2.5c-1.1-1.5-0.1-2.5-0.8-4c-0.8-1.4-2.1-2.7-2.2-4.9
	c-0.3,0-0.8,0-1.1-0.1c0.1,0.7,0.1,1.5,0.2,2.2c0,0.5-0.6,0.7-0.5,1.3C598.9,259.8,598.2,262.6,598.4,264.8L598.4,264.8z
	 M621.5,298.3c-0.1,0-0.3-0.2-0.5-0.2c0.1,0,0.2,0.1,0.2,0.2C621.4,298.4,621.5,298.3,621.5,298.3L621.5,298.3z M567.5,535.8
	c0,0.7-1.7,1-1.7,2.6c0,0.4,0.6,1.2,0.9,1.2c1-0.1,1-1.7,1.1-3.3c0.6,0,1.3-0.9,1.3-1.6c0-0.9-0.3-0.4-0.6-1.7
	C567.6,533.3,567.5,534.7,567.5,535.8L567.5,535.8z M544.6,347.2c0,0.5,1.1,1.6,1.7,1.6c0.4,0,1.4-0.4,2.1-0.5c-0.3-0.3,0-0.9,0-1.3
	c0.2,0.5,0.3,1.6,1.4,1.9c-0.2,0.5-0.5,1.5-0.7,2c0,0-1.7,2-1.7,2.2c0,0.4,1,2.2,2.4,2.3c0-0.2,0-0.6,0-0.9c0,0.3,0.2,1.3,0.5,1.3
	c2.4-0.1,3.7-4.4,4.2-6.9c0.4,0.2,1.2,0,1.5,0c-0.2-0.4,0-1.1,0-1.4c-0.3-0.3-1.1-0.9-1.5-1.2c-0.3-0.1-0.1-1.1-0.2-1.4
	c-1.9-0.3-3-1.3-4.4-1.2C549.5,343.8,544.7,346.6,544.6,347.2L544.6,347.2z M560.3,348.6c2.3,0,2.5-2.1,4-3.5c0.4,0.1,1.2,1.1,2.6,1
	c1.6,0.1,3.7-4.7-0.1-4.9c-2.4,0-2.8,2.4-5.7,1.6c0,0.1-3.2,2.1-3.2,2.1c0.1,0.5,0.3,1,1.4,1.6C559.2,347,559.7,348.5,560.3,348.6
	L560.3,348.6z M546.6,559.6c0.5,0.5,2.9,1.3,4.9,1.3c0.4-0.1,1.2,0,1.6,0c0-0.6,0.1-1.5,0-2.1C550.7,558.7,549.6,558.9,546.6,559.6
	L546.6,559.6z M641.7,605.1c-2.2-1.9-7.2-3.1-6.8-8.1c-1.9,0.2-4,0.6-4.5-1.1c-0.3-1.6-0.4-3.9-1.9-5.3c-2.4-2-8.3-2.4-9.4-5.4
	c-0.9-3.2-1.9-4.7-3-8.1c-0.5-2.1-0.2-6.2-2-7.3c-0.5-0.2-3.4-0.8-4.9-1.1c-1.7-1.2-0.7-3.4-1.2-5.4c-0.8-2.6-2.5-4.8-2.9-8.7
	c-2.8,1.4-2,3.2-4.7,5c-0.3,4.1-0.5,8.3-0.8,12.3c-1,3.3-2.3,10.8-7.2,11.3c-3,0.2-3.5-2.7-5.7-3.3c-3.9-1.1-6.1-1.7-10.4-2.8
	c-0.5,0-0.5-2.1-1.5-2.6c-0.8-0.3-3.1-0.1-3.1-1.2c0.7-2.5,1.4-4.6,2.2-6.9c1.3-0.9,3.6-1.1,3.8-2.9c0-0.9-2.4-2.5-3.1-2.4
	c-1.8,0.2-2.4,1.1-4.5,1.3c-5.9,0.1-8.9-1.6-14.4-3.5c0.3,1.7,1.8,1.9,2.8,3.2c-0.4,0.1-1.8,1-3,1.1c-2.8,0-9.2,1.5-9.3,3.4
	c0,2.1-2.5,3-2.5,4.9c0,1,0.4,2.1-0.5,3.5c-0.2-0.2-1.8-1.1-2.4-1.1c-1.1,0-2.7,0.6-3.6,1.6c-0.3-2.6-1.8-5-4.8-5.2
	c-3.5,0.2-4.2,2.7-8.7,2.9c-0.4,3-3.5,3.6-3.6,7.5c-1,0-2.1-0.5-3.4-1.1c-0.8,1.5,0,3.4-1.8,4.5c-0.6-0.7-1.6-1.4-2.4-2.7
	c-1.7,0.7-2.1,2.1-2.1,3.4c0,0.7,0,1.6,0,2.3c-0.2,4.5-12.9,8-18.8,8.7c-3,0.3-8.6,0.5-10.6,1.9c-1.7,1.4-5.1,4.2-8.1,4.6
	c-0.1-0.4-0.2-0.9-0.2-1.3c-0.5,0.2-1.6,0.4-1.7,1.5c0.1,2.5,0.2,4.9,0.3,7.2c0.2,3.1,2.1,4.6,2.2,6.4c0.1,0.6,0.5,1.1,0.1,1.5
	c-0.5-0.2-1.1-1.1-1.5-1.6c-0.3,0.6-0.6,1.1-0.8,1.5c-0.5,1.8,2.4,2.5,3.3,4.2c2.3,4.7,2.7,6.1,4.8,11.2c0.9,2,3.2,3.8,3.4,7
	c0.2,2.5-3.2,3.1-3.2,4.6c0.2,1.5,7.3,3.9,9.9,4c6.9,0.2,8.7-3.1,14.1-3.1c1.8-0.1,1.7-0.8,4.2,0.1c3.4,0.1,5.9-0.4,9-0.7
	c1.5-5.3,10.6-3.5,18.5-5.5c3.4-0.9,4.4-2.5,9.9-2.8c5.1-0.1,13.6,0.6,16,2.6c1.1,1.1,4,5.9,5,6c0,0-0.8,1.8,1,1.8
	c3.2-0.2,7.3-5.7,10.1-7.9c0,1.7-1.2,6.8-5,7.7c0,0.6,0.7,1,1.4,0.9c2.2-0.2,2.4-1.9,3.9-2.5c-0.1-0.3,0.3-0.7,0.4-1
	c0.5,0.4,1.3,0.7,1.2,1.9c-0.2,1.1-0.7,1.5-1.2,2.3c0.5-0.1,1.2-0.1,1.7-0.1c1-0.3,1.9-0.4,3-0.9c0,0.2,0.1,0.3,0.1,0.5
	c0.1,1.3,1.7,2.2,1.5,3.8c-0.4,4,8,5.4,13.5,4.8c3.3-0.4,2.7-2,5.8-2.7c0.1,0.7,5.3,1.9,6.3,1.8c2.2-4.5,12.3-4.2,14.9-8.7l0,0
	c0.8-3.2,4-6.6,5.6-9.1c1.9-3.5,4.5-4.7,7.5-8.1c0.7-0.9,0.5-1.3,1.3-2.2c0.3-1,0.4-2,0.5-2.9c1.4-1.3,2.8-4.5,3.2-7
	c0.7-3.3,0.2-9.2-1.6-11.4C641.6,605.4,641.7,605.2,641.7,605.1L641.7,605.1z M481.7,546c-0.4-0.1-1.1,0-1.5,0c0,0.4,0,1.1,0,1.6
	c0.1,0.4,1,1.1,1.4,1.1c0.6,0,1.5-0.8,1.6-1.5C482.7,546.8,482.4,546,481.7,546L481.7,546z M571.1,649.1c1.3,0.7,3.4,0.5,5.1-0.4
	C574.1,648.3,574,647.9,571.1,649.1L571.1,649.1z M518.6,455.2c-0.4,2.7-1.6,4-2.4,5.8c0.2,0,0.7,0,0.9,0c0.3-2.3,2.7-3.1,3.1-5.8
	C519.8,455.1,519,455.1,518.6,455.2L518.6,455.2z M517.8,461.3c0,0.2,0.7,0.8,1,0.8c1.6,0,3-1.3,3.3-3c-0.5,0.4-1.7,0.2-2.3,0
	C519.2,459.7,517.9,460.6,517.8,461.3L517.8,461.3z M624.9,646.3c0,0.1,0,0.1,0,0.2C624.9,646.4,624.9,646.3,624.9,646.3
	L624.9,646.3z M578.1,331.9c-1.1,0.1-2.3,4.1-5.2,4.1c-3.4-0.1-6.8-0.2-10.4-0.2c-4.4-0.3-5.8,3.2-9.4,5.3c-0.5,0.1-2.2,0.6-2.2,1
	s1.1,0.7,2.4,0.6c3.6,0.1,6.5-0.9,8.8-1.8c1.1-0.3,2.3,0.3,3.7-0.4c0.4,0,0.6-1.1,1.7-1.1c2.1,0.1,3.1,0.8,5.1,1.3
	c0.1,0.4-0.4,1.7-0.5,2.4c0,0.3-0.3,1,0,1.1c0.9,0,1,1.2,2.4,1.4c0.8-1.3,2.7-3.5,3.9-3.5c0.4,0,1.2-0.1,1.7-0.1
	c-0.1-0.1-1.6-1.9-1.7-2.3c0-0.3,0.6-1.1,1-1.1c1.1,0,1.4,2.3,4.9,2.5c1,0,2.2-0.7,3.3-1.6c0.4,0,1.2,0,1.7,0c0,0.2,0.6,0.6,0.8,0.7
	c0.7-2.1,2-2,4.3-3.2c-0.1,0.8-0.7,1-0.1,2.2c2-0.6,2-1.9,3.8-2.6c-0.3-0.6-0.8-1.4-0.9-2.6c0-1.8,1.6-2.5,1.6-3.8
	c-0.1-1.5-0.7-5.6,0.9-6.1c0.4-0.1,1.1,0.1,1.5-0.2c0-0.2,0-0.6,0-0.8c0-1.7,2.1-1.8,2.1-4.1c-0.2-1.8-2.3-2.8-2.4-4.7
	c0-0.8,0.1-1.7-0.4-2.7c-0.2-0.3-0.8-0.7-2-0.7c-0.4,0.1,0,1.2,0.4,1.2c0.1,0.1,0.4,0.1,0.5,0.2c-1.9,1.2-1.9-0.4-2.1-0.5
	c-2.1-0.1-3.6,3.2-3.5,4.8c0,0.5,0.7,0.9,0.7,1.6c0.2,4.2-5.1,9.7-8.6,10.6c-1.9,0.5-2.2,1.8-4.7,1.8c-0.2,0-0.8-0.5-0.8-0.7
	c0-0.4,0.4-1.2,0.8-1.5C580.5,328.6,578.3,331.9,578.1,331.9L578.1,331.9z M615.5,657.8c0.1-0.6,0.4-0.7,0.7-1.6
	c-0.4,0.2-1.1,0.2-1.7,0.3C614.4,657.4,614.3,657.6,615.5,657.8L615.5,657.8z M507.5,442.8c0.2,0.2,1.5,0.1,1.8,0
	C509.1,442.6,507.8,442.8,507.5,442.8L507.5,442.8z M536.6,522.7c0,0,2.5,0.6,2.9,0.6c0.9,0.1,2.5-0.1,3.8,0
	c2.4-0.1,3.4,1.5,5.7,1.5c0.2,0.1,0.9-0.1,1-0.3c0-1-1.7-1.5-1.9-2.8c-0.1,0-0.4,0.1-0.5,0.2c-0.7,0.1-2.1,0.5-2.4-0.6
	c-2.5,0-4.9,0-7.4,0.1C537.5,521.4,536.6,522.1,536.6,522.7L536.6,522.7z M592.8,305.8c0,0.4,0.9,0.9,0.9,1.4c0.1,0.8,0.1,2,0.1,3
	c0.3,0,0.7,0,1,0c1.4-1.1,2.6-0.5,3.8-1.8c-0.5-0.5-3-0.6-3.1-2c-0.1-2.1,2.6-0.8,4.8-0.7c0-0.3,0.7-0.9,1.1-1c2.8,1.5,4.4,2,7,3.4
	c1.1-1.5,2.1-4.4,5.4-4.3c2.4,0.2,3.5-0.1,4.8-0.9c-0.5-0.2-1.9-1.1-2-1.8c0-0.5,0.6-1,0.9-1.5c-0.8-0.4-2,0.2-3.3,0.1
	c-6.1-0.4-8.2-4.4-12.7-7.1c-0.3,0.3-1,0.9-0.9,1.6c0,0.4,0.8,0.9,0.9,1.3c0.1,1.6-0.7,6.4-3.5,6.5c-0.4-0.1-1.2,0-1.6-0.1
	c0.1,0.1,0.2,0.2,0.3,0.3c-0.3,0-0.9-0.5-1.2-0.7c0.1,0.3,0,0.8,0.1,1C595.3,303.4,592.8,304.3,592.8,305.8L592.8,305.8z
	 M722.2,248.7c-0.5-1.9,1.8-1.1,3.4-0.9c-5.1-6-10.5-11.7-16-17.3c-3-1.4-6-2.8-9.2-4c-3.3-1.2-5.1-1.5-4.5-0.6
	c2.7,3.5-8-3.3-8.8-3.6c-8.1-2.7-16.5-4.8-25.6-7c-2.5-3.3-4.9-4.5-13.2-6.4c-4.6-0.8-19.6-3.7-22.8-5.1c-2.8-1.4-3.1-2.8-7.1-3.8
	c-8.3-2.2-9.5-2.6-20.6-4c-11.2-1.2-14.7,0.1-15.4,2.4c-10.8-1.1-10.4-0.4-17.9-0.9c-4.3-0.3-7.4-1.5-12.4-1.9
	c-0.5,1-1.1,2.6-3.6,2.5c-3.7-0.2-6.1-1.7-8.7-3.1c-1.8-0.9-4.5-1.4-4.6-2.2c0-1.3,4.9-1.4,3.5-2.1c-2-0.7-6.8-1.3-15.6-1.7
	c-1.6,0-7.1,0.2-7.8,0.6c-0.9,0.6,3.3,1.4,3.3,2.4c-8-0.6-15.6-0.8-23.6-1.1c-0.9-0.1,5.6-0.8,2.2-1.5c-3-0.1-9.9,0.3-12.9,0.3
	c-4.7-0.1-6.7,1.1-10.5,1c-4.6-0.1-6-0.2-7-0.8c-14.5,4.4-23.1,4.2-23.1,4.2c3.3-1.7,28.1-5.9,31.3-8.3c1-0.8,1.7-1.8-0.9-2.8
	c-0.3,0.1-2,0.9-2.4,0.9c-1.6-0.3-2.4-1.7-5.9-1.7c-5.6,0.8-10.9,1.5-16.5,2.3c-1-1.3-3.6-2-9.7-1.2c-7.1,0.8-9.4,2.1-13.3,3.7
	c-2.9,1-19.8,6.5-18,3.7c-4.4,1.3-22.1,5.4-32.2,10.9c-0.9,0.6-1,2.2-1.8,3c-1,0.8-2.9,0.7-4.3,1.1c-3,0.8-13.2,3.2-17.4,5.5
	c-1.4,0.8,0.1,1.3-0.2,2.1c0,0.7,6.3-0.7,7.1-0.1c0.1,0.3-7.2,1.2-7.3,1.5c-1.7,0.8-2.7-0.3-5.7,0.6c-2.1,0.7-5.8,3-8.7,4.2
	c-0.5,0.5,2.7-0.5,2.6,0.1c-0.3,0.5,3.8-0.3,3.3,0c-1.1,0.6-7.7,1.9-8.1,2c-1.2,0.3,2.5-2.8,1.2-3.4c-1.3,1.5-3.5,3.2-6.1,4.7
	c-0.3,0.2-0.5,0.3-0.8,0.5c0,0.1,0,0.1,0.1,0.2c0.4,1.1,2.5,0.9-1.1,3.6c-0.2,0.2-0.5,2,0.5,1.7c1.2-0.3,5.1-2.6,6.8-2.6
	c0.1-0.1,3,0,3.7,0.5c1.5,0.6-0.5,1.4-1.1,1.4c-0.4,0.3-0.9-1.6-2.1-1.3c-2.6,0.8-6,1.9-6.2,2c-0.7,1.6-0.2,3.4-2.2,4.1
	c-0.1,0.1-1.3,1.4-2.5,2.2c-1.8,1.7-4.6,3-5.6,3.6c-1.4,0.6,1.1-2.2,0.8-2.2c-0.7,0,4.2-3.2,4.4-3.7c0-0.5,1.6-1.4,1.6-2
	c-0.3-0.8-2,0.3-1.8-0.6c0.2-1.2,1.4-2.8,1.8-4c-31.3,29.6-55.7,66.5-70.5,108c0.1,0.4,0.2,0.8,0.1,1.3c-0.3,0.1-0.5,0.2-0.6,0.2
	c-0.6,1.7-1.2,3.4-1.7,5.1c0.1,0.4,0.2,0.9,0,1.6c-0.1,0.7-0.3,1.5-0.4,2.3c-0.1,0.8-0.5,2.5-0.4,2.7c-0.2,0.7-0.3,1.5-0.4,2.2
	c-0.7,0.5-1.3,0.9-1.9,1.1c-2.8,9.9-5.1,19.9-6.8,30.2c0.2,0.5-0.3,1.5,0.1,2.2c0.4,1.2,1.6,0.4,2.3,1.7c0.6,1.2,0.9,2.7,2,3.2
	c2.1-0.4,2.4-0.3,3.5-0.5c0.7-0.8,0.9-2,1.7-2.1c1.6-0.1,1.3,3.6,2,4.9c0.2,0,2.1,1,2.7,0.9c2.1-0.2,5.9,1,7.6,0.9
	c0.2,0,0.2-0.1,0.4,0c0.9,0.1,1,0.1,1.8,0.3c0.2-0.3,0.4-0.7,0.9-1c1,0.4,1.5,0.5,2.4,0.7c1.3,0,2.1-0.9,3.4-1
	c1.4,0,1.8-0.4,2.9-0.1c1.3,0.5,1.6,3.6,2.4,5.4c1,2.1,3.8,4.6,6,4.6c1,0,1.6-0.1,2.5,0.2c-0.5,0.4-0.6,1.9-1.5,2.2
	c-1,0.6-1.7-0.2-2.7,0.7c1.5,2,2.6,6.3,6.1,6.3c2.9-0.1,3.3-3.4,4.9-5.4c0.3,0,0.6-0.1,0.9,0c-0.1,0.5-0.7,1.7-0.7,2
	c0,1.9,1,3.5,1,5.9c-0.1,1.7-0.5,2.2-0.6,4.1c0,0-0.1,0-0.1-0.1c0,0.4,0.2,1.7,0.2,2.1c0.1,2.9,1.1,5.5,1.9,8.4
	c0.8,3.3,1.8,7.6,2.5,9.9c0.5,2,0.6,2.7,1.5,4.7c1.1,1.7,0.4,3.6,1.4,6c0.6,0.9,2.2,2.6,2.8,4.8c1,3.1,2.3,6,3.5,9.6
	c0.2,0.3,0.5,1.5,1.2,1.5c0.2,0.8,0.9,1.7,1.9,1.6c1,0.1,1-1.7,1.5-2.9c0.5-1.5,0.8-0.9,2.3-1.7c1-0.6,0.6-4.3,2.3-4.9
	c0.4,0,1.2-0.2,1.3-0.5c0.2,0,0.4-0.1,0.6-0.1c-0.1-1-0.4-2.5-0.7-3.9c0-2.8,1.3-5.2,1.4-8.9c-0.2-2.4-0.9-5.7-1-8.5
	c0.1-3.1,2.8-2.4,5.1-3.4c0.9-0.2,2.5-2.2,3.5-3.5c2.6-3.2,4.9-6.3,7.8-9.6c2.2-2.7,6.2-3.5,8.9-6.5c1.5-1.6,1.1-3.3,1.8-5.6
	c0.4-1.5,3.4,0.3,4.5-2.2c1.2,0.8,1.1,1.6,3.5,1.6c3.8-0.1,7.8-1.1,8.1-6.1c2.2,0.4,4.8,1.4,5.3,3.7c0.6,2.1,0.3,4.6,1.4,6.7
	c1.2,2.2,2.8,3.5,5,5.3c1.6,2.8,2.7,3,3.7,6.4c0.2,0.6,0.9,1.4,0.9,2.1c-0.1,1.8-0.8,2.6-0.8,4.7s-0.5,3.5,2,3.6
	c4.4-0.1,5.9-4.2,8.7-6.9c0.8,0.7,0.5,1.5,1.4,2.5c0.3,0.2,1.8,0.2,2.1,0.8c1.7,2.5-1.1,7,1,7.2c0.2,5.1,3.3,12.4,3.6,19.5
	c0,1.7-1.2,5.3,0.1,6c-0.1,0-0.4,0-0.5,0s-0.2,0-0.3,0c-0.3,2.3-1.5,4.1-1.4,6.4c0.1,0.2-0.2,0.9,0,0.9c1.6,1,0.5,0,2.1,0
	c2.6,0.2,3.7,5.8,5,8c1.9,3.8,2.3,6.9,3.9,11.6c1.9,5.3,6.6,9.9,11.7,11.8c0.8,0.2,1.1,1.4,2.8,1.5c0.4,0,0.7-0.5,1.1-0.6
	c0.5,0.1,1.6-0.1,2.1-0.1c-0.8-1.9-0.8-2.5-1.6-4.6c-0.8-1.9-3.1-2.8-3.3-5.7c0-1.1,0.5-1.3,0.6-3c-0.2-8-9.8-9.1-14.3-13.5
	c-1.1-1.2-1.4-4-2-5.1c0.1,0,0.3-0.1,0.3,0c0-4.8-4.7-3.1-4.8-8.1c0.1-4.4,2.5-6,2.6-11.2c0-1,1.6-3.3,1.7-4.8
	c-0.1-0.6-0.4-1.8,0.9-1.9c1.7,0.1,3.6,0.3,4.1,2.2c0,0,0.6,2.1,0.8,2.2c2.7,0.9,4.7,1,7,3.5c1.8,2.1,0.2,4.5,3.7,4.6
	c0.2,2.6,3.2,3.4,5.6,3.5c0.1,0.6,0.7,2.3,1.2,2.6c-0.5,0.3-0.6,1-0.6,2.4c-0.1,0.7,0.8,3.3,1.3,3.4c0.5-0.1,3.8-2.5,3.8-4.2
	c0.1-0.3,0.1-0.9,0-1.4c0.1,0.5,0.2,1,0.4,1c2.1,0,1.5-2.6,3.5-3.7c4-2.2,4.5-4,9.9-5.4c-0.1-3.1,2-4.6,1.9-8.6
	c-0.1-5.8-2.9-12-7-14.8c-4-2.8-5.6-7.1-9.4-11.2c-0.4-0.6-1.4-1-1.4-2.6c0.1-7.4,7.8-8.6,11.3-14c3,1.4,2.9-0.5,5.9,1
	c-0.1,0.7,3.5,7,5.1,7.1c2,0-0.1-2.4,1.3-3.8c1.2-1.1,4.6-1.7,6-2.3c3.3-1.5,7.6-0.1,9.9-2c0,0,1.9-3,2.1-3.1c1.8,0,0.2-0.7,1.8-0.8
	c8.3,0,10.7-4.5,15.6-7.2c1.1-0.4,2.3-1.3,2.6-2.9c4.3-0.1,5.4-5.9,7-9.1c1.1-1.8,5.8-8.3,8.4-8.9c0-3.6,2.6-5,2.6-9.8
	c0-6.8-1.6-7.3-4.8-11.6c-0.4-0.6-0.5-2.6-2.1-3.5c0.1,0,0.1-0.1,0.2-0.1c-0.1,0-0.3,0.1-0.4,0c0-0.8-0.1-2.1-0.2-3
	c-1-0.2-4.6-1.8-4.6-3.9c0.1-1.9,4.3-2.7,5.1-4.5c1.7-4.2,6.9-0.9,10.5-4c-1.5-1.6-3.9,0-6.4-1.4c-0.9-0.5-1.8-3.3-3.7-3.4
	c-1,0.2-1.7,4.9-2.4,5c-1,0-3.1,0.4-4.5-0.3c-2.1-1.5-1.3-4.3-3.4-5.5c-0.5-0.3-3.5-0.7-3.5-2c0.2-2.4,4.9-1.8,7.3-2.9
	c2.1-1.1,6-2.9,7.4-4.5c0.3-0.3,1-1.5,2.7-1.5c1,0.1,3.2,1.7,3.2,2.2c0,1.9-3.1,2.6-3.3,4.9c4.9-0.1,7.4-3.9,12.9-4
	c2,0.1,2.8,1.1,5.4,1.3c-0.7,0.9,0,1.2,0,2.6c0,0.9-1.8,1-1.8,2.5c0,0.5,0.5,2.1,1.7,2c0.4,0,1.1-0.6,2.4-0.6c2,0,4.5,2.8,4.6,4.6
	c0,0.9-1.3,2-2.7,2c0,0.4,0,1.2,0,1.6c0.2,0.3,0.9,1,1.7,1.1c0,0.7,0.8,1.9,0.9,2.7c0,0.4-1.5,2.4-1.5,3.6c0,0.5,0.2,1.5,0.8,1.6
	c-0.1,0.6-1,1.4-1,2c0.6,0,1.9,0,2.5,0c0.8-0.7,1.3-0.9,3.4-1.4c0-1.1,4.2-1.6,5.2-1.8c2.5-0.7,3.3-2.2,3.3-5.9
	c-0.1-6-2.6-10.9-6.4-13.5c-1.4-1.4-3.2-2.2-2.9-4.2c2-0.1,3.6-0.9,5-1.7c0.9-0.7,4.1-1.9,4.8-2.9c2.2-3.3,8.8-7.9,12.8-10.1
	c0,0,0.5,3.2,5.7,3.4c9.4,0,17.4-13.1,23.6-17.4c2.5-1.7,5.7-4.9,6.5-7.8c0.8-3-0.4-4.3,1.7-7c0.8-1.1,2.5-3.3,2.3-5.6
	c-0.3-3-5.8-10.1-8.9-9.3c-9,2.8-14-2.7-14.1-3.1c0.1-2.3,6.4-6.4,9.5-7.9c4.6-2.1,15.4-6.8,21.8-7.2c5.7-0.2,21,1.7,25.6,2.2
	c5.6,1,8.4,2.3,11.7,2.9c2.5,0.3,4.9,0.6,7.3,1c1.3-4.6,1.8-8.1,10.6-6.7c2.2,0.5,3.1,0.2,7.4,1.4c-1.8,0.5,2.3,6.8,11.4,0
	c0.3,0.1,2.6-0.2,3.4,0.4c1.4,0.5-0.5,0.8-0.6,1.9c0,1.3,1.6,3-1.9,3.7c-3.2,0.7-6.6-0.7-8.6,1c-2.5,2-4.3,4.5-8.3,5.3
	c-3.3,0.7-7.9,1.7-7.4,5.6c0.5,3.2,3.9,14.1,8.2,16.9c2.4-2.3,3.7-6.9,9.4-7c-1-2.6,4.9-2,4.7-3.9c-0.1-1.4,2.2-2.6,3.3-4.3
	c0.8-1.5,0.1-3.4,0-4.2c-0.2-1-3.9-0.1-3-1.7c2.2-3.3,4.7-4.8,7.5-5.4c1.9-0.3,3.7,1.3,5.5,1.6c1.7,0.4,3.1-0.4,4.5-0.1
	c3.4,0.7,5.7,2.2,7,2.6c6.1,1.4,10.2-3.2,17.4-0.8C733.4,255.8,722.8,249.6,722.2,248.7L722.2,248.7z M682.5,545.3
	c-0.1,0.7,0.4,2.8,1.8,2.7c0-0.2,0-0.6,0.1-0.8C684.6,546.2,683.5,545.9,682.5,545.3L682.5,545.3z M473.6,188.9
	c-0.1,0-0.2,0.1-0.3,0.1c0,0-0.1,0.1-0.2,0.1C473.2,189.1,473.4,189,473.6,188.9L473.6,188.9z M707.5,623c-0.8,0,0-0.1-0.7-0.8
	c-1.4-0.9-2.2,0.1-2.9-0.9c-0.1,1.7,0.2,3.9,2.3,3.3c-0.2,0.2-0.4,0.7-0.6,0.9c-0.1,0.4,0,0.4,0.2,0.5c0.4-0.3,0.7-0.7,1-1
	c-0.2-0.4-0.2-0.9,0-1.2C707,623.4,707.3,623.3,707.5,623L707.5,623z M678.2,538.1c0.1,1,2,4.3,3.4,4.1
	C681.2,540.1,680,539,678.2,538.1L678.2,538.1z M737.2,559.6c-0.2,0.4,0,1.1,0.4,1c1.3-0.3,1.7-1.6,3-2.5c0.2-0.3,0.2-0.8,0.3-1.2
	C740,557.3,737.6,558,737.2,559.6L737.2,559.6z M735,562.3c-1.1,0.7-2.6,1.4-3,3.2c-0.1,0.5,1.3,0.4,2,0.2c1.1-0.2,0.8,0,1.6-0.9
	c0.1-0.5,0.2-1.1,0.4-1.6C735.3,562.9,735.2,563.1,735,562.3L735,562.3z M473.1,189.1c-0.2,0.1-0.5,0.1-0.7,0.2
	C472.6,189.2,472.8,189.2,473.1,189.1L473.1,189.1z M473.6,188.7c-0.1-0.7-1.1-0.5-3.2-0.5c-1.5,0.1-3,0.3-3.2,0.9
	c0,0.6,1.5,0.5,3.1,0.4c1,0,2.2-0.2,3-0.5C473.4,189,473.5,188.8,473.6,188.7L473.6,188.7z M646.7,523.7c-2,0.1-1.5,3.2-3.5,4.6
	c-1.5,0.6-3.5,0.7-5.9,1.6c0,0-1.4,0.7-1.7,0.5c-1.4,0.2-3,0.1-4.5,0.3c0.2,1.7,2.4,1.4,3.6,2.3c0.1,0,0.1,0.1,0.2,0.1
	c0.1,0.1,0.2,0.2,0.3,0.3c0.1,0-0.2-0.2-0.3-0.2c0.5,0.4,1.8,0.9,2.1,0.9c3.1-0.3,4.5-1.9,7.2-2.7c0.2-2.8,3.1-2.4,3.4-5.5
	C648,525.1,647.5,523.7,646.7,523.7L646.7,523.7z M649.1,521.1c-1.6-1.7-2.6-3.2-5.5-4.1c0.4,1,1.5,1,2.5,1.7c2,1.1,1.4,2.7,3.3,3.6
	c-0.4,1.5-0.5,2.6,1.3,2.8c0.2,0.3,0.6,0,0.9-0.1c-0.2-0.2,0-0.8,0.1-1C651.6,521.7,650.2,522.2,649.1,521.1L649.1,521.1z
	 M536.1,496.9c-0.9,0.5-1.5,2-1.5,3.3c0,2.1,1.3,2.8,1.3,4.6c0,0.5,0,1.6,0,2.1c0,0.7,0.4,3,2.1,3.1c-0.6-0.9-1.1-1.7-1.8-2.7
	c0-0.3,0-0.9,0-1.1c1,0,3.3-0.2,3.8-0.4c-0.1-1-1.2-1.8-1.3-2.4c0-0.7,1.6-1.4,1.7-2.1C537.6,500.6,536.5,499.3,536.1,496.9
	L536.1,496.9z M657.9,528.4c-0.4,1.4,0,2.8,1.8,3.1c0,0.3-0.1,0.9-0.1,1.2c-0.1,0.4,0.4,1,0.8,0.9c0.4-0.1,1-0.9,1.1-1.2
	C661.5,532,658.8,528.9,657.9,528.4L657.9,528.4z M677,543.7c-0.1,1.7,1.9,2,3.5,1.8c0.2,0,0.5-0.3,0.7-0.4
	C680.4,543.9,679.1,543.4,677,543.7L677,543.7z M636.3,293.7c1,0,2.2-1.6,2.3-2.3c-0.2-0.1-2.1-0.1-2.3,0.5c-0.2,0.3,0.3,1-0.1,1
	C636,292.9,636.1,293.7,636.3,293.7L636.3,293.7z M670.8,535.4c0,0.1-0.2,0.3-0.3,0.5c0.1,0-0.2,0-0.3,0c0,1.6,2.8,2.4,4,2.3
	c0.3-0.1,0.8-0.3,1.1-0.4C674.6,536.5,672,536,670.8,535.4L670.8,535.4z M665,532.7c-0.2,0-0.5,0.1-0.7,0.2c0.6,0.4,1.4,0.9,2,1.3
	c0.4,0,0.9-0.1,1.3-0.1C666.9,533.2,666,533.2,665,532.7L665,532.7z M664.9,532.6C664.9,532.6,665,532.6,664.9,532.6L664.9,532.6
	C665,532.7,664.9,532.7,664.9,532.6L664.9,532.6z M664.9,532.6c-0.2-0.1-0.4-0.2-0.5-0.3C664.5,532.4,664.7,532.6,664.9,532.6
	L664.9,532.6z M608.5,660.5c-0.1,0-7-0.5-7.4,1c-0.2,1.6,2.7,7.2,6.6,6.6c2.6-0.4,7-5.1,7.6-7c0.3-1.4-0.7-1.3-0.9-2.3
	C612.6,659.3,610.2,660.2,608.5,660.5L608.5,660.5z M241.1,445.2c0.2,3,0.4,6,0.7,9c0.3-2.6,0.4-5.1,0.4-7.5
	c-0.1-0.7-0.3-1.1-0.5-1.9C241.5,444.9,241.3,445.1,241.1,445.2L241.1,445.2z M247,443.5c1-0.1,1-1.1,1.2-1.7
	c-1.6,0.1-1.2,0.2-2,0.6C246.4,443.1,246.7,443.3,247,443.5L247,443.5z M406.1,190.4c1.5-0.1,2.3-0.5,2.8-1.3
	c-0.6,0.1-1.3,0.2-1.9,0.4c-0.5,0.2-1.1,0.5-2,0.8C405.1,190.5,405.5,190.6,406.1,190.4L406.1,190.4z M510.2,450.5
	c-0.2,0-0.5-0.4-0.7-0.5s-1.2,0.5-1.2,0.7c-0.2,1,0.2,4.2-0.2,6.9c1.8-1.1,5.9-2.1,6.4-4.8C514.6,451.9,511.6,451,510.2,450.5
	L510.2,450.5z M392.3,185.9c0,0.5,1.3,0.6,2,0.4c1.6-0.4,5.4-1.3,5.9-2.1c-0.9,0.2-4,0.5-4.6,0.5
	C394.9,184.9,392.6,185.4,392.3,185.9L392.3,185.9z M401.3,510.4c-0.3-0.1-0.9,0-1.2-0.1c0,0.2,0,0.5,0,0.6c0.1,0.9,2.4,3.7,3,3.9
	c0.1-1.7-0.7-2.4-1.7-3.7C401.2,511,401.3,510.6,401.3,510.4L401.3,510.4z M259.1,401.8v0.1c-0.7-0.7-0.5-2.7-1.4-3.1
	c-2.4-1.1-3.7-1.5-4.5-5.2c0-1.7,0.2-3.2,0.3-4.8c-2.9,4-3.7,9-8.1,9.6c-1.9,0.1-2.5-0.5-2.4-2.3c0.2-1.4,0.6-2.6,0.7-4.1
	c0.1-0.4,0-0.9,0-1.4c-1.1,0.5-0.7,1.8-1.2,2.3c-1.3,11-2,22.2-2,33.5c0,2.1,0,4.3,0.1,6.4c1.1-0.6,2.1-1.4,3.2-2.5
	c-0.2-0.3-0.2-0.8-0.3-1.1c0-2.7,3.7-3.2,5.6-3.9c0-1.6,0.9-3.8,2.1-3.8c1.3-0.2,1.1-3.8,2.2-3.9c1.5,0,0.9-2.2,1.2-3.9
	c0.5-1.5,1.2-2.2,2.4-2.2c0.2-3.2,3.4-4.7,3.6-7.9C260.7,402.7,259.5,402.9,259.1,401.8L259.1,401.8z M394.8,500.4
	c-0.2,0.1-0.5,0.2-0.7,0.3c0,0,0.1,0,0.2,0c0.3,0.7,2.4,3.5,2.9,3.6C398.1,504.3,395.8,501.1,394.8,500.4L394.8,500.4z M320.5,470.5
	c0,2.4,1.6,4.8,3.7,4.9c2.6,0.1,4.4-3.6,4.3-6.6c-0.1-5.5-4.3-7.6-6.5-11.7C322,462.2,320.3,465.6,320.5,470.5L320.5,470.5z
	 M450.6,181c0.9-0.2,1.7-0.4,1.9-0.8c-1.3,0.3-1.5,0.2-4.5,0.6C448.5,180.9,448.9,181.2,450.6,181L450.6,181z M578.7,189.1
	c1.5,0,2-0.3,3-0.4c0.7,0.2,1.4,0.5,2.6,0.7c1.3,0.2,2.2-0.1,3-0.1c1,0.1,1.6-0.1,2.7,0c0.8,0.3,1.5,0.7,2.6,0.7
	c1.7,0.1,2.2-0.3,3.3-0.1s2.5,0.2,3.7,0.5c0-0.5,1.7-0.6,2.1-1.2c-2.9-0.6-11.1-2.6-13.6-2.8c-1.7-0.3-2.3,0-2.1,1
	c-3.8-0.5-4.1-1.8-8.5-2.3c-2.8-0.3-6.1,0.2-6,1.3C571.7,187.6,575.1,188.7,578.7,189.1L578.7,189.1z M690.9,222.5
	c-0.3-0.2-0.7-0.6-0.9-0.8c-1.2-0.5-2.3-0.7-3.5-1.1c0.7,0.8,2.1,1.6,3.6,2C690.6,222.9,691,222.8,690.9,222.5L690.9,222.5z
	 M619.4,194.1c2.1,0.3,5.7,1,5.7,0.3c-0.1-0.3-0.7-0.6-1.4-0.7c-0.5,0-14.3-2.9-15.7-3.4c0.4,0.2,1,0.4,1.4,0.5
	C609.6,192.2,616,193.6,619.4,194.1L619.4,194.1z M593.5,194.6c1.5,0.3,2.7,0.3,4.1,0.5c-0.3-1.1-3.1-2.3-6.8-2.6
	c-3.1-0.6-4.8,0.2-6.5,0.7c0.2,0,0.4-0.1,0.7-0.2C587.8,193.5,590.9,193.9,593.5,194.6L593.5,194.6z M420.7,184.7
	c-0.2,0.6,0.2,0.5,1.8,0.3c2.6-0.6,4.7-1.3,7.1-1.7c0,0,4.2-0.8,4.7-0.9c2.3-0.2,9.4-1.1,9.6-2.2c0.2-0.9-5.2-1-7-0.7
	c-0.9,0.1-1.4,0.5-2.5,0.7c1.1-0.4,0.5-0.1,0.6-0.9c-0.5,0-1.2,0.1-1.7,0.2c-5.3,0.7-6.8,2.5-10,3.8
	C422.6,183.8,421.1,183.7,420.7,184.7L420.7,184.7z M408.9,182.1c-4.2,1.2-5.5,1.8-9.6,3.1c1.7-0.2,4.5,0.3,6,0
	c4.4-0.9,8.3-0.9,13.9-1.9c1.1-0.2,2.6-0.5,2.7-1c0.2-0.4-0.9-0.2-1.8-0.2c0.7-0.1,2.4-0.4,2.7-0.9c0-0.6-0.1-0.4,1.2-1
	c-1.4-0.3-1.4-0.6-4-0.1c-0.8-0.1-1.7,0.3-2.5,0.4c-1.6,0.2-2.1,0-3.6,0.3c-1,0.2-1.3,0.2-2.6,0.5c1-0.4,2.5-0.8,2.6-1.1
	c0-0.3,0.3,0,0.2-0.8c0.5,0,0.2,0.1,1.5-0.3c-1.8-0.3-3.4-0.6-6.9,0c-5.9,1.3-8.2,3.3-13.4,5c2.8-0.3,5-0.4,8.5-1.2
	C404.5,183,407.6,182.3,408.9,182.1L408.9,182.1z M587.6,191.4c-0.4-0.8-3.8-1.2-3.8-0.4c0.1,0.5,0.2,0.6,1.8,0.8
	C586.5,191.9,587.6,191.9,587.6,191.4L587.6,191.4z M431.6,531.3c-0.1-1.5-1-3.7,0.6-4.4c-0.2-2.1-0.2-4.4-0.3-6.8
	c0-1.7-2.4-2.1-3.3-3.1c-1.9-1.7-3.8-2.8-3.9-6.2c-1.8,0-3.1-0.5-3.1-2.7c0.2-0.4,0.4-1.2,0.6-1.6c-0.3-0.5-1-1.4-1.5-1.5
	c-0.3,0-0.9-0.1-1.3,0c0.1-0.2,0.3-0.6,0.3-0.8c0-2.6-2.7-3.3-5.2-4.2c-4.5-1.6-6.2-3.7-9.4-7c-1.7-1.7-2.8-3.6-5.2-4.6
	c-0.5-0.1-1.5-0.2-1.7-0.9c-1.4-2.6-2.5-5.1-5.9-6.4c-1.7-0.1-3.4-0.1-5-0.2c-1-0.5-1.6-1.5-3.1-1.6c-0.2,0-0.7,0-0.9,0
	c0,0.3,0.1,1,0,1.3c0.5,1.7,3.1,6.2,4.4,6.6s2.8,0.1,3.6,1.6c0.8,1.6,1.6,3.3,2.5,4.9c1.2,2.4,4.6,1.8,5.9,5.6
	c0.3,1,1.8,5.3,2.4,5.7c0.3,0.4,2.3,0.7,2.5,0.9c0.2,0.4,0.1,1.5,0.5,1.5s2.5,3.5,2.8,4.1c1.7,3.9,3.2,6.6,6.5,9.9
	c3,3.1,5.8,4.3,9,7.5c0.1,0.1,3.4,4.3,4,4.4C428.3,533.3,431.6,533,431.6,531.3L431.6,531.3z M565.1,186.1c0.9,0.2,1.1-0.2,1.3-0.5
	c0,0,0.1,0,0,0l0,0c0,0,0.1-0.1,0-0.1c0.1,0-0.2-0.1-0.3,0c-0.3-0.2-0.8-0.3-1.2-0.4c-0.5,0.4-1,0.2-1,0.6
	C564,186.1,564.5,186.1,565.1,186.1L565.1,186.1z M395.1,182.8c-0.1-0.2-0.1-0.1-0.2-0.2c-1.4,0.5-2.9,0.6-4.3,1.1
	C391.4,184.3,393.2,183.3,395.1,182.8L395.1,182.8z M490.2,546.3c-0.1,0.3-0.1,0.9-0.2,1.2c-0.6-0.3-1.7-0.7-3.2-0.7
	c-1.1-0.1-2.8-0.1-2.8,1.5c0,0.5,2,1.1,3.3,1.1c1.7,0,2.3-0.9,4-1.5c0.4,0.1,1,0.5,1.3,0.6c0.4-0.1,1.1,0,1.5,0c-0.3-0.2,0-1,0-2.3
	C493.2,546.3,491.5,546.3,490.2,546.3L490.2,546.3z M508.2,548.9c2.3-1,3.6-1,4.8-3.1c-1.4,0.5-2.3,1.5-4.8,1.5
	c-2.6,0-3.6-1.1-6.7-1.1c-0.9-0.1-3-0.2-3,1.1c0.1,1.7,2.5,1.5,3.7,1.6C504.2,548.9,506.2,548.8,508.2,548.9L508.2,548.9z
	 M505.1,447.7c0.5,0.1,1.8-1.8,1.6-3.1c-0.4-1.8-2.3-1.5-4.3-2.8c-0.4,0-1.4,0.1-1.8,0C500.6,441.8,503.9,447.6,505.1,447.7
	L505.1,447.7z M499.7,550.7c-0.4,0-1.2,0-1.7,0c-0.9,0-3.1-0.4-3.1,0.9c0.1,1.5,2.7,1.8,4.3,1.7c0,0.4,0.4,2,1,2c0.2,0,0.5,0,0.7,0
	c0.4,0,1.3-0.7,1.3-1.1C502.1,552.4,499.8,552.9,499.7,550.7L499.7,550.7z M528,522.7c0,1,2.2,2.9,2.9,3c0.4-0.1,1.6-1.8,1.7-2.1
	C532.5,522,528.2,520.8,528,522.7L528,522.7z M517.4,449c-0.1,0.6,1.6,2.1,1.8,1.6c0.2-2.1-2-2.4-2.4-3.9c-0.4,0-1.2,0-1.6,0
	c-0.1,0.6-0.2,1.8-0.3,2.3C515.5,449,516.7,448.9,517.4,449L517.4,449z M511.1,460.3c0,0.8,2.9,4,3.5,4c0.3,0,1.1-0.5,1.2-0.8
	c0.1-0.7-0.8-0.7-0.6-2c0.2-2,2.3-3.1,2.6-4.9c0.1-0.7-0.6-2.2-2.5-1.7c-0.7,0.1-2.3,4.1-2.4,4.4
	C512.4,459.4,511.1,459.9,511.1,460.3L511.1,460.3z M432.2,517.2c0.2,0.4,1,2.3,1.2,2.3c0.5,0,1.4,1,2.1,1c0.3,0,0.8,0,1.1,0
	c-0.1-0.4-0.2-1.2-0.2-1.6c-2.2-0.2-3.3-3.2-4.2-5.6c-0.9,0-3.3,1.3-3.3,2C428.9,516.3,431.5,515.9,432.2,517.2L432.2,517.2z
	 M526.7,459.9c-0.2,0.3-0.4,2.5-1,3.7c-0.5,0.7-3.7,0.3-4.1,2.4c-0.8,0.1-1.7,0.8-1.9,1.9c-0.3,0-0.8,0-1.1,0
	c-0.9,0-0.5-2.4-2.9-2.5c-3.3,0-2.7,3.2-6.5,3.3c-0.6,1.6-1.4,2.5-1.6,3.9c0,0.3,0.6,1.2,0.5,1.5c-0.1,0.5-1.9,3.4-0.4,3.5
	c2,0.1,2.3-4.9,4.2-6.5c0,0,1.2,1.3,1.6,1.4c0.1-0.2,0.5-0.5,0.6-0.7c0.2,0.3,0.6,0.8,1.7,0.8c-0.1-0.3,0.1-1,0.2-1.4
	c0.6,0,1.9,0.1,2.5,0c0.1,0.4,0.4,1.2,0.5,1.6c-0.4,0.2-1,0.7-1.1,1.8c-0.4,2.8,1.4,5.3,4,5.4c0.4,0,1.4,0,1.8-0.1
	c0,0.3,0.4,1.3,0.7,1.2c0.9,0.1,2.1-0.9,2.2-2.1c0.2-1.8-1.8-2.2-1.7-3.2c0.1-0.7,1-1.3,1.9-2.1c0.2,0.3,0.8,0.9,0.9,1.2
	c0,0,0-0.1,0-0.2c0.3,0.9,1.3,3.2,1.7,3.3c0.4-2.6,2.5-3.6,2.8-5.1c0.1-1-1.8-10.3-3-11.6C528.9,460.9,527.9,459.9,526.7,459.9
	L526.7,459.9z M505.7,505.9c2.8,0,3.9-0.6,6.3-0.7c2.2,0.1,3.6,1.1,5.8,1.1c3.3-0.1,4.4-2.8,5-5.2c0.4,0,0.7-0.9,0.8-1.3
	c-0.2,0-0.8,0-1,0c-2,1.3-4.3,2.8-5.3,3.8c-0.3,0-1,0-1.3,0c-3.9-0.7-7.7-1.3-11.6-2c-4.4,0.1-6.2,5.3-6.2,9.3
	c0,0.7-1.3,1.9-1.5,2.4c-1.2,3.8-2.9,5.2-2.9,8.7c0,1.9,2.3,1.9,3.3,2.1c0.1,2.5,0,5.2,0.1,7.6c0,0.8,1.3,2.1,2.6,2.1
	c1.8,0,2.4-5.7,2.4-6.3c0-2.1-1.5-3.1-1.5-5.3c0-0.9,1.3-1.8,2.5-1.9c0.4,0.1,0.9,0.1,1.3,0c-0.2,0.9-0.4,2.2-0.7,3.3
	c0.1,2.1,2.6,2.9,2.7,4.9c0,0.4,0.1,1.1,0,1.4c0.5-0.1,1.6,0,2.1,0c0-1.7,3.5-1.6,3.6-3.3c-0.5-0.2-2.3-2.1-2.3-2.9
	c0-0.2,0.5-0.7,0.6-1c-0.7-0.4-4.1-6.4-4.1-6.8c4.6,0.1,4.9-3.5,8.7-4.7c0-0.3,0-1,0-1.3c-0.7-0.1-9.7,2.6-9.9,2.9
	c0.1-0.2,0.3-0.5,0.3-0.6c-0.4,0.7-1.1,1.6-1.8,1.6c-2.5,0-3.4-3.1-3.5-5.5C500.3,505.3,502.9,505.8,505.7,505.9L505.7,505.9z
	 M445.9,502c0,0.6,2,6.7,2.6,6.9c0.6,0.1,1.9,0.4,2.2,1c-0.1,0.2-0.1,0.6-0.1,0.8c2.1,3.5-0.4,8.7,5.8,9c1,0.1,2.1-0.9,3.5-0.7
	c0.2,0.5,0.1,2.4,0.4,2.4c0.4,0,1,0.7,1.4,0.8c2.1,0.1,2.8-1.6,4.1-1.7c2.9,0,4.6,2,7.4,2.7c0,0.7,0.5,2.3,2.2,2.3
	c2.2,0.1,2.5-1.9,5.2-2.5c0-1.8,1.9-4.1,1.9-5.4c0-0.6-0.8-1.2-0.9-2.3c0-0.7,1.6-3.3,3.7-3.7c-0.1-2.8,1.3-3.8,2.1-7.3
	c0.2-0.4,0.6-1.2,0.8-1.6c0.4-0.1,1.3-0.2,1.7-0.3c1.8,0,3.2,0.9,3.7-1.6c-3.1-0.2-7.6-8.2-7.7-10.8c0-0.4,0.8-1,1.2-1.2
	c-0.2-0.4-0.5-1.1-0.7-1.5c0,0,4.7-2,4.9-2.3c-0.2,0-0.7-0.6-0.7-0.9c0.1-1.1,3.7-0.6,3.7-2c-0.1-3.5-7-1.3-7.2-4.9
	c0-2.6,0.4-4.2-2.6-4.2c-2.7,0-6.3,6.2-7.8,9c-0.5,1-4.6,0.6-6.1,1.9c-0.2,0.3-0.6,1.2-1,1.3c-0.6,0.3-0.6,0.7-1.7,1.2
	c0,0-1.6,1.5-1.1,2c-1.3,1.3-1.3,3-3.8,3.4c-1.9,0.4-3.6,0.4-4.7,1.4c-2.4,2.4-1.6,7.4-6.7,7.3C449.3,500.4,445.9,499.2,445.9,502
	L445.9,502z M473.3,546.5c2-0.1,1.8,1.1,3.5,1.2c0.2-0.1,1.5-1.2,1.8-1.7c-0.9-0.3-1.1-0.9-2.7-1.5c-1.5-0.5-2.7,0.6-4-0.4
	c-0.2-0.2-0.6-1.4-1.3-1.4c-3-0.1-5-0.5-7-2.2c0.3,0.1,5.9-0.4,6.1-0.9c-0.3,0-1,0-1.3,0c-1.7,0.1-3.2,0.3-4.9,0.5
	c-3-0.2-4.1-2.9-7.5-3c-2,0-2.3,2.3-4.8,2.2c-5.4-0.1-7.6-5.2-12.5-5.4c-0.7-0.1-1.8,0.9-2.5,0.8c-0.4,0-0.9-0.7-1.3-0.7
	c-0.7-0.1-3.7,2.8-3.9,3.1c2.5,0,3.7,2,5.4,3.6c1.8,1.4,4,0.1,6.5,1c3.2,1.1,5.8,1.3,8.9,1.4c1.6,0.2,2.2,2,4.2,2.2
	c6.4,0.2,11.8,0.6,17.4,2.8C473.2,547.6,472.9,546.4,473.3,546.5L473.3,546.5z M442.1,521.7c0.7,0.2,1.6-0.9,1.7-1.9
	c-0.4-0.1-1.1-0.8-1.5-0.9c-0.4,0-1.2,0-1.6,0c-0.1,0.2,0,0.6,0,0.8C440.9,520.3,441.3,521.6,442.1,521.7L442.1,521.7z M522.8,551.1
	c2.6,0,8-1.4,9.9-3.6c-1.6-1-8.8-0.2-10.5,1.3c-0.2,0.3-0.5,1.3-0.8,1.4c-2.6,0.9-5.6,0.8-5.7,4.2c0,0.5,0.7,1.4,1.2,1.4
	c1.8,0,4.6-1.9,5.5-2.6C522.7,552.8,522.2,551.1,522.8,551.1L522.8,551.1z M453.9,412.1c0-0.6-1.2-2.2-1.8-2.2
	c-1.9,0.1-7.2,3.6-8.4,3.7c-0.6,0,0,1.6,0,2.2c-0.1,1.9,1,3,3.4,3C449.4,418.7,453.9,414.3,453.9,412.1L453.9,412.1z M504.3,385.2
	c-2.7,0.2-6.6,6.5-6.7,10c-0.1,2.4-0.7,4.6,2.9,4.7C504.8,399.5,509.2,385.6,504.3,385.2L504.3,385.2z M522.2,446.8
	c-0.4,0-1.3,0.5-1.7,0.6c0.2,0.9,4,2.3,3.8,4.5c-0.1,0.2-0.7,0.9-1,0.9c-0.6,0-1.8,0-2.4,0c-0.1,0.2-0.1,0.7-0.1,0.9
	c0.1,0.3,1.2,1.9,2.5,2c-0.1,0.2-0.1,0.7-0.1,0.9c-0.6,0.7-0.7,2.1,0.6,2.2c0.4-0.1,1.2,0,1.6,0c0-0.2,0.1-0.7,0.1-0.9
	c-0.5-0.3-1.2-1.8-1.2-3.1c0.7,0,2,0,2.7,0c0.2-0.5,0.7-1.3,1-2c-0.1,0-1.2-1.4-1.2-1.4s0.4-1.8,0.3-2.5c-0.2,0.1-0.8,0-1.1,0
	c0.2-0.3,0.2-1.2,0.2-1.5C525,447.4,523.6,446.7,522.2,446.8L522.2,446.8z M495,456.3c-2.4,3.3-8.5,5-11.1,9.6c0.3,0,0.9,0,1.2,0
	c2.3-1.1,5.9-3.1,7.1-6.6c1.1,0.1,2.8-0.3,3.3-1.6c0.7,0,1.4-0.5,1.9-0.9c-0.5-0.4-1.5-0.9-1.3-2.5
	C495.7,454.6,495.3,455.8,495,456.3L495,456.3z M500.9,436.4c0.4,0,1.1-0.7,1.4-1.1c0.3,0,0.8,0,1.1,0c-0.1,0.4-0.2,1.2-0.2,1.6
	c-0.3,0.2-1.2,1-1.3,1.7c0,0.6,1.2,2.1,2.4,2.2c0.8,0,2-0.9,3-0.9c2.7-0.1,2.3,3.2,4.8,3.5c-0.2-0.9-0.9-1.8,0.2-2.9
	c1,1.4,5,2.8,5.9,4.7c0.1,0.4,0.4,1.2,0.8,1.3c0.2,0.1,0.8-0.7,0.8-0.9c0-0.3,0.1-0.9,0.2-1.2c-0.9-0.1-2.2-0.6-2.1-1.9
	c-0.3,0.2-1.3,0.2-1.3,0c0.1-0.6,1.1-1.2,1.3-1.8c-0.2-0.1-0.8-0.2-1-0.3c-0.5,0-1.2,1.1-1.8,1c-0.8-0.1-1.2-3.4-3.3-3.6
	c-0.8,0-2.1,0.8-2.1,1.2c-0.1,0.2-0.1,0.6-0.1,0.8c-1.9-0.8-3.8-4.7-3.6-7c0.5-3.3,3.6-3.5,4.1-6.9c0.3-2.7-1.7-4.9-1.5-7
	c-0.1-0.3-0.2-0.8-0.2-1.1c-0.1-0.2-0.3-0.6-0.3-0.8c-0.5,0.3-1.4,1.5-2.5,1.5c-1.7-0.1-0.9-2.7-2.9-2.8c-1,0-1.9,1.5-2.2,3.1
	c-0.2,1.9,0.5,3.1,0.3,4.9c-0.1,1-0.7,3.5-1.6,4.6c-1.7-0.3-1.4,2.8-1.8,5.4C497.3,434.2,500.4,436.4,500.9,436.4L500.9,436.4z"/>
</svg>
