<?xml version="1.0" encoding="utf-8"?>
<!-- Generator: Adobe Illustrator 16.0.0, SVG Export Plug-In . SVG Version: 6.00 Build 0)  -->
<!DOCTYPE svg PUBLIC "-//W3C//DTD SVG 1.1//EN" "http://www.w3.org/Graphics/SVG/1.1/DTD/svg11.dtd">
<svg version="1.1" id="圖層_1" xmlns="http://www.w3.org/2000/svg" xmlns:xlink="http://www.w3.org/1999/xlink" x="0px" y="0px"
	 width="30px" height="50px" viewBox="0 0 30 50" enable-background="new 0 0 30 50" xml:space="preserve">
<path fill-rule="evenodd" clip-rule="evenodd" fill="#ED8B14" d="M22.67,14.307c-0.367,0.734-0.729,1.41-1.039,2.107
	c-0.152,0.343-0.201,0.729-0.314,1.092c-0.092,0.28-0.07,0.522,0.104,0.772c0.082,0.116,0.115,0.289,0.109,0.437
	c-0.027,1.042-0.068,2.084-0.109,3.127c-0.027,0.711-0.104,1.423-0.086,2.132c0.062,2.34-0.188,4.641-0.688,6.922
	c-0.389,1.777-0.877,3.521-1.635,5.178c-0.148,0.322-0.439,0.611-0.732,0.828c-0.432,0.326-0.629,0.793-0.87,1.236
	c-0.579,1.062-0.626,2.275-0.948,3.41c-0.305,1.07,0.035,2.033,0.249,3.033c0.116,0.545,0.257,1.09,0.295,1.643
	c0.022,0.35-0.145,0.709-0.189,1.068c-0.077,0.615-0.399,0.857-1.021,0.902c-0.748,0.053-0.76,0.107-0.946-0.635
	c-0.122-0.479-0.163-0.979-0.29-1.455c-0.102-0.385-0.233-0.777-0.428-1.123c-0.279-0.494-0.619-0.957-0.948-1.422
	c-0.419-0.596-0.987-1.021-1.622-1.359c-0.412-0.217-0.839-0.408-1.263-0.604c-0.054-0.025-0.133-0.008-0.198,0.004
	c-0.42,0.078-0.833-0.172-1.043-0.564c-0.199-0.371-0.409-0.738-0.869-0.891c-0.394-0.129-0.499-0.414-0.451-0.818
	c0.016-0.131-0.057-0.301-0.145-0.41c-0.624-0.777-1.07-1.643-1.386-2.588c-0.142-0.422-0.352-0.82-0.534-1.229
	c-0.023-0.051-0.067-0.094-0.102-0.139c-0.01,0.033-0.022,0.068-0.033,0.104c-0.285-0.053-0.58-0.076-0.85-0.17
	c-0.107-0.035-0.201-0.213-0.229-0.34C4.45,34.502,4.625,34.41,4.707,34.33c0.09-0.09,0.259-0.219,0.239-0.275
	c-0.065-0.182-0.179-0.453-0.315-0.48c-0.324-0.064-0.347-0.205-0.289-0.471c0.096-0.428,0.14-0.869,0.26-1.291
	c0.084-0.293,0.264-0.562,0.386-0.852c0.039-0.088,0.062-0.203,0.039-0.295c-0.147-0.584-0.239-1.195-0.479-1.738
	c-0.51-1.16-0.645-2.279-0.148-3.493c0.251-0.611,0.565-1.191,0.804-1.796c0.5-1.266,0.881-2.577,1.312-3.869
	c0.03-0.091,0.044-0.195,0.1-0.266c0.658-0.82,0.624-1.864,0.921-2.799c0.136-0.428,0.243-0.887,0.482-1.253
	c0.461-0.703,0.706-1.46,0.863-2.271c0.053-0.278,0.19-0.562,0.359-0.792c0.471-0.641,0.987-1.248,1.465-1.881
	c0.092-0.119,0.136-0.303,0.139-0.458c0.024-1.169,0.508-2.21,0.914-3.27c0.086-0.224,0.259-0.435,0.44-0.597
	c0.733-0.649,1.438-1.324,2.445-1.582c0.462-0.118,0.861-0.47,1.306-0.674c0.193-0.088,0.435-0.068,0.646-0.097
	c0.016,0.053,0.016,0.038,0.01,0.031c-0.539-0.495-0.552-0.501-0.16-1.158c0.268-0.448,0.611-0.81,1.168-0.904
	c0.442-0.074,0.808,0.039,1.073,0.391c0.63,0.828,1.45,1.265,2.491,1.159c0.705-0.074,1.295,0.095,1.832,0.552
	c0.266,0.225,0.576,0.396,0.924,0.63c-0.182,0.137-0.293,0.237-0.42,0.311c-1.162,0.682-1.852,2.392-1.398,3.793
	c0.105,0.328,0.191,0.664,0.33,0.977c0.096,0.211,0.273,0.386,0.412,0.58c0.066,0.093,0.164,0.187,0.18,0.291
	c0.061,0.443,0.105,0.891,0.129,1.335c0.004,0.091-0.1,0.209-0.184,0.278c-0.295,0.245-0.445,0.563-0.43,0.935
	C22.57,13.491,22.385,13.984,22.67,14.307z"/>
</svg>
