<?xml version="1.0" encoding="utf-8"?>
<!-- Generator: Adobe Illustrator 16.0.0, SVG Export Plug-In . SVG Version: 6.00 Build 0)  -->
<!DOCTYPE svg PUBLIC "-//W3C//DTD SVG 1.1//EN" "http://www.w3.org/Graphics/SVG/1.1/DTD/svg11.dtd">
<svg version="1.1" id="圖層_1" xmlns="http://www.w3.org/2000/svg" xmlns:xlink="http://www.w3.org/1999/xlink" x="0px" y="0px"
	 width="110px" height="110px" viewBox="0 0 110 110" enable-background="new 0 0 110 110" xml:space="preserve">
<g>
	<g>
		<path fill="#FFFFFF" d="M43.544,102.81c-13.475,0-26.95-0.021-40.425,0.034c-1.215,0.005-1.47-0.238-1.465-1.461
			C1.71,88.348,1.688,75.312,1.688,62.275c0.876-0.114,0.896,0.638,1.024,1.131c1.176,4.501,4.252,7.559,7.766,10.277
			c1.96,1.517,4.018,2.896,6.66,4.334c-1.261-2.839-1.3-5.512-1.789-8.109c-0.173-0.788-0.132-1.589-0.18-2.385
			c-0.219-2.556-0.504-5.101-1.07-7.604c-0.03-0.761-0.373-1.467-0.321-1.828c-0.146-0.688-0.422-0.218-0.185-0.391
			c0.338,0.643,0.345,1.34,0.342,2.042c-0.331,2.036-0.938,4.024-1.05,6.098c-0.045,0.812-0.038,1.623-0.008,2.435
			c0.016,1.035,0.471,2.04,0.224,3.095c-0.109,0.336-0.295,0.604-0.647,0.722c-1.935-1.303-3.724-2.856-5.127-4.653
			c-1.743-2.23-3.791-4.266-5.067-6.851c-0.396-0.861-0.167-1.855-0.571-2.717c0-1.909,0-3.819,0-5.728
			c0.616-0.138,0.744,0.346,0.947,0.736c0.798,4.87,3.829,8.399,7.213,12.13c0.058-5.314,2.5-9.77,3.137-14.638
			c0.042-0.531,0.079-1.062,0.207-1.579c0.142-0.494,0.26-0.993,0.29-1.508c0.089-0.633,0.231-1.256,0.475-2.292
			c-0.353,1.209-0.442,2.063-0.924,2.782c-2.183,3.254-3.791,6.73-4.231,10.676c-0.054,0.485-0.111,1.135-0.766,1.148
			c-0.49,0.011-0.657-0.541-0.746-0.95c-0.952-4.384-3.446-8.2-4.6-12.506c-0.236-0.773-0.128-1.548,0.035-2.509
			c-0.342,0.628,0.002,1.594-1.038,1.46c0-10.619,0.034-21.238-0.04-31.856c-0.01-1.424,0.384-1.664,1.708-1.659
			c15.599,0.049,31.197,0.031,46.796,0.031c-0.455,1.517-1.885,1.129-2.887,1.332c-5.41,1.098-10.344,3.233-14.682,6.625
			c-7.751,6.06-12.718,13.834-14.209,23.672c-0.154,0.53-0.251,1.068-0.239,1.624c-0.019,0.789,0.015,1.578-0.046,2.365
			c-0.351,1.217-0.324,2.436,0,3.654c0.063,0.797,0.032,1.596,0.06,2.393C20.1,70.029,32.842,83.722,49.345,86.686
			c1.638,0.295,3.302,0.675,5.003,0.552c1.156,0,2.311-0.004,3.465-0.002c8.527-0.525,16.121-3.338,22.588-9.046
			c7.127-6.291,11.182-14.159,12.326-23.563c0.033-0.796-0.002-1.594,0.059-2.388c0.318-1.228,0.158-2.454-0.023-3.679
			c-0.027-0.793-0.006-1.586-0.031-2.378c-0.805-7.533-3.885-14.106-8.465-20.042c-2.184-2.431-4.604-4.612-7.111-6.7
			c-4.967-3.652-10.545-5.796-16.613-6.713c-0.584-0.088-1.158-0.113-1.611-0.552c-0.117-0.196-0.111-0.385,0.035-0.565
			c16.229,0,32.457,0.02,48.684-0.037c1.314-0.005,1.588,0.264,1.58,1.579c-0.066,10.794-0.037,21.588-0.037,32.383
			c-0.596,0.153-0.713-0.31-0.896-0.688c-0.131-0.398-0.246-0.802-0.352-1.208c-0.062-0.416-0.082-0.834-0.059-1.255
			c-0.102,0.816,0.078,1.623,0.082,2.438c-0.168,1.677-0.623,3.296-1.395,4.768c-1.449,2.771-2.123,5.827-3.363,8.669
			c-0.18,0.16-0.389,0.21-0.623,0.149c-0.795-4.798-3.607-8.701-5.74-12.892c-0.053-0.119-0.068-0.251-0.045-0.386
			c-0.227,0.188,0.014-0.314-0.086-0.04c-0.033,0.097-0.018,0.168,0.029,0.324c0.141,0.458,0.406,0.865,0.52,1.331
			c0.303,3.158,1.145,6.194,2.016,9.229c0.742,2.587,2,5.054,1.818,7.917c3.551-3.508,6.299-7.364,7.133-12.325
			c0.203-0.399,0.344-0.882,0.961-0.746c0,2.057,0,4.112,0,6.168c-0.342,3.228-2.158,5.68-4.293,7.909
			c-2.025,2.116-4.125,4.153-5.779,6.595c-0.301,0.442-0.637,1.17-1.332,0.839c-0.609-0.291-0.521-1.013-0.395-1.579
			c0.467-2.075,0.998-4.139,0.404-6.278c-0.133-0.539-0.174-1.091-0.242-1.639c-0.193-1.06-0.369-2.122-0.621-3.171
			c-0.221-0.947,0.035-1.896,0.121-2.708c0.09,0.097-0.057,0.339-0.111,0.571c-0.1,0.414-0.088,0.842-0.17,1.258
			c-0.285,1.038-0.574,2.073-0.639,3.154c-0.041,0.656-0.043,1.315-0.193,1.958c-0.518,2.296-0.324,4.659-0.67,6.983
			c-0.311,2.09-0.742,4.142-1.365,6.429c4.322-2.773,8.729-4.997,11.518-9.284c1.045-1.607,1.973-3.249,2.602-5.067
			c0.209-0.608,0.076-1.573,1.166-1.563c0,13.291-0.025,26.582,0.037,39.873c0.006,1.314-0.264,1.585-1.58,1.579
			c-13.291-0.062-26.582-0.037-39.873-0.037c-0.146-0.156-0.219-0.341-0.213-0.556c1.078-1.269,0.793-2.228-0.521-3.189
			c-2.648-1.939-5.17-4.046-8.17-5.476c-0.625-0.298-2.238-0.735-0.443-1.805c1.002-0.194,2.008-0.133,3.014-0.095
			c2.125,0.314,3.635,1.786,5.326,2.893c2.713,1.776,5.533,3.241,8.805,3.639c1.236,0.057,2.471,0.039,3.703,0.011
			c2.123-0.271,4.064-1.022,5.83-2.225c0.24-0.21,0.588-0.267,0.812-0.555c-0.621,0.204-1.225,0.353-1.844,0.445
			c-0.42,0.071-0.82,0.217-1.236,0.306c-1.133,0.185-2.262,0.193-3.391-0.01c-3.252-0.597-6.324-1.73-9.25-3.239
			c-1.529-0.788-3.252-0.781-4.811-1.396c-0.543-0.088-1.094-0.137-1.633-0.264c-0.969-0.296-1.969-0.221-2.961-0.232
			c-0.775-0.016-1.551-0.016-2.295,0.255c-2.203,0.989-4.398,0.723-6.592-0.026c-1.329-0.33-2.656-0.343-3.98,0.032
			c-4.1,0.831-7.954,2.369-11.756,4.058c-1.606,0.713-3.225,1.371-5.019,1.419c-0.918-0.02-1.838,0.012-2.755-0.039
			c-1-0.078-1.936-0.468-2.704-0.612c6.244,4.236,12.314,2.834,18.203-1.279c0.902-0.629,1.768-1.307,2.672-1.932
			c0.975-0.673,2.009-1.241,3.174-1.463c1.122-0.214,2.607-0.683,3.114,0.634c0.453,1.177-1.007,1.577-1.853,2.076
			c-2.531,1.494-4.88,3.234-7.199,5.034c-1.319,1.023-1.372,1.918-0.174,2.989C43.716,102.424,43.687,102.625,43.544,102.81z"/>
		<path fill-rule="evenodd" clip-rule="evenodd" fill="#FFFFFF" d="M43.544,102.81c0-0.122,0-0.243,0-0.365
			c-0.004-1.438,1.144-2.136,1.974-3.021c2.162-2.304,4.648-4.215,7.292-5.932c1.629-1.059,3.24-1.2,4.914-0.096
			c3.787,2.497,7.473,5.102,10.047,8.955c0.002,0.152,0.004,0.306,0.004,0.458C59.699,102.81,51.621,102.81,43.544,102.81z"/>
		<path fill-rule="evenodd" clip-rule="evenodd" fill="#5B8BC8" d="M97.377,59.613c0.232,1.047,0.465,2.094,0.699,3.142
			c-0.053,0.557-0.434,1.146,0.16,1.639c1.062,2.632-0.125,5.137-0.379,7.771c3.25-5.481,9.346-8.778,11.334-15.177
			c0,1.469,0,2.938,0,4.406c-2.291,8.592-8.932,13.074-16.576,17.313c2.402-4.904,2.018-9.931,2.852-14.756
			c0.549-0.665,0.281-1.383,0.137-2.092c0.023-1.125,0.232-2.206,0.744-3.217C96.926,58.716,96.959,59.369,97.377,59.613z"/>
		<path fill-rule="evenodd" clip-rule="evenodd" fill="#5989C7" d="M17.939,43.189c0.751-7.086,3.8-13.173,8.355-18.503
			c6.091-7.127,13.856-11.333,23.156-12.674c0.248-0.036,0.469-0.265,0.702-0.403c2.644,0,5.287,0,7.931,0
			c0.24,0.3,0.658,0.163,0.934,0.375c5.951,0.605,11.471,2.46,16.494,5.73c0.67,0.437,1.295,0.943,1.941,1.417
			c0.184,0.627,0.047,1.122-0.58,1.416c-1.406-0.292-2.434-1.292-3.627-1.976c-5.299-3.038-10.965-4.764-17.082-4.955
			c-0.322,0.023-0.635-0.024-0.936-0.134c-0.189-0.065-0.374-0.147-0.556-0.23c-0.951-0.385-1.874-0.319-2.771,0.179
			c-3.936,0.75-7.86,1.502-11.576,3.115c-3.322,1.442-6.21,3.52-9.026,5.734c-1.2,0.943-1.171,1.85-0.085,2.899
			c0.884,0.855,1.884,1.628,2.465,2.765c0.128,0.579,0.126,1.111-0.516,1.406c-1.592-0.432-2.402-1.837-3.466-2.892
			c-1.035-1.026-1.696-1.021-2.603,0.165c-3.563,4.657-6.062,9.785-7.197,15.556c-0.178,0.906-0.116,1.963-1.333,2.264
			C17.757,44.321,17.683,43.837,17.939,43.189z"/>
		<path fill-rule="evenodd" clip-rule="evenodd" fill="#5B8BC8" d="M12.789,71.432c-0.151-1.006-0.302-2.012-0.453-3.018
			c0.247-0.862,0.25-1.725-0.002-2.587c0.089-2.131,0.574-4.184,1.209-6.208c0.322-0.25,0.645-0.25,0.968-0.001
			c0.961,2.572,0.991,5.286,1.208,7.972c-0.153,0.854-0.448,1.715,0.133,2.529c0.717,2.869,0.567,5.94,2.468,8.749
			c-6.288-1.499-13.635-8.985-16.632-16.593c0-0.294,0-0.587,0-0.881c0.393-0.229,0.054-1.212,0.95-0.921
			c2.684,4.28,6.474,7.624,9.689,11.455C12.952,72.198,12.847,71.793,12.789,71.432z"/>
		<path fill-rule="evenodd" clip-rule="evenodd" fill="#5B8BC8" d="M13.508,50.354c-0.119,1.99-0.781,3.859-1.303,5.757
			c-0.902,3.277-2.187,6.475-1.938,10.062C6.83,62.161,2.77,58.648,2.22,52.989c0.232-0.823-0.018-1.528-0.532-2.168
			c0-1.615,0-3.23,0-4.846c0.462-0.374,0.932-0.349,1.407-0.027c1.476,4.544,4.181,8.625,4.992,13.45
			c0.147-4.626,2.153-8.462,4.67-12.103c0.399-0.314,0.799-0.381,1.198,0c0.059,0.508,0.062,1.004-0.297,1.424
			C13.013,49.208,13.439,49.798,13.508,50.354z"/>
		<path fill-rule="evenodd" clip-rule="evenodd" fill="#5285C5" d="M109.191,50.82c-0.443,0.115-0.4,0.533-0.529,0.845
			c-1.469-1.506-1.455-5.411,0.025-6.99c0.107,0.321,0.039,0.747,0.504,0.858c0,0.146,0,0.293,0,0.44
			c-0.355,1.322-0.355,2.644,0,3.965C109.191,50.233,109.191,50.527,109.191,50.82z"/>
		<path fill-rule="evenodd" clip-rule="evenodd" fill="#5084C4" d="M3.096,45.947c-0.469,0.009-0.938,0.018-1.407,0.027
			c0-0.294,0-0.587,0-0.881c0.798-0.366,0.203-1.588,1.242-1.914C2.987,44.129,3.042,45.038,3.096,45.947z"/>
		<path fill-rule="evenodd" clip-rule="evenodd" fill="#6B94CD" d="M2.639,60.474c-0.317,0.307-0.633,0.613-0.95,0.921
			c0-1.175,0-2.35,0-3.524C2.307,58.628,2.358,59.592,2.639,60.474z"/>
		<path fill-rule="evenodd" clip-rule="evenodd" fill="#ACC1E4" d="M109.191,49.939c-0.715-1.322-0.715-2.644,0-3.965
			C109.191,47.296,109.191,48.618,109.191,49.939z"/>
		<path fill-rule="evenodd" clip-rule="evenodd" fill="#5184C4" d="M1.688,50.82c1.365,0.432,0.988,1.291,0.532,2.168
			c-0.131-0.311-0.093-0.729-0.532-0.847C1.688,51.702,1.688,51.261,1.688,50.82z"/>
		<path fill-rule="evenodd" clip-rule="evenodd" fill="#ADC2E4" d="M59.018,11.984c-0.385,0.059-0.736,0.035-0.934-0.375
			c0.293,0,0.586,0,0.881,0C58.975,11.734,58.992,11.859,59.018,11.984z"/>
		<path fill-rule="evenodd" clip-rule="evenodd" fill="#5B8BC8" d="M17.939,43.189c0.05,0.568,0.256,0.997,0.914,1.022
			c1.025,1.007,0.188,2.43,0.875,3.737c1.585-1.649,3.556-0.088,5.308-0.742c0.483,0.387,0.629,0.944,0.731,1.509
			c0.161,0.892,0.321-0.225,0.475,0.003c3.172,0.308,5.021-1.299,6.012-4.149c0.397,0.184,0.707,0.773,1.255,0.27
			c1.573,0.342,2.336,1.853,3.67,2.546c0.34,0.645,0.343,1.346,0.35,2.047c0.009,0.353,0.008,0.707,0.008,1.06
			c-0.002,1.161,0.058,2.326-0.141,3.477c-0.222,0.812-0.443,1.626-0.119,2.467c0.157,0.595,0.34,1.186,0.342,1.81
			c-0.074,0.684-0.203,1.367-0.06,2.059c0.476,1.409,1.028,2.779,2,3.933c0.14,0.473,0.195,0.996,0.725,1.249
			c0.54,1.263,2.343,1.438,2.56,2.977c-0.003,0.455-0.221,0.776-0.613,0.988c-1.721-0.252-3.235-1.807-5.155-0.816
			c-0.426-0.027-0.802-0.194-1.162-0.408c-1.93-1.697-3.604-3.789-6.408-4.123c-0.387,0.107-0.772,0.233-1.181,0.125
			c-1.756-1.431-2.12-3.577-2.742-5.552c-0.641-2.035-1.74-3.618-3.597-4.668c-0.305-0.172-0.513-0.525-0.938-0.469
			c-1.805,0.243-1.807,0.241-1.833-1.649c-0.006-0.436,0.017-0.872-0.009-1.304c-1.315-1.228-1.245-2.863-1.319-4.454
			c-0.213-0.462,0.021-1.007-0.266-1.457C17.544,44.142,17.566,43.628,17.939,43.189z"/>
		<path fill-rule="evenodd" clip-rule="evenodd" fill="#5B8BC8" d="M67.771,102.352c-2.68-2.094-4.855-4.748-7.701-6.687
			c-4.738-3.229-4.756-3.406-9.194-0.226c-2.75,1.971-5.167,4.378-7.332,7.005c-2.53-1.396-2.593-1.537-0.473-3.326
			c2.592-2.187,5.269-4.272,8.348-5.775c0.466-0.228,1.19-0.294,1.197-1.259c-2.72-0.644-4.828,0.574-6.874,2.141
			c-3.854,2.949-7.961,5.338-13.055,5.046c-3.21-0.185-5.972-1.512-8.778-3.732c1.829-0.42,2.98,0.464,4.239,0.733
			c1.012,0.25,2.023,0.251,3.035-0.001c3.061-0.356,5.652-2.01,8.456-3.072c2.667-1.011,5.309-2.078,8.189-2.323
			c1.402-0.278,2.804-0.278,4.206-0.001c2.139,0.688,4.277,0.652,6.416-0.002c0.715-0.395,1.551,0.047,2.27-0.329
			c1.074-0.026,2.166-0.252,3.188,0.299c0.494,0.633,1.082,0.225,1.641,0.146c4.826,0.859,8.941,3.787,13.74,4.729
			c1.277,0.428,2.553,0.472,3.826-0.018c0.33-0.096,0.66-0.191,0.99-0.287c0.406,0.377,1.531-0.312,1.359,0.918
			c-1.705,1.38-3.699,2.067-5.83,2.422c-1.447-0.209-2.895-0.236-4.342,0.019c-3.322-0.393-6.176-1.883-8.887-3.741
			c-1.543-1.059-2.957-2.341-4.811-2.885c-1.178-0.182-2.352-0.316-3.512,0.091c1.842,1.831,4.537,2.353,6.381,4.228
			c0.992,1.009,2.275,1.724,3.355,2.655C69.855,100.874,69.832,100.899,67.771,102.352z"/>
		<path fill-rule="evenodd" clip-rule="evenodd" fill="#5989C7" d="M17.992,45.974c0.448,1.521,0.576,3.171,1.764,4.395
			c-0.826,1.043-0.586,2.306-0.374,3.376c1.324,6.663,3.532,12.962,7.94,18.309c1.542,1.87,1.653,1.93,3.363,0.322
			c0.688-0.646,1.291-1.414,2.275-1.659c1.165,0.007,1.944,0.227,0.822,1.491c-4.336,4.029-3.511,3.395,0.338,6.383
			c4.977,3.863,10.719,6.148,16.979,7.052c0.441,0.063,0.854,0.178,1.244,0.384c0.702,0.42,1.45,0.484,2.231,0.282
			c0.188-0.06,0.379-0.104,0.572-0.143c0.294-0.056,0.589-0.062,0.885-0.027c0.193,0.021,0.385,0.063,0.574,0.111
			c1.041,0.214,2.076,0.363,3.045-0.267c2.809-0.737,5.691-1.123,8.457-2.102c3.904-1.382,7.369-3.448,10.645-5.929
			c1.283-0.972,1.227-1.726,0.105-2.771c-0.822-0.766-1.908-1.421-1.955-2.767c0.213-0.437,0.562-0.668,1.045-0.699
			c1.035,0.137,1.611,0.946,2.301,1.585c1.623,1.508,1.932,1.524,3.264-0.205c5.15-6.683,8.322-14.066,7.924-22.692
			c-0.012-0.333-0.01-0.666-0.008-1c0.074-7.849-2.654-14.738-7.168-21.021c-0.463-0.644-1.125-1.176-1.191-2.054
			c0.279-0.665,0.789-0.788,1.428-0.612c5.012,5.859,7.877,12.644,8.754,20.287c-0.189,0.883-0.336,1.765,0.105,2.624
			c0.221,1.167,0.408,2.334,0,3.501c-0.439,0.862-0.303,1.745-0.096,2.631C91.363,72.909,76.234,87.027,58.055,87.76
			c-1.303-0.251-2.607-0.251-3.911-0.001c-13.874-0.933-24.337-7.5-31.537-19.285c-2.807-4.595-4.476-9.644-4.979-15.04
			c0.194-0.883,0.337-1.766-0.102-2.625c-0.359-1.167-0.357-2.335-0.002-3.502C17.988,46.971,17.576,46.327,17.992,45.974z"/>
		<path fill-rule="evenodd" clip-rule="evenodd" fill="#5B8BC8" d="M104.736,73.717c-4.004,9.392-11.906,12.655-21.988,13.618
			c4.889-5.883,4.543-13.911,10.027-19.145c-0.92,5.183-0.461,10.753-4.453,15.147c5.094-3.825,11.723-5.088,15.977-10.135
			C104.582,73.258,104.619,73.521,104.736,73.717z"/>
		<path fill-rule="evenodd" clip-rule="evenodd" fill="#5B8BC8" d="M17.604,68.122c6.035,5.59,5.495,13.898,10.577,19.376
			C19.27,88.342,8.562,81.985,6.393,74.602c0.318,0.037,0.699-0.034,0.836,0.117c2.905,3.176,6.988,4.385,10.592,6.391
			c1.146,0.637,2.407,1.133,3.248,2.184c0.303,0.378,0.511,0.459,0.872,0.246c0.545-0.322,0.12-0.631-0.075-0.871
			C18.507,78.534,19.018,73.322,17.604,68.122z"/>
		<path fill-rule="evenodd" clip-rule="evenodd" fill="#5B8BC8" d="M30.301,89.661c0.426-0.012,0.853-0.024,1.279-0.036
			c0.711,0.471,1.536-0.057,2.266,0.256c0.402,0.062,0.742,0.404,1.24,0.267c-0.5,0.049-0.869-0.212-1.279-0.319
			c-0.535-0.004-1.008-0.13-1.298-0.632c-3.836-2.083-5.075-6.01-7.166-10.007c5.688,2.921,8.478,8.846,14.263,10.731
			c0.244,0.413,0.786,0.559,0.945,1.048c-5.259,1.527-10.478,3.417-16.099,2.135c-3.824-0.873-6.991-2.825-9.331-6.192
			c2.359,1.001,4.8,1.649,7.264,2.217c0.711,0.44,1.448,0.296,2.188,0.098c1.046-0.042,2.097-0.115,3.091,0.33
			C28.525,90.017,29.412,89.867,30.301,89.661z"/>
		<path fill-rule="evenodd" clip-rule="evenodd" fill="#5B8BC8" d="M88.852,88.659c1.789-0.559,3.578-1.117,5.367-1.677
			c0.434,0.197,0.74,0.459,0.5,0.995c-2.785,2.953-6.174,4.685-10.232,5.063c-1.154-0.238-2.309-0.237-3.463-0.001
			c-3.346-0.293-6.582-1.099-9.777-2.092c0.057-0.425-0.898-0.421-0.432-1.019c4.549-1.43,7.234-5.278,10.635-8.2
			c1.135-0.975,2.094-2.178,3.598-2.725c-1.525,4.162-2.924,8.375-7.525,10.24c-0.221,0.258-0.441,0.515-0.33,0.501
			c-0.049,0.017,0.383,0.075,0.764-0.115c1.375,0.44,2.582-0.732,3.947-0.412c0.855,0.156,1.717,0.433,2.547-0.102
			c0.717-0.473,1.516-0.354,2.305-0.325C87.461,88.889,88.186,89.233,88.852,88.659z"/>
		<path fill-rule="evenodd" clip-rule="evenodd" fill="#5B8BC8" d="M108.688,44.675c-0.615,2.328-0.574,4.658-0.025,6.99
			c-0.588,5.74-4.363,9.614-7.979,13.686c0.094-6.609-3.926-12.272-3.879-18.782c-0.189-0.528-0.295-1.053,0.08-1.552
			c2.465,4.188,5.846,7.982,5.713,13.287c0.197,0.708-0.541,1.34-0.168,2.047c0.021,0.308,0.49-0.018,0.205,0.053
			c-0.133,0.033-0.174-0.007-0.201-0.094c-0.252-0.791,0.215-1.387,0.539-2.021c0.461-2.982,1.641-5.716,2.873-8.439
			c0.748-1.656,1.391-3.358,1.623-5.182c0.262-0.347,0.336-0.859,0.859-0.978C108.711,43.922,108.738,44.284,108.688,44.675z"/>
		<path fill-rule="evenodd" clip-rule="evenodd" fill="#5B8BC8" d="M102.566,44.648c0.029-0.303,0.061-0.606,0.092-0.91
			c0.24-1.89,0.258-3.779-0.006-5.668c-0.045-0.937-0.166-1.882,0.328-2.754c0.568-0.666,0.236-1.385,0.123-2.09
			c-0.109-1.444-0.219-2.887-0.328-4.344c0.943-0.108,1.102,0.684,1.375,1.205c2.549,4.851,3.035,9.872,1.086,15.047
			c-0.748,1.986-1.592,3.938-1.832,6.073c-0.176,0.282-0.242,0.761-0.76,0.414c-0.617-3.23-2.719-5.634-4.588-8.157
			c-1.748-2.362-3.482-4.72-4.205-7.641c0.197-0.36,0.377-0.754,0.908-0.471c0.576,0.716,1.207,1.301,1.996,1.856
			c2.59,1.828,4.875,4.011,5.453,7.384C102.311,44.718,102.383,45.031,102.566,44.648z"/>
		<path fill-rule="evenodd" clip-rule="evenodd" fill="#5B8BC8" d="M7.339,31.407c-0.091,3.688,0.681,7.303,0.915,10.963
			c-0.087,0.184-0.232,0.266-0.432,0.249c0,1.026,0.074,2.048,0.097,3.044c0.01-0.634,0.132-1.187,0.732-1.5
			c1.585-3.971,5.071-6.279,8.022-9.098c-0.792,6.773-6.731,10.827-8.862,16.954c-0.982-3.465-2.847-6.532-3.397-10.044
			c0.224-1.89,0.258-3.78-0.015-5.669c0.318-2.313,1.013-4.477,2.511-6.321C7.426,30.347,7.009,30.99,7.339,31.407z"/>
		<path fill-rule="evenodd" clip-rule="evenodd" fill="#5B8BC8" d="M84.496,25.718c-0.391,0.142-0.783,0.284-1.174,0.427
			c-1.77-0.661-3.912,0.326-4.689,2.112c-0.309,0.709,0.057,1.086,0.527,1.484c0.951,0.808,1.883,1.634,1.971,3.012
			c-0.234,0.474-0.604,0.722-1.145,0.717c-0.812-0.007,0.215,0.323-0.072,0.419c-0.307,1.648-1.256,1.643-2.305,0.758
			c-1.121-0.946-2.289-1.785-3.631-2.375c-0.373-0.187-0.738-0.388-1.086-0.617c-1.906-2.087-4.396-3.527-6.26-5.673
			c-1.773-2.042-1.805-2.063,0.385-3.601c0.402-0.321,0.777-0.687,1.299-0.817c2.787,0.687,4.9,2.535,6.986,4.31
			c1.99,1.696,2.469-0.414,3.453-1.135c1.107-0.812,0.9-1.655-0.197-2.434c-0.697-0.494-1.459-1.018-1.527-2.022
			c0.141-0.384,0.281-0.769,0.422-1.152C80.125,20.981,82.434,23.217,84.496,25.718z"/>
		<path fill-rule="evenodd" clip-rule="evenodd" fill="#5B8BC8" d="M9.252,30.582c0.076-4.337,2.201-7.368,6.048-9.364
			c-2.479,3.605-2.277,7.952-3.478,12.009c2.612-3.36,6.74-4.779,9.485-7.927c-1.077,7.231-8.574,9.153-11.975,14.571
			c0.609-2.143-0.278-4.188-0.082-6.264C9.5,32.599,9.497,31.59,9.252,30.582z"/>
		<path fill-rule="evenodd" clip-rule="evenodd" fill="#5C8BC9" d="M99.943,37.594c-2.238-1.891-4.473-3.783-6.713-5.671
			c-2.043-1.722-3.676-3.708-4.168-6.502c3.184,2.34,6.557,4.375,9.422,7.204c-1.133-4.089-1.135-8.405-3.859-11.927
			c3.711,0.697,7.539,6.267,6.574,12.474c-0.117,0.15-0.219,0.309-0.307,0.477C100.305,34.898,101.613,36.604,99.943,37.594z"/>
		<path fill-rule="evenodd" clip-rule="evenodd" fill="#5B8BC8" d="M85.375,15.699c6.4,1.613,10.193,7.948,10.197,12.416
			c-4.537-3.097-7.512-7.409-10.664-11.554C84.645,16.046,84.982,15.858,85.375,15.699z"/>
		<path fill-rule="evenodd" clip-rule="evenodd" fill="#5C8BC9" d="M14.978,26.607c1.336-5.733,5.237-9.598,11.181-10.626
			c-3.748,3.934-5.745,8.783-10.198,11.567C15.044,27.85,15.252,26.977,14.978,26.607z"/>
		<path fill-rule="evenodd" clip-rule="evenodd" fill="#5687C6" d="M99.943,37.594c1.1-1.298-0.502-3.153,0.902-4.388
			c0.078,1.754,0.779,3.557-0.4,5.215C100.279,38.145,100.111,37.869,99.943,37.594z"/>
		<path fill-rule="evenodd" clip-rule="evenodd" fill="#94AFDB" d="M100.445,38.42c0.738-1.692,0.172-3.484,0.4-5.215
			c0.119-0.003,0.236-0.015,0.354-0.035c0.023,1.752,0.055,3.504,0.061,5.256c0,0.279,0.158,0.84-0.484,0.539
			C100.615,38.89,100.553,38.607,100.445,38.42z"/>
		<path fill-rule="evenodd" clip-rule="evenodd" fill="#9DB7DF" d="M108.328,43.689c-0.1,0.491-0.49,0.725-0.859,0.978
			c0-1.142,0-2.283,0-3.567C108.574,41.791,108.221,42.818,108.328,43.689z"/>
		<path fill-rule="evenodd" clip-rule="evenodd" fill="#4F83C3" d="M4.4,36.306c0.61,1.889,0.59,3.778,0.015,5.669
			C4.14,40.086,4.191,38.197,4.4,36.306z"/>
		<path fill-rule="evenodd" clip-rule="evenodd" fill="#4C81C2" d="M102.652,38.07c0.604,1.889,0.594,3.778,0.006,5.668
			C102.656,41.849,102.654,39.96,102.652,38.07z"/>
		<path fill-rule="evenodd" clip-rule="evenodd" fill="#5C8BC8" d="M85.465,96.331c-0.213-0.66-1.018-0.446-1.359-0.918
			c0.955-0.275,1.908-0.551,3.064-0.886C86.988,95.684,86.18,95.965,85.465,96.331z"/>
		<path fill-rule="evenodd" clip-rule="evenodd" fill="#5486C5" d="M97.377,59.613c-0.527-0.129-0.824-0.501-1.029-0.97
			c0.189-0.729,0.379-1.459,0.566-2.188c0.154,0.018,0.309,0.035,0.463,0.053C97.377,57.543,97.377,58.577,97.377,59.613z"/>
		<path fill-rule="evenodd" clip-rule="evenodd" fill="#E9EEF8" d="M8.652,44.164c-0.169,0.907-0.338,1.813-0.588,3.159
			c-0.151-0.73-0.218-1.056-0.285-1.381c-0.147-1.146-0.362-2.296,0.14-3.416c0.118-0.04,0.23-0.091,0.337-0.155
			C8.422,42.96,8.096,43.66,8.652,44.164z"/>
		<path fill-rule="evenodd" clip-rule="evenodd" fill="#5184C4" d="M83.115,95.7c-1.199,1.045-2.57,0.345-3.869,0.376
			c-0.02,0.001-0.062-0.115-0.055-0.171c0.01-0.065,0.062-0.125,0.098-0.188C80.564,95.712,81.84,95.706,83.115,95.7z"/>
		<path fill-rule="evenodd" clip-rule="evenodd" fill="#5A89C7" d="M94.719,87.978c-0.166-0.332-0.334-0.663-0.5-0.995
			c0.584-0.348,1.023-1.007,1.936-0.873C96.047,87.053,95.336,87.481,94.719,87.978z"/>
		<path fill-rule="evenodd" clip-rule="evenodd" fill="#5386C5" d="M70.814,89.93c-0.096,0.441,0.967,0.391,0.432,1.019
			c-0.631-0.054-1.262-0.107-1.979-0.169C69.492,89.725,70.316,90.147,70.814,89.93z"/>
		<path fill-rule="evenodd" clip-rule="evenodd" fill="#4F83C3" d="M75.293,98.771c1.445-0.602,2.893-0.574,4.342-0.019
			C78.188,98.977,76.74,98.961,75.293,98.771z"/>
		<path fill-rule="evenodd" clip-rule="evenodd" fill="#5988C7" d="M13.957,47.294c-0.4,0-0.799,0-1.198,0
			c0.338-0.769,0.677-1.538,1.079-2.452C14.268,45.778,14.021,46.54,13.957,47.294z"/>
		<path fill-rule="evenodd" clip-rule="evenodd" fill="#5B8BC8" d="M52.036,90.874c-1.402,0.001-2.803,0.001-4.206,0.001
			C49.231,90.342,50.633,90.332,52.036,90.874z"/>
		<path fill-rule="evenodd" clip-rule="evenodd" fill="#4D82C3" d="M54.144,87.759c1.304-0.579,2.608-0.58,3.911,0.001
			C56.752,87.759,55.448,87.759,54.144,87.759z"/>
		<path fill-rule="evenodd" clip-rule="evenodd" fill="#4D82C3" d="M81.023,93.04c1.154-0.578,2.309-0.58,3.463,0.001
			C83.332,93.041,82.178,93.041,81.023,93.04z"/>
		<path fill-rule="evenodd" clip-rule="evenodd" fill="#7A9DD2" d="M58.084,92.236c1.152-0.735,2.326-0.638,3.512-0.091
			C60.424,92.176,59.254,92.206,58.084,92.236z"/>
		<path fill-rule="evenodd" clip-rule="evenodd" fill="#5585C4" d="M40.551,90.969c-0.473-0.207-0.841-0.509-0.945-1.048
			c0.901,0.229,1.803,0.46,2.768,0.706C41.79,91.146,41.142,90.903,40.551,90.969z"/>
		<path fill-rule="evenodd" clip-rule="evenodd" fill="#5184C4" d="M84.449,89.117c0.07,0.016,0.154,0.012,0.209,0.05
			c0.102,0.069,0.188,0.162,0.277,0.245c-1.031,0.245-2.059,0.419-3.033-0.193C82.75,89.185,83.6,89.151,84.449,89.117z"/>
		<path fill-rule="evenodd" clip-rule="evenodd" fill="#DBE4F4" d="M77.955,89.631c-0.738,0.789-1.533,0.775-2.451,0.122
			c0.715-0.18,1.365-0.344,2.018-0.508C77.666,89.374,77.811,89.502,77.955,89.631z"/>
		<path fill-rule="evenodd" clip-rule="evenodd" fill="#5888C6" d="M14.978,26.607c0.328,0.313,0.655,0.627,0.982,0.941
			c-0.414,0.383-0.829,0.766-1.282,1.184C14.22,27.85,14.878,27.276,14.978,26.607z"/>
		<path fill-rule="evenodd" clip-rule="evenodd" fill="#4D80C2" d="M14.51,59.618c-0.322,0-0.645,0.001-0.968,0.001
			c0-0.781,0-1.562,0-2.343c0.125-0.021,0.249-0.04,0.373-0.061C14.114,58.017,14.312,58.817,14.51,59.618z"/>
		<path fill-rule="evenodd" clip-rule="evenodd" fill="#4C81C3" d="M9.252,30.582c0.562,1.009,0.564,2.018-0.001,3.026
			C9.251,32.599,9.251,31.59,9.252,30.582z"/>
		<path fill-rule="evenodd" clip-rule="evenodd" fill="#5184C4" d="M15.852,70.119c-0.937-0.796-0.527-1.663-0.133-2.529
			C15.763,68.433,15.808,69.276,15.852,70.119z"/>
		<path fill-rule="evenodd" clip-rule="evenodd" fill="#5284C4" d="M103.104,33.226c0.635,0.774,0.424,1.696,0.244,2.504
			c-0.064,0.291-0.254-0.238-0.365-0.414C103.023,34.619,103.062,33.923,103.104,33.226z"/>
		<path fill-rule="evenodd" clip-rule="evenodd" fill="#F0F4FB" d="M32.509,89.196c0.442,0.147,0.883,0.295,1.325,0.443
			c0.111,0.091,0.15,0.185,0.118,0.282c-0.033,0.098-0.066,0.147-0.102,0.147c-0.723-0.321-1.679,0.548-2.27-0.444
			C31.89,89.481,32.199,89.339,32.509,89.196z"/>
		<path fill-rule="evenodd" clip-rule="evenodd" fill="#5587C6" d="M31.185,96.271c-1.012,0.566-2.023,0.567-3.035,0.001
			C29.161,95.985,30.173,96.005,31.185,96.271z"/>
		<path fill-rule="evenodd" clip-rule="evenodd" fill="#D0DCF0" d="M102.973,58.288c-0.166,0.769-0.332,1.538-0.545,2.523
			c-0.521-1.037-0.158-1.771,0.17-2.508C102.723,58.309,102.848,58.304,102.973,58.288z"/>
		<path fill-rule="evenodd" clip-rule="evenodd" fill="#5B89C7" d="M85.375,15.699c-0.156,0.287-0.311,0.574-0.467,0.861
			c-0.48-0.294-0.895-0.647-1.08-1.221C84.441,15.054,84.861,15.583,85.375,15.699z"/>
		<path fill-rule="evenodd" clip-rule="evenodd" fill="#5184C4" d="M88.852,88.659c-0.639,1.006-1.375,0.472-2.098,0.133
			C87.453,88.748,88.152,88.704,88.852,88.659z"/>
		<path fill-rule="evenodd" clip-rule="evenodd" fill="#4F83C3" d="M93.355,48.628c-0.717-0.848-0.645-1.726-0.105-2.624
			C93.285,46.879,93.32,47.754,93.355,48.628z"/>
		<path fill-rule="evenodd" clip-rule="evenodd" fill="#4E82C3" d="M30.301,89.661c-0.903,0.559-1.786,0.623-2.638-0.105
			C28.543,89.591,29.422,89.626,30.301,89.661z"/>
		<path fill-rule="evenodd" clip-rule="evenodd" fill="#4E82C3" d="M17.992,45.974c-0.016,0.494,0.073,1.024-0.468,1.333
			c0.033-0.877,0.065-1.753,0.098-2.63C18.08,45.014,17.971,45.512,17.992,45.974z"/>
		<path fill-rule="evenodd" clip-rule="evenodd" fill="#4E82C3" d="M17.526,50.81c0.714,0.849,0.645,1.727,0.102,2.625
			C17.594,52.559,17.56,51.685,17.526,50.81z"/>
		<path fill-rule="evenodd" clip-rule="evenodd" fill="#4B80C2" d="M7.339,31.407c-0.472-0.375-0.334-0.933-0.429-1.422
			c0.148-0.21,0.286-0.586,0.447-0.597c0.449-0.029,0.268,0.33,0.225,0.579C7.5,30.446,7.42,30.927,7.339,31.407z"/>
		<path fill-rule="evenodd" clip-rule="evenodd" fill="#4D82C3" d="M12.333,65.827c0.575,0.861,0.575,1.725,0.002,2.587
			C12.334,67.552,12.334,66.689,12.333,65.827z"/>
		<path fill-rule="evenodd" clip-rule="evenodd" fill="#4E82C3" d="M93.26,54.761c-0.555-0.898-0.619-1.779,0.096-2.631
			C93.324,53.007,93.291,53.884,93.26,54.761z"/>
		<path fill-rule="evenodd" clip-rule="evenodd" fill="#5184C4" d="M95.604,61.86c0.332,0.722,0.922,1.46-0.137,2.092
			C95.514,63.255,95.559,62.557,95.604,61.86z"/>
		<path fill-rule="evenodd" clip-rule="evenodd" fill="#A9BFE3" d="M102.566,44.648c0.348,0.206,0.475,0.516,0.369,0.896
			c-0.02,0.073-0.238,0.174-0.303,0.141c-0.449-0.234-0.49-0.648-0.424-1.093C102.328,44.614,102.445,44.633,102.566,44.648z"/>
		<path fill-rule="evenodd" clip-rule="evenodd" fill="#7A9DD2" d="M60.721,90.543c-0.684,0.616-1.498,0.328-2.27,0.329
			C59.15,90.367,59.938,90.473,60.721,90.543z"/>
		<path fill-rule="evenodd" clip-rule="evenodd" fill="#5184C4" d="M65.549,90.988c-0.59,0.42-1.17,0.749-1.641-0.146
			C64.455,90.891,65.002,90.939,65.549,90.988z"/>
		<path fill-rule="evenodd" clip-rule="evenodd" fill="#5E8CC9" d="M96.885,45.017c-0.027,0.517-0.053,1.034-0.08,1.551
			c-0.443-0.553-0.379-1.21-0.363-1.852c0.008-0.301,0.191-0.328,0.361-0.113C96.881,44.702,96.859,44.877,96.885,45.017z"/>
		<path fill-rule="evenodd" clip-rule="evenodd" fill="#C2D2EC" d="M102.645,51.621c0.252-0.138,0.506-0.276,0.76-0.414
			c0.035,0.414,0.207,0.963-0.295,1.114C102.578,52.481,102.66,51.958,102.645,51.621z"/>
		<path fill-rule="evenodd" clip-rule="evenodd" fill="#5888C6" d="M94.76,35.352c-0.303,0.157-0.605,0.314-0.908,0.471
			c-0.059-0.399-0.559-0.893-0.148-1.164C94.342,34.234,94.457,35.025,94.76,35.352z"/>
		<path fill-rule="evenodd" clip-rule="evenodd" fill="#5184C4" d="M98.236,64.394c-0.881-0.465-0.551-1.049-0.16-1.639
			C98.129,63.301,98.182,63.848,98.236,64.394z"/>
		<path fill-rule="evenodd" clip-rule="evenodd" fill="#5284C4" d="M13.508,50.354c-0.413-0.587-0.768-1.17,0.151-1.635
			C13.609,49.263,13.559,49.809,13.508,50.354z"/>
		<path fill-rule="evenodd" clip-rule="evenodd" fill="#DDE5F4" d="M12.789,71.432c0.295,0.42,0.82,0.938,0.247,1.33
			c-0.308,0.211-0.557-0.456-0.707-0.833C12.481,71.763,12.635,71.598,12.789,71.432z"/>
		<path fill-rule="evenodd" clip-rule="evenodd" fill="#4A80C2" d="M104.736,73.717c-0.146-0.171-0.291-0.342-0.438-0.514
			c0.211-0.363,0.422-0.729,0.668-1.156C105.449,72.8,104.932,73.227,104.736,73.717z"/>
		<path fill-rule="evenodd" clip-rule="evenodd" fill="#4F83C3" d="M24.572,89.226c-0.755,0.541-1.488,0.596-2.188-0.098
			C23.113,89.16,23.843,89.193,24.572,89.226z"/>
		<path fill-rule="evenodd" clip-rule="evenodd" fill="#FFFFFF" d="M33.41,27.979c-0.277-0.233-0.572-0.449-0.831-0.701
			c-3.915-3.819-3.929-3.841,0.577-7.152c5.155-3.788,10.883-6.151,17.277-6.822c0.5-0.052,0.986-0.24,1.479-0.366
			c1.032-0.298,2.06-0.413,3.076,0.061l-0.072-0.033c1.199,1.803,0.616,3.771,0.532,5.693c-0.545,1.516-1.901,1.227-3.062,1.378
			c-6.052,0.303-11.339,2.529-15.979,6.373c-0.561,0.465-1.058,1.01-1.705,1.372C34.293,27.985,33.879,28.164,33.41,27.979z"/>
		<path fill-rule="evenodd" clip-rule="evenodd" fill="#FFFFFF" d="M24.993,47.191c-0.586,0.991-1.159,1.863-2.338,0.555
			c-0.94-1.043-1.518,0.127-2.134,0.527c-0.433,0.281-0.565,1.107-1.323,0.743c-0.687-0.33-0.391-1.013-0.4-1.551
			c-0.017-1.084,0.033-2.17,0.055-3.254c0.849-3.778,1.731-7.536,3.491-11.036c1.356-2.699,3.017-5.177,4.878-7.543
			c0.744-0.944,1.301-1.44,2.237-0.156c0.981,1.346,2.556,2.187,3.34,3.73c0.029,0.758-0.521,1.206-0.922,1.734
			c-3.327,4.285-5.434,9.094-6.241,14.466C25.54,46.041,25.602,46.739,24.993,47.191z"/>
		<path fill-rule="evenodd" clip-rule="evenodd" fill="#FFFFFF" d="M77.031,20.283c0.217,0.197,0.428,0.398,0.65,0.59
			c3.344,2.882,3.307,3.231-0.318,6.064c-0.744,0.582-1.289,0.548-1.879-0.087c-2.057-2.212-4.539-3.798-7.291-4.991
			c-2.869-0.452-5.729-0.998-8.283-2.442c-0.582-0.33-0.793,0.179-1.184,0.089c-0.945,0.176-1.883,0.265-2.783-0.193
			c-0.207-0.161-0.347-0.365-0.424-0.614c0.044-1.782-0.506-3.603,0.361-5.328c1.882-0.909,3.74-0.049,5.541,0.241
			C67.152,14.536,72.27,17.026,77.031,20.283z"/>
		<path fill-rule="evenodd" clip-rule="evenodd" fill="#5B8BC8" d="M31.622,30.485c0.393-0.426,0.786-0.853,1.178-1.278
			c0.67-0.177,0.594-0.726,0.61-1.228c0.295-0.167,0.589-0.333,0.884-0.5c0.413,0.16,0.679,0.46,0.834,0.868
			c1.295,2.836,2.555,3.711,4.908,3.401c0.411,0.203,0.626,0.542,0.685,0.988c-0.677,2.009,0.885,2.887,2.049,3.902
			c0.757,0.661,1.302-0.147,1.892-0.518c2.39-1.503,4.693-3.229,7.729-3.161c0.494,0.221,0.979,0.451,0.944,1.118
			c-0.566,0.803-1.495,0.857-2.325,1.107c-1.629,0.489-3.176,1.153-4.519,2.213c-0.54,0.427-1.358,0.754-0.958,1.72
			c0.415,0.669,1.06,0.49,1.666,0.451c1.731-0.132,2.566,1.797,4.226,1.83c0.395,0.183,0.605,0.504,0.687,0.92
			c0.019,0.444,0.07,0.833,0.688,0.789c0.538-0.039,1.13-0.229,1.538,0.348c0.467,1.792-0.796,2.461-2.033,3.15
			c-0.786,0.282-1.182,0.93-1.52,1.634c-0.192,0.243-0.437,0.4-0.74,0.467c-0.815-0.202-2.093-1.362-1.737,0.846
			c-0.012,0.426-0.156,0.791-0.494,1.065c-0.417,0.281-0.807,0.609-1.283,0.797c-0.657,0.054-1.161-0.311-1.687-0.612
			c-1.428-0.47-2.855-0.471-4.278-0.005c-0.466,0.44-0.429,1.061-0.578,1.615c-0.153,0.448-0.395,0.791-0.927,0.793
			c-1.119-0.461-0.812-1.512-0.987-2.364c-0.011-0.433-0.136-0.855-0.142-1.288c-0.036-1.322,0.904-2.702-0.237-3.962
			c0.273-1.928,1.914-3.041,2.779-4.627c1.339-2.454,1.415-2.404-0.624-4.349c-0.533-0.509-1.096-0.968-1.754-1.305
			c-0.363-0.223-0.603-0.552-0.8-0.918c-0.263-0.516-0.668-0.923-1.03-1.367c-1.176-1.447-2.463-2.493-4.445-1.446
			C31.387,31.281,31.325,30.916,31.622,30.485z"/>
		<path fill-rule="evenodd" clip-rule="evenodd" fill="#5083C4" d="M55.881,13.371c0.023,1.886,0.047,3.773,0.071,5.659
			c-0.35,0.33-0.71,0.326-1.081,0.036c0.015-2.034,0.03-4.067,0.044-6.101C55.238,13.101,55.56,13.236,55.881,13.371z"/>
		<path fill-rule="evenodd" clip-rule="evenodd" fill="#4F83C3" d="M54.988,12.999c-1.025-0.02-2.051-0.04-3.076-0.061
			C52.951,12.259,53.979,12.166,54.988,12.999z"/>
		<path fill-rule="evenodd" clip-rule="evenodd" fill="#FFFFFF" d="M32.918,71.069c-0.331,0.281-0.682,0.543-0.992,0.847
			c-3.109,3.051-3.128,3.068-5.679-0.371c-4.279-5.77-6.839-12.208-7.374-19.4c-0.052-0.694-0.493-1.728,0.882-1.776
			c-0.004,0.872-0.016,1.743-0.008,2.614c0.002,0.277,0.057,0.553,0.113,1.062c0.438-0.684,0.769-1.202,1.069-1.67
			c3.976,2.032,5.039,5.909,6.372,9.627c0.265,0.739,0.738,1.403,1.115,2.102C30.156,66.271,32.352,68.144,32.918,71.069z"/>
		<path fill-rule="evenodd" clip-rule="evenodd" fill="#FFFFFF" d="M36.932,68.437c2.123-1.941,3.606,0.102,5.298,0.849
			c1.431-0.1,2.392,0.972,3.587,1.459c1.558,0.636,3.088,1.329,4.782,1.538c1.503,0.494,3.225,0.021,4.608,1.044
			c0.667,1.747,0.447,3.525,0.191,5.305c-1.038,1.467-2.729,1.244-3.998,0.997c-5.268-1.03-10.192-2.994-14.485-6.327
			c-0.23-0.179-0.447-0.375-0.658-0.577C34.307,70.847,34.465,69.839,36.932,68.437z"/>
		<path fill-rule="evenodd" clip-rule="evenodd" fill="#FFFFFF" d="M32.234,31.505c0.908-1.685,1.876-1.671,3.041-0.2
			c0.764,0.965,1.675,1.815,2.52,2.716c-1.985,3.406-3.833,6.882-5.3,10.549c-0.653,0.696-0.362,1.652-0.701,2.466
			c-1.227,2.946-3.608,2.162-5.835,1.957c-0.91-1.634-0.15-3.27,0.089-4.862c0.582-3.862,2.091-7.396,4.207-10.672
			C30.772,32.659,31.287,31.865,32.234,31.505z"/>
		<path fill-rule="evenodd" clip-rule="evenodd" fill="#5989C7" d="M46.567,51.387c0.07-0.636,0.375-1.015,1.065-0.972
			c0.685,0.546,0.746,1.418,1.125,2.125c1.111,2.485,3.03,3.967,5.662,4.566c0.883,0.443,2.395-0.204,2.569,1.472
			c-0.695,1.159-0.533,2.425-0.447,3.681c-0.32,0.866-0.422,1.869-1.417,2.323c-1.282-1.084-1.065-2.613-1.114-4.024
			c-0.021-0.628,0.088-1.163-0.685-1.35c-1.213-0.292-2.315-0.831-3.412-1.425c-1.259-0.682-1.825,0.523-2.507,1.179
			c-2.145,2.062-2.06,2.448,0.563,3.847c1.356,0.722,2.789,1.252,4.218,1.8c1.992,1.051,2.069,1.251,0.91,2.342
			c-2.81-0.365-5.384-1.39-7.626-3.092c-1.316-0.999-2.262-0.986-3.331,0.298c-0.514,0.617-1.048,1.47-2.129,1.2
			c-0.31,0.086-0.665,0.442-0.928,0.059c-0.364-0.529,0.458-0.558,0.494-0.948c-0.246-1.083,0.633-1.578,1.229-2.134
			c0.988-0.923,1.003-1.732,0.288-2.863c-1.077-1.7-2.347-3.377-2.136-5.591c0.239-0.378,0.583-0.589,1.024-0.648
			c1.3,0.416,1.15,1.735,1.641,2.652c0.609,1.139,1.085,3.073,2.189,2.976c1.367-0.12,2.312-1.82,3.268-2.996
			c0.501-0.617-0.033-1.234-0.286-1.826C46.425,53.182,45.849,52.337,46.567,51.387z"/>
		<path fill-rule="evenodd" clip-rule="evenodd" fill="#FFFFFF" d="M38.444,35.048c1.716,0.505,2.434,2.18,3.725,3.186
			c0.659,0.513-0.006,0.801-0.219,1.206c-1.146,2.185-2.735,4.064-4.115,6.087c-0.207,0.672,0.145,1.646-0.984,1.82
			c-1.916,0.394-2-1.822-3.294-2.312C33.646,40.952,35.269,37.62,38.444,35.048z"/>
		<path fill-rule="evenodd" clip-rule="evenodd" fill="#5A8AC8" d="M36.932,68.437c-2.15,2.549-2.116,2.505,0.608,4.653
			c4.131,3.255,9.006,4.834,13.971,6.093c0.945,0.239,2.281-0.029,3.427-0.185c0.29-0.209,0.586-0.406,0.945-0.478
			c2.685,0.608,5.158-1.115,7.828-0.724c0.545,0.257,1.115,0.495,1.053,1.259c-1.684,1.427-3.789,1.395-5.803,1.678
			c-0.762-0.095-1.516-0.457-2.297-0.083c-0.256,0.133-0.514,0.263-0.783,0.366c-0.287,0.082-0.574,0.08-0.86-0.001
			c-0.27-0.1-0.521-0.239-0.776-0.367c-0.759-0.38-1.499-0.055-2.245,0.068c-7.282-0.684-13.453-3.693-18.591-8.867
			c0.169-0.205,0.338-0.408,0.507-0.613c-0.333-0.056-0.665-0.111-0.998-0.167c-1.296-2.454-3.557-4.284-4.501-6.966
			c0.351-0.168,0.703-0.338,1.054-0.506c1.343,0.427,1.639,1.774,2.295,2.752c1.082,1.609,2.178,2.77,4.247,1.643
			C36.383,68.008,36.729,68.076,36.932,68.437z"/>
		<path fill-rule="evenodd" clip-rule="evenodd" fill="#FFFFFF" d="M40.01,65.357c1.165-1.084,2.237-2.875,3.522-3.043
			c1.186-0.155,2.541,1.554,3.928,2.219c1.739,0.834,3.585,1.441,5.386,2.147c0.146,0.619-0.232,1.065-0.708,1.147
			c-1.83,0.312-2.664,1.784-3.721,3.012c-2.433,0.442-4.107-0.942-5.755-2.391C42.223,67.036,39.812,67.316,40.01,65.357z"/>
		<path fill-rule="evenodd" clip-rule="evenodd" fill="#FEFFFF" d="M39.2,53.889c0.349,2.135,1.278,4.047,2.615,5.683
			c0.991,1.212,0.783,1.941-0.312,2.834c-0.722,0.59-1.29,1.368-1.927,2.062c-2.046-0.451-1.437-2.721-2.59-3.783
			c0.496-0.73,0.146-1.561,0.276-2.335c-0.132-0.608-0.264-1.218-0.396-1.827c-0.173-0.737-0.321-1.474,0.091-2.187
			c-0.002-1.302-0.004-2.604-0.006-3.905c0.585-0.529,1.161-0.5,1.729,0.027c0.127,0.873-0.262,1.808,0.313,2.627
			C39.465,53.25,39.343,53.566,39.2,53.889z"/>
		<path fill-rule="evenodd" clip-rule="evenodd" fill="#5A8AC8" d="M32.234,31.505c-3.799,5.216-5.918,11.037-6.275,17.488
			c-0.803-0.293-0.803-0.293-0.966-1.802c0.268-6.339,2.639-11.844,6.629-16.707C31.658,30.926,31.782,31.314,32.234,31.505z"/>
		<path fill-rule="evenodd" clip-rule="evenodd" fill="#FCFDFE" d="M36.012,67.992c-2.186,1.93-2.208,1.946-4.026-0.576
			c-0.891-1.235-1.68-2.544-2.516-3.818C32.431,63.901,34.284,65.854,36.012,67.992z"/>
		<path fill-rule="evenodd" clip-rule="evenodd" fill="#5C8AC8" d="M38.444,35.048c-2.286,3.007-4.042,6.275-4.888,9.986
			c-0.525,0.238-1.04,0.453-1.062-0.463c0.618-4.094,2.592-7.506,5.3-10.55C37.83,34.478,37.978,34.864,38.444,35.048z"/>
		<path fill-rule="evenodd" clip-rule="evenodd" fill="#5B8AC8" d="M42.662,68.449c2.02,0.392,3.466,2.28,5.678,2.173
			c1.405,0.033,2.157,0.62,1.811,2.138c-2.894-0.581-5.553-1.696-7.921-3.475C42.374,69.007,42.518,68.728,42.662,68.449z"/>
		<path fill-rule="evenodd" clip-rule="evenodd" fill="#F1F4FB" d="M36.851,47.347c0.557-0.483,0.148-1.488,0.984-1.82
			c1.903,1.131,0.705,2.585,0.412,3.946c-0.435,0.407-0.869,0.379-1.303-0.003C36.913,48.763,36.882,48.054,36.851,47.347z"/>
		<path fill-rule="evenodd" clip-rule="evenodd" fill="#5586C6" d="M28.564,50.361c-0.391-0.68-1.229-0.179-1.97-0.853
			c1.281,0,2.306-0.013,3.33,0.004c0.758,0.012,0.489,0.501,0.387,0.902C29.721,50.656,29.136,50.731,28.564,50.361z"/>
		<path fill-rule="evenodd" clip-rule="evenodd" fill="#5184C4" d="M37.262,58.35c0.39,0.836,0.659,1.656-0.276,2.335
			C37.016,59.899,36.684,59.07,37.262,58.35z"/>
		<path fill-rule="evenodd" clip-rule="evenodd" fill="#4F83C4" d="M36.944,49.47c0.434,0.001,0.868,0.002,1.303,0.003
			c0.145,0.328,0.29,0.655,0.434,0.984c-0.576-0.009-1.153-0.018-1.729-0.027C36.949,50.11,36.946,49.791,36.944,49.47z"/>
		<path fill-rule="evenodd" clip-rule="evenodd" fill="#4E82C3" d="M36.957,54.335c-0.031,0.729-0.061,1.458-0.091,2.187
			C36.317,55.77,36.267,55.037,36.957,54.335z"/>
		<path fill-rule="evenodd" clip-rule="evenodd" fill="#E2E9F6" d="M28.564,50.361c0.582,0.018,1.165,0.035,1.747,0.053
			C29.71,51.017,29.122,51.178,28.564,50.361z"/>
		<path fill-rule="evenodd" clip-rule="evenodd" fill="#5B8BC8" d="M50.151,72.76c-0.171-1.079-0.985-1.613-1.811-2.138
			c0.474-1.708,1.293-3.026,3.317-3.104c0.525-0.02,0.945-0.341,1.188-0.838c0.909-0.801,0.909-0.801-0.932-1.665
			c0.859-0.855,1.823-1.184,2.97-0.587c0.833-0.457,0.44-1.753,1.435-2.1c0.992-1.061-0.139-2.367,0.404-3.48
			c-0.174-1.812-1.977-0.41-2.606-1.322c0.739-1.004,2.003-0.417,2.886-0.964c0.682-0.384,0.496-1.209,0.883-1.741
			c0.543-0.737,1.572-0.154,2.145-0.804c0.285-0.537,0.717-0.948,1.131-1.366c0.328-0.761-0.342-0.945-0.744-1.277
			c-0.262-0.13-0.516-0.272-0.748-0.45c-0.467-0.493-1.1-0.849-1.295-1.567c0.58-1.785-0.406-3.094-1.705-3.832
			c-1.242-0.706-1.685-1.666-2.042-2.841c-0.239-0.174-0.481-0.341-0.721-0.516c-0.397-0.344-0.799-0.684-0.783-1.28
			c0.36-0.695,1.022-0.669,1.662-0.703c0.304,0.004,0.604,0.047,0.901,0.105c0.952,0.176,1.879-0.027,2.813-0.181
			c0.295,0.084,0.537,0.256,0.764,0.456c1.27,1.132,2.379,1.3,3.168-0.514c0.639-0.337,1.33-0.436,2.041-0.453
			c0.475,0.051,0.852,0.391,1.324,0.446c0.664,0.022,0.883-0.56,1.256-0.929c1.105-0.556,1.289,0.04,1.213,0.95
			c-0.078,0.175-0.078,0.175,0.137,0.166c0.281-0.195,0.58-0.26,0.91-0.226c1.971,1.187,3.557,2.978,5.832,3.682
			c0.215,0.581,0.275,1.191,0.346,1.8c-0.092,1.304-0.701,2.484-0.896,3.761c0.082,0.488,0.406,0.859,0.615,1.287
			c0.232,0.459,0.461,0.92,0.756,1.343c0.779,1.117,0.678,2.025-0.578,2.732c-1.857,1.045-2.648,2.573-2.359,4.763
			c0.219,1.665-0.385,3.175-1.566,4.368c1.592-0.369,1.598-2.587,3.266-2.938c0.572,0.137,0.928,0.509,1.143,1.035
			c-0.057,1.486-0.715,2.823-1.086,4.233c-0.223,0.852-0.225,1.599,0.566,2.154c0.4,0.279,0.713,0.848,1.314,0.568
			c0.457-0.211,0.461-0.703,0.482-1.145c0.014-0.293-0.02-0.593,0.045-0.877c0.189-0.835-0.016-1.957,0.883-2.359
			c1.162-0.521,1.521,0.843,2.275,1.315c0.324,0.264,0.627,0.545,0.785,0.944c-0.355,2.237-2.488,3.367-3.314,5.312
			c-0.289,0.151-0.578,0.303-0.865,0.453c-1.32,1.039-2.418,2.259-3.393,3.645c-2.186,3.105-5.572,4.14-8.869,2.875
			c-0.309-0.301-0.615-0.601-0.924-0.9c-1.02-0.312-1.803-0.519-2.059-1.991c-0.223-1.28-1.596-2.301-3.223-2.28
			c-0.936,0.012-1.869,0.104-2.803-0.031c-0.318-0.075-0.565-0.294-0.86-0.415C53.237,73.38,51.675,73.224,50.151,72.76z"/>
		<path fill-rule="evenodd" clip-rule="evenodd" fill="#FFFFFF" d="M77.818,71.986c-0.621-0.866,0.178-1.313,0.582-1.835
			c0.881-1.139,1.924-2.157,2.561-3.477c-0.203-0.893,0.371-1.542,0.738-2.238c1.896-3.603,3.238-7.369,3.648-11.453
			c0.105-1.056,0.156-2.231,1.207-2.949c1.844-0.293,3.695-0.693,5.451,0.352c0.355,9.44-3.186,17.404-9.229,24.431
			c-0.689,0.803-1.209,0.826-1.941,0.043C79.889,73.849,78.83,72.94,77.818,71.986z"/>
		<path fill-rule="evenodd" clip-rule="evenodd" fill="#FFFFFF" d="M33.408,71.85c1.146,0.05,1.74,0.983,2.511,1.609
			c4.815,3.908,10.275,6.231,16.465,6.8c0.73-0.169,1.458-0.279,2.171,0.073c0.146,0.149,0.292,0.299,0.439,0.448
			c0.903,1.904,0.999,3.799-0.073,5.678l0.067-0.017c-0.877,0.459-1.76,0.407-2.648,0.033c-3.395-0.46-6.675-1.35-9.864-2.594
			c-4.258-1.66-8.028-4.094-11.474-7.078c-1.012-0.876-1.373-1.566-0.124-2.544C31.792,73.546,32.57,72.659,33.408,71.85z"/>
		<path fill-rule="evenodd" clip-rule="evenodd" fill="#FFFFFF" d="M80.938,32.771c-0.533-0.771-0.898-1.814-1.631-2.261
			c-2.309-1.412-1.633-2.608,0.02-3.899c0.17-0.133,0.34-0.286,0.459-0.463c1.184-1.761,2.357-1.801,3.537-0.002
			c4.404,5.593,7.443,11.794,8.484,18.901c0.213,1.451,0.324,2.894,0.17,4.353c-1.725,1.019-3.578,0.416-5.381,0.433
			c-1.156-0.663-1.066-1.915-1.17-2.93c-0.455-4.462-1.9-8.573-4.043-12.475C81.104,33.916,80.789,33.402,80.938,32.771z"/>
		<path fill-rule="evenodd" clip-rule="evenodd" fill="#FFFFFF" d="M64.691,78.959c2.002-0.046,4.025,0.598,5.904-0.951
			c1.189-0.98,2.434-1.793,3.238-3.175c0.689-1.186,1.512-2.339,3.119-2.394c0.951,1.005,1.832,2.093,2.877,2.99
			c1.018,0.876,1.062,1.424-0.02,2.321c-5.477,4.536-11.652,7.441-18.73,8.362c-0.422,0.055-0.828,0.232-1.24,0.354
			c-1.156,0.45-2.326,0.312-3.498,0.092c-0.105-0.075-0.223-0.104-0.35-0.087c-0.938-1.881-0.72-3.782-0.106-5.691
			c0.146-0.149,0.292-0.299,0.438-0.448c0.713-0.353,1.441-0.241,2.17-0.073C60.621,80.112,62.684,79.672,64.691,78.959z"/>
		<path fill-rule="evenodd" clip-rule="evenodd" fill="#4F83C4" d="M86.311,49.413c1.889-0.004,3.777-0.009,5.666-0.014
			c0.01,0.329,0.02,0.658,0.029,0.987c-1.906,0.004-3.812,0.008-5.719,0.012C86.039,50.063,86.041,49.734,86.311,49.413z"/>
		<path fill-rule="evenodd" clip-rule="evenodd" fill="#4F83C4" d="M55.886,80.78c0.035,1.896,0.071,3.794,0.106,5.691
			c-0.356-0.004-0.713-0.009-1.07-0.013c0.023-1.894,0.048-3.786,0.072-5.679C55.292,80.78,55.588,80.78,55.886,80.78z"/>
		<path fill-rule="evenodd" clip-rule="evenodd" fill="#4E82C3" d="M56.342,86.559c1.166-0.031,2.332-0.062,3.498-0.092
			C58.693,87.246,57.523,87.129,56.342,86.559z"/>
		<path fill-rule="evenodd" clip-rule="evenodd" fill="#4F83C3" d="M52.341,86.475c0.882-0.011,1.765-0.021,2.647-0.033
			C54.116,87.232,53.232,87.169,52.341,86.475z"/>
		<path fill-rule="evenodd" clip-rule="evenodd" fill="#CCD8EF" d="M33.851,90.069c0-0.144-0.005-0.287-0.017-0.43
			c0.624,0.152,1.247,0.306,2.307,0.566C35.036,90.572,34.419,90.641,33.851,90.069z"/>
		<path fill-rule="evenodd" clip-rule="evenodd" fill="#5084C4" d="M7.918,42.526c-0.046,1.139-0.093,2.277-0.14,3.416
			c-0.657-1.125-0.366-2.312-0.222-3.488c0.003-0.022,0.124-0.052,0.181-0.04C7.802,42.428,7.858,42.487,7.918,42.526z"/>
		<path fill-rule="evenodd" clip-rule="evenodd" fill="#5989C7" d="M67.77,40.204c0.117-0.314,0.443-0.627,0.051-0.957
			c-0.221-0.186-0.385-0.058-0.502,0.157c-0.59,0.347-1.094,0.808-1.627,1.231c-0.512-0.074-0.818-0.391-1.004-0.849
			c-0.279-0.575,0.252-1.027,0.229-1.562c-0.037-0.462-0.389-0.834-0.377-1.312c0.111-0.415,0.34-0.716,0.781-0.812
			c0.781,0.007,1.545,0.286,2.316-0.256c1.76-1.235,1.408-3.313-1.012-4.766c-3.309-1.986-6.887-3.156-10.805-3.05
			c-0.324,0.015-0.646,0.016-0.97,0.015c-4.444,0-8.373,1.541-12.015,3.969c-0.698,0.465-1.298,1.234-2.315,0.919
			c-0.168-0.356-0.336-0.713-0.504-1.069c0.009-1.156,0.989-1.552,1.726-2.061c3.955-2.731,8.331-4.168,13.165-4.113
			c0.332-0.058,0.665-0.087,1-0.098c5.06,0.053,9.638,1.593,13.71,4.568c1.047,0.764,2.092,1.302,3.395,1.261
			c0.367,0.017,0.715,0.077,0.926,0.428c-0.32,1.324,0.049,2.362,0.92,3.468c3.264,4.138,4.557,9.014,4.945,14.184
			c0.014,0.346,0.008,0.69-0.014,1.035c-0.4,3.184-0.885,6.345-2.303,9.274c-0.412,0.848-0.715,1.781-1.801,2.025
			c-0.285-0.289-0.572-0.579-0.857-0.869c-0.383-0.858,0.197-1.526,0.463-2.248c0.98-2.65,1.967-5.295,1.842-8.191
			c-0.045-0.316-0.043-0.632,0-0.947c0.414-1.352-0.119-2.656-0.223-3.97c-0.207-0.151-0.453-0.2-0.689-0.279
			c-0.168-0.079-0.314-0.187-0.441-0.322c-0.25-0.322-0.367-0.674-0.266-1.08c0.602-0.945,0.215-1.828-0.18-2.708
			c-0.137-0.736-0.355-1.441-0.828-2.042c-0.822-0.565-1.576-1.03-1.816-2.234c-0.316-1.585-0.979-1.594-2.271-0.633
			c-1.418,1.052-1.742,2.315-1.225,3.907c-0.305,0.156-0.609,0.312-0.916,0.468C67.961,40.681,67.902,40.403,67.77,40.204z"/>
		<path fill-rule="evenodd" clip-rule="evenodd" fill="#FFFFFF" d="M79.26,49.412c-0.447-5.725-2.168-10.961-6.043-15.32
			c-1.154-1.298,0.594-1.466,0.721-2.244c1.484,0.395,2.762,1.144,3.781,2.289c0.994,1.119,1.633,0.959,1.979-0.483
			c1.324-0.07,1.699,1.031,2.166,1.881c2.074,3.782,3.125,7.876,3.506,12.154c0.084,0.941-0.17,1.747-1.107,2.193
			C82.562,50.065,80.83,50.6,79.26,49.412z"/>
		<path fill-rule="evenodd" clip-rule="evenodd" fill="#FFFFFF" d="M73.012,31.42c-0.922,1.113-1.713,0.76-2.697-0.045
			c-4.15-3.397-8.938-5.153-14.312-5.266c-1.267-1.766-0.767-3.655-0.393-5.538c0.333-0.5,0.852-0.632,1.398-0.704
			c0.762-0.055,1.527-0.048,2.287,0.049c1.998,0.552,4.092,0.74,6.039,1.508c0.727,0.287,1.535,0.435,1.928,1.238
			c-1.773,0.987-1.258,1.765-0.135,3.129C68.885,27.925,71.789,28.793,73.012,31.42z"/>
		<path fill-rule="evenodd" clip-rule="evenodd" fill="#5989C7" d="M84.51,49.47c0.771-2.208-0.002-4.339-0.494-6.418
			c-0.805-3.394-1.803-6.762-4.318-9.398c0.02-0.849,0.971-0.388,1.24-0.883c3.592,4.966,4.861,10.682,5.373,16.642
			c-0.008,0.329-0.016,0.657-0.023,0.986c-0.551,5.826-1.799,11.424-5.326,16.276c-0.322-0.167-0.645-0.333-0.965-0.5
			c-0.402-1.059,0.324-1.786,0.758-2.603c2.18-4.113,3.379-8.482,3.428-13.151C84.174,50.064,84.279,49.745,84.51,49.47z"/>
		<path fill-rule="evenodd" clip-rule="evenodd" fill="#5A8AC7" d="M57.225,20.361c-0.418,0.03-0.836,0.059-1.253,0.088
			c-0.267,0.181-0.531,0.367-0.861,0.421c-0.43,0.062-0.851,0.014-1.268-0.093c-0.498-0.153-0.997-0.306-1.425-0.619
			c-0.109-0.11-0.154-0.229-0.136-0.354c0.019-0.129,0.043-0.193,0.075-0.193c0.728-0.696,1.849,0.424,2.517-0.545
			c0.359-0.012,0.719-0.024,1.079-0.036c0.001,0-0.063,0.003-0.063,0.003c1.032,0.417,2.055,0.578,3.051-0.097
			c0.613-0.273,1.236-0.876,1.531,0.426c0.062,0.274,1.035,0.511,1.717,0.563c2.139,0.163,4.084,1.033,6.006,1.933
			c-0.311,0.268-0.621,0.535-0.93,0.802c-2.617-0.74-5.232-1.481-7.85-2.222C58.699,20.019,57.963,20.127,57.225,20.361z"/>
		<path fill-rule="evenodd" clip-rule="evenodd" fill="#91AEDB" d="M73.449,26.443c-0.199,0.408-0.406,0.285-0.559,0.152
			c-0.156-0.136-0.344-0.316-0.371-0.499c-0.045-0.293,0.232-0.312,0.398-0.197C73.135,26.05,73.297,26.281,73.449,26.443z"/>
		<path fill-rule="evenodd" clip-rule="evenodd" fill="#5A89C7" d="M52.356,19.612c0,0.122,0,0.245,0,0.367
			c-0.213,0.412-0.586,0.641-0.973,0.855c-1.738,0.803-3.663,0.985-5.45,1.637c-3.259,1.187-6.212,2.896-8.91,5.073
			c-0.64,0.517-1.206,1.386-2.267,0.871c-0.154-0.312-0.309-0.623-0.463-0.935c4.552-4.312,9.924-6.973,16.116-7.949
			C51.039,19.431,51.707,19.579,52.356,19.612z"/>
		<path fill-rule="evenodd" clip-rule="evenodd" fill="#4D82C3" d="M58.939,18.937c-0.986,1.003-2.008,0.855-3.051,0.097
			C56.906,19.001,57.922,18.969,58.939,18.937z"/>
		<path fill-rule="evenodd" clip-rule="evenodd" fill="#FFFFFF" d="M34.757,28.414c1.096-0.189,1.664-1.135,2.445-1.755
			c4.209-3.341,9.086-5.119,14.265-6.218c0.712-0.411,1.449-0.26,2.186-0.094c0.418,0.034,0.836,0.069,1.254,0.104
			c0.801,1.89,0.861,3.777-0.03,5.658c-1.124,1.04-2.414,0.022-3.681,0.309c-4.191,0.946-7.972,2.563-11.18,5.446
			c-1.076,1.022-2.098,1.208-3.039-0.178C36.237,30.594,34.575,30.131,34.757,28.414z"/>
		<path fill-rule="evenodd" clip-rule="evenodd" fill="#FFFFFF" d="M57.643,56.988c-1.066,0.894-2.348,0.373-3.526,0.538
			c-2.761-0.669-4.876-2.111-5.874-4.896c0.116-0.296,0.291-0.544,0.572-0.706c1.737,0.007,2.695-0.763,2.582-2.599
			c0.329-0.949-0.081-2.024,0.5-2.929c1.195-0.736,2.44-1.435,2.352-3.134c-0.109-0.623,0.245-0.958,0.746-1.203
			c-0.087,2.551,2.684,2.896,3.653,4.696c0.602,1.113,0.98,1.866-0.145,2.732c0.135,0.742,0.998,0.663,1.332,1.181
			c0.24,0.067,0.482,0.133,0.723,0.2c0.201,0.775,1.105,1.222,1,2.14c-0.697,0.178-0.943,0.806-1.309,1.315
			c-0.598,0.84-2.043-0.656-2.393,0.869C57.781,55.792,58.037,56.429,57.643,56.988z"/>
		<path fill-rule="evenodd" clip-rule="evenodd" fill="#FFFFFF" d="M40.52,32.932c4.271-3.214,8.867-5.566,14.399-5.437
			c1.174,1.574,0.644,3.305,0.467,5.005c-0.292,0.667-0.804,1.025-1.525,1.092c-0.505-0.061-1.005-0.152-1.485-0.335
			c-3.583,0.445-6.448,2.292-9.26,4.844c-0.871-0.965-1.672-2.014-2.64-2.877C39.501,34.354,39.699,33.681,40.52,32.932z"/>
		<path fill-rule="evenodd" clip-rule="evenodd" fill="#FEFFFF" d="M54.845,40.64c-0.6,0.065-1.25-0.082-1.754,0.401
			c-0.384,0.629-0.945,0.745-1.611,0.553c-0.703,0.211-1.401,0.733-1.926-0.37c-0.474-0.993-1.622-0.987-2.5-1.372
			c-0.634,0.084-1.217-0.048-1.746-0.413c-1.525-0.474-0.922-1.141-0.143-1.782c2.357-1.94,5.134-2.939,8.075-3.559
			c0.65-0.51,1.296-0.553,1.94,0.012C55.718,36.32,56.172,38.526,54.845,40.64z"/>
		<path fill-rule="evenodd" clip-rule="evenodd" fill="#FFFFFF" d="M46.567,51.387c-0.036,0.674,0.23,1.272,0.409,1.905
			c0.25,0.885,1.554,1.675,0.989,2.442c-1.112,1.511-2.557,2.8-3.981,4.047c-0.544,0.477-0.805-0.382-1.083-0.717
			c-1.373-1.652-1.975-3.701-2.811-5.629c-0.572-0.298-0.077-0.988-0.493-1.344c0.088-0.608-0.304-1.338,0.45-1.779
			c1.754-0.121,3.517-0.462,5.243,0.187C45.714,50.795,46.141,51.091,46.567,51.387z"/>
		<path fill-rule="evenodd" clip-rule="evenodd" fill="#F9FBFD" d="M40.099,45.976c0.306-0.876,0.548-1.783,0.946-2.615
			c0.204-0.425,0.128-1.347,1.017-1.064c0.648,0.207,1.181,0.725,1.011,1.48c-0.234,1.043-0.611,2.055-0.927,3.081
			C40.808,48.083,40.599,46.692,40.099,45.976z"/>
		<path fill-rule="evenodd" clip-rule="evenodd" fill="#E3E9F6" d="M40.099,45.976c0.72,0.207,0.953,1.543,2.046,0.881
			c0.475,0.785,0.95,1.57,1.426,2.355c-0.136,0.078-0.243,0.193-0.351,0.193C39.966,49.403,39.966,49.401,40.099,45.976z"/>
		<path fill-rule="evenodd" clip-rule="evenodd" fill="#F5F8FC" d="M48.848,52.091c-0.202,0.18-0.403,0.359-0.605,0.539
			c-0.393-0.686-0.644-1.411-0.611-2.215c0.164-0.314,0.327-0.629,0.49-0.944c0.137-0.509,0.465-0.532,0.877-0.351
			c0.41,0.302,0.858,0.226,1.312,0.119c0.203-0.008,0.394,0.029,0.579,0.107c0.692,0.669,0.228,1.119-0.296,1.55
			C50.047,51.347,49.364,51.597,48.848,52.091z"/>
		<path fill-rule="evenodd" clip-rule="evenodd" fill="#F3F7FC" d="M54.994,42.061c-0.25,0.401-0.499,0.803-0.747,1.203
			c-0.619,0.169-1.24,0.483-1.859,0.479c-1.135-0.008-1.551-0.454-0.481-1.343c0.631-0.631,1.358-0.817,2.197-0.464
			C54.4,41.977,54.697,42.019,54.994,42.061z"/>
		<path fill-rule="evenodd" clip-rule="evenodd" fill="#ECF0F9" d="M48.813,49.452c-0.241-0.359-0.464-0.078-0.692,0.021
			c-0.542-0.666-0.882-1.451-0.023-2.001c1.278-0.82,1.265,0.938,2.045,1.182c0.046,0.076,0.093,0.152,0.14,0.229
			c-0.018,0.088-0.035,0.175-0.052,0.263c-0.076,0.048-0.151,0.095-0.227,0.143C49.629,49.499,49.274,49.861,48.813,49.452z"/>
		<path fill-rule="evenodd" clip-rule="evenodd" fill="#B0C5E6" d="M51.896,46.397c0.198,1.048,0.133,2.093-0.038,3.138
			c-0.394,0.188-0.627-0.116-0.904-0.292c-0.214-0.153-0.378-0.345-0.484-0.587c-0.056-0.177-0.018-0.328,0.129-0.446
			C50.62,47.31,50.734,46.479,51.896,46.397z"/>
		<path fill-rule="evenodd" clip-rule="evenodd" fill="#5A8AC8" d="M54.104,41.935c-0.746,0.09-1.387,0.677-2.197,0.464
			c-0.142-0.269-0.284-0.537-0.426-0.805c0.466-0.393,1.009-0.56,1.612-0.553C53.429,41.339,53.766,41.637,54.104,41.935z"/>
		<path fill-rule="evenodd" clip-rule="evenodd" fill="#4E82C3" d="M45.288,50.499c-1.748-0.062-3.496-0.124-5.243-0.186
			C41.812,49.801,43.573,49.514,45.288,50.499z"/>
		<path fill-rule="evenodd" clip-rule="evenodd" fill="#4F83C4" d="M54.963,34.201c-0.574-0.034-1.148-0.067-1.723-0.102
			c-0.288-0.28-0.577-0.561-0.865-0.841c0.439-0.005,0.877-0.01,1.316-0.015C54.01,33.704,55.267,32.918,54.963,34.201z"/>
		<path fill-rule="evenodd" clip-rule="evenodd" fill="#5B8BC8" d="M45.309,39.44c0.634-0.083,1.246-0.074,1.746,0.413
			C46.312,40.391,45.652,40.583,45.309,39.44z"/>
		<path fill-rule="evenodd" clip-rule="evenodd" fill="#4F83C3" d="M39.595,52.091c0.58,0.296,0.445,0.854,0.493,1.344
			c-0.296,0.151-0.592,0.302-0.888,0.453c-0.069-0.268-0.137-0.537-0.206-0.805C39.444,52.905,39.566,52.526,39.595,52.091z"/>
		<path fill-rule="evenodd" clip-rule="evenodd" fill="#BBCCE9" d="M50.6,48.209c-0.008,0.109-0.015,0.219-0.021,0.329
			c-0.115,0.203-0.265,0.234-0.45,0.092l0.014,0.023C50.296,48.505,50.448,48.357,50.6,48.209z"/>
		<path fill-rule="evenodd" clip-rule="evenodd" fill="#5083C4" d="M54.824,73.341c0.406,0.005,0.811,0.01,1.217,0.015
			c0.75,1.896,0.822,3.778-0.102,5.643c-0.333,0-0.667,0-1,0C54.9,77.112,54.862,75.227,54.824,73.341z"/>
		<path fill-rule="evenodd" clip-rule="evenodd" fill="#FFFFFF" d="M54.883,64.429c-1.058-0.15-1.894,0.825-2.97,0.587
			c-2.255-0.652-4.364-1.584-6.238-3.038c-0.912-0.708-1.032-1.311-0.083-2.044c0.286-0.221,0.55-0.486,0.771-0.771
			c1.48-1.9,2.933-3.204,5.382-1.098c1.102,0.948,2.563,2.172,2.782,3.585C54.672,62.572,54.767,63.502,54.883,64.429z"/>
		<path fill-rule="evenodd" clip-rule="evenodd" fill="#FAFBFE" d="M56.723,58.849c0.297,1.21,2.053,2.589-0.404,3.48
			C55.994,61.116,55.145,59.842,56.723,58.849z"/>
		<path fill-rule="evenodd" clip-rule="evenodd" fill="#FEFEFF" d="M55.939,78.998c0.033-1.881,0.067-3.762,0.102-5.643
			c0.512-0.02,1.076,0.096,1.525-0.081c2.135-0.835,3.154,1.23,4.75,1.774c0.197,0.068,0.461,0.604,0.406,0.663
			c-1.441,1.6,0.607,1.615,1.045,2.347C61.156,78.354,58.652,79.545,55.939,78.998z"/>
		<path fill-rule="evenodd" clip-rule="evenodd" fill="#4E82C3" d="M54.555,80.332c-0.724-0.023-1.447-0.049-2.171-0.073
			C53.127,79.729,53.853,79.68,54.555,80.332z"/>
		<path fill-rule="evenodd" clip-rule="evenodd" fill="#4E82C3" d="M58.494,80.259c-0.723,0.024-1.445,0.049-2.17,0.073
			C57.027,79.68,57.752,79.729,58.494,80.259z"/>
		<path fill-rule="evenodd" clip-rule="evenodd" fill="#FFFFFF" d="M84.518,50.359c0.631,2.423-0.195,4.714-0.707,7.014
			c-0.705,3.167-2.316,5.966-3.814,8.802c-0.783-0.217-0.666-1.907-1.635-1.346c-0.664,0.385-1.027,1.708-0.705,2.515
			c0.43,1.079,0.043,1.663-0.633,2.286c-0.207,0.191-0.463,0.433-0.713,0.454c-0.463,0.04-2.475-2.809-2.303-3.297
			c0.574-1.646,0.766-3.423,1.678-4.953c2.414-3.423,3.01-7.412,3.559-11.417C80.994,49.664,82.752,49.742,84.518,50.359z"/>
		<path fill-rule="evenodd" clip-rule="evenodd" fill="#FEFEFF" d="M64.717,37.071c0.236,0.319,0.729,0.449,0.709,0.958
			c-0.803,0.968-2.346,0.999-2.893,2.289c-0.422,0.584,0.361,1.865-0.803,1.884c-1.035,0.017-2.213-0.245-2.699-1.483
			c0.006-0.378-0.188-0.565-0.559-0.579c-0.672,1.105-1.717,0.445-2.601,0.546c-0.781-2.11-0.425-4.266-0.261-6.415
			c0.523-0.784,1.309-0.72,2.096-0.651C60.248,34.352,62.986,34.688,64.717,37.071z"/>
		<path fill-rule="evenodd" clip-rule="evenodd" fill="#FEFFFF" d="M75.688,41.172c0.895,1.011,1.533,2.023,0.004,3.037
			c-0.467,0.242-0.611-0.101-0.768-0.423c-2.506-0.233-3.918-2.222-5.73-3.568c-0.137-0.899-1.701-1.403-1.053-2.33
			c0.859-1.227,1.973-2.489,3.275-3.12c0.965-0.467,2.025,1.317,1.918,1.81c-0.328,1.492,0.711,1.723,1.463,2.299
			C73.215,40.371,75.449,40.384,75.688,41.172z"/>
		<path fill-rule="evenodd" clip-rule="evenodd" fill="#FEFEFF" d="M77.467,50.362c0.637,2.423-0.305,4.636-0.994,6.854
			c-0.402,1.295-1.086,2.502-1.645,3.748c-0.824,0.38-0.885,1.3-1.365,1.922c-0.938,1.218-2.047,1.977-3.934,1.195
			c2.912-1.209,3.371-3.154,2.754-5.896c-0.332-1.481,0.891-2.966,2.262-3.681c1.479-0.772,2.336-1.304,0.609-2.682
			c-0.416-0.332-0.396-0.917-0.324-1.441C75.703,49.615,76.584,49.727,77.467,50.362z"/>
		<path fill-rule="evenodd" clip-rule="evenodd" fill="#F6F9FD" d="M77.053,45.116c0.609,1.414,1.125,2.836,0.416,4.375
			c-1.191,0.597-2.365,0.772-3.488-0.157c0.402-1.255,0.805-2.511,1.207-3.767c0.18-0.428,0.459-0.65,0.941-0.462l0.096-0.064
			C76.402,46.156,76.752,45.368,77.053,45.116z"/>
		<path fill-rule="evenodd" clip-rule="evenodd" fill="#F8FAFD" d="M66.48,64.111c-2.189,1.068-4.082,2.958-6.926,2.288
			c2.635-0.883,4.781-2.677,7.344-3.688C67.242,63.322,67.422,63.885,66.48,64.111z"/>
		<path fill-rule="evenodd" clip-rule="evenodd" fill="#5083C4" d="M55.907,34.196c-0.012,2.163-0.023,4.327-0.035,6.49
			c-0.342-0.015-0.684-0.03-1.026-0.045c0.039-2.146,0.078-4.293,0.118-6.439c-0.137-0.7-1-0.436-1.271-0.958
			c0.404-0.173,0.809-0.347,1.213-0.521c0.278-0.204,0.586-0.297,0.933-0.258c0.548,0.117,1.077,0.273,1.448,0.737
			C57.348,34.254,56.113,33.512,55.907,34.196z"/>
		<path fill-rule="evenodd" clip-rule="evenodd" fill="#D9E2F3" d="M62.533,40.317c-0.025-2.014,1.422-2.166,2.893-2.289
			c0.168,0.76-0.439,1.195-0.738,1.758C64.037,40.244,63.279,40.255,62.533,40.317z"/>
		<path fill-rule="evenodd" clip-rule="evenodd" fill="#DFE6F5" d="M59.32,60.81c-0.438,0.013-0.807-0.332-0.629-0.775
			c0.219-0.55-0.004-1.407,0.775-1.613c0.658-0.173,0.887,0.32,0.863,0.897C60.305,59.968,60.291,60.652,59.32,60.81z"/>
		<path fill-rule="evenodd" clip-rule="evenodd" fill="#5083C4" d="M73.98,49.334c1.162,0.052,2.326,0.104,3.488,0.157
			c0,0.291,0,0.581-0.002,0.872c-0.879,0.007-1.758,0.013-2.637,0.02C74.365,50.18,74.045,49.862,73.98,49.334z"/>
		<path fill-rule="evenodd" clip-rule="evenodd" fill="#EDF1FA" d="M65.445,60.948c-0.285,0.858-0.59,1.508-1.398,1.587
			c-0.316,0.03-0.305-0.401-0.277-0.675C63.881,60.757,64.68,61.062,65.445,60.948z"/>
		<path fill-rule="evenodd" clip-rule="evenodd" fill="#E5EBF7" d="M59.832,64.476c-0.9,0.544-1.816,0.985-3.051,0.6
			c0.975-1.226,2.08-0.555,3.072-0.584L59.832,64.476z"/>
		<path fill-rule="evenodd" clip-rule="evenodd" fill="#5083C4" d="M57.748,54.786c0.615-1.334,1.705-0.103,2.5-0.462
			c0.424,0.41,0.545,0.763-0.238,0.726c-0.648-0.03-1.291-0.171-1.938-0.263C57.963,54.988,57.855,54.999,57.748,54.786z"/>
		<path fill-rule="evenodd" clip-rule="evenodd" fill="#4F83C3" d="M66.48,64.111c0.439-0.377,0.422-0.891,0.418-1.4
			c0.746,0.002,1.215,0.467,0.988,1.1C67.74,64.215,67.1,64.711,66.48,64.111z"/>
		<path fill-rule="evenodd" clip-rule="evenodd" fill="#6A94CD" d="M61.557,53.009c-0.365-0.698-1.414-1.077-0.998-2.14
			C62.285,52.17,62.285,52.17,61.557,53.009z"/>
		<path fill-rule="evenodd" clip-rule="evenodd" fill="#F9FBFD" d="M76.129,45.105c-0.314,0.154-0.627,0.308-0.941,0.461
			c-0.625-0.515-0.312-1.167-0.264-1.782c0.256,0.141,0.512,0.282,0.768,0.423C75.836,44.507,75.982,44.806,76.129,45.105z"/>
		<path fill-rule="evenodd" clip-rule="evenodd" fill="#FCFDFE" d="M65.691,40.636c0.02-1.102,0.77-1.239,1.627-1.231
			C67.051,40.177,66.668,40.799,65.691,40.636z"/>
		<path fill-rule="evenodd" clip-rule="evenodd" fill="#5888C6" d="M58.473,40.139c0.242-0.45,0.734-0.97,1.09-0.634
			c0.543,0.515,0.041,0.967-0.531,1.213C58.846,40.525,58.658,40.332,58.473,40.139z"/>
		<path fill-rule="evenodd" clip-rule="evenodd" fill="#C1D1EB" d="M59.854,64.491c-0.008-0.323-0.59-0.857,0.281-0.858
			c0.311-0.001,0.861-0.037,0.771,0.456c-0.102,0.542-0.693,0.301-1.074,0.387L59.854,64.491z"/>
		<path fill-rule="evenodd" clip-rule="evenodd" fill="#5285C5" d="M59.834,50.669c-0.426-0.415-1.902,0.356-1.332-1.181
			C59.016,49.803,59.736,49.884,59.834,50.669z"/>
		<path fill-rule="evenodd" clip-rule="evenodd" fill="#4E82C3" d="M57.748,54.786c0.109,0,0.217,0.001,0.324,0.001
			c-0.09,0.744,0.307,1.583-0.43,2.201C57.678,56.254,57.713,55.52,57.748,54.786z"/>
		<path fill-rule="evenodd" clip-rule="evenodd" fill="#FFFFFF" d="M67.77,40.204c0.168,0.16,0.338,0.32,0.508,0.48
			c-0.084,0.322-0.053,0.919-0.516,0.744C66.943,41.119,67.762,40.624,67.77,40.204z"/>
		<path fill-rule="evenodd" clip-rule="evenodd" fill="#FFFFFF" d="M57.205,33.188c-0.473-0.093-1.057,0.168-1.369-0.431
			c-0.557-1.768-0.714-3.526,0.114-5.264c4.169-0.118,7.857,1.329,11.437,3.318c1.258,0.699,0.918,2.603,2.52,2.883
			c0.039,0.006,0.102,0.327,0.037,0.396c-0.883,0.966-1.688,2.044-2.719,2.825c-0.789,0.6-1.391-0.393-2.035-0.777
			c-2.473-0.579-4.566-2.235-7.146-2.508C57.711,33.58,57.428,33.443,57.205,33.188z"/>
		<path fill-rule="evenodd" clip-rule="evenodd" fill="#5D8BC8" d="M58.08,33.235c2.684,0.198,5.023,1.236,7.109,2.903
			c-0.158,0.311-0.314,0.622-0.473,0.933c-2.039-1.386-4.33-2.188-6.664-2.896C57.822,33.855,57.816,33.542,58.08,33.235z"/>
		<path fill-rule="evenodd" clip-rule="evenodd" fill="#4F83C4" d="M54.877,26.108c0.01-1.886,0.021-3.772,0.03-5.658
			c0.354,0,0.709,0,1.063,0c0.011,1.886,0.021,3.773,0.031,5.659C55.627,26.108,55.252,26.108,54.877,26.108z"/>
		<path fill-rule="evenodd" clip-rule="evenodd" fill="#4F83C4" d="M84.518,50.359c-1.758,0.019-3.516,0.039-5.273,0.058
			c0.004-0.335,0.01-0.67,0.016-1.005c1.75,0.02,3.5,0.039,5.25,0.059C84.512,49.767,84.514,50.063,84.518,50.359z"/>
		<path fill-rule="evenodd" clip-rule="evenodd" fill="#4F83C4" d="M55.95,27.492c-0.038,1.755-0.076,3.51-0.114,5.264
			c-0.31-0.011-0.62-0.022-0.93-0.034c0.004-1.742,0.009-3.484,0.014-5.227C55.263,27.495,55.606,27.493,55.95,27.492z"/>
		<path fill-rule="evenodd" clip-rule="evenodd" fill="#6B93CD" d="M75.688,41.172c-0.516-0.018-1.039-0.041-1.42-0.454
			c-0.34-0.369-0.955-0.803-0.912-1.139c0.09-0.697,0.889-0.583,1.441-0.703C75.561,39.46,75.854,40.228,75.688,41.172z"/>
		<path fill-rule="evenodd" clip-rule="evenodd" fill="#A4BBE1" d="M77.053,45.116c-0.045,0.581-0.309,1.037-0.828,1.629
			c0-0.737,0-1.22,0-1.704C76.5,45.066,76.777,45.091,77.053,45.116z"/>
		<path fill-rule="evenodd" clip-rule="evenodd" fill="#4E82C3" d="M57.225,20.361c0.75-0.565,1.484-0.607,2.189,0.079
			C58.684,20.414,57.955,20.388,57.225,20.361z"/>
		<path fill-rule="evenodd" clip-rule="evenodd" fill="#4E82C3" d="M53.653,20.347c-0.729,0.031-1.458,0.062-2.186,0.094
			c0.186-0.367,0.518-0.452,0.889-0.462C52.817,19.998,53.315,19.892,53.653,20.347z"/>
		<path fill-rule="evenodd" clip-rule="evenodd" fill="#618ECA" d="M51.021,49.07c0.279,0.155,0.559,0.309,0.838,0.464
			c-0.037,2.29-0.821,2.956-3.011,2.557c-0.074-0.926,0.666-1.098,1.271-1.453c0.408-0.239,1.204-0.484,0.458-1.22
			c-0.101-0.097-0.136-0.196-0.107-0.297c0.03-0.102,0.061-0.153,0.093-0.153C50.741,48.885,50.896,48.913,51.021,49.07z"/>
		<path fill-rule="evenodd" clip-rule="evenodd" fill="#6F97CF" d="M48.813,49.452c0.438-0.141,0.876-0.281,1.314-0.421
			c0.234,0.166,0.249,0.35,0.043,0.55C49.648,50.27,49.169,50.509,48.813,49.452z"/>
		<path fill-rule="evenodd" clip-rule="evenodd" fill="#427ABF" d="M50.17,49.581c-0.015-0.184-0.029-0.367-0.043-0.55l-0.015-0.015
			c0.175-0.146,0.333-0.129,0.475,0.049c-0.012,0.118-0.016,0.236-0.011,0.354C50.446,49.487,50.311,49.541,50.17,49.581z"/>
		<path fill-rule="evenodd" clip-rule="evenodd" fill="#85A5D6" d="M50.587,49.065c-0.158-0.016-0.317-0.033-0.475-0.049
			c0.006-0.129,0.011-0.258,0.017-0.386c0.15-0.03,0.3-0.061,0.45-0.091c0.147,0.176,0.295,0.354,0.442,0.531l-0.217-0.005H50.587z"
			/>
		<path fill-rule="evenodd" clip-rule="evenodd" fill="#4F83C4" d="M58.08,33.235c-0.01,0.313-0.018,0.626-0.027,0.939
			c-0.715,0.007-1.43,0.014-2.146,0.021c0.155-0.693,1.05-0.433,1.298-1.008C57.496,33.204,57.789,33.219,58.08,33.235z"/>
	</g>
</g>
</svg>
