<?xml version="1.0" standalone="no"?>
<!DOCTYPE svg PUBLIC "-//W3C//DTD SVG 20010904//EN"
 "http://www.w3.org/TR/2001/REC-SVG-20010904/DTD/svg10.dtd">
<svg version="1.0" xmlns="http://www.w3.org/2000/svg"
 width="1010.000000pt" height="1010.000000pt" viewBox="0 0 1010.000000 1010.000000"
 preserveAspectRatio="xMidYMid meet">
<metadata>
Created by potrace 1.11, written by Peter Selinger 2001-2013
</metadata>
<g transform="translate(0.000000,1010.000000) scale(0.100000,-0.100000)"
fill="#000000" stroke="none">
<path d="M2230 9101 c-168 -67 -339 -152 -443 -218 -39 -25 -74 -49 -77 -52
-3 -3 -23 -19 -44 -35 -113 -84 -254 -262 -315 -398 -16 -35 -58 -156 -94
-269 -35 -112 -74 -228 -86 -258 l-22 -54 68 60 c37 32 127 107 198 165 215
175 286 251 450 483 85 119 236 327 245 335 3 3 23 28 45 55 21 28 81 92 132
144 51 52 91 96 90 97 -1 2 -68 -23 -147 -55z"/>
<path d="M7805 9068 c111 -114 209 -235 353 -438 243 -341 294 -399 497 -565
66 -54 159 -131 206 -171 l86 -73 -35 92 c-19 51 -52 153 -74 227 -67 225
-111 322 -203 445 -60 80 -124 147 -193 202 -26 21 -49 40 -52 43 -17 18 -184
117 -267 159 -77 38 -391 171 -405 171 -2 0 38 -42 87 -92z"/>
<path d="M5068 8995 c-2 -1 -37 -5 -78 -9 -41 -3 -84 -7 -95 -10 -11 -2 -45
-7 -75 -11 -142 -17 -552 -135 -680 -194 l-45 -21 48 6 c27 3 59 7 70 10 133
26 284 38 492 37 127 0 289 -1 360 -1 72 0 229 0 350 1 190 2 311 -4 398 -18
12 -2 38 -6 57 -9 19 -2 70 -10 113 -16 43 -6 81 -9 85 -6 3 3 -1 6 -9 6 -9 0
-33 8 -55 19 -38 18 -265 98 -301 106 -10 2 -34 9 -53 15 -82 26 -321 69 -475
86 -27 3 -62 7 -77 9 -15 1 -28 2 -30 0z"/>
<path d="M4447 8754 c-1 -1 -29 -5 -62 -8 -78 -8 -104 -12 -260 -42 -204 -40
-272 -61 -365 -117 -84 -50 -330 -214 -340 -226 -3 -4 -32 -29 -65 -56 -33
-28 -85 -73 -115 -102 -30 -28 -79 -74 -109 -102 -90 -83 -68 -84 68 -4 69 41
147 86 173 99 26 13 51 30 55 38 12 22 132 75 338 149 99 36 250 99 335 140
189 91 289 125 535 183 105 25 195 47 200 49 6 2 -79 3 -188 2 -109 -1 -199
-2 -200 -3z"/>
<path d="M5490 8720 c287 -75 378 -109 670 -248 47 -23 130 -57 185 -77 134
-48 323 -124 360 -145 17 -10 62 -36 102 -59 39 -22 89 -50 110 -62 21 -12 73
-42 116 -66 43 -25 80 -43 83 -41 7 8 -206 209 -316 297 -185 149 -429 300
-525 327 -67 18 -80 21 -245 57 -103 23 -163 33 -255 43 -16 2 -122 6 -235 9
l-205 6 155 -41z"/>
<path d="M5048 8745 c-2 -2 -30 -5 -63 -9 -33 -3 -71 -8 -85 -10 -14 -3 -41
-7 -60 -10 -55 -9 -94 -16 -112 -22 -9 -3 -26 -7 -38 -9 -62 -12 -190 -52
-310 -97 -141 -53 -227 -92 -180 -83 40 8 211 33 265 39 28 4 70 9 95 12 25 3
133 5 240 4 287 -3 329 -3 510 0 140 3 333 -5 350 -15 3 -2 32 -6 65 -10 33
-3 106 -14 163 -24 56 -9 102 -16 102 -14 0 3 -37 19 -207 89 -116 48 -272 94
-358 107 -16 3 -46 8 -65 11 -199 35 -304 48 -312 41z"/>
<path d="M1370 8661 c-137 -53 -239 -120 -356 -236 -98 -97 -157 -177 -203
-277 -46 -100 -81 -225 -98 -353 -9 -71 -8 -450 1 -515 11 -74 16 -402 7 -448
-7 -35 -6 -40 5 -31 8 6 14 15 14 20 0 15 70 121 128 192 75 94 147 164 277
265 410 320 615 562 705 832 32 95 37 118 45 205 l6 60 -38 -71 c-75 -138
-152 -217 -353 -367 -74 -55 -175 -131 -225 -168 -187 -140 -296 -268 -393
-459 -46 -92 -46 -74 0 60 87 255 110 333 143 496 90 446 143 574 302 732 46
45 82 82 81 81 -2 0 -23 -9 -48 -18z"/>
<path d="M8722 8635 c135 -102 233 -284 292 -538 16 -70 17 -72 41 -195 29
-151 64 -275 129 -464 36 -104 61 -188 57 -188 -5 0 -15 15 -22 33 -19 46 -92
169 -134 224 -63 84 -185 201 -288 276 -407 296 -480 364 -561 522 l-36 70 5
-62 c23 -319 257 -655 690 -988 178 -138 209 -165 303 -273 63 -72 109 -137
155 -217 l28 -50 -6 65 c-7 80 -7 263 0 328 21 177 26 464 11 602 -7 57 -12
88 -32 187 -10 49 -58 171 -90 230 -77 139 -214 282 -364 379 -63 40 -183 94
-212 94 -6 0 10 -16 34 -35z"/>
<path d="M3450 8486 c-74 -34 -171 -82 -215 -105 -157 -84 -465 -300 -526
-368 -92 -103 -240 -318 -337 -490 -63 -110 -176 -343 -169 -349 2 -3 29 29
59 71 30 41 57 73 59 71 2 -3 36 36 74 85 70 90 306 329 420 424 33 28 69 61
80 75 30 38 151 164 238 248 42 42 77 81 77 88 0 10 130 118 303 248 67 51 85
67 75 66 -2 -1 -64 -29 -138 -64z"/>
<path d="M6603 8513 c19 -16 82 -64 138 -108 57 -44 115 -89 129 -100 41 -34
233 -229 306 -312 84 -95 146 -156 249 -248 182 -161 327 -324 490 -552 32
-46 60 -83 62 -83 2 0 -5 17 -16 38 -10 20 -29 60 -41 87 -119 263 -227 446
-400 676 -103 135 -217 235 -382 334 -237 142 -334 194 -485 263 -88 39 -96
40 -50 5z"/>
<path d="M3605 8274 c-243 -105 -340 -159 -575 -322 -101 -69 -156 -115 -181
-149 -122 -165 -233 -342 -303 -480 -64 -129 -118 -262 -110 -274 3 -6 49 48
101 118 145 195 194 249 413 459 63 60 169 166 235 235 66 68 179 171 250 227
126 100 169 137 190 162 6 6 24 22 40 35 38 30 37 30 -60 -11z"/>
<path d="M6500 8270 c19 -17 94 -76 165 -132 91 -71 233 -205 471 -443 291
-291 357 -363 458 -497 66 -87 122 -158 126 -158 20 0 -101 287 -167 398 -48
82 -198 304 -247 365 -65 81 -411 321 -556 384 -30 14 -68 31 -85 38 -16 7
-55 22 -85 33 -30 11 -68 25 -85 31 l-30 11 35 -30z"/>
<path d="M5169 8232 c-1 -4 -1 -10 -1 -13 1 -3 -78 -5 -175 -5 -126 1 -177 -2
-180 -11 -3 -8 18 -13 64 -16 37 -2 99 -10 137 -17 61 -12 66 -15 51 -27 -24
-17 -15 -25 30 -25 27 0 34 -3 26 -11 -14 -14 -14 -30 -1 -22 6 3 10 2 10 -4
0 -5 -6 -11 -12 -14 -11 -3 51 -30 73 -32 3 0 13 -8 22 -17 16 -16 16 -17 -3
-23 -28 -9 -25 -25 6 -25 14 0 23 -4 19 -10 -3 -5 0 -10 7 -11 17 -1 35 -5 83
-17 41 -11 129 -26 223 -37 84 -10 125 -28 133 -57 5 -20 3 -25 -10 -22 -9 2
-54 5 -101 8 -47 3 -101 8 -121 11 -23 5 -39 3 -43 -4 -11 -17 -51 -13 -106
11 -51 22 -64 38 -32 38 16 1 16 1 -1 11 -22 13 -217 21 -217 9 0 -4 6 -11 13
-13 6 -3 -32 -4 -87 -1 -54 2 -104 7 -110 12 -12 9 -74 8 -190 -3 -65 -6 -69
-5 -55 11 13 15 12 16 -11 11 -16 -5 -14 -2 8 8 37 17 38 39 1 42 -13 1 -36 3
-51 5 -15 3 -61 -1 -102 -7 -49 -8 -80 -8 -92 -2 -27 15 -122 0 -235 -37 -116
-39 -165 -47 -162 -29 2 7 -4 10 -12 7 -8 -4 -15 -10 -15 -15 0 -5 -6 -9 -14
-9 -18 0 -222 -66 -261 -85 -17 -7 -43 -16 -58 -19 -15 -3 -54 -10 -87 -16
-33 -6 -76 -18 -97 -26 -38 -16 -175 -112 -181 -127 -2 -4 -17 -14 -33 -22
-16 -9 -29 -22 -29 -30 0 -7 -8 -16 -18 -19 -17 -6 -144 -132 -218 -217 -130
-149 -290 -395 -379 -583 -90 -190 -118 -261 -141 -361 -8 -33 -20 -71 -28
-85 -22 -41 -63 -229 -72 -330 -2 -30 -7 -63 -10 -72 -13 -44 -24 -173 -27
-331 -2 -69 1 -86 11 -82 8 3 16 5 18 5 2 0 4 9 4 21 0 13 10 23 30 30 17 6
30 15 30 21 0 5 11 24 25 42 14 18 25 41 25 51 0 17 1 17 18 2 10 -10 23 -17
29 -17 6 0 16 -7 23 -15 33 -39 57 -3 63 94 3 40 13 75 33 112 40 75 55 84 75
48 16 -30 -12 -126 -52 -178 -39 -51 -69 -102 -69 -119 0 -28 -30 -66 -43 -53
-6 6 -20 11 -32 11 -11 0 -31 7 -43 16 -34 24 -45 9 -37 -53 14 -112 76 -264
136 -336 23 -26 45 -63 50 -81 5 -18 19 -45 32 -60 13 -14 35 -51 50 -80 23
-46 27 -65 25 -127 -1 -41 -7 -90 -14 -110 -7 -21 -8 -41 -3 -51 9 -16 22 -82
21 -108 -1 -38 23 -83 63 -118 24 -21 62 -62 85 -91 33 -42 41 -59 40 -89 -4
-77 10 -106 78 -159 13 -10 24 -32 27 -51 5 -40 20 -65 77 -124 24 -24 60 -63
82 -86 46 -50 125 -97 183 -110 23 -5 54 -19 70 -30 30 -21 44 -25 80 -23 21
1 23 6 22 54 -2 53 9 80 62 165 17 26 21 48 21 115 0 55 4 87 13 97 26 29 65
127 67 166 1 51 -4 67 -57 160 -25 43 -45 88 -45 99 0 11 13 77 29 147 26 115
32 131 73 185 25 32 51 69 58 82 11 21 14 22 22 8 5 -10 17 -17 27 -17 11 0
24 -12 31 -30 7 -17 26 -40 42 -51 16 -12 36 -39 45 -60 8 -21 20 -39 27 -39
6 0 29 -32 51 -71 25 -45 59 -87 90 -112 28 -23 63 -54 79 -69 17 -15 32 -28
35 -28 20 1 30 22 35 73 5 58 4 60 -35 100 -68 71 -72 76 -66 91 4 9 0 19 -7
23 -7 5 -15 15 -19 25 -3 9 -19 19 -36 23 -17 3 -60 33 -96 66 -36 32 -70 59
-75 59 -6 0 -10 6 -10 13 0 16 -44 59 -56 55 -19 -5 -74 12 -74 23 0 7 -7 20
-15 29 -8 9 -17 44 -20 78 -5 60 -4 63 24 80 16 10 44 17 63 16 18 -1 41 -2
50 -3 15 -1 16 -8 11 -51 -5 -43 -4 -50 10 -44 19 7 47 -43 73 -131 17 -60 49
-120 75 -142 33 -27 90 -52 105 -46 18 7 12 48 -12 74 -8 8 -14 34 -14 56 0
48 -28 80 -96 113 -36 18 -46 29 -56 63 -6 23 -22 52 -35 64 -21 20 -22 24 -8
50 8 15 15 38 15 49 0 32 24 47 62 40 18 -3 43 -8 55 -10 13 -3 37 -21 54 -40
17 -20 40 -36 50 -36 14 0 19 -7 19 -27 0 -16 4 -34 8 -41 9 -14 42 -6 42 10
0 19 47 55 87 67 42 11 73 9 146 -10 22 -6 57 -11 79 -11 35 0 46 5 77 40 20
22 58 52 86 68 51 29 84 60 85 81 0 15 110 133 123 133 5 0 5 -6 0 -12 -6 -7
-13 -23 -16 -36 -6 -26 26 -54 52 -44 14 5 14 3 3 -11 -19 -22 -7 -37 30 -37
18 0 36 -7 44 -17 13 -17 13 -17 14 0 0 17 1 17 28 0 15 -10 32 -25 39 -33 16
-20 16 1 0 32 -7 14 -18 23 -25 20 -6 -2 -15 4 -18 13 -5 12 -14 14 -33 10
-23 -5 -30 -1 -39 19 -13 28 -7 51 19 79 9 10 16 24 15 30 -18 84 -19 87 -31
77 -6 -5 -14 -7 -18 -4 -7 7 7 54 24 81 11 19 9 28 -15 72 -22 42 -25 54 -15
72 17 32 22 79 10 93 -8 10 -8 28 1 64 8 35 8 59 1 74 -7 16 -5 34 8 68 24 64
18 115 -20 171 -17 26 -31 54 -31 63 0 9 -3 16 -7 16 -5 0 -17 7 -27 15 -19
14 -18 16 18 51 32 31 55 41 104 43 24 2 12 21 -13 21 -14 0 -33 9 -42 20 -23
26 -32 25 -43 -5 -14 -37 -54 -34 -70 5 -7 17 -18 30 -26 30 -14 0 -29 18 -21
26 2 3 17 7 32 10 35 6 84 31 111 55 18 17 23 17 39 5 19 -14 19 -15 1 -35
-28 -30 -15 -34 35 -11 48 21 95 25 119 10 13 -8 13 -13 2 -30 -15 -24 -7 -42
16 -39 32 3 41 -1 53 -23 9 -18 8 -24 -6 -34 -15 -11 -15 -15 -2 -36 9 -14 12
-31 7 -43 -12 -33 -1 -52 26 -47 13 2 27 8 30 13 3 5 16 9 29 9 72 0 69 125
-4 194 -17 17 -31 33 -31 36 0 3 15 14 34 22 19 9 57 37 85 62 73 65 86 71
125 52 35 -16 65 -13 106 13 31 20 29 18 139 125 64 63 91 96 91 113 0 13 9
42 21 65 25 49 20 78 -22 119 -28 27 -35 29 -74 24 -31 -5 -53 -2 -79 10 -42
20 -43 25 -13 52 40 36 91 61 184 92 94 32 131 34 278 15 28 -4 57 -7 65 -6 8
0 50 -9 93 -20 79 -20 118 -21 118 -3 1 24 40 51 71 49 18 -1 43 -2 56 -3 12
0 30 -10 39 -21 20 -24 67 -26 103 -5 36 21 50 18 50 -9 0 -27 -16 -36 -66
-36 -24 0 -44 -8 -62 -25 -15 -14 -46 -30 -69 -36 -62 -16 -73 -34 -59 -90 7
-25 25 -67 40 -93 l28 -48 28 27 c25 24 30 25 50 13 16 -9 24 -10 27 -2 4 11
91 2 113 -11 20 -12 9 13 -24 56 -25 34 -31 48 -23 60 9 15 14 14 43 -6 19
-13 60 -28 91 -34 32 -5 72 -13 88 -16 33 -6 76 -34 83 -53 3 -9 -3 -10 -23
-2 -14 5 -33 10 -41 10 -19 0 -18 -24 1 -40 22 -18 1 -39 -36 -38 -17 1 -37
-6 -46 -15 -15 -14 -12 -18 31 -44 26 -15 59 -38 73 -51 29 -27 49 -24 46 7
-3 27 10 27 40 -1 14 -13 43 -35 66 -50 33 -22 41 -34 41 -58 0 -16 5 -30 11
-30 22 0 97 -55 108 -80 6 -14 24 -50 41 -80 17 -30 33 -68 36 -84 7 -42 16
-55 78 -114 69 -67 79 -96 68 -194 -8 -77 -2 -118 18 -118 18 0 38 65 39 127
1 30 2 31 42 27 44 -4 69 -18 69 -39 0 -12 52 -16 64 -5 2 3 -8 48 -24 100
-67 228 -175 475 -224 516 -21 19 -30 34 -28 50 2 13 -5 36 -16 51 -10 16 -21
33 -23 38 -2 6 -20 35 -39 65 -33 51 -35 53 -38 28 -7 -56 -61 -31 -66 30 -1
20 -17 47 -44 76 -42 45 -51 69 -32 81 23 14 -182 243 -330 367 -52 44 -57 46
-68 28 -8 -13 -19 -17 -34 -13 -13 3 -36 7 -53 10 l-30 4 34 -30 34 -30 -49
15 c-27 9 -56 17 -64 19 -82 18 -118 30 -135 44 -11 10 -33 23 -48 29 -15 7
-26 16 -23 21 8 12 -23 37 -66 55 -20 9 -39 20 -43 26 -8 14 1 13 33 -4 45
-22 82 -28 82 -13 0 14 -40 37 -65 37 -8 0 -17 5 -21 11 -5 9 1 10 20 5 14 -3
37 -9 50 -12 19 -4 24 -2 23 13 -2 13 9 20 40 28 l42 10 -77 45 c-203 118
-536 254 -698 284 -86 16 -145 26 -189 32 -72 9 -385 13 -386 6z m170 -261 c9
-6 -5 -9 -40 -9 -38 0 -48 2 -34 8 27 11 57 12 74 1z m-754 -72 c19 -9 19 -9
-2 -5 -12 2 -57 -5 -100 -15 -81 -20 -144 -25 -88 -8 17 5 41 11 55 14 14 3
41 9 60 14 45 11 51 11 75 0z m2255 -340 c0 -11 -21 -12 -46 -2 -16 6 -16 7 2
13 22 8 44 2 44 -11z m597 -756 c3 -38 -13 -53 -23 -21 -3 12 -16 30 -28 40
-21 18 -21 18 14 16 31 -3 35 -6 37 -35z m-107 -3 c0 -5 -2 -10 -4 -10 -3 0
-8 5 -11 10 -3 6 -1 10 4 10 6 0 11 -4 11 -10z m200 -110 c0 -13 -1 -13 -10 0
-5 8 -10 22 -10 30 0 13 1 13 10 0 5 -8 10 -22 10 -30z"/>
<path d="M630 7998 c-37 -40 -167 -241 -212 -329 -82 -160 -119 -259 -152
-414 -26 -120 -28 -136 -31 -290 -6 -263 28 -410 210 -901 38 -101 90 -281 99
-340 4 -22 12 -68 18 -104 l12 -65 7 47 c10 64 54 197 95 283 69 146 138 258
307 494 319 447 402 620 472 984 12 63 5 94 -11 45 -15 -50 -77 -131 -160
-210 -370 -351 -454 -443 -551 -606 -43 -71 -86 -168 -99 -227 -6 -24 -44
-231 -44 -238 0 -5 -5 -5 -10 -2 -9 6 -9 25 5 185 22 258 26 511 11 655 -4 44
-10 82 -11 85 -2 3 -6 34 -10 70 -4 36 -8 72 -10 80 -2 8 -6 44 -10 80 -3 36
-8 83 -11 105 -6 50 -6 252 0 282 2 11 8 43 12 70 9 65 48 176 80 230 29 51
27 66 -6 31z"/>
<path d="M9442 8013 c2 -5 18 -39 36 -77 56 -115 74 -201 77 -376 3 -138 -1
-203 -19 -345 -3 -22 -8 -60 -12 -85 -3 -25 -7 -61 -10 -80 -3 -19 -7 -62 -10
-95 -3 -33 -7 -71 -9 -85 -6 -33 -7 -278 -1 -310 2 -14 7 -65 10 -115 13 -191
17 -251 21 -282 3 -18 1 -34 -4 -37 -10 -7 -21 29 -28 94 -9 84 -51 228 -87
300 -94 187 -224 337 -571 659 -90 83 -143 147 -172 209 -8 17 -20 32 -25 32
-5 0 -7 -3 -5 -7 3 -5 8 -24 11 -43 36 -230 118 -450 241 -650 62 -101 79
-126 251 -370 236 -334 332 -518 375 -720 6 -28 14 -48 17 -45 4 4 7 10 8 13
0 12 16 116 19 132 14 69 55 206 101 338 187 527 208 617 209 862 0 265 -49
468 -171 713 -44 88 -164 278 -228 360 -13 17 -31 24 -24 10z"/>
<path d="M3932 7990 c-30 -10 -68 -29 -85 -40 l-32 -22 29 7 c17 3 57 8 90 9
34 2 88 7 120 11 39 5 57 4 53 -2 -4 -7 17 -5 56 2 34 8 82 16 107 20 49 7 77
24 45 26 -65 5 -119 -3 -156 -21 -44 -23 -60 -20 -39 5 11 14 7 15 -40 9 -38
-5 -51 -3 -46 5 11 17 -42 13 -102 -9z m-15 -36 c-3 -3 -12 -4 -19 -1 -8 3 -5
6 6 6 11 1 17 -2 13 -5z"/>
<path d="M3784 7965 c-18 -14 -18 -14 4 -8 12 3 22 9 22 14 0 12 -3 11 -26 -6z"/>
<path d="M2598 7573 c-165 -169 -254 -279 -364 -453 -113 -177 -145 -239 -158
-306 -2 -10 -13 -57 -25 -104 -38 -158 -50 -223 -67 -365 -2 -16 -6 -122 -9
-235 -4 -189 0 -220 19 -125 6 32 46 187 57 220 5 17 18 61 29 99 24 80 73
198 158 378 33 70 63 137 67 150 4 13 11 25 15 28 4 3 33 73 65 155 70 184
129 307 235 492 45 79 80 148 78 154 -2 6 -47 -33 -100 -88z"/>
<path d="M7450 7663 c0 -5 6 -17 14 -28 29 -41 185 -313 221 -385 21 -41 69
-163 107 -270 38 -107 96 -251 130 -320 33 -69 69 -145 80 -170 11 -25 27 -61
35 -80 20 -45 70 -197 78 -236 3 -16 8 -40 11 -54 3 -14 7 -32 9 -40 2 -8 7
-28 10 -45 3 -16 11 -55 19 -85 l14 -55 -4 105 c-6 152 -14 293 -18 315 -2 11
-7 52 -12 90 -4 39 -8 72 -9 75 -1 3 -5 25 -9 50 -5 25 -10 54 -13 65 -2 11
-6 31 -9 45 -17 89 -60 241 -77 275 -61 122 -214 360 -287 446 -107 127 -290
317 -290 302z"/>
<path d="M5910 7223 c0 -13 -5 -23 -10 -23 -21 0 -29 -44 -13 -69 10 -16 17
-58 20 -125 2 -55 6 -102 8 -105 3 -2 11 2 19 8 9 8 24 10 38 6 21 -7 21 -6
-4 14 -50 40 -28 118 26 93 22 -10 22 -7 -10 41 -19 28 -34 61 -35 72 -1 33
-6 50 -22 81 -15 27 -16 27 -17 7z"/>
<path d="M6852 7121 c-11 -7 -11 -9 2 -14 20 -8 48 2 40 14 -7 11 -25 11 -42
0z"/>
<path d="M6799 7037 c-8 -22 -4 -36 12 -40 23 -6 27 28 4 37 -8 3 -15 4 -16 3z"/>
<path d="M6255 6870 c4 -6 11 -8 16 -5 14 9 11 15 -7 15 -8 0 -12 -5 -9 -10z"/>
<path d="M5902 6842 c1 -36 -19 -73 -35 -66 -22 8 -46 -28 -40 -58 6 -32 12
-34 39 -13 17 13 17 14 2 15 -29 0 -20 20 10 21 34 2 31 2 70 -13 30 -11 35
-11 43 4 6 10 27 21 50 24 34 6 38 9 27 22 -11 13 -10 15 4 9 9 -3 21 0 26 6
8 9 -4 12 -47 12 -49 0 -62 4 -98 33 -22 17 -43 32 -46 32 -3 0 -5 -13 -5 -28z"/>
<path d="M6170 6850 c-22 -14 -6 -27 18 -14 17 8 19 13 9 17 -8 3 -20 2 -27
-3z"/>
<path d="M112 6658 c-26 -66 -54 -171 -84 -313 -20 -95 -23 -138 -22 -315 0
-189 8 -272 39 -435 13 -68 66 -265 88 -331 50 -144 145 -293 337 -524 158
-190 263 -329 308 -406 20 -35 43 -66 50 -68 13 -6 12 4 -3 149 -7 56 -6 225
0 271 15 108 23 141 134 504 91 301 158 594 186 810 7 56 13 102 21 160 7 50
8 319 2 325 -2 3 -16 -39 -31 -93 -35 -124 -67 -192 -167 -352 -261 -421 -354
-688 -345 -990 4 -133 7 -153 51 -302 3 -10 2 -18 -3 -18 -17 0 -67 171 -103
355 -45 233 -86 354 -228 665 -122 269 -168 393 -203 550 -15 67 -21 313 -9
366 13 56 6 53 -18 -8z"/>
<path d="M9966 6695 c3 -11 8 -81 9 -155 4 -235 -42 -401 -212 -775 -30 -66
-61 -133 -68 -150 -81 -177 -144 -383 -172 -560 -9 -59 -66 -271 -80 -298 -22
-43 -27 -25 -9 30 45 137 54 350 22 514 -38 198 -160 475 -319 725 -42 67 -90
148 -106 180 -27 56 -76 194 -86 244 -8 40 -15 35 -16 -11 -4 -110 1 -251 11
-334 13 -103 18 -134 41 -270 9 -56 56 -282 64 -315 45 -167 68 -248 155 -530
68 -224 74 -259 74 -430 1 -156 -6 -259 -18 -278 -3 -6 -2 -13 3 -17 11 -6 19
4 91 115 48 73 128 175 305 390 99 120 198 260 242 340 30 56 81 177 89 211 9
42 13 57 33 129 44 156 72 356 76 535 3 200 -4 271 -45 450 -11 50 -23 101
-26 114 -8 38 -40 126 -54 147 -11 18 -11 18 -4 -1z"/>
<path d="M5880 6680 c0 -6 -5 -8 -10 -5 -16 10 -41 -15 -39 -39 3 -42 -1 -55
-27 -86 -28 -33 -96 -68 -102 -51 -2 5 -18 -7 -36 -26 -31 -35 -34 -36 -103
-34 -61 1 -75 -2 -100 -22 -15 -13 -37 -29 -48 -36 -17 -10 -12 -11 30 -7 28
3 63 8 79 12 21 5 27 4 22 -5 -4 -6 -18 -11 -30 -11 -34 0 -48 -20 -30 -44 13
-19 15 -19 33 -2 11 10 25 15 31 11 6 -4 18 -1 26 6 13 10 13 15 -1 35 -17 26
-7 31 25 14 11 -6 17 -17 14 -24 -8 -22 15 -30 35 -12 10 9 23 16 30 16 8 0
11 6 7 15 -6 18 7 19 35 4 15 -7 24 -7 34 1 8 7 20 10 27 8 7 -3 19 2 27 10
10 10 16 11 19 3 2 -7 9 -8 22 -1 18 9 31 58 30 113 0 15 5 27 12 27 7 0 19
12 25 27 11 22 10 31 -2 50 -8 12 -15 29 -15 37 0 8 -4 18 -10 21 -5 3 -10 1
-10 -5z"/>
<path d="M8165 6625 c2 -16 9 -59 14 -95 6 -36 13 -87 16 -115 4 -27 9 -61 12
-75 3 -14 7 -225 10 -470 2 -245 4 -497 6 -560 2 -106 -2 -187 -17 -308 -3
-26 -9 -69 -12 -97 -4 -27 -8 -57 -9 -66 -2 -9 -6 -40 -10 -70 -4 -30 -9 -58
-12 -64 -4 -7 -2 -7 5 0 12 12 101 257 131 360 57 200 105 491 105 635 0 123
-31 316 -80 498 -31 115 -116 363 -143 417 -19 37 -21 38 -16 10z"/>
<path d="M1945 6558 c-74 -199 -134 -394 -150 -488 -3 -19 -12 -71 -20 -115
-8 -44 -17 -104 -20 -134 -4 -30 -9 -63 -11 -75 -6 -28 -6 -155 0 -182 2 -11
7 -45 10 -76 7 -63 51 -287 66 -333 6 -16 22 -70 36 -120 34 -115 115 -337
121 -331 3 3 0 35 -6 73 -7 37 -13 82 -16 98 -2 17 -6 44 -9 60 -15 90 -19
155 -18 300 1 274 1 612 -1 800 -2 158 2 236 19 350 21 149 32 240 30 243 -2
1 -16 -30 -31 -70z"/>
<path d="M2219 6553 c-5 -16 -30 -78 -54 -138 -75 -192 -111 -317 -139 -490
-2 -16 -14 -86 -25 -154 -11 -68 -19 -133 -16 -145 2 -12 6 -41 9 -66 11 -98
49 -270 96 -435 21 -71 122 -340 132 -350 7 -7 8 -3 4 10 -5 20 -40 259 -51
350 -6 51 -7 106 -7 475 0 118 0 268 0 334 0 107 4 178 17 276 2 19 7 55 10
80 6 48 20 149 30 215 3 22 8 46 10 53 9 25 -6 11 -16 -15z"/>
<path d="M7914 6543 c5 -16 25 -141 41 -253 4 -25 10 -79 14 -120 9 -85 7
-974 -1 -1005 -3 -11 -9 -51 -13 -88 -3 -37 -8 -76 -10 -86 -3 -16 -8 -53 -21
-161 -2 -19 -7 -44 -10 -55 -23 -89 99 220 141 354 23 74 30 105 40 166 3 17
8 41 10 55 50 251 61 378 40 460 -2 8 -7 34 -10 57 -19 138 -121 475 -198 656
-16 37 -33 52 -23 20z"/>
<path d="M5362 6342 c-24 -19 -20 -32 10 -32 21 0 22 -4 6 -30 -10 -15 -10
-22 -1 -31 17 -17 41 -4 55 28 7 15 16 30 19 33 12 9 -16 38 -42 44 -15 4 -32
0 -47 -12z"/>
<path d="M7485 6008 c-16 -6 -39 -18 -50 -27 -11 -9 -32 -23 -47 -31 -31 -15
-36 -35 -12 -44 29 -11 44 -6 78 28 39 37 98 55 122 35 11 -9 14 -8 14 4 0 18
-38 47 -60 46 -8 0 -28 -5 -45 -11z"/>
<path d="M7217 5900 c-15 -12 -27 -25 -27 -28 0 -10 71 -34 95 -33 11 1 33 2
49 3 l28 2 -27 22 c-18 14 -23 24 -16 28 19 12 4 22 -37 24 -27 2 -47 -4 -65
-18z"/>
<path d="M7654 5883 c3 -21 10 -58 15 -83 17 -75 15 -80 -25 -78 -21 1 -39 -4
-45 -13 -8 -14 -13 -85 -9 -160 1 -26 -6 -45 -23 -65 -22 -25 -28 -27 -49 -17
-28 12 -58 1 -58 -22 0 -34 -34 -7 -45 35 -4 18 -23 34 -63 55 -60 31 -69 33
-64 9 4 -19 -27 -18 -34 1 -5 12 -14 9 -48 -14 -44 -32 -138 -51 -151 -32 -10
17 -55 13 -55 -4 0 -8 -13 -21 -29 -30 -16 -8 -33 -24 -36 -36 -4 -11 -9 -18
-13 -15 -8 9 -51 -22 -80 -56 -32 -38 -52 -47 -124 -59 -108 -17 -147 -46
-189 -137 l-28 -63 29 -46 c33 -52 34 -69 3 -100 -31 -31 -55 -31 -92 0 -37
31 -53 30 -123 -4 -31 -15 -48 -29 -48 -41 0 -15 -7 -18 -33 -16 -18 1 -39 -2
-46 -6 -7 -5 -39 -10 -70 -11 -63 -3 -98 -18 -150 -65 -18 -16 -41 -30 -50
-31 -36 -1 -67 -10 -79 -23 -19 -19 -30 -76 -21 -108 9 -33 1 -35 -43 -8 l-33
19 -45 -29 c-25 -16 -51 -36 -59 -43 -11 -13 -18 -12 -46 7 -27 17 -33 26 -30
46 4 20 -2 30 -24 43 -37 22 -53 21 -102 -3 -35 -19 -45 -40 -17 -40 5 0 21
-9 35 -20 14 -11 29 -17 34 -14 5 3 9 0 9 -5 0 -6 -9 -11 -20 -11 -11 0 -20
-4 -20 -10 0 -5 7 -10 15 -10 9 0 15 -9 15 -21 0 -19 4 -21 32 -15 20 4 37 1
47 -8 9 -7 35 -16 58 -19 71 -9 116 -37 125 -77 5 -25 3 -38 -8 -46 -34 -26
-1 -48 48 -31 22 7 34 4 58 -13 16 -12 41 -23 55 -26 30 -5 65 11 65 30 0 8 6
18 13 24 9 8 12 -7 10 -71 -1 -56 3 -87 13 -101 8 -11 14 -30 14 -41 0 -12 11
-36 25 -55 14 -19 25 -39 25 -45 0 -24 37 -43 90 -48 62 -5 129 -28 172 -59
28 -19 29 -23 23 -69 l-7 -48 56 -55 c30 -31 67 -73 81 -96 29 -46 36 -47 105
-20 28 11 53 20 56 20 3 0 -8 -18 -25 -39 -17 -21 -31 -46 -31 -55 0 -33 57
-42 128 -21 17 6 22 3 22 -12 0 -28 9 -33 36 -23 29 11 33 -5 5 -20 -16 -8
-18 -13 -8 -35 13 -28 20 -30 48 -15 30 17 23 -5 -13 -39 -57 -54 -6 -35 58
21 117 102 193 191 194 228 0 8 7 28 15 44 10 20 13 43 9 80 -4 33 -1 70 10
106 17 59 23 93 30 180 12 133 32 243 52 281 7 14 34 43 61 65 91 74 112 97
124 133 6 20 15 41 19 46 4 6 21 50 38 99 17 49 42 105 56 125 32 47 41 83 28
121 -7 18 -7 32 -1 35 5 4 9 37 9 75 0 59 -5 78 -31 127 -31 57 -31 59 -19
123 6 36 14 79 17 95 3 17 6 32 8 34 8 8 25 -12 25 -30 0 -28 21 -23 55 11 17
17 40 40 53 52 12 12 22 29 22 39 0 39 31 88 66 105 20 10 40 29 46 43 18 46
25 56 39 56 13 0 15 26 10 110 -2 19 -2 20 -16 1 -13 -18 -16 -18 -40 -2 -14
9 -26 23 -26 31 -4 43 -19 65 -46 65 -23 0 -24 -3 -19 -37z m-354 -400 c0 -5
-5 -15 -10 -23 -8 -12 -10 -11 -10 8 0 12 5 22 10 22 6 0 10 -3 10 -7z"/>
<path d="M7105 5860 c-3 -5 3 -10 14 -10 12 0 21 5 21 10 0 6 -6 10 -14 10 -8
0 -18 -4 -21 -10z"/>
<path d="M7425 5841 c-3 -5 -1 -12 5 -16 12 -7 30 2 30 16 0 12 -27 12 -35 0z"/>
<path d="M6940 5516 c0 -9 5 -16 10 -16 6 0 10 4 10 9 0 6 -4 13 -10 16 -5 3
-10 -1 -10 -9z"/>
<path d="M1976 5269 c2 -91 6 -176 9 -190 2 -13 6 -53 9 -89 10 -105 60 -394
77 -437 5 -13 7 -23 5 -23 -2 0 2 -22 9 -49 22 -85 222 -396 349 -543 88 -103
257 -278 267 -278 4 0 -29 62 -73 138 -114 194 -177 324 -243 502 -31 85 -61
157 -66 158 -5 2 -9 10 -9 19 0 8 -26 72 -59 141 -105 226 -121 263 -121 276
0 6 -4 16 -9 22 -16 16 -68 182 -105 334 -19 80 -37 154 -40 165 -3 11 -3 -55
0 -146z"/>
<path d="M8170 5427 c0 -9 -81 -318 -107 -407 -19 -66 -82 -216 -153 -364 -28
-60 -71 -163 -95 -230 -93 -261 -150 -389 -255 -571 -26 -44 -62 -107 -80
-140 l-34 -60 30 20 c58 39 335 348 340 379 1 8 26 51 56 97 82 126 128 199
128 204 0 3 11 22 24 43 31 47 107 352 130 522 13 94 29 510 20 510 -2 0 -4
-1 -4 -3z"/>
<path d="M2360 5369 c0 -5 5 -7 10 -4 6 3 10 8 10 11 0 2 -4 4 -10 4 -5 0 -10
-5 -10 -11z"/>
<path d="M4917 5350 c9 -16 23 -30 30 -30 20 0 15 38 -6 50 -35 18 -43 11 -24
-20z"/>
<path d="M2305 5321 c2 -18 6 -36 9 -39 10 -9 6 42 -4 58 -7 11 -8 6 -5 -19z"/>
<path d="M5040 5322 c0 -5 11 -14 25 -20 24 -11 25 -10 15 8 -10 20 -40 28
-40 12z"/>
<path d="M5100 5321 c0 -5 7 -11 15 -15 17 -6 21 -36 4 -36 -6 0 -19 -10 -30
-22 -10 -13 -18 -17 -19 -10 0 21 -26 13 -38 -13 -6 -14 -16 -25 -22 -25 -13
0 21 -49 34 -50 4 0 6 9 3 20 -3 13 0 20 9 20 7 0 21 14 29 30 9 17 20 28 25
25 15 -9 12 -35 -4 -35 -7 0 -19 -7 -26 -15 -10 -12 -9 -15 8 -15 11 0 22 7
26 15 3 8 12 15 20 15 9 0 12 7 9 20 -4 14 0 20 12 20 14 0 15 6 10 33 -4 17
-9 35 -12 40 -6 10 -53 9 -53 -2z"/>
<path d="M1106 5295 c6 -32 6 -243 0 -253 -2 -4 -6 -29 -10 -57 -7 -59 -17
-111 -50 -265 -32 -147 -36 -172 -51 -290 -6 -44 -7 -248 -1 -275 2 -11 7 -45
11 -75 17 -137 81 -321 152 -435 23 -38 43 -74 43 -79 0 -31 -119 120 -213
269 -83 134 -173 240 -363 435 -244 249 -267 274 -353 381 -87 107 -138 187
-181 283 -34 74 -71 201 -72 247 -1 16 -5 32 -9 35 -9 5 -4 -371 5 -426 22
-124 40 -201 66 -281 112 -342 360 -641 785 -944 46 -33 196 -131 332 -218
137 -87 283 -182 325 -212 l76 -54 -35 77 c-19 42 -39 82 -43 87 -23 31 -83
189 -100 263 -20 94 -45 236 -55 317 -3 28 -8 64 -10 80 -5 36 -12 112 -20
220 -4 44 -8 91 -10 105 -2 14 -7 66 -10 115 -4 50 -8 97 -10 105 -2 8 -7 49
-10 90 -4 41 -9 82 -10 91 -2 9 -6 40 -10 70 -11 91 -55 295 -86 401 -30 101
-94 250 -83 193z"/>
<path d="M8981 5303 c-28 -53 -102 -291 -116 -373 -3 -19 -10 -51 -15 -70 -5
-19 -14 -71 -20 -115 -6 -44 -13 -91 -15 -105 -2 -14 -7 -54 -10 -90 -4 -36
-8 -76 -10 -90 -2 -14 -6 -61 -10 -105 -3 -44 -8 -96 -10 -115 -2 -19 -7 -71
-10 -115 -4 -44 -8 -91 -10 -105 -2 -14 -6 -59 -10 -100 -3 -41 -8 -82 -10
-90 -2 -8 -7 -40 -10 -70 -9 -76 -52 -285 -72 -345 -8 -27 -36 -90 -60 -138
-24 -48 -55 -113 -68 -143 l-24 -55 62 46 c34 25 166 111 292 192 503 321 684
463 871 686 195 231 304 461 349 732 4 22 8 51 11 65 9 52 13 386 4 400 -6 10
-9 6 -8 -15 0 -17 -5 -50 -12 -75 -7 -25 -14 -52 -15 -60 -9 -39 -70 -172
-110 -235 -80 -128 -162 -228 -320 -390 -274 -282 -326 -337 -380 -405 -33
-41 -62 -77 -65 -80 -3 -3 -43 -63 -89 -135 -46 -71 -104 -155 -129 -185 -25
-30 -47 -57 -49 -59 -2 -2 -6 -2 -9 2 -3 3 19 49 49 101 64 113 108 239 136
391 16 88 20 141 17 265 -2 85 -6 165 -9 176 -3 12 -8 39 -11 59 -4 21 -13 70
-22 109 -17 80 -50 245 -58 291 -19 104 -26 263 -15 328 7 41 5 46 -10 20z"/>
<path d="M4979 5293 c0 -5 -2 -19 -4 -33 -1 -14 -1 -28 2 -33 8 -14 62 24 63
44 0 5 -45 29 -55 29 -3 0 -5 -3 -6 -7z"/>
<path d="M4844 5238 c-5 -8 -30 -29 -56 -47 -27 -17 -48 -39 -48 -47 0 -13 5
-12 28 6 15 11 43 33 64 49 24 18 34 32 28 40 -6 11 -9 11 -16 -1z"/>
<path d="M5155 5183 c-7 -23 -73 -65 -80 -52 -10 15 -52 10 -59 -6 -3 -8 -12
-15 -20 -15 -9 0 -18 -12 -22 -27 -3 -16 -7 -33 -9 -40 -8 -25 15 -23 28 3 10
20 23 27 50 30 35 3 36 2 31 -25 -6 -27 10 -50 38 -55 7 -1 18 -5 25 -9 16
-10 25 8 17 38 -7 28 10 35 24 8 8 -14 11 -13 25 8 18 26 14 72 -8 127 -15 35
-30 41 -40 15z"/>
<path d="M4707 5046 c-12 -13 -30 -35 -40 -50 -10 -14 -26 -26 -36 -26 -17 0
-81 -55 -81 -70 0 -4 -18 -14 -40 -23 -25 -10 -43 -25 -49 -41 -12 -29 -45
-49 -69 -42 -32 10 -43 -6 -30 -48 7 -21 18 -40 25 -43 7 -3 16 -23 19 -44 8
-46 25 -63 59 -57 16 3 25 1 25 -7 0 -18 30 -27 46 -14 16 13 71 -5 90 -30 27
-36 105 38 88 83 -3 8 3 22 13 32 11 11 25 38 33 62 10 33 18 42 36 42 34 0
37 14 7 41 -31 29 -52 75 -46 100 3 9 16 20 29 23 14 4 22 11 19 16 -3 5 4 11
15 15 30 9 24 22 -15 35 -19 6 -36 16 -36 21 -1 5 -3 14 -4 19 -1 6 -3 15 -4
20 -2 18 -31 11 -54 -14z"/>
<path d="M6473 5014 c-25 -10 -31 -19 -28 -36 6 -32 20 -41 50 -34 33 8 53 49
35 71 -15 18 -15 18 -57 -1z"/>
<path d="M5247 4823 c-10 -16 3 -112 15 -119 6 -4 7 2 3 15 -4 15 -2 21 8 21
23 0 28 48 6 55 -10 3 -19 14 -21 23 -3 12 -6 14 -11 5z"/>
<path d="M5090 4780 c-17 -14 -34 -19 -55 -15 -102 17 -113 17 -134 -4 -18
-18 -22 -28 -21 -56 0 -3 -11 -27 -25 -55 -28 -56 -32 -90 -10 -90 9 0 15 -10
16 -22 1 -13 2 -27 4 -33 1 -5 3 -18 3 -27 3 -27 31 -21 43 9 7 18 6 36 0 56
-6 16 -8 33 -5 38 8 14 24 11 24 -5 0 -7 6 -24 13 -37 25 -49 26 -50 47 -36
25 15 25 33 0 80 -23 42 -25 57 -9 57 6 0 25 12 43 27 l31 26 -40 -7 c-22 -4
-53 -12 -68 -18 -34 -13 -49 1 -45 42 3 25 5 25 93 26 118 1 111 0 124 34 12
35 5 37 -29 10z"/>
<path d="M3846 4775 c4 -8 11 -15 16 -15 6 0 5 6 -2 15 -7 8 -14 15 -16 15 -2
0 -1 -7 2 -15z"/>
<path d="M3902 4670 c14 -22 24 -19 15 5 -4 8 -11 15 -17 15 -6 0 -6 -7 2 -20z"/>
<path d="M2506 4653 c-11 -11 -6 -74 7 -106 8 -18 24 -63 37 -102 54 -162 121
-278 150 -260 17 11 3 90 -26 147 -13 26 -24 61 -24 77 0 43 -14 73 -54 117
-20 21 -47 60 -60 86 -13 26 -26 44 -30 41z"/>
<path d="M4192 4653 c-9 -3 -3 -14 19 -34 34 -30 49 -36 49 -19 0 6 -5 10 -10
10 -6 0 -15 11 -20 25 -10 25 -14 28 -38 18z"/>
<path d="M4302 4598 c6 -18 28 -21 28 -4 0 9 -7 16 -16 16 -9 0 -14 -5 -12
-12z"/>
<path d="M5275 4580 c-18 -7 -19 -8 -2 -15 9 -4 29 -5 42 -2 14 2 28 0 31 -4
7 -12 44 -11 44 0 0 6 -5 13 -11 17 -16 10 -81 12 -104 4z"/>
<path d="M5182 4561 c14 -23 33 -23 33 0 0 8 -10 15 -23 17 -21 3 -22 2 -10
-17z"/>
<path d="M5562 4442 c-14 -31 -15 -42 -3 -42 9 0 26 58 19 65 -2 2 -9 -8 -16
-23z"/>
<path d="M4222 4444 c-14 -10 -12 -15 13 -37 21 -17 48 -27 90 -33 33 -4 64
-6 68 -5 4 0 20 -5 35 -13 25 -13 119 -26 204 -30 41 -1 53 17 16 22 -13 2
-27 7 -33 12 -5 4 -25 11 -43 15 -18 3 -30 11 -26 16 3 5 -2 9 -11 9 -9 0 -30
7 -47 16 -25 13 -36 14 -50 5 -27 -17 -56 -13 -102 14 -44 26 -87 29 -114 9z"/>
<path d="M4695 4331 c-6 -11 13 -26 22 -17 3 3 12 1 19 -5 14 -12 104 -2 104
11 0 14 -21 17 -67 10 -24 -4 -46 -3 -49 2 -7 11 -21 10 -29 -1z"/>
<path d="M4882 4322 c3 -14 14 -16 62 -15 69 1 99 20 34 21 -24 0 -56 2 -71 5
-23 5 -28 3 -25 -11z"/>
<path d="M5143 4323 c-12 -2 -27 -11 -33 -19 -7 -8 -20 -14 -30 -14 -16 0 -30
-19 -30 -41 0 -17 35 -9 64 16 16 14 35 25 42 25 22 0 64 22 58 31 -5 9 -31
10 -71 2z"/>
<path d="M1449 4262 c19 -38 76 -206 85 -252 3 -14 8 -36 11 -50 3 -14 8 -40
11 -59 3 -18 8 -43 10 -55 9 -46 23 -133 29 -176 26 -184 67 -375 107 -495 64
-192 157 -333 346 -523 l116 -115 -63 34 c-54 30 -106 68 -262 191 -118 94
-244 165 -595 339 -381 189 -523 278 -665 419 -81 80 -173 198 -203 260 -4 8
-16 31 -27 50 l-19 35 6 -40 c22 -153 138 -404 267 -580 70 -95 73 -99 142
-173 195 -211 437 -401 625 -489 157 -73 419 -142 715 -187 113 -18 373 -74
472 -102 14 -4 -11 27 -65 83 -170 173 -285 385 -411 759 -146 436 -203 562
-354 787 -94 140 -276 376 -290 377 -4 0 1 -17 12 -38z"/>
<path d="M4840 4282 c0 -10 68 -41 75 -34 3 3 -2 14 -12 24 -16 18 -63 25 -63
10z"/>
<path d="M7634 4182 c-144 -197 -187 -245 -487 -544 -285 -284 -384 -375 -562
-518 -44 -35 -82 -67 -85 -70 -3 -3 -18 -16 -34 -28 -16 -12 -26 -22 -22 -22
3 0 102 47 219 105 117 58 216 105 220 105 4 0 44 26 90 57 45 31 111 77 147
101 116 80 148 111 235 225 46 62 88 117 92 122 25 33 118 194 158 274 59 119
126 289 115 296 -4 2 -43 -44 -86 -103z"/>
<path d="M8610 4243 c-19 -26 -40 -51 -45 -57 -21 -22 -162 -213 -201 -271
-140 -216 -203 -352 -324 -711 -155 -458 -259 -654 -443 -836 -60 -60 -80 -85
-62 -78 33 12 169 48 210 56 17 3 62 11 100 19 39 8 86 17 105 20 33 5 116 19
170 29 14 2 63 12 110 21 47 9 96 18 110 21 61 12 248 68 317 96 301 121 673
442 890 768 100 149 200 383 218 511 l6 44 -35 -68 c-109 -211 -290 -386 -559
-541 -81 -47 -460 -236 -472 -236 -10 0 -257 -138 -317 -177 -37 -24 -102 -72
-145 -106 -148 -117 -188 -146 -263 -185 -43 -23 -41 -20 40 60 109 107 197
207 247 283 82 123 150 299 189 490 17 86 24 125 29 155 3 19 7 46 10 60 2 14
7 45 10 70 20 158 61 345 102 470 19 58 39 109 44 115 5 5 9 13 9 17 0 18 -17
5 -50 -39z"/>
<path d="M2430 4275 c0 -2 30 -74 66 -160 92 -217 325 -587 413 -656 235 -184
430 -295 724 -410 61 -24 60 -23 -58 67 -155 117 -212 169 -511 463 -311 306
-376 377 -524 574 -83 110 -110 140 -110 122z"/>
<path d="M5917 4225 c-9 -13 -20 -46 -22 -72 -11 -107 -17 -133 -36 -157 -22
-29 -60 -34 -78 -12 -7 8 -33 19 -59 26 -26 6 -60 22 -76 34 -24 20 -27 28
-21 54 3 17 18 38 32 47 25 17 25 17 5 31 -14 10 -28 11 -44 5 -35 -13 -24
-15 -148 24 -20 6 -23 5 -12 -6 17 -18 15 -29 -4 -29 -9 0 -33 -5 -53 -11 -37
-11 -71 -53 -71 -87 0 -13 -8 -17 -32 -16 -18 0 -34 6 -36 13 -2 7 -15 16 -28
21 -40 16 -133 -38 -134 -77 0 -7 -9 -13 -19 -13 -11 0 -23 -9 -26 -21 -6 -19
-8 -19 -24 -5 -21 19 -31 12 -31 -24 0 -15 -8 -34 -17 -42 -21 -18 -83 -51
-83 -44 0 3 -12 1 -27 -5 -16 -6 -50 -13 -78 -15 -27 -3 -75 -18 -105 -33 -30
-15 -61 -26 -67 -24 -7 3 -14 -1 -14 -9 -5 -50 -3 -77 8 -107 16 -40 16 -44 3
-36 -5 3 -10 -3 -10 -14 0 -12 5 -21 10 -21 11 0 100 -183 100 -206 0 -7 -8
-17 -17 -23 -14 -7 -15 -12 -4 -24 11 -15 27 -20 89 -32 13 -2 45 3 70 12 26
9 80 17 120 19 51 1 79 7 91 18 10 9 56 23 102 31 46 8 104 20 129 28 42 13
93 14 167 2 24 -4 41 -18 64 -50 18 -25 36 -45 41 -45 4 0 25 16 47 35 21 19
41 35 45 35 10 0 -15 -43 -33 -57 -14 -11 -14 -12 5 -13 11 0 25 5 32 12 9 9
12 8 12 -6 0 -13 5 -17 20 -13 15 4 22 -2 32 -29 7 -19 22 -37 37 -44 38 -15
118 -15 136 0 9 8 27 10 47 6 21 -4 44 0 72 13 23 11 58 26 79 35 20 8 40 23
44 33 12 33 65 107 105 146 21 21 38 44 38 53 0 8 8 26 17 40 11 17 17 48 17
91 1 63 0 65 -36 95 -21 16 -38 36 -38 44 0 7 -11 16 -24 20 -17 4 -27 15 -31
33 -4 21 -18 34 -55 51 -51 24 -69 54 -88 145 -6 34 -13 42 -40 50 -18 5 -32
16 -32 24 0 21 -33 121 -39 121 -3 0 -14 -12 -24 -25z"/>
<path d="M7276 4214 c-11 -7 -16 -17 -13 -21 4 -4 15 1 24 10 22 21 14 30 -11
11z"/>
<path d="M2192 4163 c80 -171 208 -411 274 -511 113 -172 248 -345 307 -394
29 -24 54 -46 55 -50 2 -5 8 -8 14 -8 6 0 27 -13 47 -29 122 -96 353 -232 536
-314 160 -73 182 -78 110 -27 -60 43 -210 156 -231 175 -6 6 -36 30 -65 55
-63 52 -143 137 -334 350 -22 25 -89 88 -150 141 -148 131 -272 259 -357 372
-13 17 -39 50 -59 73 -20 23 -64 81 -98 128 -34 47 -64 86 -67 86 -2 0 6 -21
18 -47z"/>
<path d="M5365 4199 c9 -14 54 -16 59 -2 4 10 -3 13 -29 11 -18 -1 -32 -5 -30
-9z"/>
<path d="M7870 4073 c-143 -199 -290 -362 -479 -529 -64 -56 -130 -121 -180
-179 -167 -189 -287 -300 -506 -465 -82 -62 -152 -115 -155 -117 -3 -3 13 3
35 12 22 9 50 21 61 25 53 21 245 116 309 153 67 38 202 127 309 203 27 19 51
32 54 29 3 -2 12 3 21 13 9 9 34 31 56 47 22 16 50 41 63 55 48 53 202 261
243 329 24 40 49 80 54 89 28 45 59 109 62 125 2 10 23 59 47 110 43 91 97
217 92 217 -1 0 -40 -53 -86 -117z"/>
<path d="M7225 4160 c-18 -19 -17 -20 3 -20 15 0 22 6 22 20 0 11 -2 20 -3 20
-2 0 -12 -9 -22 -20z"/>
<path d="M5620 3310 c-12 -8 -11 -10 8 -10 12 0 22 5 22 10 0 13 -11 13 -30 0z"/>
<path d="M3068 3283 c14 -25 255 -243 348 -314 190 -146 395 -267 493 -291 42
-11 101 -25 131 -33 213 -53 351 -70 635 -79 l160 -5 -110 30 c-60 16 -114 31
-120 33 -5 1 -30 8 -55 15 -25 7 -62 19 -82 26 -21 8 -38 13 -38 11 0 -3 -39
11 -87 31 -49 19 -108 43 -133 53 -25 10 -97 41 -160 70 -63 29 -176 73 -250
100 -219 77 -383 156 -610 295 -130 79 -134 80 -122 58z"/>
<path d="M6924 3203 c-191 -116 -351 -192 -534 -253 -94 -32 -216 -83 -310
-130 -218 -110 -284 -134 -545 -200 l-230 -58 195 4 c194 5 214 6 320 19 147
18 456 91 492 116 14 11 29 19 33 19 23 0 373 234 441 295 6 5 51 46 99 90 49
44 102 88 118 98 30 18 36 24 70 63 33 39 -8 22 -149 -63z"/>
<path d="M7910 3218 c-158 -110 -319 -248 -565 -483 -396 -379 -428 -406 -569
-484 -118 -65 -267 -121 -436 -163 l-134 -33 54 -12 c30 -7 73 -13 95 -14 22
-1 101 -17 175 -36 74 -19 142 -36 150 -37 8 -2 35 -9 60 -16 51 -14 47 -13
155 -40 89 -22 297 -65 365 -76 25 -3 54 -8 65 -10 122 -24 444 -23 566 1 13
3 38 8 54 10 153 27 385 127 550 238 200 133 387 329 490 512 l28 50 -59 -58
c-188 -183 -466 -306 -774 -342 -30 -3 -66 -8 -80 -10 -63 -9 -221 -22 -370
-30 -63 -3 -135 -8 -160 -10 -25 -2 -79 -7 -120 -10 -41 -4 -106 -11 -145 -16
-38 -6 -85 -12 -104 -15 -19 -2 -55 -9 -80 -15 -137 -31 -165 -36 -216 -38
-50 -1 -50 -1 -23 14 15 9 69 27 120 40 200 54 290 104 419 236 116 118 162
190 359 574 45 88 103 193 130 233 26 39 47 72 47 72 -1 -1 -22 -15 -47 -32z"/>
<path d="M2155 3229 c5 -8 28 -43 51 -79 23 -36 90 -160 150 -275 161 -315
233 -425 346 -530 115 -108 219 -163 396 -210 51 -14 105 -32 120 -40 26 -15
23 -16 -51 -11 -43 3 -82 8 -86 10 -11 7 -198 44 -256 51 -27 3 -61 8 -75 10
-31 6 -138 14 -395 31 -55 3 -120 8 -145 10 -25 2 -79 6 -121 9 -42 3 -85 7
-96 9 -11 3 -44 7 -74 11 -90 11 -239 45 -334 77 -170 57 -324 149 -439 264
-34 34 -54 48 -46 34 17 -32 92 -154 100 -160 3 -3 23 -27 45 -55 59 -75 177
-188 264 -253 225 -170 439 -267 700 -317 197 -37 466 -24 796 39 67 13 257
59 355 86 63 17 122 33 130 34 8 2 35 9 60 16 25 7 53 14 63 16 10 2 27 6 37
9 18 6 42 9 135 20 117 13 118 20 10 44 -234 54 -456 147 -590 246 -78 58
-137 110 -304 270 -63 61 -140 135 -172 165 -176 169 -376 341 -490 421 -85
60 -94 66 -84 48z"/>
<path d="M6505 3210 c3 -5 12 -7 20 -3 21 7 19 13 -6 13 -11 0 -18 -4 -14 -10z"/>
<path d="M6001 3201 c-7 -5 -31 -9 -53 -9 -49 -1 -52 -3 -38 -34 16 -35 44
-50 73 -39 28 11 69 59 64 75 -5 15 -29 18 -46 7z"/>
<path d="M4172 2825 c27 -29 412 -163 518 -180 19 -3 55 -10 80 -15 86 -18
235 -42 285 -45 42 -2 98 5 240 30 11 1 38 6 60 10 78 13 242 56 345 92 125
42 252 92 262 102 4 4 -38 -1 -94 -10 -56 -10 -129 -20 -163 -24 -33 -3 -87
-9 -121 -14 -67 -8 -976 -6 -1010 2 -11 3 -53 8 -93 12 -40 3 -80 8 -89 9 -9
2 -44 7 -77 10 -91 11 -129 17 -140 24 -5 3 -7 2 -3 -3z"/>
<path d="M4126 2571 c-3 -5 6 -14 22 -19 320 -117 410 -143 645 -181 224 -37
306 -43 402 -29 28 4 68 9 90 12 22 2 65 10 95 16 30 6 71 13 90 16 19 3 38 8
41 10 3 2 20 6 37 9 95 16 463 136 512 167 14 8 -27 5 -95 -8 -11 -2 -47 -7
-80 -10 -33 -4 -63 -8 -66 -10 -27 -16 -503 -25 -694 -14 -27 1 -115 -1 -195
-5 -225 -12 -364 -9 -510 10 -14 1 -50 6 -80 9 -30 4 -62 9 -70 11 -8 2 -40 7
-70 10 -30 4 -58 9 -62 11 -4 2 -9 0 -12 -5z"/>
<path d="M5588 2076 c-1 -2 -52 -6 -113 -9 -143 -8 -199 -17 -356 -58 -54 -14
-84 -17 -101 -10 -25 9 -178 44 -258 57 -57 10 -389 11 -455 1 -27 -4 -72 -12
-100 -17 -27 -6 -60 -12 -72 -14 -57 -11 -274 -81 -376 -120 -62 -25 -228 -94
-368 -155 -384 -166 -490 -191 -774 -186 -183 3 -257 15 -407 65 -90 30 -192
78 -241 112 -52 37 -37 12 40 -66 124 -125 282 -232 443 -301 36 -15 79 -33
95 -41 53 -23 202 -63 272 -73 108 -15 332 -6 453 19 282 58 479 152 805 384
201 143 316 209 430 247 57 19 91 24 185 24 170 0 174 -7 48 -64 -237 -108
-521 -290 -763 -490 -112 -93 -129 -107 -213 -187 l-75 -71 44 -44 c45 -43
134 -120 155 -132 6 -3 93 76 195 177 372 369 611 559 863 687 l104 53 104
-51 c249 -125 491 -317 867 -690 144 -142 188 -180 200 -173 21 11 62 47 134
117 l58 57 -48 46 c-300 291 -762 608 -1048 721 -68 27 -69 28 -40 36 17 4 77
8 135 8 188 -1 305 -52 603 -263 232 -164 269 -187 399 -251 241 -117 478
-172 718 -166 80 2 156 6 170 9 14 3 50 11 80 17 166 34 429 160 590 284 59
45 202 186 196 192 -2 2 -27 -10 -54 -27 -114 -70 -321 -141 -451 -155 -31 -4
-67 -8 -81 -11 -40 -6 -220 -6 -280 1 -149 18 -331 69 -474 134 -34 16 -110
50 -171 76 -60 26 -123 53 -140 60 -105 47 -293 117 -393 146 -193 57 -267 72
-427 84 -44 4 -85 8 -92 10 -6 2 -13 2 -15 1z"/>
</g>
</svg>
