<?xml version="1.0" encoding="utf-8"?>
<!-- Generator: Adobe Illustrator 22.1.0, SVG Export Plug-In . SVG Version: 6.00 Build 0)  -->
<svg version="1.1" id="圖層_1" xmlns="http://www.w3.org/2000/svg" xmlns:xlink="http://www.w3.org/1999/xlink" x="0px" y="0px"
	 viewBox="0 0 1009.8 822.3" style="enable-background:new 0 0 1009.8 822.3;" xml:space="preserve">
<style type="text/css">
	.st0{fill:#ED7777;}
	.st1{fill:#DC2828;}
	.st2{fill-rule:evenodd;clip-rule:evenodd;fill:#ED7777;}
	.st3{fill-rule:evenodd;clip-rule:evenodd;fill:#DC2828;}
</style>
<g>
	<path class="st0" d="M232,329.8c1.3-2.1,0.8-4.6,1.4-6.9c0.8-3.3,1.1-6.6,1.7-9.9c0.1-0.7,0.5-1.4,0.8-2.3c1.2,1,1.2,2.7,2.7,3.3
		c4-0.6,4.1-0.8,4.4-7.2c4.7-4.8,6.3-10.7,7.2-16.8c-1.3-0.9-1.7-0.1-2.3,0.3c-1.3,1-2.1,2.5-2.4,4c-0.7,3.7-3.6,6.2-5.3,9.4
		c-0.6,1.1-1.6,2.2-3.5,2.2c2.3-12.5,6.1-24.3,10-36.1c4.5-3,7.1-7.1,8.7-12c-0.2-1.3-0.4-2.6-0.7-4.1c3-3.5,4.9-7.9,7.1-12
		c1.2-2.3,1.7-4.5,0.6-7.1c2.5-4.5,4.9-9.1,7.6-13.5c5.4-8.7,11-17.3,17.4-25.3c4.1-5.2,8.3-10.3,12.7-15.3
		c5.5-6.3,11.5-12.1,17.5-17.9c5.5-5.3,11.4-10.3,17.5-15.1c3.1-2.4,6.5-3.9,10-5.4c3.6-1.6,7.4-1.5,11.1-2.3
		c3.5-0.8,7-1.7,10.6-1.9c3.1-0.1,6.1-0.3,9.2-0.3c0.7,0,1.4,0.3,2,1c-2.3,1.4-5.1,1-7.5,2.1c0,1.1,0.8,1,1.4,1.1
		c1.4,0.1,2.9,0,4.4,0.1c1.8,0,4,0.3,5,1.8c2,3.1,5.2,3.1,8,3.2c4.3,0.1,8.3,1.4,12.5,1.8c1.7,0.2,3.7,0.7,4.3,2.8
		c0.1,1.4-1,2.1-1.6,3.2c-0.7,1.2-1.6,2.1-1.9,3.7c-0.3,1.5-1.7,2.6-3.3,3.5c-4.8,2.4-9.5,2.3-14.4,0.7c-0.9-0.3-1.8-0.6-2.8-0.8
		c-1.3,0.8-2.4,1.4-3,3c-0.7,1.7-2.4,2.7-3.6,4c-1.2,1.3-2.4,2.6-3.1,4.4c-1.3,3.3-2.7,3.7-5.7,1.6c-1.4-1-2.7-0.9-4.1-0.4
		c-2,0.7-3.8,0.3-5.4-1.3c0.3-1.5,2.6-2.2,1.2-4.7c-0.9-1.1-3.5-0.4-5.1-1.9c0.9-3.6,5.7-3.9,6.4-7.6c-0.7-1.6-2.2-2.1-3.8-2.2
		c-1.1-0.1-2.2-0.1-3.3,0c-2.5,0.2-4.6-0.4-4.9-3.5c-4.4-0.5-7.9,0.9-11.6,4.1c4,1.1,7.4,1.4,10.9,1.7c0.4,2.4-1.5,4-1.5,6.2
		c0,0.7-1,1.3-1.8,1.6c-3.2,1.3-6.1,3.4-9.7,3.9c-0.2,0-0.3,0.3-0.8,0.7c1.9,1,4.5-0.4,6,2c-1.5,2.1-5.5,0.8-6,4.5
		c1,0.8,2,0.4,3-0.3c1.4-1,2.8-2,4.7-0.8c0.9,1.4,0.6,3.3,2,5c0.2,0.1,0.9,0.3,1.5,0.7c1.4,1.2,2.9,1.2,4.3,0.2
		c2.1-1.4,4.5-1.5,7-1.5c2,0,4.1,0.3,6.1-0.5c1.2-0.5,2.3,0.5,3.5,0.5c1.7-0.4,2.3-2.2,4.3-2.8c4,1.3,8.2,1.7,10.6-3.1
		c1-0.6,2,0.6,2.6-0.7c-0.1-1.9-2.1-1.5-3.3-2.6c1-1.2,2.3-2.3,2.2-4.1c3-0.8,5.3,0.2,7.8,1.7c0,3.4-3.7,5-4.2,8.4
		c2.3,0.7,4.6,0.5,6.8,0.3c4.7-0.4,8.8,1,12.6,3.5c0.9,0.8,0.4,2.1,1.3,3.2c1.1,0.8,2.8,1.1,4.2,1.2c2.5,0.1,4.4,0.9,6.4,2.6
		c2.2,1.9,5.4,2.8,8.5,1.1c0.6-0.3,1.3-0.8,2.1-0.4c1.2,0.8,0.4,2,0.5,3c1,0.9,4,0.5,7.5-0.9c1.5,1.1,3.7-0.1,5.3,1.3
		c0,1.3-0.8,1.9-1.7,2.1c-5.6,1.1-10.4,3.4-13.7,8.3c-0.5,0.7-1.5,0.7-2.1,1.9c-0.3,1.3,0,3-0.8,4.6c1,1.3,2,2.6,2.8,3.7
		c0.8,0.5,1.5,0.6,2.2,0.5c5.1-0.9,10.4-0.4,15.4-1.7c2.7-0.7,5.4,0,7.9-0.6c3.4-0.7,6.1,0.5,8.9,2.2c-1.7,5.1-1.6,10.1,1,14.7
		c0,1.6-1.4,1.9-1.9,2.8c-0.6,2.6,0.7,5.7-2.2,7.8c-2-0.4-4.1-0.6-6.3-0.7c-1.9,0-3.2,0.8-4.3,2.2c-2.8,3.5-3.4,3.8-7.5,1.9
		c-2.8-1.2-5.6-1.3-8.5-1.1c-2.4,0.1-4.4-0.1-5.8-2.6c-1.1-1.8-3.6-2.4-4.8-4.3c-0.6-1-1.5-1.9-1.9-3c-0.2-0.9,1-1.4,0.8-2.2
		c-1.4-4.5-4.7-6.4-9-6.7c-1.8-0.1-3.3-0.7-4.6-2.1c-0.3-1.4,0.9-3-0.5-4.6c-1.2-0.9-2.8-0.8-4.2-0.2c-4.4,1.9-8.4,1-12.6-0.8
		c-5.5-2.4-10.3-0.6-13,4.7c-0.5,1-1.2,1.9-2.1,2.4c-2.9,1.9-5.6,4.1-9,5.3c-5.3,1.9-9,5.9-12.6,10c-0.4,0.4-0.5,1.1-0.7,1.5
		c-0.2,1.5,1.1,2.1,1.5,3.4c-3.9,1.3-3.2-2.8-5.1-3.8c0.2-1.4,1.8-2.3,0.5-4.1c-1.5-1.2-2.9,1-4.9,0.9c0.1-1.8,1.4-2.5,2.5-3.3
		c1.2-0.8,2.6-1.4,3.9-2c1.8-0.8,3.4-1.7,4.3-3.7c4.3,0.3,6.7-2.2,8.4-5.6c0.9-1.7,2.2-2.9,3.9-3.7c0.9-0.4,1.7-0.9,2.6-1.4
		c0.2-1.3,0.4-2.6,0.5-3.8c-0.9-1.2-2-0.9-3.3-0.8c-1.3,2.1-3.2,3.4-5.5,2.8c-1.6,0.7-2,2-2.6,3c-1.6,2.6-4.1,3.8-6.8,5
		c-3.7,1.7-7.4,3.5-10.1,6.7c-1.1,1.3-1.6,3-1.6,4.7c0,1.6-0.6,2.8-1.8,3.7c-1.9,1.4-2.6,4.1-5.1,4.9c0.7,5-1,7.7-5.6,8.8
		c-1.2-1.2-0.2-3-0.9-4.3c-1-0.7-1.5,0.6-2.3,0.5c-0.9-0.3-1.3-1-1.8-2.2c3-2,5.4-4.6,6.8-8c-1.3-0.8-1.9,0.7-3,0.9
		c-0.3,0-0.5-0.2-0.7-0.5c-0.9-1.8-2.4-2-4.2-1.6c-2.1,0.5-3.8,2.2-6.6,1.5c1.2,1.3,2.5,0.5,3.1,1.4c0.4,1.4-1.5,1.4-1.7,2.6
		c-0.3,1.2,1.2,1.7,1,3.1c-2.5,1.7-3.7,4.7-5.9,7c-2.2,2.2-5,3.7-7.3,5.4c-1.5-0.1-2-1.6-3.5-1.9c-1.5,0-2.6,1.1-3.8,2.1
		c-2.9,2.6-4.6,2.8-8.2,0.9c-1,0.3-2,0.5-3.1,0.8c-0.1,0.3-0.4,0.6-0.4,0.9c-0.2,1.5-0.2,3.1-0.6,4.6c-0.3,1.1-0.4,2.5,0,3.6
		c1.4,3.2,1.6,6.5,2.1,9.8c0.1,0.9,0.6,1.6,1.1,2.3c2.4,0.5,4.3-0.8,6.3-1.4c2.1-0.6,4-1.2,6.3-0.7c3.1,0.7,5.9-0.9,8.7-2
		c3.3-1.4,6.3-3.4,10-4c2.3-0.4,3.6-2.7,5-4.4c2.7-1.1,5.2-1.1,7.7,0.3c3,1.6,1.6,4.8,2.3,7.1c1,1.1,1.9,1.4,3.3,1.2
		c2.2-0.4,4.2-1.3,6.1-2.3c3.2-1.7,6.3-3.6,9.3-5.6c3.5-2.4,7.4-3.5,11.5-3.9c2.5-0.2,4.6-1.1,6.4-2.9c2.3-2.3,3.3-4.7,1.5-7.8
		c-0.4-0.6-0.5-1.3-0.4-1.9c0.2-1.5,1.5-2,2.2-3.9c0.2-0.6-1.1-1.2-1.3-2.2c0.1-0.1,0.1-0.3,0.2-0.3c3.4,0.6,5.7-5.1,9.7-1.8
		c1.2,1,2.8,0.5,4.2-0.1c2-0.8,3.8-1.2,5.9,0.1c1.5,0.9,3.3,0.8,4.9,0.2c5-2,9.9-1.2,14.9,0c4.4,1,8.6,2.2,12.8,3.8
		c7.2,2.8,12.8,1.9,19-1.9c1.7,0.5,2.3,2,2.7,3.5c0.4,1.2,1.1,2.1,2.1,2.8c4.1,2.9,8.1,6,12.3,8.8c3.1,2,4.3,5.1,4.4,8.3
		c0.2,5.8,3.7,9.3,8.4,11.1c8.5,3.3,13.4,9.5,16.7,17.4c1.5,3.6,3.1,7.3,5.8,10.3c1.4,1.6,1.9,3.4,1.4,5.7c-0.6,2.7-1.2,5.4-2,8.1
		c-1.5,4.8-1.9,9.7-0.3,14.6c0.9,2.9,2.8,5.3,4.7,7.6c0.1,1.2-0.5,2-1,2.7c-2,2.7-3,5.8-3,9.1c0,1.6-0.7,2.7-1.8,3.8
		c-3.6,3.8-7.9,6.8-11.4,10.6c-2,2.1-3.8,4.4-5.1,7c-1.7,3.6-4.2,6.2-8,8c-4.3,2-8.2,4.7-10.9,8.7c-0.8,1.2-2,1.9-3.3,2
		c-2.6,0.1-5.3,0.4-7.9-0.4c-2.5-0.8-5.2-1.2-7.7-1.9c-3.3-0.9-6.5-0.9-9.6,0.4c-3.3,1.4-6.2,1.7-9.1-0.9c-0.4-0.4-1-0.6-1.6-0.8
		c-6.5-2.1-12.7-5.2-19.7-5.9c-1.1-0.1-2.1-0.6-3.2-0.6c-2.5-0.2-3.7,0.7-3.9,3.2c-0.2,2.2-0.8,4.2-1.2,6.2c-1.5,1.1-3,1-4.4,0.6
		c-2.4-0.7-4.8-0.5-7.2-0.6c-4.2-0.1-7.2,1.7-9,5.6c1.1,2.7,1.6,5.5,1.4,8.5c-0.1,1.4,0.2,2.7,1.4,3.6c3,2.3,2.8,7.4,1,10.7
		c-1.9,3.6-4.3,7-7.1,10c-2.3,2.5-3.9,5.1-4.2,8.5c-0.4,4.3-2.4,8.3-3,12.6c-0.5,3.1-1.1,6.1-1.7,9.2c-0.6,3,0.9,5.6,2.3,8.2
		c1.7,3,3.6,6,5.3,9.1c3.4,6.1,3.2,12.2,0.3,18.4c-1.8,3.8-3.6,7.7-6.6,10.9c1.2,4.4,0.7,8.9,0.6,13.3c0,2.6-0.9,4.9-2.9,6.8
		c-3.1,3.1-4.3,7.2-5.6,11.2c-0.4,1.1-0.3,2.4,0.2,3.6c0.6,1.5,0.4,3.1,0.3,4.5c-3,2-5.6,1.5-8.3-0.1c-1.2-0.8-2.5-1.5-3.6-2.4
		c-1.7-1.3-3.6-1.9-5.7-1.9c-1.1,0-2.2-0.1-3.1-0.7c-6.5-3.6-13.3-6.7-17.6-13.3c-1.7-2.7-4.4-4.8-6.8-7c-2.1-1.9-3.5-4.3-5-6.6
		c-0.7-1-1.3-2.3-1-3.4c1-4.1-2-5.8-4.6-7.2c-2.5-1.4-4.1-3.2-4.9-5.9c-0.8-3.1-2.2-6.1-1-9.5c0.7-1.9-0.1-3.6-1.6-5.2
		c-2.6-2.8-4.4-6.3-7.4-8.8c-1.8-1.6-3.9-2.9-5.5-4.7c-2.7-2.8-4.5-5.9-4.2-10c0.2-2.3-0.7-4.5-0.9-6.8c-0.2-2.1-0.9-4.2-1.9-6
		c0-0.5,0-0.7,0.1-0.9c1.9-3.7,2.3-7.6,2-11.6c0-0.4-0.1-0.8,0-1.1c1.6-5,0.1-9.3-2.3-13.7c-1.8-3.2-3-6.5-6-8.9
		c-1.2-1-1.5-2.5-1.8-3.9c-0.6-3.7-2.9-6.3-5.2-8.8c-3.3-3.5-5.5-7.5-7.3-11.9c-2.1-4.9-4-9.8-5.2-15c-0.7-3.2-1.3-6.4-1.9-9.5
		c-0.3-1.4,0-2.3,0.9-4.2c2.9,1.5,5.4,4.3,8.5,3.4c1.8,0.3,2,1.8,3.4,2c2.8-2.1,3.1-5.3,3.2-8.7c1.4-1.1,2.9-2.2,3.4-4.1
		c0.7-2.5,2.3-4.5,4.2-6.2c2-1.8,2.9-4.2,3.1-6.7c0.2-2.1,0.8-3.9,1.9-5.7c1.3-2.2,2.4-4.5,3.5-6.8c0.9-1.9,1.5-3.9,1.2-6
		c-0.2-2,0.3-3.8,1.6-5.4c1.7-2.1,2.5-4.5,3.5-7c1.7-4.4,3.7-8.6,5.8-12.9c1.3-2.7,2.4-5.4,3.3-8.3c-1.4,1.3-2.4,2.9-3.9,4
		c-0.8,0.4-1.1-1-2.4-0.4c0.1-0.1-0.1,0.1-0.3,0.5c-1.5,3-3.3,5.9-5.1,8.7c-1,1.6-1.6,3.4-1.9,5.4c-0.3,2.1-2.9,2.3-3.8,4.2
		c-1.2,2.7-2.2,5.4-2.5,8.3c-0.3,2.8-0.9,5.2-3.2,7c-0.7,0.5-1.1,1.2-1.3,2.1c-0.5,3.4-2.2,6.4-4.2,9.1c-1.1,1.5-1.8,3.2-1.6,5.1
		c0.3,3.3-0.8,6.4-0.9,9.7c-0.1,2-1,4-3.1,5.1c-1.7-0.9-2.6-2.4-3.8-3.7c-0.8-0.5-1.5,0.1-2.4,0c-2.7-2.3-5-5.3-8.5-7.1
		c0-2.5-1.4-4-3.9-4.4c-1-2.4-1.9-4.6-2.8-6.9C232,332.7,232,331.3,232,329.8z M286.2,228.8c-2.5,2.4-4.7,4.9-7.4,7
		c-2.9,2.3-5.8,4.7-6.6,8.5c0.6,1.2,1.6,1.5,2.6,1.1c3.5-1.3,7.2-1.7,10.2-4.4c3.2-2.8,7.1-4.4,11.3-3.3c2.2,0.5,4.3,0.5,6.4-0.2
		c1.3-0.4,2.5-0.8,3.8,1.2c0.3-2.6,1.7-3.5,2.8-4.8c1.5-1.6,1.5-2.3,0.3-4.1c-0.4-0.6-1.1-1-1.2-1.8c1.2-4.6-2.9-5.9-4.9-8.7
		c-2.2,1-4.1,1.8-5.3,2.7c-1,1.1-0.2,1.8-0.5,2.6c-0.8,0.9-1.7,1.7-2.6,2.5c-2.3,2.2-3.5,2.3-6.7,0.5c0.5-1.3,2.4-1.2,2.7-2.8
		c-1.9-1.2-4-1.3-6.1-0.9c-0.3,0.9-0.7,1.8-1,2.7C284.7,227.5,285.3,228.1,286.2,228.8z M322.2,173.7c0.5,1.2,1.1,1.6,1.6,1.4
		c2.2-0.8,4.5-1.3,6.6-3c-1.1-0.7-2-1.1-3.2-1C325.7,172,324,172.8,322.2,173.7z"/>
	<path class="st0" d="M547.7,92.5c2.1,1.3,4.7,1.2,6.9,1.3c8,0.6,15.8,1.9,23.4,3.9c11.4,3,22.6,6.9,33.5,11.4
		c8,3.3,15.9,7.1,23.6,11.1c5.4,2.8,10.6,6,16.7,9.5c-3.7,0.9-7.5-0.6-9.3,3.2c0,0.8,1.3,1,1.1,2.2c-3.5-0.1-6.7-3.6-11-1.2
		c3.7,1.9,8.4,0.8,10.6,5.1c-4.8,1.6-8.1-2.9-12.7-3.2c0.8,1.7,1.7,2.6,3,2.9c3.6,0.8,6.1,3.3,9,5.4c-0.3,1.5-0.9,2.5-2.3,3.4
		c-2,1.3-4,2.5-5.7,4.4c-3.2,3.5-7.4,5.7-12.6,4c-2.1-0.7-4.2-1-6.2,0.4c-0.3,0.2-0.7,0.4-1,0.4c-2.5-0.1-5.1-0.2-7.4-1.3
		c-2.2-1.1-4.3-2.7-4.8-5.5c-0.3-1.7-1.7-2.6-3.1-3.4c-1.4-0.8-2.9-1.2-4.3-2.6c0.5-3.2-1.6-4.3-4.5-4.9c-2.5-0.5-5.2-0.8-7.5-2.4
		c-0.6-0.4-1.6-0.2-2.5-0.2c-1-0.1-2,0.1-2.9-0.2c-3.1-1-6.4-1.1-9-2.3c-1.3-1.2-0.7-2.6-1.4-4c-1.8-1.6-4.4-2.3-7-2.9
		c-3.3-0.8-6.6-1-10-1.4c-7-0.9-14.1-1.7-20.8-4c-2-0.7-4.4,0-6.6-1.9c4.3,0,8.2,0,12.6,0c-2.6-2.8-5.3-2.7-8-1.6
		c-3,1.3-5.8,0.9-8.9,0.7c0.1-3.3,3.5-2.1,4.9-3.7c-0.7-0.7-1.6-0.2-2.3-0.6c-1-0.4-0.7-1.8-2.1-2.5c-3.2,0.6-5.6-2.4-9.2-2.6
		c1.2-0.9,2.6,0,3.6-1c-0.5-1.6-2.4-0.3-3-1.6c0.3-1.9,2-2,3.8-2.5c-3.6-1-7,0.5-10.2-1c0.8-2,3-1,4.2-2.3
		c-4.5-2.2-9.5-1.7-13.9-3.3c-4.7-1.7-9.6,0.1-14.5-1.6c1-1.3,2.1-1.5,3.3-1.5c9.1,0,18.1,0,27.2,0c2,0,3.9,1.5,6,0.3
		c0.3-0.9-0.4-1.7-0.3-2.5C526.9,92.5,537.3,92.5,547.7,92.5z"/>
	<path class="st0" d="M663.9,92.5c2.2,2.1,5.1,2.6,7.8,3.7c7.5,3.1,14.5,7.2,21.4,11.3c11.4,6.9,21.8,15,32.2,23.2
		c3.3,2.6,5.9,5.7,8.2,9c5.3,7.6,10.6,15.2,15.7,23c3.4,5.1,6.8,10.3,9.6,15.7c3.4,6.5,6.3,13.3,8.9,20.2c1.7,4.5,3.4,9,5.1,13.4
		c-0.9,0.6-1,0-1.3-0.4c-6.6-8.6-12.9-17.4-19.7-25.8c-3.8-4.8-7.8-9.5-12.1-13.9c-3.4-3.6-6.7-7.2-10.2-10.7
		c-4.3-4.4-9.1-8.3-13.6-12.4c-1.3-1.2-2.3-2.7-3.6-4c-8.8-8.8-17.6-17.6-26.4-26.4c-5.2-5.2-11-9.7-16.8-14.3
		c-4.7-3.7-9.5-7.4-14.2-11.1c-0.2-0.1-0.2-0.4-0.4-0.6C657.6,92.5,660.7,92.5,663.9,92.5z"/>
	<path class="st0" d="M361.2,92.5c-1.9,2.8-4.9,4.2-7.5,6.2c-6,4.8-12.1,9.5-18,14.5c-5.5,4.7-11,9.4-15.9,14.7
		c-4.7,5-9.5,9.9-14,15.1c-3,3.5-6.3,6.6-9.9,9.6c-3.5,2.9-6.7,6.3-9.8,9.6c-2.1,2.2-4.7,3.8-6.7,6c-8.7,9.1-16.8,18.6-24.1,28.8
		c-3.4,4.8-7,9.5-10.5,14.3c-0.2,0.3-0.5,0.5-1.1,0.4c-0.1-1.8,1.1-3.4,1.7-5c3.9-10.3,8.5-20.3,13.9-29.9
		c6.7-12,14.1-23.6,22.2-34.7c1.4-1.9,3.1-3.8,4.3-5.8c2.3-3.9,5.7-6.4,9.3-8.9c8.5-5.8,17-11.5,25.5-17.2
		c9.4-6.3,19.3-11.5,29.6-15.9c1.1-0.5,2.3-0.8,3.1-1.8C355.9,92.5,358.5,92.5,361.2,92.5z"/>
	<path class="st0" d="M327.8,595.5c-3.9-2.5-7.8-5.2-11.8-7.6c-7.5-4.6-14.5-10-21.5-15.2c-1.9-1.4-3.9-2.9-5.7-4.4
		c-1.4-1.1-2.7-2.4-3.7-3.9c-8.6-12.8-17.2-25.7-25.1-38.9c-3.4-5.6-6-11.6-8.5-17.6c-2.5-5.9-4.9-11.8-7.4-17.7
		c-0.2-0.5-0.3-0.9,0-1.6c1.4,0.6,1.9,2,2.7,3c6,7.7,11.7,15.6,17.8,23.2c3.6,4.5,7.4,8.9,11.3,13.2c4,4.5,8.1,9,12.6,13
		c15.4,14.2,29.7,29.4,44.7,44c3.5,3.3,7.4,6.2,11.1,9.2c0.5,0.4,0.9,0.8,1.2,1.3C339.4,595.5,333.6,595.5,327.8,595.5z"/>
	<path class="st0" d="M671.1,595.5c2.2-3.1,5.5-5,8.2-7.6c3-3,6.5-5.4,9.5-8.3c5.4-5.2,10.8-10.4,15.9-15.9
		c4.2-4.5,8.2-9.2,12.8-13.3c9-8.1,17.4-16.8,25.9-25.3c5-5,9.1-10.9,13.4-16.6c4.8-6.5,9.5-13,14.2-19.6c0.3-0.5,0.7-1,1.7-1.1
		c-1.6,4.4-3,8.7-4.8,12.9c-3.3,7.8-6.7,15.5-10.7,23c-4.7,9-10.2,17.5-16.1,25.7c-3.7,5.2-7.7,10.2-11.5,15.3
		c-2.3,3.2-5.2,5.7-8.3,7.9c-8.7,6.2-17.6,12.3-26.3,18.5c-2.1,1.5-4.8,2.2-6.4,4.5C682.7,595.5,676.9,595.5,671.1,595.5z"/>
	<path class="st0" d="M232,174.5c3.2-4.2,5.2-9.2,7.9-13.8c5.1-8.6,10.2-17.2,16.2-25.2c3.9-5.2,7.8-10.4,11.7-15.6
		c3.5-4.7,7.8-8.4,12.4-11.9c6.5-5,13-9.9,19.9-14.4c0.4-0.3,0.6-0.7,0.9-1.1c6.8,0,13.5,0,20.3,0c-0.5,1.2-1.5,1.9-2.3,2.7
		c-6,6.1-12.2,12-18.1,18.3c-3.9,4.1-7.8,8.2-11.4,12.6c-1.5,1.9-3.2,3.6-5.2,5c-2.9,2-5.2,4.6-7.8,6.9
		c-9.6,8.5-18.8,17.4-27.5,26.7c-5.8,6.2-11.1,13-16.1,19.9c-0.2,0.3-0.5,0.5-0.7,0.8C232,181.8,232,178.1,232,174.5z"/>
	<path class="st0" d="M715.4,92.5c1.5,2,3.8,2.9,5.8,4.3c6.4,4.5,12.7,9.1,18.7,14.1c4.7,4,8,9.3,11.7,14.2
		c4.5,5.9,9.1,11.8,13.2,18.1c4.1,6.3,8.5,12.3,12,18.9c1.4,2.8,3.1,5.4,4.7,8.1c0,4.1,0,8.2,0,12.3c-0.5-0.4-1.1-0.6-1.4-1.1
		c-3.9-5.6-8.5-10.7-12.7-16.2c-0.6-0.8-1.3-1.4-2-2.1c-4.1-4.1-8.1-8.3-12.3-12.3c-6.5-6-12.8-12-19.6-17.7
		c-3.5-2.9-6.8-6.2-9.6-9.9c-1.7-2.3-3.8-4.4-5.7-6.5c-7.1-7.5-14-15.4-21.6-22.5c-0.7-0.7-1.5-1.3-2.2-1.9
		C701.4,92.5,708.4,92.5,715.4,92.5z"/>
	<path class="st0" d="M283.5,595.5c-2.7-2.3-5.5-4.6-8.1-7c-5.9-5.4-10.2-12.1-15.1-18.3c-6.6-8.5-12.4-17.4-18.1-26.5
		c-3-4.8-5.6-9.8-8.4-14.8c-0.6-1-0.9-2.3-1.9-3.1c0-3.6,0-7.3,0-10.9c0.7,0.2,1.2,0.8,1.7,1.3c4.6,6.6,10,12.6,14.9,19
		c0.4,0.6,1,1.1,1.5,1.6c8.1,8.1,16,16.4,24.7,23.9c5.1,4.4,10.5,8.5,14.9,13.6c6.1,7.1,13,13.6,18.6,21.1
		C300,595.5,291.8,595.5,283.5,595.5z"/>
	<path class="st0" d="M708.1,595.5c1.9-2.5,3.8-5,6-7.2c4.8-4.7,9.2-9.8,13.6-15c1.9-2.2,4.2-3.9,6.4-5.9c4.5-4,8.8-8.2,13.2-12.3
		c4.3-4.1,8.8-7.9,12.9-12.1c6.8-7,13-14.5,18.9-22.2c0.7-0.9,1.2-1.8,2.3-2.2c0,4.4,0,8.7,0,13.1c-0.7,0.4-0.9,1.1-1.2,1.8
		c-4.1,8-8.7,15.6-13.7,23c-5.7,8.7-12,16.9-18.5,24.9c-2.6,3.3-5.4,6.3-9,8.8c-2.2,1.5-4.7,2.9-6.2,5.4
		C724.6,595.5,716.4,595.5,708.1,595.5z"/>
	<path class="st0" d="M232,192.7c0.4-0.4,1-0.7,1.3-1.2c3.6-5.6,7.9-10.6,12.2-15.6c7.1-8.5,15-16.3,22.8-24.2
		c0.5-0.5,0.9-1.2,2.1-1.5c-0.8,1.6-1.5,2.9-2.2,4.1c-5.6,9.5-11,19.2-16.4,28.9c-5,9.2-8.8,19-12.7,28.7
		c-2.1,5.4-4.1,10.8-5.9,16.3c-0.2,0.8-0.5,1.6-1.3,2.1C232,217.8,232,205.2,232,192.7z"/>
	<path class="st0" d="M232,469.9c2.1,3.3,2.7,7.2,4.2,10.7c3,7.2,5.4,14.7,8.4,21.9c2.3,5.4,5,10.7,7.8,15.9
		c3.7,6.8,7.6,13.4,11.4,20.1c2.2,3.7,4.4,7.5,6.6,11.3c-2.1-1-10.9-9.5-13.9-13c-4.2-4.8-8.6-9.4-12.7-14.3
		c-4.1-4.9-8.2-9.7-11.9-14.9C232,495.1,232,482.5,232,469.9z"/>
	<path class="st0" d="M781.4,512c-1.9,0.8-2.6,2.8-3.8,4.3c-4.4,5.3-8.8,10.5-13.4,15.6c-5.2,5.9-11,11.2-16.4,16.9
		c-0.2,0.2-0.5,0.5-1.1,0.3c0.7-2.8,2.7-5,4-7.5c2.6-4.8,5.4-9.4,8-14.2c2.9-5.3,6-10.5,8.6-15.9c2.5-5.2,4.6-10.6,6.8-16
		c2.3-5.8,4.4-11.7,6.6-17.6c0.1-0.3,0.4-0.6,0.7-0.8C781.4,488.8,781.4,500.4,781.4,512z"/>
	<path class="st0" d="M781.4,222.4c-1.6-2.3-2-5.1-2.9-7.7c-3.4-9.5-6.8-19.1-11.7-28c-4.4-7.9-9.1-15.6-13.7-23.4
		c-2.4-4-4.8-8-7.1-12c0.6-0.4,0.9-0.1,1.2,0.1c4.4,4.7,9.3,8.8,13.3,13.8c2.6,3.3,5.9,6.1,8.6,9.3c3.6,4.4,7.3,8.6,10.9,13
		c0.4,0.6,1.1,0.9,1.6,1.4C781.4,200.2,781.4,211.3,781.4,222.4z"/>
	<path class="st0" d="M690,92.5c1.1,1.8,2.6,3.2,4.2,4.4c6.2,4.9,11.3,10.9,16.9,16.4c0.1,0.1,0.1,0.4,0.1,0.9
		c-4.6-2.7-9-5.3-13.5-7.8c-4.6-2.6-9.2-5.2-13.8-7.9c-3.5-2.1-7.3-3.7-10.7-6C678.9,92.5,684.4,92.5,690,92.5z"/>
	<path class="st0" d="M343,92.5c-3.1,2.7-7,4.3-10.5,6.2c-8.3,4.6-16.3,9.7-25.1,14.7c0.7-2.1,2.1-3.2,3.3-4.1c2.8-2,5-4.5,7.4-6.9
		c2.5-2.4,4.9-5,7.7-7.1c1-0.8,2-1.7,2.7-2.9C333.4,92.5,338.2,92.5,343,92.5z"/>
	<path class="st0" d="M314,595.5c-1.3-2.1-3.3-3.4-4.9-5.2c-0.6-0.7-1.7-1.1-1.2-2.7c4.4,2.5,8.8,4.7,12.6,7.9
		C318.4,595.5,316.2,595.5,314,595.5z"/>
	<path class="st0" d="M695.1,595.5c4.1-3,8.7-5.3,13.2-7.8c-1.7,3.1-4.7,4.9-6.6,7.8C699.4,595.5,697.2,595.5,695.1,595.5z"/>
	<path class="st0" d="M650.1,595.5c0.5-2.4,2.4-1.1,3.5-1.4c0.5,0.6,0.2,1,0.1,1.4C652.5,595.5,651.3,595.5,650.1,595.5z"/>
	<path class="st0" d="M749.7,368.5c1.6,0.9,2.9,2.3,5.2,1.8c1-1.1,2-2.4,3.1-3.7c0.9-1,0.9-2.2,0.9-3.4c0-4.7,0.1-9.4,0-14.2
		c-0.1-2.4,0.6-4.2,3-5.4c2.1-0.1,4.3,1.3,6.6,0.4c-0.5-6.6-2.9-12.9-3.9-19.3c4-1.2,5.6-0.4,6.5,3.1c0.5,2,1.2,3.9,1.9,6
		c1.4,0.2,2.8,1,4,1.6c2.1-0.7,1-2.7,2-3.8c1.2,1.7,1.9,10.5,1.2,13.7c-0.6-0.1-1.7-0.8-2.1-1.3c-0.3,0.2-0.6,0.3-0.9,0.5
		c-1,0.8-1.3,2.1-1.4,3.3c-0.7,5.1-4.7,6.5-8.9,8.2c-1.7,3.4-3.2,7.3-3.8,11.7c-1.9,0.6-3.3,1.8-4,3.7c-0.2,0.5-0.5,1.3-1,1.5
		c-2.3,1-3.8,3.1-5.6,4.7c-1.3-1.4-1.3-1.4-1.1-3.9c-0.6-0.9-1.2-1.7-2.6-2.4c-1.8,7-3.5,13.8-4,21.5c2.5,2.5,3.6,6.5,6,10.3
		c0,4,0,8.5,0,12.8c-0.2,1.3-1.7,1.4-1.9,2.6c0,0.2,0,0.3,0,0.4c3.3,4.7,2.1,8.8-1.1,13.2c-2.6,3.6-4.5,7.7-5.9,11.9
		c-1.5,4.3-2.3,8.9-5.1,12.7c-0.5,0.6-0.3,1.4-0.5,2.1c-0.5,3.1-2.2,5.5-4.6,7.4c-3.8,3.1-7.6,6.3-11.3,9.6
		c-2.5,2.2-4.1,4.9-4.8,8.3c-0.8,3.9-2.2,7.7-1.8,11.7c0.1,0.7-0.2,1.4-0.3,2.1c-1.2,4.8-1.6,9.7-1.8,14.6
		c-0.2,4.4-1.1,8.6-2.5,12.7c-1.5,4.4-2.2,8.8-0.7,13.4c0.6,1.8,0,3.5-0.9,4.8c-1,1.5-1.3,3.1-1.7,4.7c-0.5,2.5-1.2,4.9-3.5,6.5
		c-0.3,0.2-0.7,0.5-0.7,0.7c-0.3,2.9-2.8,4.1-4.4,6c-5,5.4-10.6,10.1-16.3,14.9c-0.7,0.5-1.3,1.1-2.4,0.4c0.2-3.5,5.2-3.4,5.4-7
		c-2.2-1.3-3.1,1.6-5.1,1.2c-1.2-0.6-0.1-2.2-0.9-3c-0.4-1.1-1.8-0.2-2.1-1.2c-0.1-0.4,0.1-0.7,0.4-0.9c3.1-1.5,3.1-1.5,4.8-4.3
		c-2.5-0.4-4,2.4-6.4,1.5c-1.2-1.1-0.3-2.5-0.5-3.8c-1.2-0.6-2.3-0.3-3.4,0.2c-2.4,1.1-4.9,0.9-7.5,1c-2.1,0.1-3.5-1-4.3-2.8
		c-0.7-1.6,0.5-2.6,1.5-3.7c1.6-1.9,3.2-3.8,5.2-6.3c-2.8,0.3-4.7,1.3-6.6,2.1c-1.5,0.6-2.9,1.3-4.4,1.7c-2,0.6-3.8,0.1-5-1.8
		c-0.3-0.5-0.8-0.9-1-1.5c-1.6-4.2-5.2-6.9-8.2-10c-2-1.9-3.8-4-5.6-5.8c0-3.4,1.8-6.3,1.1-9.6c-1.9-1.3-4-2.3-5.6-4
		c-0.4-0.4-1.1-0.5-1.7-0.6c-2.8-0.7-5.5-1.4-8-3.1c-1.7-1.1-4-0.5-6.1-0.4c-2.7,0.1-5-0.7-7.2-2.4c0.2-2.7-1.6-4.6-3.1-6.6
		c-1.3-1.8-2.5-3.5-2.4-5.9c0-1.3-0.5-2.6-1.3-3.7c-1.2-1.5-1.5-3.2-1.5-5.1c0-2.5,0.1-5.1-0.2-7.6c-0.3-2.3,0.9-4.4,1.5-6.4
		c-0.3-1.4-1-2.2-2-2.7c-3.5-1.8-5.4-5.1-7.8-7.9c-1.4-1.6-2.6-3.5-3.9-5.2c-2.9-3.8-4.4-8.3-5-13c-0.1-0.8-0.1-1.7,0-2.5
		c0.5-4.7,3.1-7.1,7.9-7.2c3.3,0,5.8-1.5,7.9-3.9c2.9-3.3,6.5-5.3,10.8-6.1c1.1-0.2,2.3-0.5,3.2-0.1c3.1,1.1,5.7,0,8.3-1.3
		c0.5-0.3,1.1-0.5,1.7-0.8c1.5,0.4,3,0.8,4.3,1.2c1.1-0.5,1-1.3,1-2c0.1-1.1,0.5-2.1,1.4-2.4c3.1-1.1,5.6-3.4,8.7-4.3
		c3.8-1.1,5.2-0.8,7.5,2.2c0.6,0.8,1.1,1.5,1.7,2.3c0.1,0.2,0.4,0.3,0.7,0.4c1.4-0.2,2.8-0.5,4.4-0.8c1.2-1.4,2.3-3.2,4.4-4.1
		c1-5.6-3.1-9.1-5.4-13c-0.1-0.9,0.2-1.4,0.6-1.9c1.6-1.6,2.5-3.6,3-5.7c1.4-5.9,6-8.4,11-10.5c3.6-1.6,7.5-1.6,11.2-2.2
		c2.5-0.4,4.4-1.3,6.2-3.2c1.6-1.7,3.4-3.4,4.9-5.2c1.5-1.9,3.3-3.1,6-2.4c0.8-3.2,2.4-5.3,5.5-5.9c0.8-0.2,1.4-0.9,1.6-1.2
		c0.7-1.2-0.2-1.5-0.2-2.3c1.9,0,3.9-0.8,5.5,0.7c2,1.8,4,1.9,6.2,0.5c1.8-1.1,4.1-0.1,6.3-0.8c1.1-2.6,4.5-3,6-5.4
		c1.7,0.1,0.5,1.5,1.1,1.9c0.9,1.2,2.6,0.7,3.4,2.3c1.1-1.9-1.4-3.9,1-5.4c2.9,3.1,7,4.2,10.7,6c1.2,3,1.6,6.3,4.1,8.7
		C746.6,372.7,746.4,369,749.7,368.5z M728.2,372.2c1.9-2.1,2-3.8,1.2-6.1C727.5,367.9,727.6,369.7,728.2,372.2z"/>
	<path class="st0" d="M651.7,204.9c0.5-1.3,1.7-1.2,2.4-1.8c0-1.5,0.1-2.9,0.7-4.2c1.6-1,3.1-0.1,4.6,0.3c1.9,0.5,2.2-2.1,4.2-1.5
		c-1-2-2.8-2.9-3-4.2c-0.3-1.2,0.5-1.5,0.7-2.3c-1.5-2.4-1.5-4.9,1-7c0.8-0.3,1.5,0.7,2.4,0.2c0.5-0.4-0.2-1.2,0.7-1.8
		c2,0.3,4.2,1,6.4,0.4c1-0.2,1.3-1.3,2.2-1.9c0.9-0.1,1.9-0.2,2.9-0.2c0.6-1.2-1.4-1.8-0.5-3c1-1.3,2.9-1.7,3.2-3.9
		c0.1-0.8,1.8-1.4,2.9-2.2c1.6,0.8,3.1,1.6,4.1,3.2c1.5,2.4,4,3.8,6.3,5.4c1.5,1.1,3.2,1,4.7-0.4c0.3-1.4-0.9-2.7-0.8-4.1
		c4.4-0.5,8.8-0.6,12.5,2.2c4.4,3.4,6.6,8.7,10.1,12.9c0,1.1-1.4,0.9-1.9,2.1c0.7,5.2,6.3,7.1,8.9,11.4c-0.6,5.3,0,6.8,4.1,9.7
		c0.3-0.1,0.6-0.3,0.9-0.5c0.7-0.5,1.3-1,1.8-1.7c0.6-1.3-1-2.4-0.1-3.9c2.1,3.2,4.1,6.2,6.1,9.3c1.9,3.1,3.8,6.2,5.7,9.3
		c-0.2,1.7-1.2,3.5-0.3,5.4c3.2,0.6,4.9,2.9,6.3,5.7c6.4,12.5,11.6,25.4,16.2,38.7c2,5.8,3.3,11.8,5.3,17.6c0.1,0.4,0.1,0.9,0.1,1.4
		c-1.3,0.7-2.3-0.3-3.7-0.4c-0.6,0.3-1.3,0.7-2.2,1.1c-1-1.3-0.6-3.2-2.6-4.7c-0.7-0.4-2.5-0.4-3.8-1.6c-0.8,0.5-1.4,0.8-2,1.2
		c-1.3,0.2-1.9-1.6-3.7-0.7c0,5.4-0.2,11.1-3.6,16.2c-1.9-1.4-2.3-3.3-2.3-5.2c0-3.7,0-7.4,1-11.1c1-4.1-0.4-8.1-3-11.5
		c-1.2-1.5-2.6-2.8-4.2-4c-1.1-0.8-2.1-1.6-2.7-2.8c-0.9-1.5-2.3-2.4-3.6-3.2c-1.2-3.3-2.1-6.5-2-10c-2.9-1.3-3.4-4-3.8-6.9
		c-2.5-1.7-3.9-4.3-4.4-7.5c-4.1-1.3-6.4-5.3-11.1-6.1c1.3-4-0.5-6.3-3.5-8.3c-1.6-1-3.1-2.3-4.9-3.1c-1.4-0.6-2.4-1.6-3.3-2.8
		c-1-1.5-2.3-2-4-1.7c1.9,4.2,1.9,4.2-0.4,5.7c-2.6-1.6-4.4-4.4-7.2-5.8c-2.6-1.3-5.5-2.4-7.3-5c1.1-0.6,2.3-1.8,2.6-2.6
		c2.2,0.8,4.5-0.2,6.6,0.2c1.1-0.6,0.7-1.8,1.5-2.6c-1.4-1.4-3.3-2.4-3.4-4.7c3.2-1.4,5.7,1.3,8.8,1.4c-1.2-3.5-3.9-5.2-7.1-6.1
		c-3.8-1-7.8-1.5-11.7-2.3c-3.4-0.7-6.8-1.5-9.5-4.1c-1.9-1.8-4.5-2.7-7-3.6c-0.2-0.1-0.6,0.2-1.1,0.5c2.9,5.3,7.9,9.1,10.7,15.4
		c-3.8-1.6-7.3-1.4-11-2.2c-0.8,0-1.4,1.3-2.5,1.3c-1.4,0-1.9-1.4-3.2-1.9c-1.4,0.3-2.4,1.8-4.2,1.9
		C652.3,207.5,652,206.1,651.7,204.9z M743.1,232c-1.9-0.1-3.6-0.2-5.4-0.4c-1.6,3.2,1.8,2.7,2.7,4c0.7,1.6,1.1,3.4,2.4,4.7
		c2.9-1.6-0.7-4.8,1.9-6.1C744.1,233.3,743.6,232.6,743.1,232z M750.6,241.9c0.3,2.8,0.6,5.6,3,7.5C753,246.8,752.7,244,750.6,241.9
		z M733.7,237.3c-0.7-2-1.1-2.3-4.2-2.7C730.6,236.2,732.2,236.6,733.7,237.3z"/>
	<path class="st0" d="M435.8,182.3c3.2-0.3,5.5,1.3,8,3.5c-2.1,0.4-3.7,0.7-5.2-0.3c-1.2-0.8-2.4-0.8-3.8-0.6
		c-6.1,1.1-12.3,0.4-18.4,0.4c-0.5,0-0.9-0.3-1.1-0.8c-0.2-0.9,0.9-1,1.2-1.7c-1-1-2.4-1.6-3-3.3c1.2-2.2,3.8-1.6,5.7-2.6
		c1.7-2.6,3.8-5,7.1-6c0.7-0.2,1.4-0.9,2-1.5c1.9-2.1,3.9-4,7.7-3.5c-1.8-2-3.1-3.4-4.5-4.9c2.4-2.4,5.5-1.2,8.2-1.8
		c0.2-1.7-1.9-1-2-2.2c0.1-0.2,0.1-0.6,0.2-0.6c4-1.4,7.5-0.9,10.3,2.4c1,0.4,2-0.5,3.1,0.3c-1.9,1.8-4.2,3.4-4.4,6.5
		c-1.1,0.3-2.6-1.1-3.3,0.3c-0.9,1.5,1.1,2.1,0.4,3.4c-1.9,0.7-4,0-6,0.5c-0.7,0.4,0,1.1-0.4,1.5c-0.8,1-2,1-2.9,1.6
		c-0.1,0.4-0.1,0.7,0.2,1c1.5,1.3,3.5,0.5,5.2,1c1.1,1.1-0.7,1.7-0.2,2.8c0.4,1.5,2.7,1,3.8,2.9
		C440.8,180.3,438.4,181.4,435.8,182.3z"/>
	<path class="st0" d="M269.5,498.2c-3-1.2-4.8-3.7-6-6.3c-3.4-7.6-6.9-15.1-9.5-23c-1-3-1.6-6-3.1-8.8c-1.3-2.4-1.1-7.3,0-10.5
		c1.2,3.3,2.5,6.2,4.3,8.9c1.4,2.1,2.9,4.1,4.8,5.8c3.2,2.9,4.8,6.6,4.6,10.9c-0.2,3.7,1.9,6.4,3.5,9.3c0.9,1.6,1.6,3.1,1.7,5
		c0.1,1.7,0.5,3.3,1,4.9C271.3,496,271,497.2,269.5,498.2z"/>
	<path class="st0" d="M526.2,131c-0.4,1.1-1.7,0.3-2.1,1.4c0.1,0.4,0.3,0.8,0.6,1.3c-1.1,0.1-2.2,0.2-3,0.3c-1,0.8-0.1,1.5-0.4,2.2
		c-13.4,3.6-32.4,3-38.8-2.2c1.7-1.5,4.3-1.6,5.6-3.6c6.3-0.7,12.5-0.2,18.7,0.2c2.1,0.1,4.2,0.8,6.4,0.2c0.7-0.2,1.1,0.2,1.6,0.5
		c1.1,0.7,2.5,0.7,3.4-0.2c1.8-1.9,3.8-1.7,6-0.9C524.7,130.4,525.5,130.2,526.2,131z"/>
	<path class="st0" d="M686.2,168.5c-1.3-0.7-0.5-1.8-1.3-2.2c-1.8-1.2-4.4-0.8-5.5-3c-0.2-0.8,0.2-1.4,0.7-2c1.5-0.2,3,0.7,4.5-0.3
		c0.2-1-0.3-1.6-1-2.2c-1.4-0.3-2.9-0.4-4.2,0.1c-1.3,0.6-2.6,0.2-3.5-0.4c-2.7-1.9-5.6-3.5-8.6-6.5c3.4,0.8,6.2,0.2,8.3,2.2
		c1.4-0.4,2.5-0.7,3.6-1c1-0.5,0.3-2,1.7-2.4c7.2,6.1,14.5,12.3,21.2,19.6c-1.9,1-3.7,1-5.6,0.5C693,170,689.5,168.9,686.2,168.5z"
		/>
	<path class="st0" d="M449.2,176.8c-0.2-1.4,1.1-2.8,0.4-4.4c-0.5-0.9-1.9-0.6-2.3-1.8c0.8-3.3,3.9-3.5,6.5-3.9
		c2.8-0.5,5.7-0.1,6.7,2.8c1.5,1.2,3.3,0.2,4.3,1.3c0.6,1.7-1.7,1.7-1.6,3.4c0.4,1.5,3.8,1.5,3.1,4.5c-2.2,1.6-4.6,2.3-7.3,1.2
		c-2.3-1-4.7-1.9-7.3-1.7C450.6,178.2,449.7,178,449.2,176.8z"/>
	<path class="st0" d="M745.2,316.3c1.8-0.3,3.2-0.5,4.6-1.1c4.7-2,7.7-0.6,9.7,4.9c-1.6-0.7-2.5-2.2-3.9-2.4
		c-2.8,0.8-5.4,1.5-8.3,2.3c-0.4,2.1-3.6,2.4-3.2,5.1c-2.9,1-5.7,1.8-8.3-0.9c0.8-1.9,2.2-3.1,3.9-3.6
		C742.2,319.9,744.1,318.7,745.2,316.3z"/>
	<path class="st0" d="M729.5,331.6c-0.2,0.3-0.7,1-1.1,1.6c-3.1-2-6-3.5-9.8-3.5c1.5-2.7,3.7-4.1,5.9-5.4c0.4-0.2,1-0.4,1.4-0.3
		c2.2,0.5,4.4,0.7,6.6,0.6c0.6,1.9-1.9,2.9-0.7,4.6c0.9,1.3,3.5-0.3,4.1,2.3C733.7,331.8,731.8,330.9,729.5,331.6z"/>
	<path class="st0" d="M644.5,415.7c2.6-0.2,4.5-1.8,6.6-2.5c2.5,1.7,3.1,2.9,2.3,4.7c-0.9,2-4.2,4.3-6,4
		C645.5,421.6,644.4,419.4,644.5,415.7z"/>
	<path class="st0" d="M382.1,227.4c-1.2,2-0.1,4.4-1.1,6.5c-0.1,0.3-0.5,0.5-0.8,0.7c-1.5,0.2-2.6-0.5-3.6-1.5
		c-0.7-3-0.4-5.7,2.3-7.6C380.8,225.9,380.8,225.9,382.1,227.4z"/>
	<path class="st0" d="M353.8,247c0.7-2,0.4-3.7,0.3-5.4c3.5-0.4,6.7-0.7,10.3-1.1C362.7,242.6,357.5,245.8,353.8,247z"/>
	<path class="st0" d="M379.7,224.5c-1.5-1.9-1-3.6-0.8-5.2c1.1-0.9,2-0.6,3,0C381.7,221.2,381.2,222.8,379.7,224.5z"/>
	<path class="st0" d="M683.4,216c-1.8,1-2.9,0.4-3.8-0.8c-0.3-1.1,0.3-1.8,0.6-2.8C682.3,212.9,682.7,214.5,683.4,216z"/>
	<path class="st0" d="M683.5,204.9c2.2-1,3.9-2,6.3-0.4C687.7,206.1,685.9,206.1,683.5,204.9z"/>
	<path class="st0" d="M745.6,331.7c0.4,1.2,0,1.7-0.7,2.2c-1.1,0.3-2-0.4-2.9-0.8c-0.2-0.4-0.1-0.8,0.2-1
		C743.2,331.5,744.3,331,745.6,331.7z"/>
	<path class="st0" d="M375.7,176.6c-1.3-0.6-1.7-1.4-1.2-2.4c0.6-1.2,1.6-1.3,2.7-0.5C377,175.3,377,175.3,375.7,176.6z"/>
	<path class="st0" d="M709.8,330.3c1.6-1.2,3-1.8,4.7,0C712.8,331.6,711.4,331.7,709.8,330.3z"/>
	<path class="st0" d="M287.7,261.8c1.7-0.4,3-0.2,4.2,0.9c-0.7,1.3-1.8,1.1-2.9,1C288.1,263.6,287.8,263,287.7,261.8z"/>
	<path class="st0" d="M450.7,156.2c1.3-0.8,2.2-0.5,3.1,0.5C452.7,157.8,452.7,157.8,450.7,156.2z"/>
	<path class="st0" d="M694,363.2c1.7,0.7,2,1.7,1.7,3C694.1,365.4,694.1,365.4,694,363.2z"/>
	<path class="st0" d="M313.7,258.8c1.2-1,2.4-1.8,4.4-1.4C316.7,258.8,315.2,258.9,313.7,258.8z"/>
	<path class="st0" d="M377,120.2c1.5-0.8,3.1-1.5,4.6-2.3C380.5,119.7,379,120.4,377,120.2z"/>
</g>
<path class="st1" d="M640.9,803.6c-5.8,6.7-13.4,12.9-20.5,18.6c-46-47.5-100-100.2-151.3-100.2c-31.8,0-54.7,24.2-81.5,41.3
	c-37.1,23.7-88,37.1-131.6,19.7c-23.5-8.9-46.2-22-63.2-43.3c34.3,23.7,85.7,26.9,124.5,10.8c42.8-17.8,86.4-41.4,135.2-41.4
	C524.5,709.1,592.9,757.8,640.9,803.6L640.9,803.6z M109,654.1c47.6,54.2,125.3,36.8,188.9,50.3c8.9,1.9,17.2,4.8,26.7,3.4
	c-7.6-4.8-17.6-5.3-26.3-8.6c-49.3-18.6-57-71.4-84-107.7c34.5,22.9,63.1,54.3,95.3,83.8c22.5,20.5,50.4,29.3,79.4,35.2
	c-7,2.5-16.1,1.9-23.6,3.8c-52.1,12.9-109.9,33.3-165.3,15C164.3,717.5,127.1,689.6,109,654.1L109,654.1L109,654.1z M32.7,528.6
	c29.7,67.3,104.4,72.5,154,113.8c9.4,7.9,18.8,15.1,29.2,19.9l0.5-0.5c-11.5-10.4-23.9-22.7-32.7-35.6
	c-28.4-41.2-18.9-97.6-40.8-141.3c19.9,23.8,38.5,48.3,50,75.6c18.4,43.9,24.7,93.9,66,127.2c-44.7-14.8-96.3-11.8-136.5-38.2
	C79.9,621.8,40.7,578,32.7,528.6L32.7,528.6z M0.8,392.5c4.3,59.3,67.4,90.9,97.5,139.7c6.4,10.4,13,21.1,22.4,29.6
	c-1.5-6.3-6.6-11.9-9.5-18.1c-9.7-20.9-14-45.1-11.6-70c2.9-30.3,15.6-58.4,10.7-90.2c25.9,56,17.6,126,32.6,186.5
	c3.3,13.4,11.5,25.1,16.5,37.8c-25.5-19.4-58.9-36.6-86.9-58.6C45.4,527.8,22,502.8,9.8,470.2C1,446.8-1.3,418.9,0.8,392.5
	L0.8,392.5L0.8,392.5z M2.6,283.3c3-13.2,5.4-26.9,11.1-39.1c-10.9,55.9,26.3,96.3,39,144.7c4.8,18.2,6.4,37.6,13.8,54.6
	c0.7,0.4,1.3-0.3,1.7-0.9C49.9,391.1,76.8,343.6,103,303c6.9-10.7,10.2-23.1,13.4-35.6c2.8,23.3-2.1,50.3-6.4,74.3
	c-5.6,31-16.1,60-24.5,89.9c-5.5,18.7-4.1,39.7-1.2,59.3l-2.7-2.1c-19.5-36-58-64.2-69.6-103.5C2.6,353.8-3.8,317.5,2.6,283.3
	L2.6,283.3L2.6,283.3z M23.2,223.1c0-42.3,16.5-76.8,41.2-108.3c0.7-0.4,1.2-1.1,2.2-0.9c-27.2,41.4-2.4,93.6-5.9,140.6L57,302.6
	c0.5,0.4,0.5,1.8,1.8,1.2c1.6-5.4,2.1-11.1,3-16.6c6.6-38.8,40.7-65.9,69.6-93.3c6.8-6.5,11.9-14.2,15.1-22.4
	c-2.4,19.3-7.8,39.2-16.5,56.8c-22.3,45.1-65.3,81.5-73,132.7C53.2,311.9,23.2,275.4,23.2,223.1L23.2,223.1L23.2,223.1z M94.9,80.4
	c13.7-15.2,29-27,47.3-31.7c-35.4,24.4-33.5,67.9-44.4,104.4c-4,13.3-9.8,25.8-12.9,39.6l0.9,0.7c5.9-15.6,16-30.5,29.2-43
	c24.9-23.5,62.4-37.8,74.8-72.2c-0.6,47.8-41.3,84.2-78.5,112.3c-16.7,12.6-30.9,29.5-39.5,47.3c1.4-13.2,2.1-24.2,0.9-37.1
	C68.8,159,66.3,112.1,94.9,80.4L94.9,80.4z M238.8,0c-26.3,23.1-43.9,52.8-64.1,79.5c-16.8,22.2-39.9,36-59.7,54.6
	c10.7-22.2,12.7-47.7,26.3-69.2C164.5,28.2,203,14,238.8,0L238.8,0L238.8,0z"/>
<path class="st1" d="M368.9,803.6c5.8,6.7,13.4,12.9,20.5,18.6c46-47.5,100-100.2,151.3-100.2c31.8,0,54.7,24.2,81.5,41.3
	c37.1,23.7,88,37.1,131.6,19.7c23.5-8.9,46.2-22,63.2-43.3c-34.3,23.7-85.7,26.9-124.5,10.8c-42.8-17.8-86.4-41.4-135.2-41.4
	C485.3,709.1,416.9,757.8,368.9,803.6L368.9,803.6L368.9,803.6z M900.8,654.1c-47.6,54.2-125.3,36.8-188.9,50.3
	c-8.9,1.9-17.2,4.8-26.7,3.4c7.6-4.8,17.6-5.3,26.3-8.6c49.3-18.6,57-71.4,84-107.7c-34.5,22.9-63.1,54.3-95.3,83.8
	c-22.5,20.5-50.4,29.3-79.4,35.2c7,2.5,16.1,1.9,23.6,3.8c52.1,12.9,109.9,33.3,165.3,15C845.5,717.5,882.7,689.6,900.8,654.1
	L900.8,654.1L900.8,654.1z M977.1,528.6c-29.7,67.3-104.4,72.5-154,113.8c-9.4,7.9-18.8,15.1-29.2,19.9l-0.5-0.5
	c11.5-10.4,23.9-22.7,32.7-35.6c28.4-41.2,18.9-97.6,40.8-141.3c-19.9,23.8-38.5,48.3-50,75.6c-18.4,43.9-24.7,93.9-66,127.2
	c44.7-14.8,96.3-11.8,136.5-38.2C929.9,621.8,969.1,578,977.1,528.6L977.1,528.6z M1009,392.5c-4.3,59.3-67.4,90.9-97.5,139.7
	c-6.4,10.4-13,21.1-22.4,29.6c1.5-6.3,6.6-11.9,9.5-18.1c9.7-20.9,14-45.1,11.6-70c-2.9-30.3-15.6-58.4-10.7-90.2
	c-25.9,56-17.6,126-32.6,186.5c-3.3,13.4-11.5,25.1-16.5,37.8c25.5-19.4,58.9-36.6,86.9-58.6c27.1-21.3,50.5-46.3,62.7-78.8
	C1008.8,446.8,1011.1,418.9,1009,392.5L1009,392.5L1009,392.5z M1007.2,283.3c-3-13.2-5.4-26.9-11.1-39.1
	c10.9,55.9-26.3,96.3-39,144.7c-4.8,18.2-6.4,37.6-13.8,54.6c-0.7,0.4-1.3-0.3-1.7-0.9c18.4-51.5-8.5-99.1-34.8-139.7
	c-6.9-10.7-10.2-23.1-13.4-35.6c-2.8,23.3,2.1,50.3,6.4,74.3c5.6,31,16.1,60,24.5,89.9c5.5,18.7,4.1,39.7,1.2,59.3l2.7-2.1
	c19.5-36,58-64.2,69.6-103.5C1007.2,353.8,1013.6,317.5,1007.2,283.3L1007.2,283.3L1007.2,283.3z M986.6,223.1
	c0-42.3-16.5-76.8-41.2-108.3c-0.7-0.4-1.2-1.1-2.2-0.9c27.2,41.4,2.4,93.6,5.9,140.6l3.6,48.2c-0.5,0.4-0.5,1.8-1.8,1.2
	c-1.6-5.4-2.1-11.1-3-16.6c-6.6-38.8-40.7-65.9-69.6-93.3c-6.8-6.5-11.9-14.2-15.1-22.4c2.4,19.3,7.8,39.2,16.5,56.8
	c22.3,45.1,65.3,81.5,73,132.7C956.6,311.9,986.6,275.4,986.6,223.1L986.6,223.1L986.6,223.1z M914.9,80.4
	c-13.7-15.2-29-27-47.3-31.7c35.4,24.4,33.5,67.9,44.4,104.4c4,13.3,9.8,25.8,12.9,39.6l-0.9,0.7c-5.9-15.6-16-30.5-29.2-43
	c-24.9-23.5-62.4-37.8-74.8-72.2c0.6,47.8,41.3,84.2,78.5,112.3c16.7,12.6,30.9,29.5,39.5,47.3c-1.4-13.2-2.1-24.2-0.9-37.1
	C941.1,159,943.5,112.1,914.9,80.4L914.9,80.4L914.9,80.4z M771,0c26.3,23.1,43.9,52.8,64.1,79.5c16.8,22.2,39.9,36,59.7,54.6
	c-10.7-22.2-12.7-47.7-26.3-69.2C845.3,28.2,806.8,14,771,0L771,0L771,0z"/>
<path class="st2" d="M672.9,78.8C653.9,64.6,633,53.3,633,53.3s-31.2-8.9-50.6-11.1c-19.4-2.2-48.9-2.1-48.9-2.1s36.8,8.7,50.2,14
	c13.4,5.3,40.3,18.5,40.3,18.5s32.3,11.2,46.3,18c14,6.9,40.9,23.1,40.9,23.1S692,93.1,672.9,78.8L672.9,78.8z M508.4,41.4
	c0,0-27.5,2.6-49.8,9c-22.3,6.5-41.1,15.2-41.1,15.2s31.6-4.9,44-5.8c12.4-0.9,47.7,0.8,47.7,0.8s19.4-1.7,37-1
	c17.7,0.7,52.7,6.8,52.7,6.8s-26.9-12.4-40.7-16C544.3,46.8,508.4,41.4,508.4,41.4L508.4,41.4z M508.4,36.5c0,0,29.1-2.1,46.5-1.4
	c17.4,0.6,53.1,6.4,53.1,6.4S581.1,30,558.2,24.5c-23-5.4-49.4-7.8-49.4-7.8s-25.8,1.2-54.7,9c-28.9,7.9-45.7,15.6-45.7,15.6
	s32.8-5.6,50.6-6.2C476.8,34.7,508.4,36.5,508.4,36.5L508.4,36.5z"/>
<path class="st3" d="M814.6,277c-3-23.6-10.5-49.9-10.5-49.9s-12.7-23.9-24.6-39.5c-11.9-15.5-34.6-38.3-34.6-38.3
	s21.4,34.1,26.9,47.5c5.5,13.3,14,39.9,14,39.9s17.3,33.9,22.1,48.7c4.8,14.9,9.7,41.1,9.7,41.1S817.5,300.7,814.6,277L814.6,277z
	 M728.6,133.8c0,0-21-18-41.1-29.5c-20.1-11.5-40.7-17.7-40.7-17.7s25.4,18.9,34.6,27.2c9.3,8.3,33.8,34,33.8,34
	s14.7,12.8,26.4,25.9c11.8,13.2,30.2,38.4,30.2,38.4s-8.3-23.7-15.2-36.2C749.7,163.4,728.6,133.8,728.6,133.8L728.6,133.8z
	 M728.4,128.3c0,0,25.4,21.6,37,34.6c11.7,13,32.3,42.6,32.3,42.6S786,178.6,774,158.3c-12.1-20.3-32.5-45.7-32.5-45.7
	s-13.6-12.5-39.4-27.9c-25.8-15.3-45.8-22.8-45.8-22.8s28.9,21,41.7,33.4C710.7,107.6,728.4,128.3,728.4,128.3L728.4,128.3z"/>
<path class="st2" d="M840.5,348.6c0,0-0.4-24.1-8.5-53c-8.1-28.9-16.1-45.1-16.1-45.1s5.2,29.4,5.9,47.1c0.7,17.8-0.8,51.2-0.8,51.2
	s2.1,27.2,1.6,44.6c-0.5,17.4-6.1,53.1-6.1,53.1s11.3-26.9,16.6-49.9C838.4,373.8,840.5,348.6,840.5,348.6L840.5,348.6z"/>
<path class="st2" d="M816,347.1c0,0-2.7-23.8-9.3-46c-6.6-22.2-15.5-42.7-15.5-42.7s5,29.6,6,42c1,12.4,0.6,51.7,0.6,51.7
	s0.7,15.4,0.1,33c-0.6,17.7-6.7,55.9-6.7,55.9s12.4-30.1,16-44C810.8,383.1,816,347.1,816,347.1L816,347.1z"/>
<path class="st2" d="M804.8,471.8c0,0,8.7-31.2,10.8-50.7c2.1-19.4,1.8-49,1.8-49s-8.5,36.8-13.7,50.3
	c-5.2,13.4-18.3,40.4-18.3,40.4s-11,32.4-17.8,46.4c-6.8,14.1-22.8,41-22.8,41s20.6-19.3,34.7-38.5
	C793.7,492.7,804.8,471.8,804.8,471.8L804.8,471.8z"/>
<path class="st2" d="M173.7,349.9c0,0,1.1,24.1,9.1,53c8,28.9,15.9,45.9,15.9,45.9s-5.9-30.2-6.5-48c-0.6-17.8,1.8-51.2,1.8-51.2
	s-2.8-27.2-2.2-44.7c0.6-17.4,6.2-53.1,6.2-53.1s-11.4,26.8-16.8,49.8C176,324.7,173.7,349.9,173.7,349.9L173.7,349.9z"/>
<path class="st2" d="M198.3,351.5c0,0,2.6,23.8,9.2,46c6.5,22.2,15.3,42.8,15.3,42.8s-4.9-29.6-5.9-42c-0.9-12.4,0.4-50.1,0.4-50.1
	s-1.4-17-0.8-34.7c0.6-17.7,6.9-55.9,6.9-55.9s-12.5,30.1-16.2,44C203.6,315.6,198.3,351.5,198.3,351.5L198.3,351.5z"/>
<path class="st2" d="M209.9,226.8c0,0-8.8,31.2-11,50.6c-2.2,19.4-1.9,49-1.9,49s8.6-36.8,13.9-50.2c5.3-13.4,18.4-40.4,18.4-40.4
	s11.1-32.3,17.9-46.4c6.9-14,23-40.9,23-40.9s-20.6,19.2-34.9,38.3C221.1,206,209.9,226.8,209.9,226.8L209.9,226.8z"/>
<path class="st3" d="M269.9,550.1c0,0-20.6-34.1-26.1-47.4c-5.5-13.3-14.9-39.9-14.9-39.9s-16.5-33.9-21.3-48.7
	c-4.8-14.9-10.5-41.1-10.5-41.1s0,25.9,3,49.5c3,23.6,9.7,49.9,9.7,49.9s13.6,23.9,25.5,39.5C247.1,527.3,269.9,550.1,269.9,550.1
	L269.9,550.1z M286.1,565.6c0,0,21,17.2,41.1,28.7c20.1,11.5,40.7,18.5,40.7,18.5s-25.4-18.9-34.6-27.2c-9.3-8.3-33.8-34-33.8-34
	c-13.8-12-13.9-11.9-26.4-25.9c-11.8-13.2-30.2-38.3-30.2-38.3s9.1,23.7,16.1,36.2C265.8,536.1,286.1,565.6,286.1,565.6L286.1,565.6
	z M286.3,571.2c0,0-25.4-21.6-37-34.5c-11.7-13-32.3-42.6-32.3-42.6s11.7,26.8,23.8,47.1c12.1,20.3,30.9,43.3,30.9,43.3
	s15.2,15,41,30.3s46.6,22.8,46.6,22.8s-29.7-21-42.5-33.3C304,591.8,286.3,571.2,286.3,571.2L286.3,571.2z"/>
<path class="st2" d="M483.9,660.1c0,0-37.7-9.3-51-14.8c-28.2-11.6-40.3-17.7-40.3-17.7c-27.5-9.5-27.5-9.2-47.1-18.8
	c-14-6.9-40.1-23.1-40.1-23.1s19.2,20.7,38.3,34.9c19.1,14.3,39.9,25.5,39.9,25.5s31.2,8.9,50.6,11.1
	C453.6,659.5,483.9,660.1,483.9,660.1L483.9,660.1z M506.6,658.1c0,0,29.1-3.4,51.4-9.9c22.3-6.5,39.5-14.4,39.5-14.4
	s-30,4.9-42.4,5.8c-12.4,0.9-47.7,0-47.7,0s-19.4,0.9-37,0.2c-17.7-0.7-53.5-5.9-53.5-5.9s27.7,11.5,41.5,15.2
	C472.3,652.7,506.6,658.1,506.6,658.1L506.6,658.1z M557.6,664.2c-17.8,0.6-49.4-1.2-49.4-1.2s-29.1,2.1-46.5,1.5
	c-17.4-0.6-53.1-6.3-53.1-6.3s26.8,11.4,49.8,16.8c23,5.4,49.4,7.8,49.4,7.8s25.8-1.2,54.7-9.1c28.9-7.9,45.6-15.7,45.6-15.7
	S575.3,663.6,557.6,664.2L557.6,664.2z"/>
<path class="st3" d="M708.5,586.4c0,0-33,20.6-46.2,26.3c-13.2,5.7-40.8,14.5-40.8,14.5s-26.7,14.9-41.5,19.9
	c-14.8,5-49.3,12.5-49.3,12.5s28.2,1.1,51.8-2.2c23.6-3.3,46.3-10.1,46.3-10.1s28.3-15.7,43.7-27.8S708.5,586.4,708.5,586.4
	L708.5,586.4z M725.4,567.8c0,0,17.7-21.2,28.9-41.5c11.2-20.3,17.6-39.8,17.6-39.8s-18.2,25.8-26.3,35.1
	c-8.1,9.4-32.8,32.3-32.8,32.3s-14.1,15.7-27.1,27.6c-13,12-42.1,34.8-42.1,34.8s27.8-12.6,40.2-19.8
	C696.2,589.3,725.4,567.8,725.4,567.8L725.4,567.8z M764.7,537.3c-12.2,13-35.8,34-35.8,34s-19.1,22-31.9,33.8
	C684.1,617,654.8,638,654.8,638s27.1-10.8,47.2-23.2c20.1-12.4,40.5-29.3,40.5-29.3s17.4-19,32.4-45c14.9-26,20.5-43.3,20.5-43.3
	S776.9,524.4,764.7,537.3L764.7,537.3z"/>
<path class="st3" d="M433.1,42.3c-23.6,3.2-48,9.8-48,9.8s-26.8,15.5-42.2,27.6c-15.4,12-36.3,32.9-36.3,32.9s33.1-20.4,46.4-26
	c13.3-5.6,40.9-15.1,40.9-15.1s26.8-13.9,41.6-18.8c14.8-4.9,49.4-12.2,49.4-12.2S456.7,39.1,433.1,42.3L433.1,42.3z M288.8,131
	c0,0-17,21.9-28.3,42.2c-11.3,20.2-17.8,38.9-17.8,38.9s18.3-25.6,26.5-35c8.2-9.3,33-32.1,33-32.1s14.2-16.4,27.3-28.3
	c13.1-11.9,39.9-31.3,39.9-31.3s-25.4,10-37.9,17.1C318.9,109.6,288.8,131,288.8,131L288.8,131z M286.1,127.5
	c0,0,19.3-21.8,32.1-33.6c12.9-11.8,41.5-32.7,41.5-32.7s-26.3,10.6-46.5,22.9c-20.2,12.2-40.7,29-40.7,29s-16.8,18.9-31.9,44.8
	c-15.1,25.9-21.6,43.2-21.6,43.2s18.7-27,30.9-39.9C262.3,148.3,286.1,127.5,286.1,127.5L286.1,127.5z"/>
<g>
	<defs>
		<path id="SVGID_1_" d="M682.9,152.4c-0.1,0-0.1,0-0.2-0.1c-0.1-0.1-0.1-0.1-0.2-0.2C682.7,152.3,682.8,152.4,682.9,152.4
			L682.9,152.4z"/>
	</defs>
	<clipPath id="SVGID_2_">
		<use xlink:href="#SVGID_1_"  style="overflow:visible;"/>
	</clipPath>
	<g style="clip-path:url(#SVGID_2_);">
		
			<image style="overflow:visible;" width="2" height="1" xlink:href="D86DC5D124E706B6.jpg"  transform="matrix(0.7258 0 0 0.7258 681.9995 152.0201)">
		</image>
	</g>
</g>
<g>
	<defs>
		<path id="SVGID_3_" d="M386.6,114.3c0,0,0.1,0,0.1,0C386.7,114.2,386.7,114.2,386.6,114.3C386.7,114.3,386.6,114.3,386.6,114.3
			L386.6,114.3z"/>
	</defs>
	<clipPath id="SVGID_4_">
		<use xlink:href="#SVGID_3_"  style="overflow:visible;"/>
	</clipPath>
	<g style="clip-path:url(#SVGID_4_);">
		
			<image style="overflow:visible;" width="1" height="1" xlink:href="D86DC5D124E706B9.jpg"  transform="matrix(0.7258 0 0 0.7258 386.5967 113.5524)">
		</image>
	</g>
</g>
<path class="st3" d="M612.9,468.9c-3.6-1.7-3.1-5.6-8.1-7.1c-0.6-0.1-2-0.2-1.9-1.5c-1.8,0.2-2.7-2-4.6-2c-3.5,0.2-8.1-1.2-10.6-2.9
	c0,0,0-0.1,0-0.2c-0.1,0-0.2,0-0.3-0.1c-0.1-0.1-0.3-0.3-0.5-0.4c0.1,0.1,0.3,0.2,0.3,0.3c-0.6-0.2-2.2-0.7-2.7-1.2
	c-1.1,0-2.8,0.2-4.3,0.1c-0.7-0.3-2.2-2.3-4.1-2.9c-0.4-0.1-1.8-0.1-1.9-0.7c-2.1,0.2-3.9,3.2-5.4,3.8c-2.3,0.6-2.6,0.9-3.9,2.1
	c-0.2,0.3-1.8,2.7-3,2.7c-0.7,0-3.2-2.6-3.2-3.1c-1.1,0-2.4-0.8-2.4-1.4c0-2.1,0.1-3.8,0.1-5.7c-3-0.6-5-3.1-7.8-3.1
	c-2.9,0.2-4.1,2.9-6.1,2.8c-0.7,0.1-2.3,0.7-2.3,1.5c0,2.2,3.8,1.2,5,3.4c0.1,0.4,0.6,1.4,1,1.4c0.6,0.2,1.7,0.4,2.3,0.4
	c1.9,0,2.9-0.2,4.8-0.7c0.3,0,0.9,0,1.2,0c-1.3,1.9-6,1.9-8.4,2.8c0.3,1,2,0.6,2.9,1.8c0.7,1.3-0.1,1.7,0.7,3.4
	c0.1,0.4,1.3,0.5,1.6,0.4c1,0,2-1.5,2.5-2.9c0,0.4,0,1,0,1.4c2.7-0.8,3.5,3.1,5.9,3.1c2.6-0.1,6.9,0.7,8.7,1.3
	c1.7,0.7,5.9,2.3,6.6,4.1c0.7,2.4-0.3,4.5,1.8,6.5c-0.7,0.4-4,1.4-4.1,3.2c0,1,1.4,1.2,2.5,1.1c0.9,0,2.2,0,3.3-0.1
	c0.1-0.6,1.9-1,2.4-1c4.1-0.1,4.9,4.4,9,4.2c2.1,0.1,4,0,5.9-0.3c0.1-0.9,1.5-1.6,1-3.6c2.3-1.3,2.1-3.8,5.9-4
	c5.2-0.2,7.5,3.7,10.4,6.5c0.2,0.3,1.5,0.6,1.4,1.1c0,1.7,3.2,2.9,5.4,3.3c1-0.1,2.5-0.2,3.8-0.3c0.2,0.3,2.4,1.6,2.6,1.5
	c0.3,0,0.6-0.1,0.9-0.1c0.1-0.9,1.2-1.7,2.1-2.5c-0.4,0-2.6,0.3-2.9-0.4c-0.3-0.5-0.5-1.4-1.3-1.6c-0.5,0-1.5,0.4-1.8-0.2
	c-0.2-0.5-0.7-1.5-1.1-1.5c-0.9,0-2.8-0.6-3.1-1.2c-1.2-1.7-0.7-2.7-2.1-4.1c-0.2-0.2-2.6-2.8-2.6-3.4c0.2-1.1,2.9-0.9,3-2.6
	C617.6,467.6,614.4,469.5,612.9,468.9L612.9,468.9z M620.9,230.9c-0.5,0-1.5-0.1-2.3-0.2c-1.9-0.1-3.1,2.5-3.1,2.5
	c-0.1,0.2,0,0.5,0,0.6c2.3,0.1,1.9-2.3,5.4-2.1C620.9,231.5,621,231.1,620.9,230.9L620.9,230.9z M607.4,236.5
	c-0.3,0.3-0.3,1.1,0.1,1.1c1.3,0.1,3.1-1.8,3.7-2.4c-0.1-0.1-0.4-0.3-0.6-0.4C609.6,234.9,608,235.8,607.4,236.5L607.4,236.5z
	 M587.7,201.3c0.1,1.7,2.5,2.2,2.6,4c0.3,2,0.3,4.1,0.5,6.4c0.1,1.3-0.7,1.7-0.6,3.3c0.1,1.4,1.1,1.5,1.2,3.1c0.1,1.6-0.5,3-0.3,5
	c0,0.5-0.2,3.2,0.2,3.3c2,0.1,1.7-2.2,3.6-2.2c0.4,0.1,1.1,0.1,1.6,0.1c0.2,0.3,1.1,1.3,1.6,1.2c0.1,0.1,0.4-0.2,0.5-0.1
	c-1.3-2-4.7-3.4-4.9-6c-0.2-2.9,0-6.3,4.2-6.1c1.1,0.1,2.5,0.8,3.3,1.6c-1.2-2.7-3.3-5-4.7-7.7c-0.4-0.5-1.5-1.9-1.3-3
	c0-0.8-0.2-1.5-0.2-2.5c-1.1-1.5-0.1-2.5-0.8-4c-0.8-1.4-2.1-2.7-2.2-4.9c-0.3,0-0.8,0-1.1-0.1c0.1,0.7,0.1,1.5,0.2,2.2
	c0,0.5-0.6,0.7-0.5,1.3C588.2,196.3,587.5,199.1,587.7,201.3L587.7,201.3z M610.9,234.8c-0.1,0-0.3-0.2-0.5-0.2
	c0.1,0,0.2,0.1,0.2,0.2C610.7,234.9,610.8,234.8,610.9,234.8L610.9,234.8z M556.8,472.3c0,0.7-1.7,1-1.7,2.6c0,0.4,0.6,1.2,0.9,1.2
	c1-0.1,1-1.7,1.1-3.3c0.6,0,1.3-0.9,1.3-1.6c0-0.9-0.3-0.4-0.6-1.7C556.9,469.8,556.8,471.2,556.8,472.3L556.8,472.3z M534,283.7
	c0,0.5,1.1,1.6,1.7,1.6c0.4,0,1.4-0.4,2.1-0.5c-0.3-0.3,0-0.9,0-1.3c0.2,0.5,0.3,1.6,1.4,1.9c-0.2,0.5-0.5,1.5-0.7,2
	c0,0-1.7,2-1.7,2.2c0,0.4,1,2.2,2.4,2.3c0-0.2,0-0.6,0-0.9c0,0.3,0.2,1.3,0.5,1.3c2.4-0.1,3.7-4.4,4.2-6.9c0.4,0.2,1.2,0,1.5,0
	c-0.2-0.4,0-1.1,0-1.4c-0.3-0.3-1.1-0.9-1.5-1.2c-0.3-0.1-0.1-1.1-0.2-1.4c-1.9-0.3-3-1.3-4.4-1.2C538.8,280.3,534,283.1,534,283.7
	L534,283.7z M549.7,285.1c2.3,0,2.5-2.1,4-3.5c0.4,0.1,1.2,1.1,2.6,1c1.6,0.1,3.7-4.7-0.1-4.9c-2.4,0-2.8,2.4-5.7,1.6
	c0,0.1-3.2,2.1-3.2,2.1c0.1,0.5,0.3,1,1.4,1.6C548.5,283.4,549,285,549.7,285.1L549.7,285.1z M535.9,496.1c0.5,0.5,2.9,1.3,4.9,1.3
	c0.4-0.1,1.2,0,1.6,0c0-0.6,0.1-1.5,0-2.1C540,495.1,538.9,495.4,535.9,496.1L535.9,496.1z M631,541.6c-2.2-1.9-7.2-3.1-6.8-8.1
	c-1.9,0.2-4,0.6-4.5-1.1c-0.3-1.6-0.4-3.9-1.9-5.3c-2.4-2-8.3-2.4-9.4-5.4c-0.9-3.2-1.9-4.7-3-8.1c-0.5-2.1-0.2-6.2-2-7.3
	c-0.5-0.2-3.4-0.8-4.9-1.1c-1.7-1.2-0.7-3.4-1.2-5.4c-0.8-2.6-2.5-4.8-2.9-8.7c-2.8,1.4-2,3.2-4.7,5c-0.3,4.1-0.5,8.3-0.8,12.3
	c-1,3.3-2.3,10.8-7.2,11.3c-3,0.2-3.5-2.7-5.7-3.3c-3.9-1.1-6.1-1.7-10.4-2.8c-0.5,0-0.5-2.1-1.5-2.6c-0.8-0.3-3.1-0.1-3.1-1.2
	c0.7-2.5,1.4-4.6,2.2-6.9c1.3-0.9,3.6-1.1,3.8-2.9c0-0.9-2.4-2.5-3.1-2.4c-1.8,0.2-2.4,1.1-4.5,1.3c-5.9,0.1-8.9-1.6-14.4-3.5
	c0.3,1.7,1.8,1.9,2.8,3.2c-0.4,0.1-1.8,1-3,1.1c-2.8,0-9.2,1.5-9.3,3.4c0,2.1-2.5,3-2.5,4.9c0,1,0.4,2.1-0.5,3.5
	c-0.2-0.2-1.8-1.1-2.4-1.1c-1.1,0-2.7,0.6-3.6,1.6c-0.3-2.6-1.8-5-4.8-5.2c-3.5,0.2-4.2,2.7-8.7,2.9c-0.4,3-3.5,3.6-3.6,7.5
	c-1,0-2.1-0.5-3.4-1.1c-0.8,1.5,0,3.4-1.8,4.5c-0.6-0.7-1.6-1.4-2.4-2.7c-1.7,0.7-2.1,2.1-2.1,3.4c0,0.7,0,1.6,0,2.3
	c-0.2,4.5-12.9,8-18.8,8.7c-3,0.3-8.6,0.5-10.6,1.9c-1.7,1.4-5.1,4.2-8.1,4.6c-0.1-0.4-0.2-0.9-0.2-1.3c-0.5,0.2-1.6,0.4-1.7,1.5
	c0.1,2.5,0.2,4.9,0.3,7.2c0.2,3.1,2.1,4.6,2.2,6.4c0.1,0.6,0.5,1.1,0.1,1.5c-0.5-0.2-1.1-1.1-1.5-1.6c-0.3,0.6-0.6,1.1-0.8,1.5
	c-0.5,1.8,2.4,2.5,3.3,4.2c2.3,4.7,2.7,6.1,4.8,11.2c0.9,2,3.2,3.8,3.4,7c0.2,2.5-3.2,3.1-3.2,4.6c0.2,1.5,7.3,3.9,9.9,4
	c6.9,0.2,8.7-3.1,14.1-3.1c1.8-0.1,1.7-0.8,4.2,0.1c3.4,0.1,5.9-0.4,9-0.7c1.5-5.3,10.6-3.5,18.5-5.5c3.4-0.9,4.4-2.5,9.9-2.8
	c5.1-0.1,13.6,0.6,16,2.6c1.1,1.1,4,5.9,5,6c0,0-0.8,1.8,1,1.8c3.2-0.2,7.3-5.7,10.1-7.9c0,1.7-1.2,6.8-5,7.7c0,0.6,0.7,1,1.4,0.9
	c2.2-0.2,2.4-1.9,3.9-2.5c-0.1-0.3,0.3-0.7,0.4-1c0.5,0.4,1.3,0.7,1.2,1.9c-0.2,1.1-0.7,1.5-1.2,2.3c0.5-0.1,1.2-0.1,1.7-0.1
	c1-0.3,1.9-0.4,3-0.9c0,0.2,0.1,0.3,0.1,0.5c0.1,1.3,1.7,2.2,1.5,3.8c-0.4,4,8,5.4,13.5,4.8c3.3-0.4,2.7-2,5.8-2.7
	c0.1,0.7,5.3,1.9,6.3,1.8c2.2-4.5,12.3-4.2,14.9-8.7v0c0.8-3.2,4-6.6,5.6-9.1c1.9-3.5,4.5-4.7,7.5-8.1c0.7-0.9,0.5-1.3,1.3-2.2
	c0.3-1,0.4-2,0.5-2.9c1.4-1.3,2.8-4.5,3.2-7c0.7-3.3,0.2-9.2-1.6-11.4C630.9,541.9,631,541.7,631,541.6L631,541.6z M471,482.5
	c-0.4-0.1-1.1,0-1.5,0c0,0.4,0,1.1,0,1.6c0.1,0.4,1,1.1,1.4,1.1c0.6,0,1.5-0.8,1.6-1.5C472.1,483.3,471.7,482.5,471,482.5L471,482.5
	z M560.4,585.6c1.3,0.7,3.4,0.5,5.1-0.4C563.5,584.8,563.3,584.4,560.4,585.6L560.4,585.6z M507.9,391.7c-0.4,2.7-1.6,4-2.4,5.8
	c0.2,0,0.7,0,0.9,0c0.3-2.3,2.7-3.1,3.1-5.8C509.1,391.6,508.3,391.6,507.9,391.7L507.9,391.7z M507.1,397.8c0,0.2,0.7,0.8,1,0.8
	c1.6,0,3-1.3,3.3-3c-0.5,0.4-1.7,0.2-2.3,0C508.5,396.2,507.2,397.1,507.1,397.8L507.1,397.8z M614.2,582.8c0,0.1,0,0.1,0,0.2
	C614.2,582.9,614.3,582.8,614.2,582.8L614.2,582.8z M567.5,268.4c-1.1,0.1-2.3,4.1-5.2,4.1c-3.4-0.1-6.8-0.2-10.4-0.2
	c-4.4-0.3-5.8,3.2-9.4,5.3c-0.5,0.1-2.2,0.6-2.2,1c0,0.4,1.1,0.7,2.4,0.6c3.6,0.1,6.5-0.9,8.8-1.8c1.1-0.3,2.3,0.3,3.7-0.4
	c0.4,0,0.6-1.1,1.7-1.1c2.1,0.1,3.1,0.8,5.1,1.3c0.1,0.4-0.4,1.7-0.5,2.4c0,0.3-0.3,1,0,1.1c0.9,0,1,1.2,2.4,1.4
	c0.8-1.3,2.7-3.5,3.9-3.5c0.4,0,1.2-0.1,1.7-0.1c-0.1-0.1-1.6-1.9-1.7-2.3c0-0.3,0.6-1.1,1-1.1c1.1,0,1.4,2.3,4.9,2.5
	c1,0,2.2-0.7,3.3-1.6c0.4,0,1.2,0,1.7,0c0,0.2,0.6,0.6,0.8,0.7c0.7-2.1,2-2,4.3-3.2c-0.1,0.8-0.7,1-0.1,2.2c2-0.6,2-1.9,3.8-2.6
	c-0.3-0.6-0.8-1.4-0.9-2.6c0-1.8,1.6-2.5,1.6-3.8c-0.1-1.5-0.7-5.6,0.9-6.1c0.4-0.1,1.1,0.1,1.5-0.2c0-0.2,0-0.6,0-0.8
	c0-1.7,2.1-1.8,2.1-4.1c-0.2-1.8-2.3-2.8-2.4-4.7c0-0.8,0.1-1.7-0.4-2.7c-0.2-0.3-0.8-0.7-2-0.7c-0.4,0.1,0,1.2,0.4,1.2
	c0.1,0.1,0.4,0.1,0.5,0.2c-1.9,1.2-1.9-0.4-2.1-0.5c-2.1-0.1-3.6,3.2-3.5,4.8c0,0.5,0.7,0.9,0.7,1.6c0.2,4.2-5.1,9.7-8.6,10.6
	c-1.9,0.5-2.2,1.8-4.7,1.8c-0.2,0-0.8-0.5-0.8-0.7c0-0.4,0.4-1.2,0.8-1.5C569.8,265.1,567.6,268.4,567.5,268.4L567.5,268.4z
	 M604.8,594.3c0.1-0.6,0.4-0.7,0.7-1.6c-0.4,0.2-1.1,0.2-1.7,0.3C603.7,593.9,603.6,594.1,604.8,594.3L604.8,594.3z M496.8,379.3
	c0.2,0.2,1.5,0.1,1.8,0C498.4,379.1,497.1,379.2,496.8,379.3L496.8,379.3z M525.9,459.1c0,0,2.5,0.6,2.9,0.6c0.9,0.1,2.5-0.1,3.8,0
	c2.4-0.1,3.4,1.5,5.7,1.5c0.2,0.1,0.9-0.1,1-0.3c0-1-1.7-1.5-1.9-2.8c-0.1,0-0.4,0.1-0.5,0.2c-0.7,0.1-2.1,0.5-2.4-0.6
	c-2.5,0-4.9,0-7.4,0.1C526.8,457.9,525.9,458.5,525.9,459.1L525.9,459.1z M582.1,242.3c0,0.4,0.9,0.9,0.9,1.4c0.1,0.8,0.1,2,0.1,3
	c0.3,0,0.7,0,1,0c1.4-1.1,2.6-0.5,3.8-1.8c-0.5-0.5-3-0.6-3.1-2c-0.1-2.1,2.6-0.8,4.8-0.7c0-0.3,0.7-0.9,1.1-1c2.8,1.5,4.4,2,7,3.4
	c1.1-1.5,2.1-4.4,5.4-4.3c2.4,0.2,3.5-0.1,4.8-0.9c-0.5-0.2-1.9-1.1-2-1.8c0-0.5,0.6-1,0.9-1.5c-0.8-0.4-2,0.2-3.3,0.1
	c-6.1-0.4-8.2-4.4-12.7-7.1c-0.3,0.3-1,0.9-0.9,1.6c0,0.4,0.8,0.9,0.9,1.3c0.1,1.6-0.7,6.4-3.5,6.5c-0.4-0.1-1.2,0-1.6-0.1
	c0.1,0.1,0.2,0.2,0.3,0.3c-0.3,0-0.9-0.5-1.2-0.7c0.1,0.3,0,0.8,0.1,1C584.6,239.9,582.1,240.8,582.1,242.3L582.1,242.3z
	 M711.5,185.2c-0.5-1.9,1.8-1.1,3.4-0.9c-5.1-6-10.5-11.7-16-17.3c-3-1.4-6-2.8-9.2-4c-3.3-1.2-5.1-1.5-4.5-0.6
	c2.7,3.5-8-3.3-8.8-3.6c-8.1-2.7-16.5-4.8-25.6-7c-2.5-3.3-4.9-4.5-13.2-6.4c-4.6-0.8-19.6-3.7-22.8-5.1c-2.8-1.4-3.1-2.8-7.1-3.8
	c-8.3-2.2-9.5-2.6-20.6-4c-11.2-1.2-14.7,0.1-15.4,2.4c-10.8-1.1-10.4-0.4-17.9-0.9c-4.3-0.3-7.4-1.5-12.4-1.9
	c-0.5,1-1.1,2.6-3.6,2.5c-3.7-0.2-6.1-1.7-8.7-3.1c-1.8-0.9-4.5-1.4-4.6-2.2c0-1.3,4.9-1.4,3.5-2.1c-2-0.7-6.8-1.3-15.6-1.7
	c-1.6,0-7.1,0.2-7.8,0.6c-0.9,0.6,3.3,1.4,3.3,2.4c-8-0.6-15.6-0.8-23.6-1.1c-0.9-0.1,5.6-0.8,2.2-1.5c-3-0.1-9.9,0.3-12.9,0.3
	c-4.7-0.1-6.7,1.1-10.5,1c-4.6-0.1-6-0.2-7-0.8c-14.5,4.4-23.1,4.2-23.1,4.2c3.3-1.7,28.1-5.9,31.3-8.3c1-0.8,1.7-1.8-0.9-2.8
	c-0.3,0.1-2,0.9-2.4,0.9c-1.6-0.3-2.4-1.7-5.9-1.7c-5.6,0.8-10.9,1.5-16.5,2.3c-1-1.3-3.6-2-9.7-1.2c-7.1,0.8-9.4,2.1-13.3,3.7
	c-2.9,1-19.8,6.5-18,3.7c-4.4,1.3-22.1,5.4-32.2,10.9c-0.9,0.6-1,2.2-1.8,3c-1,0.8-2.9,0.7-4.3,1.1c-3,0.8-13.2,3.2-17.4,5.5
	c-1.4,0.8,0.1,1.3-0.2,2.1c0,0.7,6.3-0.7,7.1-0.1c0.1,0.3-7.2,1.2-7.3,1.5c-1.7,0.8-2.7-0.3-5.7,0.6c-2.1,0.7-5.8,3-8.7,4.2
	c-0.5,0.5,2.7-0.5,2.6,0.1c-0.3,0.5,3.8-0.3,3.3,0c-1.1,0.6-7.7,1.9-8.1,2c-1.2,0.3,2.5-2.8,1.2-3.4c-1.3,1.5-3.5,3.2-6.1,4.7
	c-0.3,0.2-0.5,0.3-0.8,0.5c0,0.1,0,0.1,0.1,0.2c0.4,1.1,2.5,0.9-1.1,3.6c-0.2,0.2-0.5,2,0.5,1.7c1.2-0.3,5.1-2.6,6.8-2.6
	c0.1-0.1,3,0,3.7,0.5c1.5,0.6-0.5,1.4-1.1,1.4c-0.4,0.3-0.9-1.6-2.1-1.3c-2.6,0.8-6,1.9-6.2,2c-0.7,1.6-0.2,3.4-2.2,4.1
	c-0.1,0.1-1.3,1.4-2.5,2.2c-1.8,1.7-4.6,3-5.6,3.6c-1.4,0.6,1.1-2.2,0.8-2.2c-0.7,0,4.2-3.2,4.4-3.7c0-0.5,1.6-1.4,1.6-2
	c-0.3-0.8-2,0.3-1.8-0.6c0.2-1.2,1.4-2.8,1.8-4c-31.3,29.6-55.7,66.5-70.5,108c0.1,0.4,0.2,0.8,0.1,1.3c-0.3,0.1-0.5,0.2-0.6,0.2
	c-0.6,1.7-1.2,3.4-1.7,5.1c0.1,0.4,0.2,0.9,0,1.6c-0.1,0.7-0.3,1.5-0.4,2.3c-0.1,0.8-0.5,2.5-0.4,2.7c-0.2,0.7-0.3,1.5-0.4,2.2
	c-0.7,0.5-1.3,0.9-1.9,1.1c-2.8,9.9-5.1,19.9-6.8,30.2c0.2,0.5-0.3,1.5,0.1,2.2c0.4,1.2,1.6,0.4,2.3,1.7c0.6,1.2,0.9,2.7,2,3.2
	c2.1-0.4,2.4-0.3,3.5-0.5c0.7-0.8,0.9-2,1.7-2.1c1.6-0.1,1.3,3.6,2,4.9c0.2,0,2.1,1,2.7,0.9c2.1-0.2,5.9,1,7.6,0.9
	c0.2,0,0.2-0.1,0.4,0c0.9,0.1,1,0.1,1.8,0.3c0.2-0.3,0.4-0.7,0.9-1c1,0.4,1.5,0.5,2.4,0.7c1.3,0,2.1-0.9,3.4-1
	c1.4,0,1.8-0.4,2.9-0.1c1.3,0.5,1.6,3.6,2.4,5.4c1,2.1,3.8,4.6,6,4.6c1,0,1.6-0.1,2.5,0.2c-0.5,0.4-0.6,1.9-1.5,2.2
	c-1,0.6-1.7-0.2-2.7,0.7c1.5,2,2.6,6.3,6.1,6.3c2.9-0.1,3.3-3.4,4.9-5.4c0.3,0,0.6-0.1,0.9,0c-0.1,0.5-0.7,1.7-0.7,2
	c0,1.9,1,3.5,1,5.9c-0.1,1.7-0.5,2.2-0.6,4.1c0,0-0.1,0-0.1-0.1c0,0.4,0.2,1.7,0.2,2.1c0.1,2.9,1.1,5.5,1.9,8.4
	c0.8,3.3,1.8,7.6,2.5,9.9c0.5,2,0.6,2.7,1.5,4.7c1.1,1.7,0.4,3.6,1.4,6c0.6,0.9,2.2,2.6,2.8,4.8c1,3.1,2.3,6,3.5,9.6
	c0.2,0.3,0.5,1.5,1.2,1.5c0.2,0.8,0.9,1.7,1.9,1.6c1,0.1,1-1.7,1.5-2.9c0.5-1.5,0.8-0.9,2.3-1.7c1-0.6,0.6-4.3,2.3-4.9
	c0.4,0,1.2-0.2,1.3-0.5c0.2,0,0.4-0.1,0.6-0.1c-0.1-1-0.4-2.5-0.7-3.9c0-2.8,1.3-5.2,1.4-8.9c-0.2-2.4-0.9-5.7-1-8.5
	c0.1-3.1,2.8-2.4,5.1-3.4c0.9-0.2,2.5-2.2,3.5-3.5c2.6-3.2,4.9-6.3,7.8-9.6c2.2-2.7,6.2-3.5,8.9-6.5c1.5-1.6,1.1-3.3,1.8-5.6
	c0.4-1.5,3.4,0.3,4.5-2.2c1.2,0.8,1.1,1.6,3.5,1.6c3.8-0.1,7.8-1.1,8.1-6.1c2.2,0.4,4.8,1.4,5.3,3.7c0.6,2.1,0.3,4.6,1.4,6.7
	c1.2,2.2,2.8,3.5,5,5.3c1.6,2.8,2.7,3,3.7,6.4c0.2,0.6,0.9,1.4,0.9,2.1c-0.1,1.8-0.8,2.6-0.8,4.7c0,2.1-0.5,3.5,2,3.6
	c4.4-0.1,5.9-4.2,8.7-6.9c0.8,0.7,0.5,1.5,1.4,2.5c0.3,0.2,1.8,0.2,2.1,0.8c1.7,2.5-1.1,7,1,7.2c0.2,5.1,3.3,12.4,3.6,19.5
	c0,1.7-1.2,5.3,0.1,6c-0.1,0-0.4,0-0.5,0c-0.1,0-0.2,0-0.3,0c-0.3,2.3-1.5,4.1-1.4,6.4c0.1,0.2-0.2,0.9,0,0.9c1.6,1,0.5,0,2.1,0
	c2.6,0.2,3.7,5.8,5,8c1.9,3.8,2.3,6.9,3.9,11.6c1.9,5.3,6.6,9.9,11.7,11.8c0.8,0.2,1.1,1.4,2.8,1.5c0.4,0,0.7-0.5,1.1-0.6
	c0.5,0.1,1.6-0.1,2.1-0.1c-0.8-1.9-0.8-2.5-1.6-4.6c-0.8-1.9-3.1-2.8-3.3-5.7c0-1.1,0.5-1.3,0.6-3c-0.2-8-9.8-9.1-14.3-13.5
	c-1.1-1.2-1.4-4-2-5.1c0.1,0,0.3-0.1,0.3,0c0-4.8-4.7-3.1-4.8-8.1c0.1-4.4,2.5-6,2.6-11.2c0-1,1.6-3.3,1.7-4.8
	c-0.1-0.6-0.4-1.8,0.9-1.9c1.7,0.1,3.6,0.3,4.1,2.2c0,0,0.6,2.1,0.8,2.2c2.7,0.9,4.7,1,7,3.5c1.8,2.1,0.2,4.5,3.7,4.6
	c0.2,2.6,3.2,3.4,5.6,3.5c0.1,0.6,0.7,2.3,1.2,2.6c-0.5,0.3-0.6,1-0.6,2.4c-0.1,0.7,0.8,3.3,1.3,3.4c0.5-0.1,3.8-2.5,3.8-4.2
	c0.1-0.3,0.1-0.9,0-1.4c0.1,0.5,0.2,1,0.4,1c2.1,0,1.5-2.6,3.5-3.7c4-2.2,4.5-4,9.9-5.4c-0.1-3.1,2-4.6,1.9-8.6
	c-0.1-5.8-2.9-12-7-14.8c-4-2.8-5.6-7.1-9.4-11.2c-0.4-0.6-1.4-1-1.4-2.6c0.1-7.4,7.8-8.6,11.3-14c3,1.4,2.9-0.5,5.9,1
	c-0.1,0.7,3.5,7,5.1,7.1c2,0-0.1-2.4,1.3-3.8c1.2-1.1,4.6-1.7,6-2.3c3.3-1.5,7.6-0.1,9.9-2c0,0,1.9-3,2.1-3.1c1.8,0,0.2-0.7,1.8-0.8
	c8.3,0,10.7-4.5,15.6-7.2c1.1-0.4,2.3-1.3,2.6-2.9c4.3-0.1,5.4-5.9,7-9.1c1.1-1.8,5.8-8.3,8.4-8.9c0-3.6,2.6-5,2.6-9.8
	c0-6.8-1.6-7.3-4.8-11.6c-0.4-0.6-0.5-2.6-2.1-3.5c0.1,0,0.1-0.1,0.2-0.1c-0.1,0-0.3,0.1-0.4,0c0-0.8-0.1-2.1-0.2-3
	c-1-0.2-4.6-1.8-4.6-3.9c0.1-1.9,4.3-2.7,5.1-4.5c1.7-4.2,6.9-0.9,10.5-4c-1.5-1.6-3.9,0-6.4-1.4c-0.9-0.5-1.8-3.3-3.7-3.4
	c-1,0.2-1.7,4.9-2.4,5c-1,0-3.1,0.4-4.5-0.3c-2.1-1.5-1.3-4.3-3.4-5.5c-0.5-0.3-3.5-0.7-3.5-2c0.2-2.4,4.9-1.8,7.3-2.9
	c2.1-1.1,6-2.9,7.4-4.5c0.3-0.3,1-1.5,2.7-1.5c1,0.1,3.2,1.7,3.2,2.2c0,1.9-3.1,2.6-3.3,4.9c4.9-0.1,7.4-3.9,12.9-4
	c2,0.1,2.8,1.1,5.4,1.3c-0.7,0.9,0,1.2,0,2.6c0,0.9-1.8,1-1.8,2.5c0,0.5,0.5,2.1,1.7,2c0.4,0,1.1-0.6,2.4-0.6c2,0,4.5,2.8,4.6,4.6
	c0,0.9-1.3,2-2.7,2c0,0.4,0,1.2,0,1.6c0.2,0.3,0.9,1,1.7,1.1c0,0.7,0.8,1.9,0.9,2.7c0,0.4-1.5,2.4-1.5,3.6c0,0.5,0.2,1.5,0.8,1.6
	c-0.1,0.6-1,1.4-1,2c0.6,0,1.9,0,2.5,0c0.8-0.7,1.3-0.9,3.4-1.4c0-1.1,4.2-1.6,5.2-1.8c2.5-0.7,3.3-2.2,3.3-5.9
	c-0.1-6-2.6-10.9-6.4-13.5c-1.4-1.4-3.2-2.2-2.9-4.2c2-0.1,3.6-0.9,5-1.7c0.9-0.7,4.1-1.9,4.8-2.9c2.2-3.3,8.8-7.9,12.8-10.1
	c0,0,0.5,3.2,5.7,3.4c9.4,0,17.4-13.1,23.6-17.4c2.5-1.7,5.7-4.9,6.5-7.8c0.8-3-0.4-4.3,1.7-7c0.8-1.1,2.5-3.3,2.3-5.6
	c-0.3-3-5.8-10.1-8.9-9.3c-9,2.8-14-2.7-14.1-3.1c0.1-2.3,6.4-6.4,9.5-7.9c4.6-2.1,15.4-6.8,21.8-7.2c5.7-0.2,21,1.7,25.6,2.2
	c5.6,1,8.4,2.3,11.7,2.9c2.5,0.3,4.9,0.6,7.3,1c1.3-4.6,1.8-8.1,10.6-6.7c2.2,0.5,3.1,0.2,7.4,1.4c-1.8,0.5,2.3,6.8,11.4,0
	c0.3,0.1,2.6-0.2,3.4,0.4c1.4,0.5-0.5,0.8-0.6,1.9c0,1.3,1.6,3-1.9,3.7c-3.2,0.7-6.6-0.7-8.6,1c-2.5,2-4.3,4.5-8.3,5.3
	c-3.3,0.7-7.9,1.7-7.4,5.6c0.5,3.2,3.9,14.1,8.2,16.9c2.4-2.3,3.7-6.9,9.4-7c-1-2.6,4.9-2,4.7-3.9c-0.1-1.4,2.2-2.6,3.3-4.3
	c0.8-1.5,0.1-3.4,0-4.2c-0.2-1-3.9-0.1-3-1.7c2.2-3.3,4.7-4.8,7.5-5.4c1.9-0.3,3.7,1.3,5.5,1.6c1.7,0.4,3.1-0.4,4.5-0.1
	c3.4,0.7,5.7,2.2,7,2.6c6.1,1.4,10.2-3.2,17.4-0.8C722.7,192.3,712.1,186.1,711.5,185.2L711.5,185.2z M671.8,481.8
	c-0.1,0.7,0.4,2.8,1.8,2.7c0-0.2,0-0.6,0.1-0.8C673.9,482.7,672.8,482.4,671.8,481.8L671.8,481.8z M462.9,125.4
	c-0.1,0-0.2,0.1-0.3,0.1c0,0-0.1,0.1-0.2,0.1C462.6,125.5,462.7,125.5,462.9,125.4L462.9,125.4z M696.8,559.5c-0.8,0,0-0.1-0.7-0.8
	c-1.4-0.9-2.2,0.1-2.9-0.9c-0.1,1.7,0.2,3.9,2.3,3.3c-0.2,0.2-0.4,0.7-0.6,0.9c-0.1,0.4,0,0.4,0.2,0.5c0.4-0.3,0.7-0.7,1-1
	c-0.2-0.4-0.2-0.9,0-1.2C696.3,559.9,696.7,559.8,696.8,559.5L696.8,559.5z M667.5,474.5c0.1,1,2,4.3,3.4,4.1
	C670.5,476.6,669.3,475.5,667.5,474.5L667.5,474.5z M726.5,496.1c-0.2,0.4,0,1.1,0.4,1c1.3-0.3,1.7-1.6,3-2.5
	c0.2-0.3,0.2-0.8,0.3-1.2C729.4,493.8,726.9,494.4,726.5,496.1L726.5,496.1z M724.3,498.8c-1.1,0.7-2.6,1.4-3,3.2
	c-0.1,0.5,1.3,0.4,2,0.2c1.1-0.2,0.8,0,1.6-0.9c0.1-0.5,0.2-1.1,0.4-1.6C724.6,499.4,724.5,499.5,724.3,498.8L724.3,498.8z
	 M462.4,125.6c-0.2,0.1-0.5,0.1-0.7,0.2C461.9,125.7,462.1,125.6,462.4,125.6L462.4,125.6z M462.9,125.2c-0.1-0.7-1.1-0.5-3.2-0.5
	c-1.5,0.1-3,0.3-3.2,0.9c0,0.6,1.5,0.5,3.1,0.4c1,0,2.2-0.2,3-0.5C462.7,125.5,462.8,125.3,462.9,125.2L462.9,125.2z M636.1,460.2
	c-2,0.1-1.5,3.2-3.5,4.6c-1.5,0.6-3.5,0.7-5.9,1.6c0,0-1.4,0.7-1.7,0.5c-1.4,0.2-3,0.1-4.5,0.3c0.2,1.7,2.4,1.4,3.6,2.3
	c0.1,0,0.1,0.1,0.2,0.1c0.1,0.1,0.2,0.2,0.3,0.3c0.1,0-0.2-0.2-0.3-0.2c0.5,0.4,1.8,0.9,2.1,0.9c3.1-0.3,4.5-1.9,7.2-2.7
	c0.2-2.8,3.1-2.4,3.4-5.5C637.3,461.6,636.8,460.2,636.1,460.2L636.1,460.2z M638.4,457.6c-1.6-1.7-2.6-3.2-5.5-4.1
	c0.4,1,1.5,1,2.5,1.7c2,1.1,1.4,2.7,3.3,3.6c-0.4,1.5-0.5,2.6,1.3,2.8c0.2,0.3,0.6,0,0.9-0.1c-0.2-0.2,0-0.8,0.1-1
	C640.9,458.2,639.5,458.7,638.4,457.6L638.4,457.6z M525.4,433.4c-0.9,0.5-1.5,2-1.5,3.3c0,2.1,1.3,2.8,1.3,4.6c0,0.5,0,1.6,0,2.1
	c0,0.7,0.4,3,2.1,3.1c-0.6-0.9-1.1-1.7-1.8-2.7c0-0.3,0-0.9,0-1.1c1,0,3.3-0.2,3.8-0.4c-0.1-1-1.2-1.8-1.3-2.4
	c0-0.7,1.6-1.4,1.7-2.1C526.9,437.1,525.8,435.7,525.4,433.4L525.4,433.4z M647.2,464.9c-0.4,1.4,0,2.8,1.8,3.1
	c0,0.3-0.1,0.9-0.1,1.2c-0.1,0.4,0.4,1,0.8,0.9c0.4-0.1,1-0.9,1.1-1.2C650.8,468.5,648.1,465.4,647.2,464.9L647.2,464.9z
	 M666.3,480.2c-0.1,1.7,1.9,2,3.5,1.8c0.2,0,0.5-0.3,0.7-0.4C669.8,480.3,668.4,479.9,666.3,480.2L666.3,480.2z M625.6,230.2
	c1,0,2.2-1.6,2.3-2.3c-0.2-0.1-2.1-0.1-2.3,0.5c-0.2,0.3,0.3,1-0.1,1C625.3,229.4,625.4,230.2,625.6,230.2L625.6,230.2z
	 M660.1,471.8c0,0.1-0.2,0.3-0.3,0.5c0.1,0-0.2,0-0.3,0c0,1.6,2.8,2.4,4,2.3c0.3-0.1,0.8-0.3,1.1-0.4
	C663.9,473,661.4,472.5,660.1,471.8L660.1,471.8z M654.3,469.2c-0.2,0-0.5,0.1-0.7,0.2c0.6,0.4,1.4,0.9,2,1.3c0.4,0,0.9-0.1,1.3-0.1
	C656.2,469.7,655.4,469.7,654.3,469.2L654.3,469.2z M654.2,469.1c0,0,0.1,0,0.1,0.1l0,0C654.3,469.2,654.2,469.1,654.2,469.1
	L654.2,469.1z M654.2,469.1c-0.2-0.1-0.4-0.2-0.5-0.3C653.8,468.9,654,469,654.2,469.1L654.2,469.1z M597.8,596.9
	c-0.1,0-7-0.5-7.4,1c-0.2,1.6,2.7,7.2,6.6,6.6c2.6-0.4,7-5.1,7.6-7c0.3-1.4-0.7-1.3-0.9-2.3C601.9,595.8,599.5,596.7,597.8,596.9
	L597.8,596.9z M230.4,381.7c0.2,3,0.4,6,0.7,9c0.3-2.6,0.4-5.1,0.4-7.5c-0.1-0.7-0.3-1.1-0.5-1.9
	C230.8,381.4,230.6,381.6,230.4,381.7L230.4,381.7z M236.3,380c1-0.1,1-1.1,1.2-1.7c-1.6,0.1-1.2,0.2-2,0.6
	C235.7,379.6,236,379.8,236.3,380L236.3,380z M395.4,126.9c1.5-0.1,2.3-0.5,2.8-1.3c-0.6,0.1-1.3,0.2-1.9,0.4
	c-0.5,0.2-1.1,0.5-2,0.8C394.4,127,394.8,127.1,395.4,126.9L395.4,126.9z M499.5,386.9c-0.2,0-0.5-0.4-0.7-0.5
	c-0.2-0.1-1.2,0.5-1.2,0.7c-0.2,1,0.2,4.2-0.2,6.9c1.8-1.1,5.9-2.1,6.4-4.8C503.9,388.4,500.9,387.5,499.5,386.9L499.5,386.9z
	 M381.6,122.4c0,0.5,1.3,0.6,2,0.4c1.6-0.4,5.4-1.3,5.9-2.1c-0.9,0.2-4,0.5-4.6,0.5C384.2,121.4,381.9,121.9,381.6,122.4
	L381.6,122.4z M390.6,446.9c-0.3-0.1-0.9,0-1.2-0.1c0,0.2,0,0.5,0,0.6c0.1,0.9,2.4,3.7,3,3.9c0.1-1.7-0.7-2.4-1.7-3.7
	C390.5,447.5,390.6,447.1,390.6,446.9L390.6,446.9z M248.4,338.2c0,0,0,0.1,0,0.1c-0.7-0.7-0.5-2.7-1.4-3.1
	c-2.4-1.1-3.7-1.5-4.5-5.2c0-1.7,0.2-3.2,0.3-4.8c-2.9,4-3.7,9-8.1,9.6c-1.9,0.1-2.5-0.5-2.4-2.3c0.2-1.4,0.6-2.6,0.7-4.1
	c0.1-0.4,0-0.9,0-1.4c-1.1,0.5-0.7,1.8-1.2,2.3c-1.3,11-2,22.2-2,33.5c0,2.1,0,4.3,0.1,6.4c1.1-0.6,2.1-1.4,3.2-2.5
	c-0.2-0.3-0.2-0.8-0.3-1.1c0-2.7,3.7-3.2,5.6-3.9c0-1.6,0.9-3.8,2.1-3.8c1.3-0.2,1.1-3.8,2.2-3.9c1.5,0,0.9-2.2,1.2-3.9
	c0.5-1.5,1.2-2.2,2.4-2.2c0.2-3.2,3.4-4.7,3.6-7.9C250,339.2,248.8,339.4,248.4,338.2L248.4,338.2z M384.1,436.9
	c-0.2,0.1-0.5,0.2-0.7,0.3c0,0,0.1,0,0.2,0c0.3,0.7,2.4,3.5,2.9,3.6C387.4,440.8,385.1,437.6,384.1,436.9L384.1,436.9z M309.9,407
	c0,2.4,1.6,4.8,3.7,4.9c2.6,0.1,4.4-3.6,4.3-6.6c-0.1-5.5-4.3-7.6-6.5-11.7C311.3,398.7,309.7,402.1,309.9,407L309.9,407z
	 M440,117.5c0.9-0.2,1.7-0.4,1.9-0.8c-1.3,0.3-1.5,0.2-4.5,0.6C437.8,117.4,438.2,117.7,440,117.5L440,117.5z M568,125.6
	c1.5,0,2-0.3,3-0.4c0.7,0.2,1.4,0.5,2.6,0.7c1.3,0.2,2.2-0.1,3-0.1c1,0.1,1.6-0.1,2.7,0c0.8,0.3,1.5,0.7,2.6,0.7
	c1.7,0.1,2.2-0.3,3.3-0.1c1.1,0.2,2.5,0.2,3.7,0.5c0-0.5,1.7-0.6,2.1-1.2c-2.9-0.6-11.1-2.6-13.6-2.8c-1.7-0.3-2.3,0-2.1,1
	c-3.8-0.5-4.1-1.8-8.5-2.3c-2.8-0.3-6.1,0.2-6,1.3C561,124.1,564.4,125.1,568,125.6L568,125.6z M680.2,159c-0.3-0.2-0.7-0.6-0.9-0.8
	c-1.2-0.5-2.3-0.7-3.5-1.1c0.7,0.8,2.1,1.6,3.6,2C679.9,159.4,680.3,159.3,680.2,159L680.2,159z M608.7,130.6c2.1,0.3,5.7,1,5.7,0.3
	c-0.1-0.3-0.7-0.6-1.4-0.7c-0.5,0-14.3-2.9-15.7-3.4c0.4,0.2,1,0.4,1.4,0.5C599,128.7,605.3,130.1,608.7,130.6L608.7,130.6z
	 M582.9,131c1.5,0.3,2.7,0.3,4.1,0.5c-0.3-1.1-3.1-2.3-6.8-2.6c-3.1-0.6-4.8,0.2-6.5,0.7c0.2,0,0.4-0.1,0.7-0.2
	C577.1,130,580.2,130.3,582.9,131L582.9,131z M410.1,121.1c-0.2,0.6,0.2,0.5,1.8,0.3c2.6-0.6,4.7-1.3,7.1-1.7c0,0,4.2-0.8,4.7-0.9
	c2.3-0.2,9.4-1.1,9.6-2.2c0.2-0.9-5.2-1-7-0.7c-0.9,0.1-1.4,0.5-2.5,0.7c1.1-0.4,0.5-0.1,0.6-0.9c-0.5,0-1.2,0.1-1.7,0.2
	c-5.3,0.7-6.8,2.5-10,3.8C411.9,120.3,410.5,120.2,410.1,121.1L410.1,121.1z M398.2,118.6c-4.2,1.2-5.5,1.8-9.6,3.1
	c1.7-0.2,4.5,0.3,6,0c4.4-0.9,8.3-0.9,13.9-1.9c1.1-0.2,2.6-0.5,2.7-1c0.2-0.4-0.9-0.2-1.8-0.2c0.7-0.1,2.4-0.4,2.7-0.9
	c0-0.6-0.1-0.4,1.2-1c-1.4-0.3-1.4-0.6-4-0.1c-0.8-0.1-1.7,0.3-2.5,0.4c-1.6,0.2-2.1,0-3.6,0.3c-1,0.2-1.3,0.2-2.6,0.5
	c1-0.4,2.5-0.8,2.6-1.1c0-0.3,0.3,0,0.2-0.8c0.5,0,0.2,0.1,1.5-0.3c-1.8-0.3-3.4-0.6-6.9,0c-5.9,1.3-8.2,3.3-13.4,5
	c2.8-0.3,5-0.4,8.5-1.2C393.8,119.5,396.9,118.8,398.2,118.6L398.2,118.6z M576.9,127.9c-0.4-0.8-3.8-1.2-3.8-0.4
	c0.1,0.5,0.2,0.6,1.8,0.8C575.8,128.4,576.9,128.4,576.9,127.9L576.9,127.9z M420.9,467.7c-0.1-1.5-1-3.7,0.6-4.4
	c-0.2-2.1-0.2-4.4-0.3-6.8c0-1.7-2.4-2.1-3.3-3.1c-1.9-1.7-3.8-2.8-3.9-6.2c-1.8,0-3.1-0.5-3.1-2.7c0.2-0.4,0.4-1.2,0.6-1.6
	c-0.3-0.5-1-1.4-1.5-1.5c-0.3,0-0.9-0.1-1.3,0c0.1-0.2,0.3-0.6,0.3-0.8c0-2.6-2.7-3.3-5.2-4.2c-4.5-1.6-6.2-3.7-9.4-7
	c-1.7-1.7-2.8-3.6-5.2-4.6c-0.5-0.1-1.5-0.2-1.7-0.9c-1.4-2.6-2.5-5.1-5.9-6.4c-1.7-0.1-3.4-0.1-5-0.2c-1-0.5-1.6-1.5-3.1-1.6
	c-0.2,0-0.7,0-0.9,0c0,0.3,0.1,1,0,1.3c0.5,1.7,3.1,6.2,4.4,6.6c1.3,0.4,2.8,0.1,3.6,1.6c0.8,1.6,1.6,3.3,2.5,4.9
	c1.2,2.4,4.6,1.8,5.9,5.6c0.3,1,1.8,5.3,2.4,5.7c0.3,0.4,2.3,0.7,2.5,0.9c0.2,0.4,0.1,1.5,0.5,1.5c0.4,0,2.5,3.5,2.8,4.1
	c1.7,3.9,3.2,6.6,6.5,9.9c3,3.1,5.8,4.3,9,7.5c0.1,0.1,3.4,4.3,4,4.4C417.6,469.8,420.9,469.5,420.9,467.7L420.9,467.7z
	 M554.4,122.6c0.9,0.2,1.1-0.2,1.3-0.5c0,0,0.1,0,0,0c0,0,0,0,0,0c0,0,0.1-0.1,0-0.1c0.1,0-0.2-0.1-0.3,0c-0.3-0.2-0.8-0.3-1.2-0.4
	c-0.5,0.4-1,0.2-1,0.6C553.3,122.5,553.8,122.6,554.4,122.6L554.4,122.6z M384.4,119.3c-0.1-0.2-0.1-0.1-0.2-0.2
	c-1.4,0.5-2.9,0.6-4.3,1.1C380.8,120.8,382.5,119.8,384.4,119.3L384.4,119.3z M479.5,482.8c-0.1,0.3-0.1,0.9-0.2,1.2
	c-0.6-0.3-1.7-0.7-3.2-0.7c-1.1-0.1-2.8-0.1-2.8,1.5c0,0.5,2,1.1,3.3,1.1c1.7,0,2.3-0.9,4-1.5c0.4,0.1,1,0.5,1.3,0.6
	c0.4-0.1,1.1,0,1.5,0c-0.3-0.2,0-1,0-2.3C482.5,482.8,480.8,482.8,479.5,482.8L479.5,482.8z M497.5,485.4c2.3-1,3.6-1,4.8-3.1
	c-1.4,0.5-2.3,1.5-4.8,1.5c-2.6,0-3.6-1.1-6.7-1.1c-0.9-0.1-3-0.2-3,1.1c0.1,1.7,2.5,1.5,3.7,1.6
	C493.6,485.4,495.5,485.3,497.5,485.4L497.5,485.4z M494.4,384.2c0.5,0.1,1.8-1.8,1.6-3.1c-0.4-1.8-2.3-1.5-4.3-2.8
	c-0.4,0-1.4,0.1-1.8,0C489.9,378.3,493.3,384.1,494.4,384.2L494.4,384.2z M489,487.2c-0.4,0-1.2,0-1.7,0c-0.9,0-3.1-0.4-3.1,0.9
	c0.1,1.5,2.7,1.8,4.3,1.7c0,0.4,0.4,2,1,2c0.2,0,0.5,0,0.7,0c0.4,0,1.3-0.7,1.3-1.1C491.5,488.9,489.1,489.4,489,487.2L489,487.2z
	 M517.4,459.2c0,1,2.2,2.9,2.9,3c0.4-0.1,1.6-1.8,1.7-2.1C521.8,458.5,517.5,457.3,517.4,459.2L517.4,459.2z M506.7,385.5
	c-0.1,0.6,1.6,2.1,1.8,1.6c0.2-2.1-2-2.4-2.4-3.9c-0.4,0-1.2,0-1.6,0c-0.1,0.6-0.2,1.8-0.3,2.3C504.8,385.5,506.1,385.3,506.7,385.5
	L506.7,385.5z M500.4,396.8c0,0.8,2.9,4,3.5,4c0.3,0,1.1-0.5,1.2-0.8c0.1-0.7-0.8-0.7-0.6-2c0.2-2,2.3-3.1,2.6-4.9
	c0.1-0.7-0.6-2.2-2.5-1.7c-0.7,0.1-2.3,4.1-2.4,4.4C501.7,395.9,500.5,396.4,500.4,396.8L500.4,396.8z M421.5,453.7
	c0.2,0.4,1,2.3,1.2,2.3c0.5,0,1.4,1,2.1,1c0.3,0,0.8,0,1.1,0c-0.1-0.4-0.2-1.2-0.2-1.6c-2.2-0.2-3.3-3.2-4.2-5.6
	c-0.9,0-3.3,1.3-3.3,2C418.2,452.8,420.8,452.4,421.5,453.7L421.5,453.7z M516,396.4c-0.2,0.3-0.4,2.5-1,3.7
	c-0.5,0.7-3.7,0.3-4.1,2.4c-0.8,0.1-1.7,0.8-1.9,1.9c-0.3,0-0.8,0-1.1,0c-0.9,0-0.5-2.4-2.9-2.5c-3.3,0-2.7,3.2-6.5,3.3
	c-0.6,1.6-1.4,2.5-1.6,3.9c0,0.3,0.6,1.2,0.5,1.5c-0.1,0.5-1.9,3.4-0.4,3.5c2,0.1,2.3-4.9,4.2-6.5c0,0,1.2,1.3,1.6,1.4
	c0.1-0.2,0.5-0.5,0.6-0.7c0.2,0.3,0.6,0.8,1.7,0.8c-0.1-0.3,0.1-1,0.2-1.4c0.6,0,1.9,0.1,2.5,0c0.1,0.4,0.4,1.2,0.5,1.6
	c-0.4,0.2-1,0.7-1.1,1.8c-0.4,2.8,1.4,5.3,4,5.4c0.4,0,1.4,0,1.8-0.1c0,0.3,0.4,1.3,0.7,1.2c0.9,0.1,2.1-0.9,2.2-2.1
	c0.2-1.8-1.8-2.2-1.7-3.2c0.1-0.7,1-1.3,1.9-2.1c0.2,0.3,0.8,0.9,0.9,1.2c0,0,0-0.1,0-0.2c0.3,0.9,1.3,3.2,1.7,3.3
	c0.4-2.6,2.5-3.6,2.8-5.1c0.1-1-1.8-10.3-3-11.6C518.2,397.3,517.2,396.4,516,396.4L516,396.4z M495.1,442.4c2.8,0,3.9-0.6,6.3-0.7
	c2.2,0.1,3.6,1.1,5.8,1.1c3.3-0.1,4.4-2.8,5-5.2c0.4,0,0.7-0.9,0.8-1.3c-0.2,0-0.8,0-1,0c-2,1.3-4.3,2.8-5.3,3.8c-0.3,0-1,0-1.3,0
	c-3.9-0.7-7.7-1.3-11.6-2c-4.4,0.1-6.2,5.3-6.2,9.3c0,0.7-1.3,1.9-1.5,2.4c-1.2,3.8-2.9,5.2-2.9,8.7c0,1.9,2.3,1.9,3.3,2.1
	c0.1,2.5,0,5.2,0.1,7.6c0,0.8,1.3,2.1,2.6,2.1c1.8,0,2.4-5.7,2.4-6.3c0-2.1-1.5-3.1-1.5-5.3c0-0.9,1.3-1.8,2.5-1.9
	c0.4,0.1,0.9,0.1,1.3,0c-0.2,0.9-0.4,2.2-0.7,3.3c0.1,2.1,2.6,2.9,2.7,4.9c0,0.4,0.1,1.1,0,1.4c0.5-0.1,1.6,0,2.1,0
	c0-1.7,3.5-1.6,3.6-3.3c-0.5-0.2-2.3-2.1-2.3-2.9c0-0.2,0.5-0.7,0.6-1c-0.7-0.4-4.1-6.4-4.1-6.7c4.6,0.1,4.9-3.5,8.7-4.7
	c0-0.3,0-1,0-1.3c-0.7-0.1-9.7,2.6-9.9,2.9c0.1-0.2,0.3-0.5,0.3-0.6c-0.4,0.7-1.1,1.6-1.8,1.6c-2.5,0-3.4-3.1-3.5-5.5
	C489.6,441.7,492.2,442.3,495.1,442.4L495.1,442.4z M435.2,438.5c0,0.6,2,6.7,2.6,6.9c0.6,0.1,1.9,0.4,2.2,1
	c-0.1,0.2-0.1,0.6-0.1,0.8c2.1,3.5-0.4,8.7,5.8,9c1,0.1,2.1-0.9,3.5-0.7c0.2,0.5,0.1,2.4,0.4,2.4c0.4,0,1,0.7,1.4,0.8
	c2.1,0.1,2.8-1.6,4.1-1.7c2.9,0,4.6,2,7.4,2.7c0,0.7,0.5,2.3,2.2,2.3c2.2,0.1,2.5-1.9,5.2-2.5c0-1.8,1.9-4.1,1.9-5.4
	c0-0.6-0.8-1.2-0.9-2.3c0-0.7,1.6-3.3,3.7-3.7c-0.1-2.8,1.3-3.8,2.1-7.3c0.2-0.4,0.6-1.2,0.8-1.6c0.4-0.1,1.3-0.2,1.7-0.3
	c1.8,0,3.2,0.9,3.7-1.6c-3.1-0.2-7.6-8.2-7.7-10.8c0-0.4,0.8-1,1.2-1.2c-0.2-0.4-0.5-1.1-0.7-1.5c0,0,4.7-2,4.9-2.3
	c-0.2,0-0.7-0.6-0.7-0.9c0.1-1.1,3.7-0.6,3.7-2c-0.1-3.5-7-1.3-7.2-4.9c0-2.6,0.4-4.2-2.6-4.2c-2.7,0-6.3,6.2-7.8,9
	c-0.5,1-4.6,0.6-6.1,1.9c-0.2,0.3-0.6,1.2-1,1.3c-0.6,0.3-0.6,0.7-1.7,1.2c0,0-1.6,1.5-1.1,2c-1.3,1.3-1.3,3-3.8,3.4
	c-1.9,0.4-3.6,0.4-4.7,1.4c-2.4,2.4-1.6,7.4-6.7,7.3C438.6,436.9,435.2,435.7,435.2,438.5L435.2,438.5z M462.6,482.9
	c2-0.1,1.8,1.1,3.5,1.2c0.2-0.1,1.5-1.2,1.8-1.7c-0.9-0.3-1.1-0.9-2.7-1.5c-1.5-0.5-2.7,0.6-4-0.4c-0.2-0.2-0.6-1.4-1.3-1.4
	c-3-0.1-5-0.5-7-2.2c0.3,0.1,5.9-0.4,6.1-0.9c-0.3,0-1,0-1.3,0c-1.7,0.1-3.2,0.3-4.9,0.5c-3-0.2-4.1-2.9-7.5-3c-2,0-2.3,2.3-4.8,2.2
	c-5.4-0.1-7.6-5.2-12.5-5.4c-0.7-0.1-1.8,0.9-2.5,0.8c-0.4,0-0.9-0.7-1.3-0.7c-0.7-0.1-3.7,2.8-3.9,3.1c2.5,0,3.7,2,5.4,3.6
	c1.8,1.4,4,0.1,6.5,1c3.2,1.1,5.8,1.3,8.9,1.4c1.6,0.2,2.2,2,4.2,2.2c6.4,0.2,11.8,0.6,17.4,2.8
	C462.5,484.1,462.2,482.9,462.6,482.9L462.6,482.9z M431.4,458.1c0.7,0.2,1.6-0.9,1.7-1.9c-0.4-0.1-1.1-0.8-1.5-0.9
	c-0.4,0-1.2,0-1.6,0c-0.1,0.2,0,0.6,0,0.8C430.2,456.8,430.7,458.1,431.4,458.1L431.4,458.1z M512.1,487.6c2.6,0,8-1.4,9.9-3.6
	c-1.6-1-8.8-0.2-10.5,1.3c-0.2,0.3-0.5,1.3-0.8,1.4c-2.6,0.9-5.6,0.8-5.7,4.2c0,0.5,0.7,1.4,1.2,1.4c1.8,0,4.6-1.9,5.5-2.6
	C512.1,489.3,511.5,487.6,512.1,487.6L512.1,487.6z M443.2,348.6c0-0.6-1.2-2.2-1.8-2.2c-1.9,0.1-7.2,3.6-8.4,3.7
	c-0.6,0,0,1.6,0,2.2c-0.1,1.9,1,3,3.4,3C438.8,355.2,443.3,350.8,443.2,348.6L443.2,348.6z M493.6,321.6c-2.7,0.2-6.6,6.5-6.7,10
	c-0.1,2.4-0.7,4.6,2.9,4.7C494.1,336,498.5,322.1,493.6,321.6L493.6,321.6z M511.5,383.3c-0.4,0-1.3,0.5-1.7,0.6
	c0.2,0.9,4,2.3,3.8,4.5c-0.1,0.2-0.7,0.9-1,0.9c-0.6,0-1.8,0-2.4,0c-0.1,0.2-0.1,0.7-0.1,0.9c0.1,0.3,1.2,1.9,2.5,2
	c-0.1,0.2-0.1,0.7-0.1,0.9c-0.6,0.7-0.7,2.1,0.6,2.2c0.4-0.1,1.2,0,1.6,0c0-0.2,0.1-0.7,0.1-0.9c-0.5-0.3-1.2-1.8-1.2-3.1
	c0.7,0,2,0,2.7,0c0.2-0.5,0.7-1.3,1-2c-0.1,0-1.2-1.4-1.2-1.4c0,0,0.4-1.8,0.3-2.5c-0.2,0.1-0.8,0-1.1,0c0.2-0.3,0.2-1.2,0.2-1.5
	C514.3,383.8,513,383.2,511.5,383.3L511.5,383.3z M484.3,392.8c-2.4,3.3-8.5,5-11.1,9.6c0.3,0,0.9,0,1.2,0c2.3-1.1,5.9-3.1,7.1-6.6
	c1.1,0.1,2.8-0.3,3.3-1.6c0.7,0,1.4-0.5,1.9-0.9c-0.5-0.4-1.5-0.9-1.3-2.5C485,391.1,484.7,392.2,484.3,392.8L484.3,392.8z
	 M490.2,372.9c0.4,0,1.1-0.7,1.4-1.1c0.3,0,0.8,0,1.1,0c-0.1,0.4-0.2,1.2-0.2,1.6c-0.3,0.2-1.2,1-1.3,1.7c0,0.6,1.2,2.1,2.4,2.2
	c0.8,0,2-0.9,3-0.9c2.7-0.1,2.3,3.2,4.8,3.5c-0.2-0.9-0.9-1.8,0.2-2.9c1,1.4,5,2.8,5.9,4.7c0.1,0.4,0.4,1.2,0.8,1.3
	c0.2,0.1,0.8-0.7,0.8-0.9c0-0.3,0.1-0.9,0.2-1.2c-0.9-0.1-2.2-0.6-2.1-1.9c-0.3,0.2-1.3,0.2-1.3,0c0.1-0.6,1.1-1.2,1.3-1.8
	c-0.2-0.1-0.8-0.2-1-0.3c-0.5,0-1.2,1.1-1.8,1c-0.8-0.1-1.2-3.4-3.3-3.6c-0.8,0-2.1,0.8-2.1,1.2c-0.1,0.2-0.1,0.6-0.1,0.8
	c-1.9-0.8-3.8-4.7-3.6-7c0.5-3.3,3.6-3.5,4.1-6.9c0.3-2.7-1.7-4.9-1.5-7c-0.1-0.3-0.2-0.8-0.2-1.1c-0.1-0.2-0.3-0.6-0.3-0.8
	c-0.5,0.3-1.4,1.5-2.5,1.5c-1.7-0.1-0.9-2.7-2.9-2.8c-1,0-1.9,1.5-2.2,3.1c-0.2,1.9,0.5,3.1,0.3,4.9c-0.1,1-0.7,3.5-1.6,4.6
	c-1.7-0.3-1.4,2.8-1.8,5.4C486.6,370.7,489.7,372.9,490.2,372.9L490.2,372.9z"/>
</svg>
