<?xml version="1.0" encoding="utf-8"?>
<!-- Generator: Adobe Illustrator 22.1.0, SVG Export Plug-In . SVG Version: 6.00 Build 0)  -->
<svg version="1.1" id="圖層_1" xmlns="http://www.w3.org/2000/svg" xmlns:xlink="http://www.w3.org/1999/xlink" x="0px" y="0px"
	 viewBox="0 0 1920 1080" style="enable-background:new 0 0 1920 1080;" xml:space="preserve">
<style type="text/css">
	.st0{fill:none;stroke:#000000;stroke-width:3;stroke-miterlimit:10;}
	.st1{fill:none;stroke:#000000;stroke-width:2.9286;stroke-miterlimit:10;}
	.st2{fill:none;stroke:#000000;stroke-width:2.8571;stroke-miterlimit:10;}
	.st3{fill:none;stroke:#000000;stroke-width:2.7857;stroke-miterlimit:10;}
	.st4{fill:none;stroke:#000000;stroke-width:2.7143;stroke-miterlimit:10;}
	.st5{fill:none;stroke:#000000;stroke-width:2.6429;stroke-miterlimit:10;}
	.st6{fill:none;stroke:#000000;stroke-width:2.5714;stroke-miterlimit:10;}
	.st7{fill:none;stroke:#000000;stroke-width:2.5;stroke-miterlimit:10;}
	.st8{fill:none;stroke:#000000;stroke-width:2.4286;stroke-miterlimit:10;}
	.st9{fill:none;stroke:#000000;stroke-width:2.3571;stroke-miterlimit:10;}
	.st10{fill:none;stroke:#000000;stroke-width:2.2857;stroke-miterlimit:10;}
	.st11{fill:none;stroke:#000000;stroke-width:2.2143;stroke-miterlimit:10;}
	.st12{fill:none;stroke:#000000;stroke-width:2.1429;stroke-miterlimit:10;}
	.st13{fill:none;stroke:#000000;stroke-width:2.0714;stroke-miterlimit:10;}
	.st14{fill:none;stroke:#000000;stroke-width:2;stroke-miterlimit:10;}
	.st15{fill:none;stroke:#000000;stroke-width:1.9286;stroke-miterlimit:10;}
	.st16{fill:none;stroke:#000000;stroke-width:1.8571;stroke-miterlimit:10;}
	.st17{fill:none;stroke:#000000;stroke-width:1.7857;stroke-miterlimit:10;}
	.st18{fill:none;stroke:#000000;stroke-width:1.7143;stroke-miterlimit:10;}
	.st19{fill:none;stroke:#000000;stroke-width:1.6429;stroke-miterlimit:10;}
	.st20{fill:none;stroke:#000000;stroke-width:1.5714;stroke-miterlimit:10;}
	.st21{fill:none;stroke:#000000;stroke-width:1.5;stroke-miterlimit:10;}
	.st22{fill:none;stroke:#000000;stroke-width:1.4286;stroke-miterlimit:10;}
	.st23{fill:none;stroke:#000000;stroke-width:1.3571;stroke-miterlimit:10;}
	.st24{fill:none;stroke:#000000;stroke-width:1.2857;stroke-miterlimit:10;}
	.st25{fill:none;stroke:#000000;stroke-width:1.2143;stroke-miterlimit:10;}
	.st26{fill:none;stroke:#000000;stroke-width:1.1429;stroke-miterlimit:10;}
	.st27{fill:none;stroke:#000000;stroke-width:1.0714;stroke-miterlimit:10;}
	.st28{fill:none;stroke:#000000;stroke-miterlimit:10;}
</style>
<g>
	<path class="st0" d="M2433.5,715.5c-112,0-192-138-281-136s-148,200-342,184s-220.9-187.3-371-184c-182,4-110,110-262,110
		c-226,0-293.8-252-428-252c-266,0-227,337-575,346c-238.1,6.2-227,239-500,239"/>
	<path class="st1" d="M2431.8,732.6c-112,0-192-138-281-136s-148.1,200.7-342,184c-191.2-16.2-216.2-190.2-364.1-187.1
		c-183.1,3.7-116.9,101-268.9,101c-226,0-299-239-433.1-239c-266,0-224.3,330.6-571.9,337c-237.9,4.4-222.8,234.6-495.8,234.6"/>
	<path class="st2" d="M2430.1,749.6c-112,0-192-138-281-136s-148.2,201.4-342,184c-188.4-16.4-211.4-193.1-357.2-190.2
		c-184.1,3.4-123.8,91.9-275.8,91.9c-226,0-304.1-225.9-438.3-225.9c-266,0-221.6,324.2-568.9,328
		c-237.8,2.6-218.6,230.3-491.6,230.3"/>
	<path class="st3" d="M2428.5,766.7c-112,0-192-138-281-136s-148.3,201.8-342,184c-185.6-17-206.7-196.1-350.3-193.3
		c-185.2,3.1-130.7,82.9-282.7,82.9c-226,0-309.2-212.9-443.4-212.9c-266,0-218.9,317.8-565.8,319
		c-237.6,0.8-214.5,225.9-487.5,225.9"/>
	<path class="st4" d="M2426.8,783.8c-112,0-192-138-281-136s-148.3,202.4-342,184c-182.8-17.3-201.9-199-343.4-196.4
		c-186.3,2.8-137.6,73.9-289.6,73.9c-226,0-314.4-199.9-448.6-199.9c-266,0-216.1,311.4-562.7,310
		c-237.5-1.1-210.3,221.6-483.3,221.6"/>
	<path class="st5" d="M2425.1,800.9c-112,0-192-138-281-136s-148.4,203-342,184c-180-17.7-197.2-201.9-336.5-199.5
		c-187.3,2.4-144.5,64.8-296.5,64.8c-226,0-319.5-186.8-453.7-186.8c-266,0-213.4,305-559.6,301c-237.3-2.9-206.1,217.2-479.1,217.2
		"/>
	<path class="st6" d="M2423.4,817.9c-112,0-192-138-281-136s-148.5,203.6-342,184c-177.2-18-192.4-204.5-329.6-202.6
		c-188.4,2.6-151.4,55.8-303.4,55.8c-226,0-324.7-173.8-458.9-173.8c-266,0-210.7,298.6-556.6,292
		c-237.2-4.7-201.9,212.9-474.9,212.9"/>
	<path class="st7" d="M2421.8,835c-112,0-192-138-281-136s-148.6,204.2-342,184c-174.4-18.3-187.7-207.4-322.8-205.8
		c-189.5,2.3-158.2,46.8-310.2,46.8c-226,0-329.8-160.8-464-160.8c-266,0-208,292.2-553.5,283c-237-6.5-197.8,208.5-470.8,208.5"/>
	<path class="st8" d="M2420.1,852.1c-112,0-192-138-281-136s-148.7,204.9-342,184c-171.6-18.5-182.9-210.3-315.9-208.9
		c-190.6,2-165.1,37.7-317.1,37.7c-226,0-335-147.7-469.1-147.7c-266,0-205.3,285.9-550.4,274c-236.9-8.3-193.6,204.1-466.6,204.1"
		/>
	<path class="st9" d="M2418.4,869.1c-112,0-192-138-281-136s-148.8,205.5-342,184c-168.8-18.8-178.2-213.2-309-212
		c-191.6,1.8-172,28.7-324,28.7c-226,0-340.1-134.7-474.3-134.7c-266,0-202.6,279.5-547.4,265C-96,854.1-48.6,1064-321.6,1064"/>
	<path class="st10" d="M2416.7,886.2c-112,0-192-138-281-136c-89,2-148.9,206.2-342,184c-166-19.1-173.4-216.1-302.1-215.1
		c-192.7,1.5-178.9,19.6-330.9,19.6c-226,0-345.2-121.6-479.4-121.6c-266,0-199.9,273.1-544.3,256
		c-236.6-11.9-185.2,195.4-458.2,195.4"/>
	<path class="st11" d="M2415,903.3c-112,0-192-138-281-136c-89,2-148.9,206.8-342,184c-163.2-19.3-168.7-219-295.2-218.2
		c-193.8,1.2-185.8,10.6-337.8,10.6c-226,0-350.4-108.6-484.6-108.6c-266,0-197.1,266.7-541.2,247c-236.5-13.7-181,191.1-454,191.1"
		/>
	<path class="st12" d="M2413.4,920.4c-112,0-192-138-281-136s-149,207.5-342,184c-160.5-19.6-163.9-221.9-288.3-221.3
		c-194.8,0.9-192.7,1.6-344.7,1.6c-226,0-355.5-95.6-489.7-95.6c-266,0-194.4,260.3-538.1,238c-236.3-15.5-176.9,186.7-449.9,186.7"
		/>
	<path class="st13" d="M2411.7,937.4c-112,0-192-138-281-136c-89,2-149.1,208.2-342,184C1631,965.6,1629.5,759.8,1507.3,761
		c-195.9,2-199.6-7.5-351.6-7.5c-226,0-360.7-82.5-494.9-82.5c-266,0-191.7,253.9-535.1,229c-236.2-17.3-172.7,182.4-445.7,182.4"/>
	<path class="st14" d="M2410,954.5c-112,0-192-138-281-136s-149.2,208.9-342,184c-154.9-20-154.5-228.6-274.5-227.5
		c-197,1.8-206.5-16.5-358.5-16.5c-226,0-365.8-69.5-500-69.5c-266,0-189,247.5-532,220c-236-19.1-168.5,178-441.5,178"/>
	<path class="st15" d="M2408.3,971.6c-112,0-192-138-281-136c-89,2-149.3,209.6-342,184c-152.1-20.2-149.7-231.5-267.6-230.6
		c-198,1.5-213.4-25.5-365.4-25.5c-226,0-371-56.5-505.1-56.5c-266,0-186.3,241.1-528.9,211c-235.9-20.9-164.3,173.6-437.3,173.6"/>
	<path class="st16" d="M2406.6,988.6c-112,0-192-138-281-136s-149.4,210.3-342,184c-149.3-20.4-145-234.4-260.7-233.7
		c-199.1,1.2-220.3-34.6-372.3-34.6c-226,0-376.1-43.4-510.3-43.4c-266,0-183.6,234.7-525.9,202
		c-235.7-22.7-160.1,169.3-433.1,169.3"/>
	<path class="st17" d="M2405,1005.7c-112,0-192-138-281-136c-89,2-149.5,211.1-342,184c-146.5-20.6-140.2-237.3-253.8-236.8
		c-200.2,0.9-227.2-43.6-379.2-43.6c-226,0-381.2-30.4-515.4-30.4c-266,0-180.9,228.3-522.8,193c-235.6-24.5-156,164.9-429,164.9"/>
	<path class="st18" d="M2403.3,1022.8c-112,0-192-138-281-136c-89,2-149.6,211.8-342,184c-143.7-20.8-135.5-239.4-246.9-239.9
		c-201.3-0.9-234.1-52.6-386.1-52.6c-226,0-386.4-17.4-520.6-17.4c-266,0-178.1,221.9-519.7,184
		c-235.4-26.3-151.8,160.6-424.8,160.6"/>
	<path class="st19" d="M2401.6,1039.9c-112,0-192-138-281-136s-149.7,212.6-342,184c-140.9-20.9-130.7-242.4-240-243
		c-202.3-1.2-241-61.7-393-61.7c-226,0-391.5-4.3-525.7-4.3c-266,0-175.4,215.5-516.6,175C-132,925.7-44.4,1110-317.4,1110"/>
	<path class="st20" d="M2399.9,1056.9c-112,0-192-138-281-136c-89,2-149.8,213.4-342,184c-138.2-21.1-126-245.3-233.1-246.1
		c-203.4-1.6-247.9-70.7-399.9-70.7c-226,0-396.7,8.7-530.9,8.7c-266,0-172.7,209.1-513.6,166c-235.1-29.9-143.4,151.9-416.4,151.9"
		/>
	<path class="st21" d="M2398.2,1074c-112,0-192-138-281-136s-149.9,214.1-342,184c-135.4-21.2-121.2-248.3-226.2-249.2
		c-204.5-1.9-254.8-79.8-406.8-79.8c-226,0-401.8,21.8-536,21.8c-266,0-170,202.8-510.5,157c-235-31.7-139.2,147.5-412.2,147.5"/>
	<path class="st22" d="M2396.6,1091.1c-112,0-192-138-281-136c-89,2-150,215-342,184c-132.6-21.4-116.5-251.2-219.4-252.4
		c-205.5-2.3-261.6-88.8-413.6-88.8c-226,0-407,34.8-541.1,34.8c-266,0-167.3,196.4-507.4,148c-234.9-33.5-135.1,143.1-408.1,143.1"
		/>
	<path class="st23" d="M2394.9,1108.1c-112,0-192-138-281-136s-150.1,215.8-342,184c-129.8-21.5-111.7-254.2-212.5-255.5
		c-206.6-2.7-268.5-97.8-420.5-97.8c-226,0-412.1,47.8-546.3,47.8c-266,0-164.6,190-504.4,139c-234.7-35.3-130.9,138.8-403.9,138.8"
		/>
	<path class="st24" d="M2393.2,1125.2c-112,0-192-138-281-136c-89,2-150.2,216.6-342,184c-127.1-21.6-107-257.1-205.6-258.6
		c-207.7-3-275.4-106.9-427.4-106.9c-226,0-417.2,60.9-551.4,60.9c-266,0-161.9,183.6-501.3,130
		c-234.6-37.1-126.7,134.4-399.7,134.4"/>
	<path class="st25" d="M2391.5,1142.3c-112,0-192-138-281-136c-89,2-150.4,217.5-342,184c-124.3-21.7-102.2-260.2-198.7-261.7
		c-208.7-3.8-282.3-115.9-434.3-115.9c-226,0-422.4,73.9-556.6,73.9c-266,0-159.1,177.2-498.2,121
		c-234.4-38.9-122.5,130.1-395.5,130.1"/>
	<path class="st26" d="M2389.9,1159.4c-112,0-192-138-281-136c-89,2-150.5,218.4-342,184c-121.5-21.8-97.5-263.2-191.8-264.8
		c-209.8-4.1-289.2-124.9-441.2-124.9c-226,0-427.5,86.9-561.7,86.9c-266,0-156.4,170.8-495.1,112
		c-234.3-40.7-118.4,125.7-391.4,125.7"/>
	<path class="st27" d="M2388.2,1176.4c-112,0-192-138-281-136c-89,2-150.7,219.5-342,184c-118.8-21.8-92.7-266.1-184.9-267.9
		c-210.9-4.4-296.1-134-448.1-134c-226,0-432.7,100-566.9,100c-266,0-153.7,164.4-492.1,103c-234.1-42.5-114.2,121.4-387.2,121.4"/>
	<path class="st28" d="M2386.5,1193.5c-112,0-192-138-281-136s-150.8,220.3-342,184c-116-22-88-269-178-271
		c-212-4.7-303-143-455-143c-226,0-437.8,113-572,113c-266,0-151,158-489,94c-234-44.3-110,117-383,117"/>
</g>
</svg>
