<?xml version="1.0" encoding="utf-8"?>
<!-- Generator: Adobe Illustrator 22.1.0, SVG Export Plug-In . SVG Version: 6.00 Build 0)  -->
<svg version="1.1" xmlns="http://www.w3.org/2000/svg" xmlns:xlink="http://www.w3.org/1999/xlink" x="0px" y="0px"
	 viewBox="0 0 1920 1080" style="enable-background:new 0 0 1920 1080;" xml:space="preserve">
<style type="text/css">
	.st0{fill:#888888;}
	.st1{fill:none;stroke:#000000;stroke-width:2;stroke-miterlimit:10;}
</style>
<g id="圖層_2">
</g>
<g id="圖層_1">
	<g>
		<path class="st0" d="M1627.3,912.3c-88.4-133.4-240-457.9-288.5-456.9c-110.9,2.2-105.5,123-225.8,133
			c-120.3,10-207.7-366-207.7-366S788,321.7,631.8,326.1c-65.9,1.8-19.4-68.2-102.1-75.4s-266.5,73.2-266.5,73.2l-31.5-28.4
			L43.6,502.3L30.1,1049l1703.5,3C1719.7,1025.3,1680.7,992.8,1627.3,912.3z"/>
		<g>
			<g>
				<path class="st1" d="M2103.6,1104.1c0,0-48.4,2.7-162.6-7.7c-88.7-8.1-240.8-27.8-289.3-27.8c-110.9-0.1-92.8,6.3-213.1,6.7
					s-202.6-6.3-202.6-6.3s-135.3-9.3-291.4-9.3c-65.9,0-19.5-4.1-102.3-4.7s-266.4,3.9-266.4,3.9l-31.6-1.8l-215.1,13.8"/>
			</g>
			<g>
				<path class="st1" d="M2099,1103.9c0,0-48.4,2.9-162.6-8c-88.7-8.5-240.8-28.9-289.3-28.9c-110.9,0-92.8,6.6-213.1,7
					c-120.3,0.4-202.6-7.2-202.6-7.2s-135.3-9.1-291.4-9c-65.9,0-19.5-4.3-102.3-4.9s-266.4,4.1-266.4,4.1l-31.6-1.8l-215.1,14.4"/>
			</g>
			<g>
				<path class="st1" d="M2094.5,1103.7c0,0-48.4,3-162.6-8.4c-88.7-8.8-240.8-30.1-289.3-30.1c-110.9,0-92.8,6.9-213.1,7.3
					c-120.3,0.5-202.6-8.1-202.6-8.1s-135.3-8.8-291.4-8.8c-65.9,0-19.5-4.5-102.3-5.1s-266.4,4.3-266.4,4.3l-31.6-1.9l-215.1,15"/>
			</g>
			<g>
				<path class="st1" d="M2089.9,1103.5c0,0-48.4,3.1-162.6-8.7c-88.7-9.2-240.8-31.3-289.3-31.4c-110.9,0-92.8,7.1-213.1,7.6
					c-120.3,0.5-202.6-9-202.6-9s-135.3-8.5-291.4-8.5c-65.9,0-19.5-4.6-102.3-5.3c-82.8-0.6-266.4,4.5-266.4,4.5l-31.6-2
					l-215.1,15.7"/>
			</g>
			<g>
				<path class="st1" d="M2085.4,1103.3c0,0-48.4,3.2-162.6-9.1c-88.7-9.5-240.8-32.6-289.3-32.6c-110.9,0-92.8,7.5-213.1,8
					c-120.3,0.5-202.6-10-202.6-10s-135.3-8.2-291.4-8.2c-65.9,0-19.5-4.8-102.3-5.5c-82.8-0.6-266.4,4.7-266.4,4.7l-31.6-2.1
					L311,1064.8"/>
			</g>
			<g>
				<path class="st1" d="M2080.8,1103c0,0-48.4,3.4-162.6-9.4c-88.7-9.9-240.8-34-289.3-34c-110.9,0-92.8,7.8-213.1,8.3
					c-120.3,0.5-202.6-11.1-202.6-11.1s-135.3-8-291.4-7.9c-65.9,0-19.5-5-102.3-5.7s-266.4,4.9-266.4,4.9l-31.6-2.1l-215.1,17"/>
			</g>
			<g>
				<path class="st1" d="M2076.3,1102.8c0,0-48.4,3.5-162.6-9.8c-88.7-10.3-240.8-35.4-289.3-35.4c-110.9,0-92.8,8.1-213.1,8.7
					c-120.3,0.6-202.6-12.1-202.6-12.1s-135.3-7.7-291.4-7.6c-65.9,0-19.5-5.2-102.3-5.9s-266.4,5.2-266.4,5.2l-31.6-2.2
					l-215.1,17.7"/>
			</g>
			<g>
				<path class="st1" d="M2071.7,1102.6c0,0-48.4,3.7-162.6-10.2c-88.7-10.8-240.8-36.8-289.3-36.8c-110.9,0-92.8,8.4-213.1,9
					c-120.3,0.6-202.6-13.2-202.6-13.2s-135.3-7.3-291.4-7.2c-65.9,0-19.5-5.5-102.3-6.2s-266.4,5.4-266.4,5.4l-31.6-2.3
					l-215.1,18.5"/>
			</g>
			<g>
				<path class="st1" d="M2067.2,1102.3c0,0-48.4,3.8-162.6-10.6c-88.7-11.2-240.8-38.3-289.3-38.3c-110.9,0-92.8,8.8-213.1,9.4
					s-202.6-14.4-202.6-14.4s-135.3-7-291.4-6.9c-65.9,0-19.5-5.7-102.3-6.4c-82.8-0.7-266.4,5.6-266.4,5.6l-31.6-2.4l-215.1,19.3"
					/>
			</g>
			<g>
				<path class="st1" d="M2062.6,1102.1c0,0-48.4,4-162.6-11c-88.7-11.7-240.8-39.9-289.3-39.9c-110.9,0-92.8,9.2-213.1,9.8
					c-120.3,0.7-202.6-15.6-202.6-15.6s-135.3-6.7-291.4-6.5c-65.9,0.1-19.5-5.9-102.3-6.7c-82.8-0.8-266.4,5.9-266.4,5.9l-31.6-2.5
					l-215.1,20.1"/>
			</g>
			<g>
				<path class="st1" d="M2058.1,1101.8c0,0-48.4,4.2-162.6-11.5c-88.7-12.1-240.8-41.6-289.2-41.6c-110.9,0-92.8,9.6-213.1,10.3
					c-120.3,0.7-202.6-16.9-202.6-16.9s-135.3-6.3-291.4-6.2c-65.9,0.1-19.5-6.2-102.3-7c-82.8-0.8-266.4,6.2-266.4,6.2l-31.6-2.6
					l-215.1,21"/>
			</g>
			<g>
				<path class="st1" d="M2053.5,1101.5c0,0-48.4,4.3-162.6-12c-88.7-12.6-240.8-43.3-289.2-43.3c-110.9,0-92.8,10-213.1,10.7
					c-120.3,0.7-202.6-18.2-202.6-18.2s-135.3-5.9-291.4-5.8c-65.9,0.1-19.5-6.4-102.3-7.2c-82.8-0.8-266.4,6.4-266.4,6.4l-31.6-2.7
					l-215.1,21.9"/>
			</g>
			<g>
				<path class="st1" d="M2049,1101.3c0,0-48.4,4.5-162.6-12.4c-88.7-13.2-240.8-45.1-289.2-45.1c-110.9,0-92.8,10.4-213.2,11.2
					c-120.3,0.8-202.6-19.6-202.6-19.6s-135.3-5.5-291.4-5.4c-65.9,0.1-19.5-6.7-102.3-7.5c-82.8-0.8-266.4,6.7-266.4,6.7l-31.6-2.8
					l-215.1,22.8"/>
			</g>
			<g>
				<path class="st1" d="M2044.4,1101c0,0-48.4,4.7-162.6-13c-88.7-13.7-240.8-46.9-289.2-46.9c-110.9,0-92.8,10.8-213.2,11.7
					s-202.6-21-202.6-21s-135.3-5.1-291.4-4.9c-65.9,0.1-19.5-7-102.3-7.8c-82.8-0.9-266.4,7-266.4,7l-31.6-2.9l-215.1,23.7"/>
			</g>
			<g>
				<path class="st1" d="M2039.9,1100.6c0,0-48.4,4.9-162.6-13.5c-88.7-14.3-240.8-48.9-289.2-48.8c-110.9,0.1-92.8,11.3-213.2,12.2
					c-120.3,0.9-202.6-22.5-202.6-22.5s-135.3-4.7-291.4-4.5c-65.9,0.1-19.5-7.3-102.3-8.2s-266.4,7.3-266.4,7.3l-31.6-3.1
					l-215.1,24.8"/>
			</g>
			<g>
				<path class="st1" d="M2035.3,1100.3c0,0-48.4,5.1-162.6-14c-88.7-14.9-240.8-50.9-289.2-50.9c-110.9,0.1-92.8,11.8-213.2,12.7
					c-120.3,0.9-202.6-24-202.6-24s-135.3-4.3-291.4-4c-65.9,0.1-19.5-7.6-102.3-8.5s-266.4,7.7-266.4,7.7l-31.6-3.2L261,1041.8"/>
			</g>
			<g>
				<path class="st1" d="M2030.8,1100c0,0-48.4,5.3-162.6-14.6c-88.7-15.5-240.8-53-289.2-53c-110.9,0.1-92.8,12.3-213.2,13.2
					s-202.6-25.6-202.6-25.6s-135.3-3.8-291.4-3.6c-65.9,0.1-19.5-7.9-102.3-8.8c-82.8-1-266.4,8-266.4,8l-31.6-3.3l-215.1,26.9"/>
			</g>
			<g>
				<path class="st1" d="M2026.2,1099.6c0,0-48.4,5.6-162.6-15.2c-88.7-16.1-240.8-55.2-289.2-55.1c-110.9,0.1-92.8,12.8-213.2,13.8
					s-202.6-27.3-202.6-27.3s-135.3-3.3-291.5-3.1c-65.9,0.1-19.5-8.2-102.3-9.2s-266.4,8.3-266.4,8.3l-31.6-3.5l-215.1,28"/>
			</g>
			<g>
				<path class="st1" d="M2021.7,1099.3c0,0-48.4,5.8-162.6-15.8c-88.7-16.8-240.8-57.5-289.2-57.4c-110.9,0.1-92.8,13.3-213.2,14.4
					c-120.3,1.1-202.6-29.1-202.6-29.1s-135.3-2.9-291.5-2.6c-65.9,0.1-19.5-8.5-102.3-9.6s-266.4,8.7-266.4,8.7l-31.6-3.6
					l-215.1,29.2"/>
			</g>
			<g>
				<path class="st1" d="M2017.1,1098.9c0,0-48.4,6-162.6-16.5c-88.7-17.5-240.7-59.8-289.2-59.8c-110.9,0.1-92.8,13.9-213.2,15
					c-120.3,1.1-202.6-30.9-202.6-30.9s-135.3-2.3-291.5-2c-65.9,0.1-19.5-8.9-102.3-10c-82.8-1.1-266.4,9.1-266.4,9.1l-31.6-3.7
					l-215.1,30.4"/>
			</g>
			<g>
				<g>
					<path d="M2012.7,1099.5c-4.7,0.5-9.2,0.7-13.8,0.8c-2.3,0.1-4.6,0-6.9,0.1c-2.3,0-4.6-0.1-6.9-0.1c-9.2-0.2-18.4-0.7-27.5-1.4
						c-18.3-1.4-36.6-3.6-54.7-6.3c-18.2-2.6-36.2-6-54.3-9.5c-18-3.6-35.9-7.7-53.8-11.8c-35.7-8.3-71.4-17.1-107.1-25.5
						c-17.8-4.2-35.7-8.3-53.6-12c-17.9-3.7-35.9-7.3-53.9-9.6l-3.4-0.4l-3.4-0.3c-2.2-0.2-4.5-0.4-6.7-0.5
						c-1.1-0.1-2.2-0.1-3.3-0.1c-1.1,0-2.2-0.1-3.3,0l-6.9,0.1c-4.6,0.1-9.1,0.1-13.7,0.2l-13.7,0.5l-13.7,0.7
						c-4.5,0.3-9.1,0.7-13.6,1.1c-4.5,0.5-9,0.9-13.6,1.5c-4.5,0.6-9,1.1-13.5,1.8c-9,1.3-18.1,2.9-27.2,4.2
						c-4.6,0.7-9.1,1.3-13.7,1.9c-4.6,0.6-9.2,1-13.8,1.5c-18.4,1.8-36.8,2.5-55.2,3c-18.4,0.6-36.9,0.5-55.4-0.4
						c-9.2-0.5-18.5-1.1-27.7-2c-4.6-0.4-9.2-0.9-13.8-1.4c-4.6-0.6-9.2-1.1-13.8-1.8c-18.3-2.5-36.5-5.9-54.6-10.2
						c-9-2.1-18-4.5-26.9-7.1c-4.5-1.3-8.9-2.7-13.3-4.1c-2.2-0.7-4.4-1.5-6.6-2.3c-2.2-0.8-4.4-1.6-6.7-2.5l0,0l2.2,0.4
						c-55.1-1-110.2-1.7-165.3-2.2c-27.5-0.3-55.1-0.5-82.6-0.6l-41.3-0.2c-6.9,0-13.9-0.1-20.8-0.4c-3.5-0.2-7-0.4-10.6-0.8
						c-3.5-0.4-7.2-0.9-10.8-2c-1.8-0.5-3.6-1.1-5.2-1.7c-1.6-0.6-3.1-1.1-4.6-1.6c-3.1-0.9-6.3-1.5-9.6-2
						c-6.6-0.9-13.4-1.4-20.2-1.8c-6.8-0.3-13.7-0.6-20.5-0.7c-6.9-0.1-13.7-0.2-20.6-0.2c-27.5,0-55,0.6-82.5,1.4
						c-55.1,1.6-110.1,4-165.1,6.8l-0.2,0l-0.2,0l-31.5-4.1l0.6,0l-215.3,30.6l-0.3-2l214.9-32.9l0.3,0l0.3,0l31.6,3.7l-0.4,0
						c55-3.4,110.1-6.3,165.2-8.6c27.6-1.1,55.1-2,82.7-2.3c6.9,0,13.8-0.1,20.7,0c6.9,0.1,13.8,0.2,20.8,0.5
						c6.9,0.3,13.9,0.7,21,1.6c3.5,0.5,7.1,1.1,10.7,2.1c1.8,0.5,3.5,1.1,5.2,1.7c1.6,0.6,3.1,1.1,4.6,1.5c3,0.8,6.2,1.3,9.5,1.6
						c3.3,0.3,6.7,0.5,10.1,0.6c6.8,0.2,13.6,0.2,20.5,0.2l41.3-0.3c27.6-0.2,55.1-0.2,82.7-0.3c55.1-0.1,110.2,0,165.4,0.4l1.1,0
						l1.1,0.4h0c1.9,0.8,4.1,1.6,6.2,2.4c2.1,0.8,4.2,1.5,6.4,2.2c4.3,1.5,8.6,2.9,12.9,4.2c8.7,2.6,17.4,5,26.2,7.2
						c17.6,4.3,35.5,7.9,53.5,10.5c4.5,0.7,9,1.3,13.5,1.9c4.5,0.5,9,1.1,13.6,1.6c9,1,18.1,1.7,27.2,2.3c18.2,1.1,36.3,1.4,54.6,1
						c18.3-0.3,36.5-0.8,54.6-2.4c4.5-0.4,9.1-0.8,13.6-1.3c4.5-0.5,9-1,13.5-1.7c9-1.2,18.1-2.7,27.2-3.9c4.6-0.7,9.2-1.2,13.8-1.7
						c4.6-0.5,9.2-0.9,13.8-1.3c4.6-0.3,9.2-0.7,13.8-0.9l13.8-0.6l13.8-0.3c4.6-0.1,9.2-0.1,13.8-0.1l6.9,0c1.1,0,2.4,0.1,3.5,0.1
						c1.2,0,2.4,0.1,3.5,0.2c2.3,0.2,4.7,0.3,7,0.6l3.5,0.4l3.5,0.5c9.2,1.2,18.3,2.9,27.3,4.6c9,1.7,18,3.7,27,5.7
						c17.9,4,35.8,8.3,53.6,12.7c35.6,8.8,71.1,18,106.8,26.7c17.8,4.3,35.6,8.6,53.5,12.4c17.9,3.7,35.9,7.3,54,10.1
						c18.1,2.9,36.2,5.3,54.5,6.9c9.1,0.9,18.2,1.4,27.4,1.7c2.3,0.1,4.6,0.1,6.9,0.2c2.3,0,4.6,0,6.9,0c4.6-0.1,9.2-0.2,13.6-0.6
						L2012.7,1099.5z"/>
				</g>
			</g>
			<g>
				<path class="st1" d="M2008,1098.1c0,0-48.4,6.6-162.6-17.8c-88.6-18.9-240.7-64.9-289.2-64.8c-110.9,0.1-92.8,15.1-213.2,16.3
					S1140.5,997,1140.5,997s-135.3-1.2-291.5-0.9c-65.9,0.2-19.5-9.6-102.3-10.8s-266.4,9.9-266.4,9.9l-31.6-4.1l-215.1,33.1"/>
			</g>
			<g>
				<path class="st1" d="M2003.5,1097.6c0,0-48.4,6.8-162.6-18.6c-88.6-19.7-240.7-67.6-289.2-67.5c-110.9,0.1-92.8,15.7-213.2,17
					S1136,991.8,1136,991.8s-135.3-0.7-291.5-0.3c-65.9,0.2-19.5-10-102.3-11.2s-266.4,10.3-266.4,10.3l-31.6-4.2l-215.1,34.5"/>
			</g>
			<g>
				<path class="st1" d="M1998.9,1097.2c0,0-48.4,7.1-162.6-19.3c-88.6-20.5-240.7-70.4-289.2-70.3c-110.9,0.2-92.8,16.4-213.2,17.7
					c-120.3,1.4-202.6-38.9-202.6-38.9s-135.3,0-291.5,0.4c-65.9,0.2-19.5-10.5-102.3-11.7s-266.4,10.8-266.4,10.8l-31.6-4.4
					l-215.1,35.9"/>
			</g>
			<g>
				<path class="st1" d="M1994.4,1096.7c0,0-48.4,7.4-162.6-20.1c-88.6-21.4-240.7-73.3-289.2-73.2c-110.9,0.2-92.8,17.1-213.2,18.5
					c-120.3,1.4-202.6-41.2-202.6-41.2s-135.3,0.6-291.5,1c-65.9,0.2-19.5-10.9-102.3-12.2c-82.8-1.3-266.4,11.3-266.4,11.3
					l-31.6-4.6l-215.1,37.4"/>
			</g>
			<g>
				<path class="st1" d="M1989.9,1096.3c0,0-48.4,7.7-162.6-21c-88.6-22.3-240.7-76.3-289.2-76.2c-110.9,0.2-92.8,17.8-213.2,19.3
					c-120.3,1.5-202.6-43.5-202.6-43.5s-135.3,1.2-291.5,1.7c-65.9,0.2-19.5-11.3-102.3-12.7s-266.4,11.8-266.4,11.8l-31.6-4.8
					l-215.1,39"/>
			</g>
			<g>
				<g>
					<path d="M1985.5,1096.7c-4.7,0.7-9.3,0.9-14,1.1c-2.3,0.1-4.7,0.1-7,0.1l-7-0.1c-2.3,0-4.6-0.2-7-0.3l-3.5-0.1l-3.5-0.2l-7-0.5
						l-6.9-0.6c-18.5-1.8-36.9-4.6-55.1-8c-18.3-3.3-36.4-7.6-54.4-12.1c-18-4.6-35.9-9.7-53.7-14.9c-35.6-10.5-71-21.5-106.5-32
						c-17.7-5.3-35.5-10.4-53.4-15.1c-8.9-2.4-17.9-4.6-26.8-6.7c-8.9-2.1-17.9-3.9-26.9-5.3c-4.5-0.7-8.9-1.3-13.3-1.6
						c-2.2-0.2-4.3-0.2-6.5-0.2l-6.9,0.1c-9.2,0.2-18.4,0.5-27.5,1c-9.1,0.5-18.3,1.3-27.3,2.4c-9,1.1-18,2.6-27,4.3
						c-9,1.8-18,3.8-27.3,5.5c-9.2,1.7-18.6,3.2-27.9,4.4c-18.7,2.3-37.4,3.4-56.1,4.1c-4.7,0.2-9.3,0.3-14,0.4
						c-4.7,0-9.4,0.2-14.1,0l-7.1-0.1l-7.1-0.3l-3.5-0.1l-3.5-0.2l-7.1-0.4c-18.8-1.4-37.6-3.9-56.1-7.6c-9.3-1.8-18.5-3.9-27.6-6.3
						c-9.1-2.4-18.2-5.1-27.2-8.1c-9-3-17.9-6.2-26.7-9.9c-4.4-1.8-8.8-3.7-13.1-5.7c-2.2-1-4.3-2-6.5-3.1l-3.3-1.6l-1.6-0.9l-1.7-1
						l0,0l5,1.3c-55.2,0-110.4-0.1-165.6-0.4l-82.8-0.5l-41.4-0.4c-6.9-0.1-13.9-0.2-21-0.7c-3.5-0.2-7.1-0.5-10.8-1.1
						c-1.8-0.3-3.7-0.6-5.5-1c-1.9-0.5-3.8-1-5.6-1.7c-1.9-0.7-3.6-1.5-5.2-2.2c-1.6-0.7-2.9-1.4-4.4-1.9c-2.8-1.1-5.9-1.8-9.1-2.5
						c-6.4-1.2-13.2-1.8-19.9-2.4c-6.8-0.5-13.6-0.8-20.5-1c-3.4-0.1-6.9-0.1-10.3-0.2c-3.4,0-6.9-0.2-10.3-0.2
						c-27.5-0.1-55,0.5-82.6,1.4c-55.1,1.8-110.2,4.6-165.3,7.8l-0.2,0l-0.1,0l-31.5-5.4l0,0l0.3,0l-215.1,40.6l-0.4-2L426,964.3
						l0.2,0l0.2,0l0,0l31.6,4.6l-0.3,0c55-4.6,110-8.8,165.2-12c27.6-1.6,55.2-2.9,82.8-3.5c3.5-0.1,6.9-0.1,10.4-0.1
						c3.5,0,6.9-0.1,10.4,0c6.9,0,13.9,0.2,20.9,0.5c1.7,0.1,3.5,0.2,5.3,0.3c1.8,0.1,3.5,0.2,5.3,0.4c3.5,0.3,7.1,0.7,10.7,1.3
						c3.6,0.6,7.3,1.4,10.9,2.7c1.8,0.6,3.6,1.4,5.2,2.1c1.6,0.7,3,1.3,4.4,1.8c1.4,0.5,2.8,0.8,4.3,1.2c1.5,0.3,3.1,0.5,4.7,0.7
						c3.2,0.4,6.5,0.6,9.8,0.7c6.7,0.3,13.5,0.2,20.3,0.1l41.4-0.7l82.7-1.6c55.1-1.2,110.3-2.4,165.4-3.9l2.5-0.1l2.5,1.4l0,0
						l1.3,0.7l1.4,0.8l2.9,1.5c2,1,4,2,6,3c4,2,8.1,3.8,12.3,5.6c8.3,3.6,16.7,6.9,25.3,9.9c8.5,3,17.2,5.8,25.9,8.2
						c8.7,2.5,17.6,4.7,26.4,6.6c17.8,3.9,35.8,6.6,53.9,8.3l6.8,0.6l3.4,0.3l3.4,0.2l6.8,0.4l6.8,0.2c4.5,0.2,9.1,0.2,13.7,0.2
						c4.6,0,9.2,0,13.8-0.1c18.4-0.3,36.7-1,54.8-2.9c9.1-0.9,18.1-2.2,27.1-3.7c9-1.5,18.1-3.3,27.3-5c9.2-1.6,18.6-3,28-3.9
						c9.4-0.9,18.8-1.5,28.1-1.9c9.4-0.4,18.7-0.5,28-0.5l7,0c2.5,0,5,0.1,7.4,0.4c4.9,0.4,9.6,1.1,14.2,1.9
						c9.3,1.7,18.5,3.8,27.5,6c9.1,2.3,18,4.8,27,7.3c17.9,5.1,35.6,10.6,53.3,16.3c35.4,11.2,70.5,23,105.8,34.1
						c17.7,5.6,35.3,11,53.1,15.9c17.9,4.7,35.8,9.4,53.9,13.1c18.1,3.8,36.3,6.9,54.7,9.1l6.9,0.8l6.9,0.6l3.4,0.3l3.5,0.2
						c2.3,0.1,4.6,0.3,6.9,0.4l6.9,0.2c2.3,0,4.6,0.1,6.9,0c4.6-0.1,9.2-0.2,13.7-0.8L1985.5,1096.7z"/>
				</g>
			</g>
			<g>
				<path class="st1" d="M1980.8,1095.2c0,0-48.4,8.4-162.6-22.7c-88.6-24.2-240.7-82.8-289.2-82.7c-110.9,0.2-92.8,19.3-213.2,20.9
					s-202.5-48.5-202.5-48.5S978,965,821.8,965.5c-65.9,0.2-19.5-12.3-102.3-13.7c-82.8-1.4-266.4,12.8-266.4,12.8l-31.6-5.2
					l-215.1,42.3"/>
			</g>
			<g>
				<path class="st1" d="M1976.2,1094.7c0,0-48.4,8.8-162.6-23.7c-88.6-25.1-240.7-86.2-289.2-86.1c-110.9,0.2-92.8,20.1-213.2,21.8
					s-202.5-51.1-202.5-51.1s-135.3,3.4-291.5,4c-65.9,0.3-19.5-12.8-102.3-14.3s-266.4,13.3-266.4,13.3l-31.6-5.4l-215.1,44.1"/>
			</g>
			<g>
				<path class="st1" d="M1971.7,1094.1c0,0-48.4,9.1-162.6-24.6c-88.6-26.2-240.7-89.8-289.2-89.7c-110.9,0.3-92.8,21-213.2,22.8
					c-120.3,1.8-202.5-53.8-202.5-53.8s-135.3,4.2-291.5,4.8c-65.9,0.3-19.5-13.4-102.3-14.9c-82.8-1.5-266.4,13.9-266.4,13.9
					l-31.6-5.6l-215.1,46"/>
			</g>
			<g>
				<path class="st1" d="M1967.1,1093.5c0,0-48.4,9.5-162.6-25.6c-88.6-27.3-240.7-93.5-289.2-93.4c-110.9,0.3-92.8,21.8-213.2,23.7
					c-120.3,1.9-202.5-56.7-202.5-56.7s-135.3,5-291.5,5.6c-65.9,0.3-19.5-13.9-102.3-15.5s-266.4,14.5-266.4,14.5l-31.6-5.8
					l-215.1,47.9"/>
			</g>
			<g>
				<path class="st1" d="M1962.6,1092.9c0,0-48.4,9.9-162.6-26.7c-88.6-28.4-240.7-97.4-289.1-97.3c-110.9,0.3-92.8,22.8-213.2,24.7
					c-120.3,2-202.5-59.6-202.5-59.6s-135.3,5.8-291.5,6.5c-65.9,0.3-19.5-14.5-102.3-16.1S435,939.6,435,939.6l-31.6-6.1
					l-215.1,49.9"/>
			</g>
			<g>
				<g>
					<path d="M1958.2,1093.2c-4.8,0.9-9.5,1.1-14.2,1.3c-4.7,0.1-9.5,0.1-14.2-0.1c-9.4-0.4-18.9-1.3-28.2-2.6
						c-18.7-2.6-37.2-6.4-55.5-11.1c-18.3-4.7-36.4-10.1-54.3-16.1c-17.9-6-35.5-12.7-53.1-19.5c-35.1-13.6-70-27.9-105.1-41.6
						c-17.5-6.8-35.1-13.5-52.9-19.8c-8.9-3.1-17.8-6.1-26.8-8.9c-9-2.8-18-5.3-27.1-7.2c-4.6-1-9.2-1.8-13.7-2.3
						c-2.3-0.2-4.6-0.4-6.9-0.4l-7,0.1c-9.4,0.2-18.8,0.4-28.1,1.1c-9.4,0.6-18.7,1.5-27.9,2.9c-9.3,1.4-18.4,3.2-27.5,5.4
						c-9.1,2.2-18.2,4.7-27.5,6.8c-9.2,2.1-18.6,3.9-27.9,5.2c-9.4,1.3-18.8,2.3-28.2,3c-9.4,0.7-18.9,1.1-28.3,1.5
						c-9.4,0.3-18.9,0.5-28.4,0.1c-9.5-0.3-18.9-1.1-28.4-2.2c-18.8-2.3-37.5-6.1-55.7-11.5c-18.2-5.3-36-12.1-53.1-20.2
						c-8.6-4.1-17-8.5-25.2-13.2c-4.1-2.4-8.2-4.9-12.2-7.4c-4-2.6-7.9-5.2-11.8-8.2l0,0l1.7,0.5c-55.3,2.4-110.5,4.1-165.8,5.2
						c-27.6,0.6-55.3,1-82.9,1.2c-13.8,0.2-27.6,0.2-41.5,0.3c-6.9,0-13.9-0.1-20.9-0.6c-3.5-0.3-7-0.6-10.5-1.3
						c-3.5-0.6-7-1.6-10.3-3.2c-3.3-1.6-6.1-3.6-9.1-4.9c-3-1.4-6.2-2.4-9.5-3.2c-6.6-1.5-13.4-2.2-20.3-2.8
						c-6.8-0.5-13.7-0.9-20.6-1c-3.4-0.1-6.9-0.1-10.3-0.1c-3.4,0-6.9-0.1-10.3-0.1c-27.6,0.2-55.2,1.4-82.8,2.9
						c-27.6,1.5-55.2,3.4-82.7,5.5c-27.6,2.1-55.1,4.4-82.6,6.9l0,0l-0.1,0l-0.1,0l-31.6-6.3l0.4,0l-215.1,52l-0.5-1.9l215.1-52
						l0.2-0.1l0.2,0l31.6,6.3l-0.3,0l0,0c27.5-2.6,55.1-5,82.6-7.2c27.6-2.2,55.1-4.2,82.7-5.9c27.6-1.6,55.2-3,82.9-3.3
						c3.5-0.1,6.9,0,10.4,0c3.5,0,6.9,0,10.4,0.1c6.9,0.1,13.9,0.4,20.8,0.9c6.9,0.5,13.9,1.2,20.8,2.8c3.4,0.8,6.9,1.8,10.2,3.4
						c3.3,1.5,6.2,3.5,9.1,4.9c5.9,2.8,12.8,3.5,19.6,4c6.8,0.5,13.7,0.5,20.6,0.5c13.8-0.1,27.6-0.2,41.4-0.5
						c27.6-0.4,55.3-0.9,82.9-1.6c55.2-1.4,110.5-3.3,165.7-6l0.9,0l0.8,0.6l0,0c3.6,2.8,7.5,5.4,11.4,8c3.9,2.5,7.9,5,11.9,7.4
						c8.1,4.7,16.3,9.1,24.8,13.1c16.9,8.1,34.4,14.8,52.3,20.1c17.9,5.3,36.3,9.2,54.9,11.5c9.3,1.2,18.6,1.9,28,2.3
						c9.3,0.4,18.7,0.2,28.1,0c9.4-0.3,18.8-0.7,28.1-1.4c9.4-0.7,18.7-1.6,28-2.9c9.3-1.3,18.5-3,27.6-5.1c9.1-2,18.2-4.5,27.4-6.7
						c9.2-2.2,18.5-4,27.9-5.4c9.4-1.3,18.8-2.2,28.3-2.8c9.4-0.6,18.9-0.8,28.3-1l7.1-0.1c2.4,0,4.9,0.2,7.2,0.4
						c4.8,0.5,9.5,1.4,14.1,2.4c9.3,2,18.4,4.6,27.4,7.4c9,2.8,18,5.9,26.9,9c17.8,6.3,35.4,13.1,52.9,20
						c35.1,13.8,69.9,28.2,104.9,42c17.5,6.8,35.1,13.6,52.9,19.6c17.8,6.1,35.8,11.5,54,16.2c18.2,4.7,36.6,8.6,55.2,11.2
						c9.3,1.3,18.7,2.2,28,2.7c4.7,0.2,9.4,0.3,14,0.2c4.7-0.1,9.4-0.4,13.9-1.2L1958.2,1093.2z"/>
				</g>
			</g>
			<g>
				<path class="st1" d="M1953.5,1091.6c0,0-48.4,10.8-162.6-28.9c-88.6-30.8-240.7-105.6-289.1-105.5
					c-110.9,0.3-92.9,24.7-213.2,26.9c-120.3,2.1-202.5-66-202.5-66s-135.3,7.6-291.5,8.4c-65.9,0.3-19.5-15.7-102.2-17.5
					s-266.4,16.5-266.4,16.5l-31.6-6.6l-215.1,54.2"/>
			</g>
			<g>
				<path class="st1" d="M1948.9,1090.9c0,0-48.4,11.2-162.6-30.1c-88.6-32.1-240.7-110-289.1-109.9c-110.9,0.4-92.9,25.8-213.2,28
					c-120.3,2.2-202.5-69.3-202.5-69.3S946.2,918.1,790,919c-65.9,0.4-19.5-16.4-102.2-18.2s-266.4,17.2-266.4,17.2l-31.6-6.9
					l-215.1,56.5"/>
			</g>
			<g>
				<path class="st1" d="M1944.4,1090.2c0,0-48.4,11.7-162.6-31.4c-88.6-33.4-240.6-114.6-289.1-114.4
					c-110.9,0.4-92.9,26.8-213.2,29.2c-120.3,2.3-202.5-72.8-202.5-72.8s-135.3,9.6-291.5,10.4c-65.9,0.4-19.5-17-102.2-19
					c-82.8-1.9-266.4,17.9-266.4,17.9l-31.6-7.1l-215.1,58.9"/>
			</g>
			<g>
				<path class="st1" d="M1939.8,1089.4c0,0-48.4,12.2-162.6-32.7c-88.6-34.8-240.6-119.4-289.1-119.2
					c-110.9,0.4-92.9,28-213.2,30.4s-202.5-76.5-202.5-76.5S937.1,902.1,781,903c-65.9,0.4-19.5-17.8-102.2-19.7
					S412.3,902,412.3,902l-31.6-7.4l-215.2,61.3"/>
			</g>
			<g>
				<g>
					<path d="M1935.5,1089.6c-4.9,1.1-9.7,1.4-14.5,1.6c-4.8,0.2-9.7,0.1-14.5-0.2c-9.7-0.5-19.3-1.7-28.8-3.3
						c-19-3.2-37.8-8-56.2-13.7c-18.4-5.8-36.5-12.4-54.3-19.8c-17.8-7.4-35.3-15.4-52.7-23.6c-34.8-16.4-69.2-33.6-103.9-50.1
						c-17.4-8.2-34.8-16.3-52.4-23.9c-8.8-3.8-17.7-7.4-26.6-10.8c-8.9-3.3-18-6.5-27.1-8.9c-4.6-1.2-9.2-2.2-13.7-2.8
						c-2.3-0.3-4.6-0.5-6.8-0.5l-7.1,0.1c-9.6,0.2-19.1,0.6-28.6,1.4c-9.5,0.8-18.9,2-28.2,3.7c-9.3,1.7-18.5,4.1-27.6,6.8
						c-9.1,2.7-18.3,5.8-27.7,8.4c-9.4,2.7-18.9,4.8-28.5,6.4c-19.2,3.3-38.6,4.8-57.9,5.5l-7.3,0.2c-2.4,0-4.9,0.1-7.3,0.1
						c-4.9,0-9.8-0.1-14.7-0.4c-9.8-0.6-19.5-1.6-29.1-3.3c-19.3-3.2-38.2-8.5-56.4-15.6c-18.2-7.1-35.7-15.9-52.3-26.1
						c-8.3-5.1-16.4-10.6-24.2-16.5c-3.9-2.9-7.8-6-11.5-9.1c-1.9-1.6-3.8-3.2-5.6-4.8l-2.8-2.5c-0.9-0.9-1.8-1.7-2.8-2.6l0,0
						l4.2,1.5c-27.7,2.1-55.4,3.7-83.1,5.2c-27.7,1.4-55.4,2.6-83.2,3.5c-13.9,0.5-27.7,0.8-41.6,1.2c-13.9,0.3-27.7,0.6-41.6,0.7
						c-13.9,0.2-27.7,0.2-41.6,0.3c-7,0-14-0.2-21.1-0.8c-3.5-0.4-7.1-0.9-10.7-1.7c-3.6-0.9-7.2-2.2-10.5-4.2
						c-3.3-2-5.8-4.2-8.6-5.8c-2.7-1.6-5.7-2.8-8.9-3.7c-6.3-1.9-13.1-2.8-19.9-3.5c-6.8-0.7-13.7-1.1-20.6-1.4
						c-3.4-0.2-6.9-0.2-10.3-0.3c-3.4,0-6.9-0.1-10.3-0.1c-27.6,0.1-55.3,1.6-82.9,3.4c-27.6,1.8-55.2,4-82.8,6.5
						c-27.6,2.5-55.2,5.2-82.7,8.2l0,0l-0.2,0l-0.2,0l-31.6-7.7l0.5,0l-215.2,63.9l-0.6-1.9l215.2-63.9l0.3-0.1l0.3,0.1l31.6,7.7
						l-0.4,0l0,0c27.5-3.3,55.1-6.4,82.7-9.2c27.6-2.8,55.2-5.4,82.8-7.5c27.7-2.1,55.4-3.9,83.2-4.4c3.5-0.1,7-0.1,10.4-0.1
						c3.5,0,7,0,10.5,0.1c7,0.2,13.9,0.5,20.9,1.1c7,0.7,14,1.5,21,3.5c3.5,1,7,2.3,10.3,4.2c3.3,1.9,6,4.2,8.7,5.7
						c5.3,3.1,11.9,4.1,18.6,4.8c6.7,0.5,13.6,0.6,20.4,0.5c13.8-0.3,27.7-0.4,41.5-0.8c13.8-0.3,27.7-0.8,41.5-1.2
						c13.8-0.5,27.7-1,41.5-1.7c27.7-1.3,55.3-2.8,82.9-4.6c27.6-1.8,55.3-3.8,82.8-6.2l2.4-0.2l1.8,1.8l0,0
						c0.7,0.7,1.6,1.6,2.4,2.3l2.6,2.4c1.7,1.6,3.5,3.1,5.3,4.6c3.6,3,7.3,6,11,8.9c7.5,5.7,15.3,11.1,23.3,16.2
						c16,10.1,32.9,18.8,50.5,25.8c17.6,7,35.8,12.3,54.5,15.6c9.3,1.7,18.7,2.8,28.1,3.4c4.7,0.3,9.4,0.5,14.2,0.5
						c2.4,0,4.7,0,7.1,0l7.2-0.2c19.1-0.5,38.2-1.8,56.9-4.9c9.4-1.5,18.6-3.5,27.8-6c9.2-2.5,18.3-5.4,27.6-8.1
						c9.3-2.7,18.8-5.1,28.4-6.7c9.6-1.7,19.3-2.8,29-3.5c9.7-0.7,19.4-1,29-1.1l7.3,0c2.6,0,5.1,0.3,7.6,0.6
						c5,0.7,9.8,1.8,14.5,3.1c9.4,2.6,18.6,5.9,27.6,9.3c9,3.5,17.9,7.2,26.8,11.1c17.7,7.8,35.1,16,52.4,24.4
						c34.6,16.8,68.9,34.3,103.5,51.1c17.3,8.4,34.7,16.5,52.3,24.1c17.7,7.5,35.6,14.3,53.9,20.2c18.3,5.8,36.8,10.8,55.7,14.2
						c9.4,1.7,18.9,2.9,28.5,3.5c4.8,0.3,9.6,0.4,14.3,0.3c4.7-0.2,9.6-0.4,14.1-1.4L1935.5,1089.6z"/>
				</g>
			</g>
			<g>
				<path class="st1" d="M1930.7,1087.8c0,0-48.4,13.2-162.6-35.4c-88.6-37.7-240.6-129.5-289.1-129.3
					c-110.9,0.5-92.9,30.3-213.2,33s-202.5-84.2-202.5-84.2s-135.3,12.8-291.5,13.8c-65.9,0.4-19.5-19.3-102.2-21.4
					s-266.4,20.3-266.4,20.3l-31.6-8.1l-215.2,66.6"/>
			</g>
			<g>
				<g>
					<path d="M1926.4,1087.9c-4.9,1.2-9.8,1.5-14.7,1.7c-4.9,0.2-9.8,0.1-14.7-0.2c-4.9-0.3-9.7-0.8-14.6-1.4
						c-4.8-0.7-9.7-1.4-14.5-2.3c-19.2-3.6-38-9-56.4-15.2c-9.2-3.2-18.3-6.6-27.4-10.2c-9-3.7-18-7.5-26.9-11.5
						c-17.7-8.1-35.1-16.8-52.4-25.7c-34.6-17.9-68.7-36.5-103.2-54.3c-17.2-8.9-34.6-17.7-52.1-26c-8.8-4.1-17.6-8.1-26.6-11.8
						c-9-3.7-18-7.1-27.2-9.8c-4.6-1.3-9.3-2.5-14-3.2c-2.3-0.3-4.7-0.6-7-0.6c-2.4,0-4.8,0.1-7.2,0.1c-9.7,0.2-19.4,0.6-29,1.4
						c-9.6,0.9-19.2,2.1-28.6,4c-4.7,0.9-9.4,2.1-14.1,3.3c-4.6,1.3-9.3,2.6-13.9,4.2c-9.2,3-18.4,6.3-27.8,9.1
						c-9.4,2.8-18.9,5.1-28.6,6.8c-9.6,1.7-19.4,3-29.1,3.9c-4.9,0.5-9.7,0.8-14.6,1.1c-4.9,0.2-9.7,0.5-14.6,0.7
						c-9.7,0.4-19.6,0.4-29.4-0.4c-9.8-0.7-19.5-2-29.2-3.9c-19.3-3.8-38-9.9-56-17.7c-17.9-7.9-35.1-17.6-51.2-28.7
						c-8.1-5.6-15.9-11.5-23.4-17.8c-3.8-3.1-7.5-6.4-11.1-9.7c-3.6-3.3-7.1-6.7-10.5-10.4l0,0l2.3,0.9c-27.7,2.7-55.4,4.7-83.1,6.6
						c-27.7,1.8-55.4,3.4-83.2,4.6c-13.9,0.6-27.7,1.1-41.6,1.6c-13.9,0.4-27.8,0.8-41.6,1c-13.9,0.3-27.8,0.4-41.7,0.5
						c-7,0-14-0.1-21-0.8c-3.5-0.4-7-0.9-10.5-1.8c-3.5-0.9-7-2.3-10-4.3c-3.1-2-5.6-4.4-8.4-6.1c-2.8-1.8-5.8-3.1-9-4.1
						c-6.4-2-13.2-3.1-20.1-3.8c-6.8-0.7-13.7-1.2-20.6-1.4c-3.5-0.2-6.9-0.2-10.4-0.3c-3.5,0-6.9,0-10.4,0c-27.7,0.3-55.4,2-83,4
						c-27.7,2.1-55.3,4.6-82.9,7.4c-27.6,2.8-55.2,5.9-82.7,9.2l0,0l-0.2,0l-0.2-0.1l-31.6-8.4l0.6,0l-215.2,69.4l-0.6-1.9
						l215.2-69.4l0.3-0.1l0.3,0.1l31.6,8.4l-0.4,0l0,0c27.5-3.5,55.1-6.7,82.7-9.7c27.6-2.9,55.2-5.6,82.9-7.8
						c27.7-2.2,55.4-4,83.2-4.4c3.5,0,7,0,10.4,0c3.5,0.1,7,0.1,10.4,0.2c7,0.2,13.9,0.6,20.9,1.3c7,0.7,13.9,1.7,20.8,3.9
						c3.4,1.1,6.8,2.5,9.9,4.5c3.1,1.9,5.7,4.3,8.5,6.1c5.4,3.6,12.2,4.8,19,5.5c6.8,0.7,13.7,0.8,20.6,0.7
						c13.9-0.2,27.7-0.3,41.6-0.7c13.9-0.3,27.7-0.8,41.6-1.2c13.9-0.6,27.7-1.1,41.6-1.8c27.7-1.3,55.4-3,83.1-5
						c27.7-2,55.3-4.2,82.9-7l1.3-0.1l0.9,1l0,0c3.2,3.4,6.7,6.8,10.2,10.1c3.5,3.3,7.1,6.5,10.8,9.6c7.4,6.2,15.1,12,23,17.6
						c15.8,11,32.6,20.6,50.3,28.4c17.6,7.8,36,13.8,54.9,17.6c9.4,1.9,19,3.2,28.6,4c9.6,0.7,19.2,0.8,28.9,0.5
						c4.8-0.1,9.7-0.4,14.5-0.6c4.8-0.3,9.7-0.6,14.5-1.1c9.6-0.8,19.2-2,28.7-3.7c9.5-1.7,18.9-3.9,28.1-6.6
						c9.3-2.7,18.4-6,27.7-8.9c4.6-1.5,9.3-2.9,14.1-4.2c4.7-1.2,9.5-2.4,14.3-3.3c9.6-1.9,19.3-3.2,29.1-4
						c9.7-0.8,19.5-1.2,29.2-1.4c2.4,0,4.9-0.1,7.3-0.1c2.6,0,5,0.3,7.5,0.6c4.9,0.8,9.7,2,14.4,3.3c9.4,2.8,18.6,6.3,27.6,10
						c9,3.8,17.9,7.8,26.7,11.9c17.6,8.3,34.9,17.2,52.2,26.2c34.5,18,68.5,36.8,103,54.7c17.2,9,34.5,17.8,52.2,25.9
						c8.8,4,17.7,7.8,26.7,11.5c9,3.6,18.1,7.1,27.2,10.3c18.3,6.3,37,11.7,56,15.4c4.8,0.9,9.5,1.7,14.3,2.3
						c4.8,0.6,9.6,1.1,14.4,1.4c4.8,0.3,9.7,0.4,14.5,0.3c2.4-0.1,4.8-0.2,7.2-0.5c2.4-0.2,4.8-0.6,7-1.1L1926.4,1087.9z"/>
				</g>
			</g>
			<g>
				<path class="st1" d="M1921.6,1086.1c0,0-48.4,14.4-162.6-38.4c-88.6-40.9-240.6-140.4-289.1-140.2
					c-110.9,0.5-92.9,32.9-213.2,35.9c-120.3,2.9-202.5-92.6-202.5-92.6S919,865.9,762.8,867c-65.9,0.5-19.5-20.9-102.2-23.2
					c-82.8-2.3-266.4,22.1-266.4,22.1l-31.6-8.7l-215.2,72.3"/>
			</g>
			<g>
				<g>
					<path d="M1917.4,1086.1c-2.5,0.7-4.9,1.1-7.4,1.4c-2.5,0.3-5,0.5-7.4,0.6c-5,0.2-9.9,0.1-14.9-0.2c-4.9-0.3-9.9-0.8-14.8-1.5
						c-2.4-0.4-4.9-0.7-7.3-1.1l-3.7-0.6l-3.6-0.7c-19.4-3.8-38.4-9.7-56.9-16.5c-9.3-3.4-18.4-7.2-27.5-11c-4.5-2-9.1-3.9-13.5-6
						l-6.7-3.1l-6.7-3.2c-17.7-8.7-35.1-18-52.3-27.6c-34.4-19.2-68.4-39.1-102.7-58.2c-17.2-9.6-34.4-19-51.8-27.9
						c-8.7-4.4-17.5-8.7-26.4-12.7c-8.9-4-17.9-7.7-27.1-10.6c-4.6-1.4-9.2-2.7-13.8-3.4c-2.3-0.3-4.6-0.6-6.7-0.6
						c-0.5,0-1.2,0-1.8,0l-1.8,0l-3.7,0.1c-9.8,0.2-19.5,0.7-29.1,1.6c-9.7,0.9-19.2,2.4-28.6,4.5l-3.5,0.8l-3.5,0.9
						c-2.3,0.6-4.6,1.3-7,1.9c-4.6,1.4-9.2,2.9-13.8,4.5c-9.2,3.3-18.4,6.8-27.9,9.9c-9.5,3.1-19.3,5.5-29.1,7.4
						c-9.8,1.9-19.7,3.2-29.6,4.2c-9.9,0.9-19.8,1.6-29.7,1.9c-4.9,0.2-10,0.3-15,0.2c-5-0.1-10-0.4-15-0.9
						c-10-0.9-19.9-2.5-29.7-4.7c-19.6-4.5-38.5-11.5-56.4-20.4c-17.9-8.9-34.8-19.7-50.7-31.8c-7.9-6.1-15.5-12.5-22.9-19.3
						c-3.7-3.4-7.3-6.9-10.8-10.4c-1.8-1.8-3.5-3.6-5.2-5.4c-1.7-1.9-3.3-3.7-5.1-5.7l4.2,1.7c-27.7,3.2-55.4,5.7-83.2,8
						c-27.8,2.2-55.5,4.1-83.3,5.6c-13.9,0.8-27.8,1.4-41.7,1.9c-13.9,0.5-27.8,1-41.7,1.2c-13.9,0.4-27.8,0.4-41.8,0.6
						c-7,0-14.1-0.1-21.3-0.9c-3.6-0.4-7.3-1.1-10.9-2.1c-3.6-1.1-7.5-2.7-10.6-5.1c-3.2-2.3-5.6-4.7-8.1-6.4
						c-2.5-1.8-5.3-3.1-8.3-4.2c-3-1.1-6.2-1.8-9.5-2.5c-3.3-0.6-6.6-1.1-10-1.5c-6.7-0.8-13.6-1.3-20.5-1.5
						c-6.9-0.3-13.7-0.4-20.6-0.3c-27.6,0.3-55.3,2.1-83,4.3c-27.7,2.2-55.3,5-82.9,7.9c-27.6,3-55.2,6.3-82.7,9.8l-0.6,0.1
						l-0.6-0.2l-31.5-9.3l1.7,0l-107.8,36.9l-53.9,18.4l-54,18.3l-0.7-1.9l53.6-19.3l53.7-19.2l107.3-38.4l0.8-0.3l0.9,0.2l31.6,8.9
						l-1.2-0.1c27.6-3.9,55.2-7.4,82.8-10.7c27.6-3.3,55.3-6.2,83-8.7c27.7-2.4,55.5-4.4,83.5-4.9c7-0.1,14-0.1,21,0.2
						c7,0.2,14.1,0.6,21.1,1.4c3.5,0.4,7.1,0.9,10.6,1.6c3.6,0.7,7.1,1.6,10.7,2.8c3.5,1.2,7.1,2.9,10.3,5.1
						c3.2,2.2,5.8,4.8,8.3,6.5c2.4,1.8,5.1,2.9,8.1,3.8c3,0.9,6.2,1.4,9.5,1.8c6.6,0.7,13.4,0.8,20.3,0.8
						c13.9-0.2,27.7-0.4,41.6-0.8c13.9-0.3,27.7-0.9,41.6-1.4c13.9-0.7,27.7-1.2,41.6-2c27.7-1.5,55.4-3.4,83.1-5.7
						c27.6-2.3,55.3-4.9,82.8-8.1l2.5-0.3l1.7,2c1.4,1.7,3.1,3.6,4.7,5.3c1.6,1.8,3.3,3.5,5,5.2c3.4,3.5,6.9,6.8,10.4,10.1
						c7.1,6.6,14.5,12.9,22.2,18.8c15.4,11.8,31.8,22.3,49.1,30.9c17.3,8.6,35.5,15.4,54.3,19.7c18.8,4.3,38.1,6.1,57.4,5.3
						c9.8-0.3,19.5-0.8,29.2-1.7c9.7-0.9,19.3-2.1,28.8-3.9c9.5-1.8,18.9-4.1,28.1-7c9.2-2.9,18.4-6.4,27.7-9.7
						c4.7-1.6,9.4-3.2,14.2-4.6c2.4-0.7,4.8-1.4,7.3-2l3.7-0.9l3.7-0.8c9.8-2.1,19.7-3.6,29.7-4.5c9.9-0.9,19.9-1.3,29.8-1.5l3.7,0
						l1.9,0c0.6,0,1.2,0,1.9,0c2.7,0,5.4,0.4,7.9,0.8c5.1,0.9,10,2.2,14.8,3.8c9.6,3.1,18.8,7,27.8,11.1c9,4.1,17.9,8.5,26.7,13
						c17.6,9.1,34.8,18.7,51.9,28.4c34.2,19.6,67.9,39.8,102.1,59.3c17.1,9.8,34.2,19.3,51.7,28.2l6.6,3.3l6.6,3.2
						c4.4,2.2,8.9,4.1,13.3,6.2c9,4,18,7.8,27.1,11.3c18.3,7,37,13.1,56.1,17.1l3.6,0.8l3.6,0.7c2.4,0.5,4.8,0.8,7.2,1.2
						c4.8,0.7,9.7,1.3,14.5,1.7c4.9,0.4,9.7,0.6,14.6,0.5c2.4-0.1,4.9-0.2,7.3-0.4c2.4-0.2,4.9-0.6,7.1-1.2L1917.4,1086.1z"/>
				</g>
			</g>
			<g>
				<path class="st1" d="M1912.5,1084.2c0,0-48.4,15.6-162.6-41.7c-88.6-44.4-240.6-152.4-289.1-152.1
					c-110.9,0.6-92.9,35.8-213.2,39c-120.3,3.2-202.4-101.8-202.4-101.8s-135.3,17.8-291.5,19c-65.9,0.5-19.5-22.7-102.2-25.2
					s-266.4,24-266.4,24l-31.6-9.5l-215.2,78.4"/>
			</g>
			<g>
				<path class="st1" d="M1908,1083.2c0,0-48.4,16.2-162.6-43.4c-88.6-46.3-240.6-158.7-289-158.4c-110.9,0.6-92.9,37.3-213.2,40.6
					c-120.3,3.3-202.4-106.6-202.4-106.6s-135.3,19.1-291.5,20.5c-65.9,0.6-19.5-23.6-102.2-26.2c-82.8-2.6-266.4,25-266.4,25
					l-31.6-9.9l-215.2,81.7"/>
			</g>
			<g>
				<path class="st1" d="M1903.4,1082.2c0,0-48.4,16.9-162.6-45.2c-88.6-48.2-240.6-165.3-289-165c-110.9,0.7-92.9,38.8-213.2,42.3
					c-120.3,3.5-202.4-111.7-202.4-111.7s-135.3,20.6-291.5,22c-65.9,0.6-19.5-24.6-102.2-27.3s-266.4,26.1-266.4,26.1l-31.6-10.3
					l-215.2,85.2"/>
			</g>
			<g>
				<path class="st1" d="M1898.9,1081.1c0,0-48.4,17.6-162.6-47.1c-88.6-50.2-240.5-172.2-289-171.9
					c-110.9,0.7-92.9,40.4-213.2,44.1s-202.4-116.9-202.4-116.9s-135.3,22.1-291.5,23.5c-65.9,0.6-19.5-25.6-102.2-28.4
					c-82.8-2.8-266.4,27.2-266.4,27.2L340,800.9l-215.2,88.7"/>
			</g>
			<g>
				<path class="st1" d="M1894.3,1080c0,0-48.4,18.4-162.6-49c-88.6-52.3-240.5-179.3-289-179c-110.9,0.7-92.9,42.1-213.2,45.9
					c-120.3,3.8-202.4-122.4-202.4-122.4s-135.3,23.6-291.5,25.2c-65.9,0.6-19.5-26.7-102.2-29.6S367,799.4,367,799.4l-31.6-11.2
					l-215.2,92.4"/>
			</g>
			<g>
				<g>
					<path d="M1890.2,1079.7c-2.6,0.9-5.2,1.4-7.8,1.8c-2.6,0.4-5.2,0.6-7.8,0.7c-5.2,0.2-10.4,0-15.6-0.4
						c-5.2-0.4-10.3-1.2-15.4-2.2c-5.1-0.9-10.2-2.2-15.2-3.4c-20.1-5.4-39.4-13.1-58.1-22.1c-4.7-2.2-9.3-4.6-13.9-7
						c-4.6-2.5-9.2-4.8-13.7-7.4l-6.8-3.8l-6.7-3.9c-4.5-2.6-8.9-5.3-13.3-8.1c-17.5-11.1-34.5-22.8-51.4-34.7
						c-33.7-23.9-66.8-48.5-100.5-72.3c-16.8-11.9-33.7-23.6-51-34.7c-8.6-5.5-17.3-10.9-26.2-16c-8.8-5-17.8-9.8-27-13.6
						c-4.6-1.9-9.2-3.5-13.8-4.6c-2.3-0.5-4.5-0.9-6.6-0.9c-0.3,0-0.5,0-0.8,0c-0.3,0-0.5,0-0.8,0l-1.9,0.1l-3.8,0.1
						c-10.2,0.3-20.3,1-30.2,2.4c-10,1.3-19.8,3.4-29.3,6.2c-1.2,0.3-2.4,0.7-3.6,1.1l-3.5,1.2c-2.3,0.9-4.7,1.7-7,2.7
						c-4.6,1.8-9.2,3.9-13.8,6.1c-9.2,4.3-18.6,9-28.5,13c-4.9,2-10,3.8-15.1,5.4c-5.1,1.6-10.3,3-15.4,4.2
						c-10.4,2.4-20.9,4.1-31.3,5.3l-7.9,0.8l-7.9,0.6c-2.6,0.2-5.2,0.3-7.9,0.5c-2.6,0.1-5.2,0.3-7.9,0.4
						c-10.8,0.3-21.6-0.5-32.3-2.2c-5.3-0.9-10.6-2-15.8-3.3c-5.2-1.4-10.4-2.9-15.5-4.7c-20.3-7.1-39.3-17.4-56.8-29.5
						c-17.5-12.2-33.5-26.2-48.2-41.4c-7.3-7.6-14.4-15.5-21.1-23.7c-3.3-4.1-6.6-8.3-9.8-12.5c-1.6-2.1-3.2-4.3-4.7-6.5l-2.3-3.3
						l-1.1-1.7l-1.2-1.8l0,0l10.1,4.5c-7.1,1.2-14,2.2-21,3.3c-3.5,0.5-7,1-10.5,1.5c-3.5,0.5-7,1-10.5,1.4
						c-13.9,1.9-27.9,3.5-41.9,5.1c-27.9,3.1-55.9,5.6-84,7.5c-14,1-28,1.7-42.1,2.4l-21.1,0.8c-3.5,0.2-7,0.3-10.5,0.3l-10.5,0.2
						l-10.5,0.2c-3.5,0.1-7,0.1-10.5,0.1l-21.1,0.1c-7.2-0.1-14.4-0.4-21.9-1.6c-3.7-0.7-7.5-1.6-11.3-3.2
						c-3.8-1.5-7.5-4.1-10.3-6.9c-2.9-2.8-4.9-5.5-7.2-7.5c-2.2-2.1-4.6-3.7-7.4-5.1c-5.6-2.7-12.1-4.3-18.7-5.5
						c-6.7-1.1-13.5-1.8-20.4-2.2c-6.9-0.5-13.8-0.6-20.7-0.6c-13.9,0-27.8,0.6-41.7,1.5c-13.9,0.9-27.8,2-41.7,3.3
						c-27.8,2.6-55.6,5.9-83.3,9.6c-27.7,3.7-55.4,7.7-83,12.1l0,0l-0.3,0l-0.3-0.1l-31.6-11.6l0.8,0l-215.2,96.3l-0.8-1.8
						l215.2-96.3l0.4-0.2l0.4,0.1l31.6,11.6l-0.5,0l0,0c27.5-5.1,55.1-9.9,82.8-14.3c27.7-4.4,55.4-8.4,83.2-11.7
						c13.9-1.7,27.9-3.2,41.9-4.4c14-1.2,28-2.2,42.2-2.6c14.2-0.3,28.3-0.1,42.7,1.9c3.6,0.5,7.2,1.2,10.8,2.1
						c3.6,0.9,7.2,2.1,10.8,3.7c3.5,1.6,7,3.8,10,6.5c3,2.6,5.3,5.5,7.5,7.5c2.2,2,4.4,3.4,7.2,4.5c2.7,1.1,5.8,1.8,8.9,2.2
						c6.4,0.9,13.2,1.1,20,0.9l20.9-0.7c3.5-0.1,7-0.2,10.4-0.4l10.4-0.5l10.4-0.5c3.5-0.2,7-0.4,10.4-0.6l20.9-1.4
						c13.9-1.1,27.8-2.2,41.7-3.6c27.8-2.6,55.5-5.9,83.1-9.7c13.8-1.9,27.6-3.9,41.3-6.2c3.4-0.5,6.9-1.1,10.3-1.7
						c3.4-0.6,6.9-1.1,10.3-1.7c6.8-1.2,13.7-2.4,20.4-3.7l6.4-1.2l3.8,5.7l0,0l0.9,1.4l1,1.5l2.1,3.1c1.4,2.1,2.8,4.1,4.3,6.1
						c2.9,4.1,6,8.1,9.1,12c6.2,7.9,12.8,15.5,19.6,22.9c13.7,14.7,28.7,28.2,44.8,39.9c16.2,11.7,33.7,21.5,52.2,28.3
						c18.5,6.8,38.1,10.5,57.8,10.3c2.4,0,5-0.1,7.5-0.2c2.5-0.1,5.1-0.1,7.6-0.3l7.6-0.5l7.5-0.6c10-1,20-2.4,29.7-4.5
						c4.9-1,9.7-2.3,14.5-3.6c4.8-1.4,9.5-3,14.1-4.8c9.4-3.5,18.5-7.9,28-12.1c4.8-2.1,9.6-4.2,14.6-6.1c2.5-1,5-1.8,7.5-2.7
						l3.8-1.2c1.3-0.4,2.6-0.8,3.8-1.1c10.3-2.9,20.8-4.9,31.3-6.1c10.5-1.2,21-1.7,31.5-1.9l3.9,0l2,0c0.3,0,0.7,0,1.1,0
						c0.4,0,0.8,0,1.2,0c3.1,0.2,5.9,0.7,8.6,1.4c5.5,1.3,10.6,3.3,15.5,5.4c9.8,4.3,19,9.4,28,14.7c9,5.3,17.7,11,26.3,16.7
						c17.2,11.5,34,23.6,50.7,35.9c33.3,24.5,65.9,49.7,99.1,74.1c16.6,12.2,33.3,24.2,50.5,35.5c4.3,2.8,8.6,5.6,13,8.3l6.6,4
						l6.6,3.9c4.4,2.6,8.9,5.1,13.4,7.6c4.5,2.4,9,4.9,13.6,7.1c18.3,9.3,37.3,17.3,57,22.9c4.9,1.4,9.9,2.7,14.9,3.7
						c5,1,10.1,1.9,15.1,2.4c5.1,0.5,10.2,0.8,15.3,0.7c2.5-0.1,5.1-0.2,7.6-0.6c2.5-0.3,5.1-0.8,7.3-1.5L1890.2,1079.7z"/>
				</g>
			</g>
			<g>
				<path class="st1" d="M1885.2,1077.6c0,0-48.4,19.9-162.5-53.1c-88.6-56.7-240.5-194.5-289-194.2
					c-110.9,0.8-92.9,45.7-213.2,49.9c-120.3,4.1-202.4-134.1-202.4-134.1S882.8,773,726.6,774.7c-65.9,0.7-19.5-29-102.2-32.1
					c-82.8-3.2-266.4,30.8-266.4,30.8l-31.6-12.1L111.2,861.6"/>
			</g>
			<g>
				<path class="st1" d="M1880.7,1076.3c0,0-48.4,20.8-162.5-55.3c-88.6-59.1-240.5-202.6-289-202.2c-110.9,0.8-92.9,47.6-213.2,52
					c-120.3,4.3-202.4-140.3-202.4-140.3s-135.4,28.7-291.5,30.4c-65.9,0.7-19.5-30.2-102.2-33.4c-82.8-3.3-266.4,32.1-266.4,32.1
					l-31.6-12.6L106.7,851.4"/>
			</g>
			<g>
				<g>
					<path d="M1876.6,1075.9c-2.7,1.1-5.3,1.6-8,2c-2.7,0.4-5.4,0.7-8.1,0.8c-5.4,0.2-10.8,0-16.1-0.6c-5.3-0.6-10.6-1.5-15.9-2.7
						c-1.3-0.3-2.6-0.6-3.9-0.9l-3.9-1c-2.6-0.8-5.2-1.4-7.7-2.3c-10.2-3.2-20.2-7.1-30-11.5c-9.7-4.4-19.3-9.2-28.6-14.4
						c-9.3-5.2-18.5-10.7-27.5-16.5c-9-5.8-17.8-11.8-26.5-18c-17.3-12.5-34-25.7-50.7-39c-33.2-26.7-65.7-54.1-98.8-80.8
						c-16.6-13.3-33.2-26.5-50.3-39c-8.5-6.3-17.2-12.4-26-18.1c-8.8-5.7-17.8-11.2-27.1-15.7c-4.6-2.2-9.4-4.2-14.1-5.5
						c-2.4-0.6-4.7-1.1-6.9-1.3c-0.6,0-1.1-0.1-1.6-0.1c-0.6,0-1.3,0-1.9,0l-3.9,0.1c-10.5,0.3-20.9,1.1-31.2,2.7
						c-10.3,1.6-20.3,3.9-30.1,7.3c-9.7,3.4-19,7.9-28.3,12.8c-4.7,2.5-9.3,5-14.1,7.5c-4.8,2.5-9.7,4.9-14.7,7.1
						c-10,4.4-20.5,7.9-31.1,10.5c-10.6,2.6-21.4,4.4-32.2,5.6l-4,0.5l-4,0.4c-2.7,0.2-5.4,0.5-8.1,0.6l-8.1,0.5
						c-1.3,0.1-2.7,0.1-4.1,0.1c-1.4,0-2.8,0.1-4.2,0.1c-5.6,0-11.1-0.4-16.6-1c-5.5-0.7-11-1.6-16.4-2.8c-5.4-1.3-10.7-2.8-16-4.5
						c-5.2-1.8-10.4-3.8-15.4-6c-20.2-8.9-38.6-21.2-55.3-35.2c-16.7-14-31.8-29.7-45.6-46.4c-6.9-8.4-13.5-17-19.7-25.8
						c-3.1-4.4-6.1-8.9-9.1-13.5c-1.5-2.3-2.9-4.6-4.3-6.9l-2.1-3.5c-0.7-1.2-1.4-2.3-2.1-3.7l8.7,4l0,0c-7.1,1.5-14,2.8-20.9,4.1
						c-7,1.3-13.9,2.5-20.9,3.6c-13.9,2.3-27.9,4.4-41.9,6.4c-28,3.9-56,7.1-84.2,9.6c-28.1,2.5-56.3,4.2-84.5,5.1
						c-14.1,0.5-28.2,0.7-42.4,0.7c-7.2-0.1-14.5-0.4-21.9-1.9c-3.7-0.8-7.5-1.9-11.1-3.7c-1.8-0.9-3.6-2-5.2-3.3
						c-1.6-1.3-3.1-2.7-4.4-4.1c-2.6-2.9-4.6-5.7-6.7-8c-2.2-2.3-4.5-4.2-7.3-5.8c-5.5-3.1-12-5-18.6-6.3c-6.7-1.3-13.5-2-20.5-2.5
						c-1.7-0.1-3.5-0.2-5.2-0.3l-5.2-0.2l-2.6-0.1l-2.6,0l-5.2,0c-13.9,0-27.9,0.8-41.9,1.8c-14,1-27.9,2.4-41.9,3.9
						c-27.9,3.1-55.7,7-83.5,11.2c-27.8,4.3-55.5,9-83.1,14.1l0,0l-0.3,0.1l-0.3-0.1L317,732.9l0.8,0L102.6,841.7l-0.9-1.8
						l215.2-108.9l0.4-0.2l0.4,0.2l31.6,13.1l-0.6-0.1l0,0c27.6-5.7,55.2-10.9,82.9-15.8c27.7-4.8,55.5-9.3,83.5-12.9
						c14-1.8,28-3.5,42-4.8c14.1-1.3,28.1-2.4,42.3-2.7c14.2-0.2,28.5,0.1,42.8,2.5c7.1,1.3,14.4,3.1,21.3,6.8
						c3.4,1.9,6.6,4.3,9.3,7.1c2.7,2.8,4.9,5.7,7,8c2.1,2.3,4.4,4,7.1,5.3c2.7,1.3,5.7,2.2,8.9,2.8c6.4,1.2,13.2,1.4,20.1,1.3
						c13.9-0.3,28-0.8,42-1.6c28-1.5,55.9-3.8,83.8-6.8c27.9-3.1,55.6-6.8,83.3-11.3c13.8-2.2,27.6-4.6,41.4-7.2
						c6.9-1.3,13.7-2.6,20.6-4c6.8-1.4,13.7-2.9,20.4-4.4l0,0l5.9-1.3l2.8,5.2c0.5,1,1.2,2.2,1.8,3.3l2,3.3c1.3,2.2,2.7,4.4,4.1,6.7
						c2.8,4.4,5.6,8.8,8.6,13.1c5.9,8.6,12.1,17,18.6,25.2c13.1,16.3,27.4,31.5,43.1,45.1c15.7,13.5,32.9,25.3,51.6,33.8
						c18.6,8.5,38.8,13.6,59.1,13.9c1.3,0.1,2.5,0,3.8,0c1.3,0,2.5,0,3.9-0.1l7.9-0.3c2.6-0.1,5.2-0.3,7.8-0.5l3.9-0.3l3.9-0.4
						c10.4-1,20.7-2.6,30.7-4.9c10.1-2.3,19.9-5.5,29.4-9.5c4.8-2,9.5-4.2,14.1-6.6c4.7-2.3,9.4-4.8,14.2-7.3
						c4.8-2.5,9.7-4.8,14.6-7.1c5-2.3,10.1-4.2,15.3-6c10.4-3.5,21.2-5.8,32-7.3c10.8-1.5,21.6-2.1,32.4-2.3l4-0.1
						c0.7,0,1.3,0,2.1,0c0.8,0,1.6,0.1,2.3,0.1c3.1,0.3,5.9,0.9,8.7,1.7c5.5,1.6,10.6,3.9,15.5,6.3c9.8,4.9,19,10.6,27.9,16.6
						c8.9,6,17.6,12.3,26.1,18.7c17.1,12.9,33.6,26.3,50,39.9c32.8,27.2,65,55.1,97.7,82.2c16.4,13.5,32.9,26.9,49.9,39.6
						c8.5,6.3,17.2,12.4,26,18.2c8.8,5.9,17.9,11.4,27,16.7c9.2,5.3,18.6,10.2,28.2,14.7c9.6,4.5,19.4,8.5,29.4,11.8
						c2.5,0.9,5,1.5,7.6,2.3l3.8,1c1.3,0.3,2.6,0.7,3.8,1c5.1,1.3,10.3,2.2,15.6,2.9c5.2,0.7,10.5,1,15.7,0.8
						c2.6-0.1,5.2-0.3,7.8-0.7c2.6-0.4,5.2-0.9,7.5-1.8L1876.6,1075.9z"/>
				</g>
			</g>
			<g>
				<path class="st1" d="M1871.6,1073.6c0,0-48.4,22.5-162.5-60c-88.6-64.1-240.5-219.8-288.9-219.4
					c-110.9,0.9-92.9,51.7-213.2,56.4s-202.4-153.4-202.4-153.4S869.2,729.5,713,731.5c-65.9,0.8-19.4-32.7-102.2-36.3
					s-266.4,34.9-266.4,34.9l-31.5-13.7L97.6,829.9"/>
			</g>
			<g>
				<path class="st1" d="M1867,1072.1c0,0-48.4,23.5-162.5-62.5c-88.6-66.7-240.4-229-288.9-228.5c-110.9,1-92.9,53.9-213.2,58.8
					C1082,844.8,1000,679.4,1000,679.4s-135.4,34.4-291.5,36.4c-65.9,0.9-19.4-34.1-102.2-37.8c-82.8-3.7-266.4,36.3-266.4,36.3
					l-31.5-14.2L93.1,818.4"/>
			</g>
			<g>
				<path class="st1" d="M1862.5,1070.6c0,0-48.4,24.5-162.5-65.1c-88.6-69.5-240.4-238.5-288.9-238c-110.9,1-105.4,71.1-225.7,76.2
					C1065,848.8,995.5,661,995.5,661S860.1,697.5,704,699.6c-65.9,0.9-19.4-35.5-102.2-39.3s-266.4,37.9-266.4,37.9l-31.5-14.8
					L88.5,806.4"/>
			</g>
			<g>
				<path class="st1" d="M1858,1069.1c0,0-48.4,25.5-162.5-67.8c-88.6-72.4-240.4-248.4-288.9-247.9
					c-110.9,1.1-105.4,73.4-225.7,78.8C1060.5,837.5,991,641.8,991,641.8s-135.4,38.6-291.5,40.9c-65.9,0.9-19.4-37-102.2-41
					s-266.4,39.5-266.4,39.5l-31.5-15.4L84,794"/>
			</g>
			<g>
				<g>
					<path d="M1853.9,1068.3c-1.5,0.7-2.8,1.2-4.3,1.6c-0.7,0.2-1.4,0.4-2.2,0.5c-0.7,0.2-1.4,0.3-2.2,0.4c-2.9,0.5-5.8,0.8-8.8,0.9
						c-5.9,0.2-11.7-0.4-17.5-1.3c-11.5-2-22.6-5.6-33.4-10.1c-10.7-4.5-21-9.9-31.1-15.7c-10-5.8-19.7-12.3-29.1-19
						c-4.7-3.3-9.3-6.9-14-10.4c-2.3-1.8-4.5-3.6-6.8-5.4c-2.3-1.8-4.6-3.6-6.8-5.5c-9-7.3-17.7-14.9-26.2-22.8
						c-17.1-15.6-33.6-31.9-49.9-48.3c-32.7-32.8-64.7-66.2-97.5-98.7c-16.4-16.3-33-32.3-50.2-47.7c-8.6-7.7-17.4-15.2-26.4-22.2
						c-4.5-3.5-9.2-6.9-13.9-10.2c-4.7-3.2-9.6-6.2-14.6-8.8c-2.5-1.3-5.1-2.4-7.7-3.3c-2.6-0.9-5.3-1.6-7.9-1.7c-0.3,0-0.7,0-1,0
						c-0.3,0-0.6,0-1,0l-2.1,0c-1.4,0-2.9,0.1-4.3,0.1c-2.9,0.1-5.7,0.3-8.6,0.5c-11.4,0.9-22.7,2.9-33.6,6.1
						c-10.9,3.2-21.4,7.9-31.2,13.6c-9.9,5.7-19.2,12.4-28.7,19.1c-9.4,6.7-19,13.4-29.2,19.1c-10.2,5.7-21,10.5-32.2,14
						c-11.2,3.5-22.7,5.9-34.3,7.4c-5.8,0.8-11.6,1.3-17.4,1.6c-2.9,0.2-5.9,0.3-8.8,0.3c-3,0-5.9-0.1-8.9-0.4
						c-11.8-1-23.4-4.1-34.3-8.6c-10.9-4.6-21.1-10.7-30.5-17.7c-9.4-7-18.1-14.9-26.2-23.4c-8.1-8.5-15.6-17.4-22.6-26.8
						c-14-18.7-26.1-38.6-36.9-59.2c-5.4-10.3-10.4-20.8-15.2-31.4c-4.7-10.6-9.1-21.3-13.1-32.4l0,0l3.9,2
						c-13.8,4-27.6,7.4-41.5,10.7c-13.9,3.3-27.8,6.2-41.8,9c-28,5.5-56.1,10.1-84.3,13.7c-28.3,3.6-56.6,6.2-85.1,7.7l-10.7,0.5
						l-10.7,0.4c-3.6,0.1-7.1,0.2-10.7,0.3c-3.6,0.1-7.1,0.2-10.7,0.2c-7.2-0.1-14.5-0.5-21.7-2.5c-3.6-1-7.1-2.5-10.3-4.7
						c-3.2-2.2-5.8-5.1-7.9-8c-2.2-3-4-6-6-8.7c-2.1-2.7-4.4-5.2-7.1-7.2c-5.4-4.1-11.9-6.5-18.7-8.2c-6.8-1.7-13.7-2.6-20.7-3.2
						c-3.5-0.3-7-0.5-10.6-0.6c-1.8,0-3.5-0.2-5.3-0.1l-5.3,0c-14.1,0.1-28.3,1.1-42.4,2.5c-14.1,1.4-28.2,3.2-42.2,5.2
						c-28.1,4.1-56.1,9.1-83.9,14.6c-27.9,5.5-55.6,11.5-83.3,18.1l0,0l-0.4,0.1l-0.3-0.2l-31.5-16.1l1,0L80,781.9l-1.1-1.7
						l215.3-133.6l0.5-0.3l0.5,0.3l31.5,16.1l-0.7-0.1l0,0c27.6-6.8,55.4-12.9,83.3-18.7c27.9-5.7,55.8-10.9,84-15.2
						c14.1-2.1,28.2-4,42.3-5.5c14.2-1.5,28.4-2.6,42.7-2.8l5.4,0c1.8,0,3.6,0.1,5.4,0.1c3.6,0.1,7.2,0.3,10.7,0.5
						c7.1,0.6,14.3,1.5,21.4,3.2c7,1.7,14.1,4.3,20.1,8.8c3,2.2,5.7,5,7.9,7.9c2.3,2.9,4.1,6,6.1,8.8c2,2.8,4.3,5.2,7,7
						c2.7,1.8,5.8,3.1,9.1,4c6.6,1.8,13.6,2.2,20.6,2.2c3.5,0,7.1-0.1,10.6-0.2c3.5-0.1,7.1-0.2,10.6-0.3l10.6-0.4l10.6-0.6
						c28.3-1.6,56.6-4.5,84.7-8.2c28.1-3.8,56.1-8.5,83.9-14.2c13.9-2.8,27.7-5.9,41.5-9.2c13.8-3.3,27.5-6.9,41-10.9l2.9-0.9l1,2.9
						l0,0c3.8,10.7,8.2,21.4,12.8,31.9c4.6,10.5,9.6,20.9,14.9,31.1c10.6,20.4,22.5,40.2,36.1,58.6c13.7,18.3,29.2,35.5,47.4,49.2
						c9.1,6.8,18.9,12.7,29.3,17.2c10.4,4.4,21.4,7.4,32.7,8.4c2.8,0.2,5.6,0.4,8.4,0.4c2.8,0,5.6-0.1,8.5-0.3
						c5.7-0.3,11.4-0.8,17.1-1.5c11.3-1.4,22.6-3.7,33.4-7.1c10.9-3.4,21.4-7.9,31.3-13.5c10-5.5,19.4-12,28.9-18.7
						c9.4-6.7,18.9-13.4,29.1-19.2c10.2-5.8,21-10.6,32.3-13.9c11.3-3.3,22.9-5.3,34.5-6.2c2.9-0.2,5.8-0.4,8.7-0.5
						c1.5-0.1,2.9-0.1,4.4-0.1l2.2,0c0.4,0,0.7,0,1.2,0c0.4,0,0.8,0,1.2,0.1c3.2,0.2,6.1,1,9,2c2.8,1,5.6,2.2,8.2,3.6
						c5.3,2.7,10.2,5.8,15.1,9.1c4.8,3.3,9.5,6.8,14.1,10.4c9.1,7.2,17.9,14.8,26.5,22.5c17.2,15.5,33.8,31.7,50.2,48.1
						c32.7,32.7,64.6,66.3,97.1,99.1c16.3,16.4,32.7,32.7,49.6,48.4c8.5,7.8,17.1,15.5,26,22.8c2.2,1.9,4.5,3.7,6.7,5.5
						c2.3,1.8,4.5,3.6,6.8,5.4c4.6,3.5,9.1,7,13.9,10.4c9.3,6.7,18.9,13.2,28.9,19c9.9,5.9,20.1,11.2,30.7,15.7
						c10.6,4.4,21.6,8.1,32.9,10c5.6,0.9,11.4,1.5,17.1,1.4c2.8,0,5.7-0.3,8.5-0.8c0.7-0.1,1.4-0.2,2.1-0.4c0.7-0.1,1.4-0.3,2-0.5
						c1.3-0.4,2.7-0.8,3.9-1.4L1853.9,1068.3z"/>
				</g>
			</g>
			<g>
				<path class="st1" d="M1848.9,1065.8c0,0-48.4,27.7-162.5-73.6c-88.5-78.5-240.4-269.5-288.8-269
					c-110.9,1.2-105.4,78.4-225.7,84.2C1051.4,813.3,982,601,982,601s-135.4,43.2-291.5,45.7c-65.9,1-19.4-40.1-102.2-44.4
					c-82.8-4.3-266.4,42.9-266.4,42.9l-31.5-16.8L75,767.6"/>
			</g>
			<g>
				<g>
					<path d="M1844.8,1064.9c-1.5,0.8-2.9,1.3-4.4,1.7c-0.7,0.2-1.5,0.4-2.2,0.6c-0.7,0.2-1.5,0.3-2.2,0.5c-3,0.5-6,0.8-9,0.9
						c-6.1,0.1-12.1-0.5-18-1.7c-5.9-1.1-11.7-2.8-17.4-4.7c-2.9-0.9-5.6-2.1-8.4-3.2l-4.1-1.8c-1.4-0.6-2.8-1.2-4.1-1.8
						c-10.9-5.1-21.3-11.1-31.3-17.6c-10-6.5-19.7-13.5-29.1-20.9c-1.2-0.9-2.4-1.8-3.5-2.8l-3.5-2.8c-2.3-1.9-4.6-3.8-6.9-5.7
						c-4.5-3.9-9.1-7.8-13.5-11.8c-8.9-7.9-17.5-16.2-26-24.7c-16.9-16.9-33.1-34.3-49.2-51.9c-32.2-35.2-63.7-70.9-96.1-105.9
						c-16.2-17.5-32.6-34.8-49.6-51.4c-8.5-8.3-17.2-16.4-26.2-24.1c-4.5-3.9-9.1-7.6-13.9-11.1c-4.7-3.5-9.6-6.9-14.7-9.8
						c-2.6-1.4-5.2-2.8-7.9-3.8c-2.7-1.1-5.5-1.9-8.3-2.3c-0.7-0.1-1.4-0.1-2.1-0.1c-0.7,0-1.5,0-2.2,0c-1.5,0-3,0-4.4,0.1
						c-3,0.1-5.9,0.3-8.9,0.6c-11.8,1-23.5,3.2-34.7,6.8c-11.2,3.6-21.9,8.8-31.9,15.1c-10,6.3-19.4,13.5-29,20.7
						c-9.5,7.2-19.2,14.3-29.6,20.3c-10.4,6.1-21.4,11-32.9,14.7c-11.5,3.6-23.3,6.1-35.2,7.5c-6,0.7-11.9,1.2-17.9,1.5
						c-6,0.3-12.1,0-18.1-0.9c-12-1.7-23.6-5.7-34.3-11.3c-10.7-5.5-20.6-12.6-29.7-20.4c-9.1-7.9-17.4-16.6-25.1-25.7
						c-7.7-9.2-14.8-18.8-21.5-28.8c-13.3-19.9-24.8-40.9-35.1-62.5c-5.1-10.8-9.9-21.7-14.4-32.8c-4.5-11.1-8.7-22.2-12.4-33.7l0,0
						l2.1,1.1c-13.7,4.4-27.4,8.3-41.3,12c-13.8,3.7-27.8,7-41.7,10.1c-27.9,6.2-56.1,11.4-84.4,15.6c-28.3,4.1-56.8,7.1-85.4,8.8
						c-14.3,0.9-28.6,1.4-42.9,1.5c-3.6,0-7.2-0.2-10.8-0.6c-3.6-0.4-7.2-1.1-10.7-2.2c-3.5-1.1-6.9-2.8-9.9-5.1
						c-3-2.3-5.4-5.3-7.4-8.3c-2-3-3.8-6.1-5.8-9c-2-2.9-4.2-5.5-6.9-7.7c-5.3-4.5-11.8-7.3-18.6-9.2c-6.8-1.9-13.8-2.9-20.9-3.6
						c-7.1-0.7-14.2-0.9-21.3-0.9c-14.2,0.1-28.5,1.3-42.6,2.8c-14.2,1.6-28.3,3.6-42.4,5.8c-28.2,4.5-56.2,10.1-84.1,16.1
						c-27.9,6.1-55.7,12.7-83.3,19.9l0,0l-0.4,0.1l-0.4-0.2l-31.5-17.4l1,0L71,754.3l-1.1-1.7l215.3-145l0.5-0.3l0.5,0.3l31.5,17.4
						L317,625l0,0c27.7-7.3,55.5-13.9,83.4-20.1c27.9-6.1,56-11.7,84.2-16.3c14.1-2.3,28.3-4.3,42.5-5.9c14.2-1.6,28.5-2.7,42.9-2.9
						c7.2-0.1,14.4,0.2,21.5,0.8c7.2,0.7,14.3,1.7,21.3,3.7c7,1.9,13.9,4.9,19.6,9.7c2.8,2.4,5.3,5.2,7.4,8.2c2.1,3,3.9,6.1,5.8,9
						c1.9,2.9,4.1,5.6,6.8,7.7c2.7,2.1,5.8,3.6,9.1,4.7c3.3,1.1,6.7,1.7,10.2,2.1c3.5,0.4,7,0.6,10.5,0.6
						c14.2-0.2,28.5-0.7,42.7-1.6c28.5-1.7,56.9-4.8,85.1-9c28.2-4.2,56.3-9.4,84.2-15.7c13.9-3.1,27.8-6.5,41.6-10.2
						c13.8-3.7,27.5-7.6,41-12l1.6-0.5l0.5,1.6l0,0c3.7,11.2,7.9,22.4,12.3,33.4c4.5,11,9.2,21.9,14.3,32.7
						c10.2,21.5,21.6,42.4,34.8,62.2c6.6,9.9,13.6,19.4,21.3,28.5c7.6,9.1,15.8,17.7,24.8,25.4c8.9,7.7,18.6,14.6,29.1,20.1
						c10.4,5.4,21.7,9.3,33.3,11c5.8,0.8,11.7,1.2,17.6,0.9c5.9-0.3,11.8-0.8,17.7-1.4c11.8-1.4,23.4-3.8,34.7-7.3
						c11.3-3.6,22.1-8.4,32.3-14.4c10.2-5.9,19.8-12.9,29.3-20.1c9.5-7.2,19-14.5,29.2-20.9c10.2-6.4,21.1-11.7,32.6-15.3
						c11.5-3.7,23.4-5.9,35.3-6.9c3-0.2,6-0.4,9-0.5c1.5-0.1,3-0.1,4.5-0.1c0.8,0,1.5,0,2.3,0c0.8,0,1.6,0.1,2.4,0.1
						c3.1,0.4,6.1,1.3,8.9,2.4c2.8,1.1,5.5,2.5,8.2,4c5.3,3,10.2,6.4,15,10c4.8,3.6,9.4,7.4,14,11.3c9.1,7.8,17.8,16,26.3,24.3
						c17.1,16.7,33.5,34,49.7,51.5c32.4,35,63.8,70.9,96,106c16.1,17.6,32.3,35,49.1,51.9c8.4,8.4,16.9,16.7,25.8,24.6
						c4.4,4,8.9,7.9,13.4,11.8c2.3,1.9,4.6,3.8,6.9,5.7l3.4,2.8c1.2,0.9,2.3,1.8,3.5,2.8c9.3,7.4,19,14.4,28.9,20.9
						c10,6.5,20.3,12.4,31,17.4c1.3,0.7,2.7,1.2,4.1,1.8l4.1,1.8c2.8,1,5.5,2.2,8.3,3.1c5.6,2,11.3,3.6,17.1,4.7
						c5.8,1.1,11.7,1.8,17.5,1.7c2.9-0.1,5.9-0.3,8.7-0.9c0.7-0.1,1.4-0.3,2.1-0.5c0.7-0.2,1.4-0.3,2.1-0.6c1.4-0.4,2.8-0.9,3.9-1.5
						L1844.8,1064.9z"/>
				</g>
			</g>
			<g>
				<g>
					<path d="M1840.3,1063c-1.5,0.8-2.9,1.4-4.4,1.8c-1.5,0.5-3,0.8-4.5,1.1c-3,0.6-6.1,0.9-9.2,0.9c-6.2,0.1-12.3-0.6-18.3-1.9
						c-6-1.3-11.9-2.9-17.6-5.1c-1.4-0.5-2.9-1.1-4.3-1.6c-1.4-0.6-2.8-1.1-4.2-1.7c-2.8-1.3-5.6-2.4-8.3-3.8
						c-10.9-5.4-21.4-11.7-31.4-18.5l-3.8-2.6c-1.2-0.9-2.5-1.8-3.7-2.7c-2.4-1.8-5-3.5-7.3-5.4l-7.2-5.6l-7.1-5.7
						c-9.3-7.8-18.5-15.7-27.3-24.1c-8.9-8.2-17.4-16.9-25.9-25.6c-16.8-17.5-33-35.6-49-53.8c-32-36.4-63.4-73.4-95.6-109.5
						c-16.1-18.1-32.4-36-49.4-53.2c-8.5-8.6-17.1-17-26.1-25.1c-4.5-4-9.1-7.9-13.8-11.6c-4.7-3.7-9.6-7.2-14.7-10.3
						c-2.5-1.5-5.2-2.9-7.8-4.1c-2.7-1.1-5.4-2.1-8.2-2.5c-1.4-0.2-2.7-0.2-4.2-0.1c-1.5,0-3,0.1-4.5,0.1c-3,0.1-6,0.3-9,0.6
						c-11.9,1-23.8,3.3-35.1,7.2c-11.3,3.8-22,9.3-32.1,15.8c-10,6.5-19.4,14.1-29,21.6c-9.5,7.5-19.3,14.8-29.9,21.1
						c-10.5,6.3-21.8,11.4-33.5,15.2c-11.7,3.8-23.8,6.2-35.9,7.6c-6.1,0.7-12.1,1.2-18.3,1.4c-6.2,0.1-12.4-0.3-18.5-1.4
						c-12.2-2.1-23.9-6.7-34.6-12.8c-10.7-6.1-20.5-13.7-29.5-22c-9-8.3-17.2-17.5-24.8-27c-7.6-9.6-14.6-19.6-21.1-29.9
						c-13.1-20.6-24.3-42.2-34.4-64.4c-5-11.1-9.7-22.3-14.1-33.6c-4.4-11.4-8.5-22.7-12.2-34.4l0,0l3.4,1.7
						c-13.7,4.7-27.4,8.7-41.3,12.6c-13.8,3.8-27.8,7.4-41.8,10.6c-28,6.5-56.2,12-84.6,16.3c-28.4,4.3-57,7.5-85.7,9.2l-10.8,0.6
						l-10.8,0.4c-3.6,0.2-7.2,0.2-10.8,0.3c-3.6,0.1-7.2,0.2-10.8,0.2c-3.6-0.1-7.3-0.3-10.9-0.7c-3.6-0.5-7.3-1.2-10.8-2.5
						c-3.5-1.3-7-3-9.9-5.5c-2.9-2.5-5.3-5.5-7.2-8.6c-2-3.1-3.7-6.2-5.6-9.1c-1.9-2.9-4.1-5.6-6.6-7.9c-5.1-4.6-11.5-7.6-18.2-9.6
						c-6.7-2-13.7-3.1-20.8-3.9c-7.1-0.7-14.2-1-21.3-1c-14.3,0.1-28.5,1.2-42.7,2.8c-14.2,1.6-28.4,3.7-42.5,6
						c-28.2,4.7-56.3,10.4-84.3,16.7c-27.9,6.3-55.8,13.2-83.4,20.6l0,0l-0.4,0.1l-0.4-0.2l-31.5-18.2l1.1,0L66.5,739.7l-1.1-1.6
						l215.3-151.1l0.5-0.4l0.6,0.3l31.5,18.2l-0.8-0.1l0,0c27.7-7.6,55.5-14.6,83.4-21.1c28-6.4,56.1-12.3,84.3-17.1
						c14.2-2.4,28.4-4.5,42.6-6.2c14.3-1.7,28.6-2.9,43-3.1c7.2-0.1,14.4,0.2,21.6,0.9c7.2,0.7,14.4,1.8,21.4,3.9
						c7,2,13.9,5.2,19.6,10.2c2.8,2.5,5.2,5.4,7.2,8.5c2.1,3.1,3.8,6.2,5.7,9.2c1.9,2.9,4,5.6,6.5,7.8c2.6,2.1,5.6,3.7,8.8,4.8
						c3.2,1.1,6.6,1.8,10.1,2.2c3.5,0.4,7,0.6,10.5,0.7c3.5,0,7.1-0.1,10.7-0.2c3.6-0.1,7.1-0.2,10.7-0.4l10.7-0.5l10.7-0.7
						c28.5-1.9,57-5.2,85.3-9.6c28.3-4.5,56.3-10,84.2-16.7c13.9-3.3,27.8-6.9,41.5-10.8c13.7-3.9,27.5-8,40.9-12.7l2.6-0.9l0.8,2.6
						l0,0c3.6,11.4,7.7,22.8,12,34.1c4.3,11.3,9,22.4,13.9,33.4c9.9,22,21,43.5,33.9,63.8c6.4,10.2,13.3,20.1,20.8,29.5
						c7.4,9.4,15.5,18.4,24.2,26.6c8.8,8.2,18.3,15.5,28.6,21.4c10.3,5.9,21.5,10.3,33.2,12.4c5.8,1.1,11.7,1.5,17.7,1.4
						c5.9-0.2,12-0.6,17.9-1.3c11.9-1.4,23.7-3.7,35.1-7.3c11.4-3.6,22.3-8.6,32.6-14.7c10.3-6.1,20-13.3,29.5-20.7
						c9.5-7.4,19.1-15.1,29.3-21.7c10.3-6.7,21.3-12.3,33-16.2c11.7-3.9,23.8-6.2,36-7.2c3-0.2,6.1-0.4,9.2-0.6
						c1.5-0.1,3.1-0.1,4.6-0.1c1.5-0.1,3.2-0.1,4.8,0.2c3.2,0.5,6.3,1.5,9.1,2.8c2.9,1.3,5.6,2.7,8.3,4.3
						c5.3,3.2,10.3,6.8,15.1,10.6c4.8,3.8,9.4,7.7,14,11.8c9.1,8.1,17.7,16.6,26.2,25.3c17,17.4,33.3,35.3,49.3,53.5
						c32.1,36.3,63.4,73.4,95.3,109.8c16,18.2,32.1,36.3,48.8,53.8c8.4,8.7,16.8,17.4,25.7,25.6c8.7,8.3,17.8,16.3,27.1,24.1l7,5.7
						l7.2,5.5c2.4,1.9,4.9,3.6,7.3,5.4c1.2,0.9,2.4,1.8,3.7,2.7l3.7,2.6c10,6.8,20.3,13.1,31.1,18.4c2.7,1.4,5.5,2.6,8.2,3.8
						c1.4,0.6,2.8,1.1,4.2,1.7c1.4,0.6,2.8,1.1,4.2,1.6c5.6,2.1,11.4,3.8,17.3,5c5.9,1.2,11.8,1.9,17.8,1.9c3-0.1,5.9-0.3,8.9-0.9
						c1.5-0.3,2.9-0.6,4.3-1.1c1.4-0.4,2.8-1,4-1.6L1840.3,1063z"/>
				</g>
			</g>
			<g>
				<g>
					<path d="M1835.8,1061.1c-1.5,0.9-2.9,1.4-4.5,2c-1.5,0.5-3,0.9-4.6,1.2c-3.1,0.6-6.2,0.9-9.4,1.1c-6.3,0.1-12.5-0.6-18.6-1.9
						c-12.2-2.6-23.9-7.3-35-12.9c-11.1-5.6-21.7-12.2-31.8-19.3c-10.1-7.1-19.9-14.8-29.4-22.8c-2.4-2-4.7-4.1-7-6.1l-3.5-3.1
						c-1.2-1-2.3-2.1-3.4-3.1l-6.8-6.3l-6.7-6.4c-9-8.5-17.6-17.5-26-26.5c-16.9-18.1-33.1-36.7-49.2-55.3
						c-32.2-37.4-63.6-75.4-95.9-112.5c-16.2-18.5-32.5-36.9-49.4-54.5c-8.5-8.8-17.1-17.4-26-25.6c-4.5-4.1-9-8-13.7-11.8
						c-4.6-3.7-9.4-7.3-14.3-10.3c-1.2-0.8-2.4-1.4-3.7-2.1l-1.8-0.9c-0.6-0.3-1.2-0.6-1.8-0.9c-2.4-1.1-4.8-1.9-6.9-2.2l-0.8-0.1
						l-0.7,0l-0.7,0c-0.3,0-0.7,0-1.1,0l-4.4,0.2c-1.5,0.1-3,0.1-4.4,0.2l-4.4,0.4c-11.7,1.2-23.2,3.6-34.1,7.5
						c-1.4,0.5-2.7,1.1-4,1.6c-1.3,0.6-2.7,1-4,1.7c-2.6,1.2-5.3,2.4-7.8,3.8c-5.1,2.7-10.1,5.8-14.9,9.1c-4.8,3.4-9.6,7-14.3,10.8
						c-4.7,3.8-9.4,7.7-14.2,11.7c-9.6,7.9-19.7,15.8-30.7,22.7c-11,6.8-23,12.5-35.4,16.6c-12.4,4.1-25.2,6.8-37.9,8.3l-2.4,0.3
						l-2.4,0.2l-4.8,0.4l-2.4,0.2c-0.8,0.1-1.6,0.2-2.5,0.2l-5.1,0.2c-6.9,0-13.7-0.7-20.4-2.1c-1.7-0.4-3.4-0.7-5-1.1l-4.9-1.4
						l-4.8-1.6c-1.6-0.6-3.2-1.2-4.7-1.8c-6.3-2.6-12.2-5.7-17.9-9.1c-11.3-7-21.6-15.4-30.8-24.4c-4.7-4.5-9-9.3-13.3-14.1
						c-4.2-4.8-8.2-9.8-12.1-14.9c-7.7-10.2-14.8-20.7-21.5-31.5c-13.2-21.6-24.6-44.1-34.8-67c-5.1-11.5-9.9-23.1-14.3-34.8
						c-2.2-5.9-4.4-11.7-6.5-17.7c-1-3-2.1-5.9-3.1-8.9l-1.5-4.5l-1.5-4.7l0,0l17.6,8.8c-1.9,0.7-3.6,1.2-5.4,1.8
						c-1.8,0.6-3.5,1.1-5.3,1.7c-3.5,1.1-7,2.2-10.5,3.3c-3.5,1.1-7,2.1-10.5,3.1l-5.3,1.5l-5.3,1.4l-10.5,2.9l-10.6,2.7
						c-7,1.9-14.1,3.4-21.2,5.1c-28.3,6.5-56.9,11.9-85.7,16c-28.8,4.1-57.7,7.2-86.7,8.5c-3.6,0.2-7.3,0.4-10.9,0.6l-10.9,0.2
						l-10.9,0.2l-5.4,0.1c-0.9,0-1.9,0-2.8,0l-2.9-0.1c-3.8-0.1-7.7-0.4-11.7-1c-1-0.1-2-0.4-3-0.5c-1-0.2-2-0.4-3-0.7l-3-0.9
						c-1-0.3-2-0.7-3-1.1c-4-1.6-8.1-3.9-11.5-7c-3.4-3.1-5.9-6.8-7.9-10.1c-2-3.4-3.6-6.5-5.3-9.3c-1.7-2.8-3.5-5.1-5.5-7.2
						c-1-1.1-2.2-2-3.3-2.9l-1.9-1.3c-0.6-0.5-1.3-0.8-2-1.2c-1.3-0.8-2.8-1.4-4.2-2.1c-0.7-0.3-1.5-0.6-2.2-0.9
						c-0.8-0.3-1.5-0.6-2.3-0.9c-1.6-0.5-3.1-1-4.8-1.4c-1.6-0.4-3.2-0.8-4.9-1.2l-5-0.9l-5.1-0.7c-1.7-0.3-3.5-0.4-5.2-0.6
						c-1.7-0.2-3.5-0.4-5.2-0.4l-5.2-0.3c-1.7-0.1-3.5-0.1-5.3-0.1c-14.1-0.2-28.3,0.8-42.5,2.2c-14.2,1.4-28.4,3.4-42.5,5.6
						c-28.3,4.4-56.5,10-84.6,16.1c-28.1,6.1-56,12.9-83.8,20.2l0,0l-0.4,0.1l-0.4-0.2l-31.5-18.9l1.1-0.1L62,724.4l-1.2-1.6
						l215.3-157.4l0.5-0.4l0.6,0.3l31.5,18.9l-0.8-0.1l0,0c27.6-8.4,55.3-16.1,83.2-23.3c27.9-7.1,56-13.7,84.3-19.2
						c14.2-2.7,28.4-5.2,42.8-7.2c14.4-2,28.8-3.5,43.6-3.8c1.8,0,3.7-0.1,5.5-0.1l5.6,0.1c1.9,0,3.7,0.1,5.6,0.2
						c1.9,0.1,3.7,0.2,5.6,0.4l5.6,0.6l5.6,0.8c1.9,0.3,3.7,0.8,5.6,1.1c1.9,0.4,3.8,1,5.6,1.5c0.9,0.3,1.9,0.6,2.8,0.9
						c0.9,0.3,1.9,0.6,2.8,1c1.8,0.8,3.7,1.5,5.5,2.5c0.9,0.5,1.8,0.9,2.7,1.5l2.6,1.7c1.7,1.2,3.4,2.5,4.9,4
						c3.1,2.9,5.8,6.2,7.9,9.5c2.2,3.3,4,6.5,5.7,9.3c1.8,2.8,3.5,5,5.5,6.7c2,1.7,4.3,2.9,7,3.9c5.4,1.9,12,2.4,18.7,2.4l2.5,0
						c0.8,0,1.7,0,2.6-0.1l5.3-0.3l10.7-0.6l10.7-0.6c3.5-0.2,7.1-0.6,10.6-0.9c28.4-2.2,56.6-6.3,84.6-11.3
						c28-5.1,55.8-11.3,83.3-18.7c6.9-1.9,13.7-3.7,20.5-5.7l10.2-3l10.2-3.2l5.1-1.6l5-1.7c3.4-1.1,6.7-2.2,10.1-3.4
						c3.3-1.2,6.7-2.3,10-3.5c1.6-0.6,3.3-1.2,4.9-1.8c1.6-0.6,3.3-1.2,4.8-1.8l13.1-5.2l4.5,14l0,0l1.2,4.2l1.3,4.3
						c0.9,2.9,1.8,5.7,2.8,8.6c1.9,5.7,3.9,11.5,5.9,17.1c4.1,11.4,8.5,22.7,13.1,33.8c9.3,22.3,19.8,44.1,32,64.8
						c6.1,10.3,12.5,20.4,19.5,30c3.5,4.8,7.1,9.5,10.9,14c3.8,4.5,7.7,8.9,11.8,13.1c8.1,8.4,17,15.8,26.5,22c4.8,3,9.7,5.7,14.8,8
						c1.3,0.5,2.5,1.1,3.8,1.6l3.9,1.4l3.9,1.2c1.3,0.4,2.7,0.7,4,1c5.3,1.2,10.8,1.9,16.2,2l4.1,0c0.7,0,1.4-0.1,2.2-0.1l2.2-0.1
						l4.4-0.3l2.2-0.1l2.2-0.2c11.7-1.1,23.2-3.3,34.3-6.7c11.1-3.4,21.7-8.2,31.7-14.1c10.1-6,19.6-13.1,29.2-20.7
						c4.8-3.8,9.6-7.7,14.6-11.5c5-3.8,10.1-7.6,15.5-11.2c10.7-7.1,22.5-13.2,34.8-17.4c12.4-4.2,25.3-6.6,38.1-7.6l4.8-0.4
						c1.6-0.1,3.2-0.1,4.8-0.1l4.8-0.1c0.4,0,0.8,0,1.2,0l1.6,0.1c0.5,0,1.1,0.1,1.6,0.1l1.5,0.3c4,0.7,7.5,2.1,10.6,3.6
						c0.8,0.4,1.6,0.8,2.3,1.2c0.8,0.4,1.5,0.8,2.3,1.2c1.4,0.9,2.9,1.7,4.3,2.6c5.5,3.6,10.6,7.6,15.5,11.6
						c4.9,4.1,9.5,8.3,14.1,12.7c9.1,8.7,17.7,17.6,26.1,26.8c16.8,18.3,32.9,37.1,48.7,56c31.6,37.9,62.3,76.5,93.6,114.5
						c15.7,19,31.5,37.8,47.9,56.1c8.2,9.1,16.5,18.1,25.2,26.8l6.5,6.5l6.6,6.4c1.1,1.1,2.2,2.1,3.3,3.2l3.4,3.1
						c2.3,2.1,4.5,4.2,6.8,6.2c9.2,8.1,18.7,15.8,28.6,23.1c9.9,7.2,20.2,13.9,30.9,19.7c10.8,5.7,22.1,10.6,33.9,13.3
						c5.9,1.4,12,2.2,18,2.2c3-0.1,6-0.3,9-0.8c1.5-0.3,2.9-0.6,4.4-1.1c1.4-0.4,2.9-1,4-1.7L1835.8,1061.1z"/>
				</g>
			</g>
			<g>
				<g>
					<path d="M1831.2,1059.1c-1.5,0.9-3,1.5-4.5,2c-1.5,0.5-3.1,0.9-4.7,1.2c-3.1,0.6-6.3,0.9-9.5,1c-6.4,0.1-12.7-0.8-18.9-2.3
						c-12.3-2.9-24-8.1-35.1-14.1c-11.1-6.1-21.5-13.1-31.6-20.6c-10.1-7.5-19.7-15.7-29-24.1c-18.6-16.9-36.1-35-52.6-53.9
						c-16.6-18.9-32.5-38.3-48.3-57.7c-31.6-39-62.4-78.6-94.2-117.4c-15.9-19.4-32-38.6-48.8-57.2c-8.4-9.3-17-18.4-25.9-27.2
						c-4.5-4.4-9-8.6-13.8-12.7c-4.7-4.1-9.6-8-14.7-11.4c-2.6-1.7-5.2-3.3-7.9-4.7c-2.7-1.4-5.6-2.5-8.5-3.1
						c-1.5-0.3-2.9-0.4-4.4-0.4l-4.7,0.1l-4.7,0.2l-4.7,0.4c-12.4,1.1-24.7,3.6-36.3,7.9c-5.8,2.1-11.5,4.7-16.9,7.7
						c-5.4,3-10.7,6.3-15.8,9.9c-10.2,7.2-19.6,15.4-29.3,23.4c-9.6,8-19.5,15.9-30.3,22.6c-10.7,6.7-22.3,12.1-34.3,16
						c-12.1,3.9-24.5,6.3-37.1,7.6c-3.1,0.3-6.3,0.6-9.4,0.8c-3.1,0.2-6.4,0.3-9.5,0.2c-6.4-0.2-12.7-1.1-18.9-2.7
						c-12.4-3.2-23.9-8.9-34.4-16.1c-10.5-7.2-19.9-15.7-28.5-24.9c-8.6-9.2-16.4-19.2-23.7-29.5c-7.2-10.3-13.9-21-20.1-31.9
						c-12.4-21.9-23.2-44.7-32.8-67.9c-4.8-11.6-9.3-23.4-13.5-35.2c-4.2-11.9-8.2-23.8-11.7-35.9l0,0l2.2,1.1
						c-13.6,5.2-27.3,9.7-41.1,14c-13.8,4.3-27.7,8.2-41.7,11.9c-28,7.3-56.2,13.4-84.7,18.3c-28.5,4.8-57.2,8.4-86.1,10.4
						c-14.4,1-28.8,1.6-43.4,1.7c-7.3-0.2-14.7-0.9-21.7-3.7c-3.5-1.4-6.8-3.4-9.5-6.1c-2.7-2.6-4.9-5.7-6.7-8.9
						c-1.8-3.2-3.5-6.4-5.3-9.4c-1.8-3-3.9-5.9-6.3-8.4c-4.9-5-11.2-8.4-17.9-10.7c-6.7-2.3-13.8-3.6-20.9-4.4
						c-7.1-0.8-14.3-1.2-21.5-1.1c-14.4,0.1-28.7,1.3-43,3.1c-14.3,1.8-28.5,4-42.7,6.6c-28.4,5.2-56.5,11.5-84.5,18.3
						c-28,6.9-55.9,14.4-83.5,22.6l0,0l-0.4,0.1l-0.4-0.2l-31.5-19.7l1.1-0.1l-215.3,164l-1.2-1.6l215.3-164l0.5-0.4l0.6,0.4
						l31.5,19.7l-0.8-0.1l0,0c27.7-8.2,55.6-15.8,83.6-22.8c28-6.9,56.2-13.3,84.6-18.5c14.2-2.6,28.5-4.9,42.8-6.7
						c14.3-1.8,28.8-3.1,43.3-3.2c7.3,0,14.5,0.3,21.8,1.1c7.2,0.8,14.4,2.1,21.4,4.5c3.5,1.2,6.9,2.7,10.1,4.5
						c3.2,1.9,6.2,4.1,8.8,6.8c2.6,2.7,4.8,5.7,6.7,8.8c1.9,3.1,3.5,6.4,5.3,9.4c1.8,3.1,3.8,6,6.3,8.3c2.5,2.4,5.4,4.2,8.7,5.5
						c6.5,2.6,13.7,3.3,20.7,3.5c14.3-0.1,28.8-0.7,43.1-1.8c28.7-2,57.4-5.7,85.8-10.5c28.4-4.9,56.6-11.1,84.4-18.4
						c13.9-3.7,27.8-7.6,41.5-11.9c13.7-4.3,27.4-8.9,40.8-14l1.7-0.7l0.5,1.7l0,0c3.4,12,7.4,23.9,11.5,35.7
						c4.2,11.8,8.6,23.5,13.4,35.1c9.5,23.1,20.2,45.8,32.5,67.6c6.2,10.9,12.8,21.5,19.9,31.7c7.2,10.2,14.9,20,23.4,29.2
						c8.5,9.1,17.8,17.5,28,24.5c10.2,7,21.4,12.6,33.4,15.7c6,1.6,12.1,2.4,18.3,2.7c3.1,0.1,6.1,0,9.3-0.2
						c3.1-0.2,6.2-0.5,9.3-0.8c12.4-1.3,24.7-3.7,36.5-7.5c11.8-3.8,23.2-9.1,33.7-15.6c10.6-6.5,20.4-14.3,30-22.3
						c9.6-8,19.1-16.3,29.5-23.5c5.1-3.7,10.5-7,16.1-10.1c5.6-3,11.4-5.6,17.3-7.8c11.9-4.3,24.4-6.9,37-8l4.7-0.4l4.7-0.2l4.7-0.1
						c1.6-0.1,3.4,0.1,5,0.5c3.2,0.7,6.3,1.9,9.1,3.4c2.9,1.4,5.6,3.1,8.2,4.9c5.3,3.6,10.2,7.5,15,11.6c4.8,4.1,9.4,8.4,13.9,12.8
						c9,8.8,17.6,18,26,27.3c16.8,18.7,32.9,37.9,48.8,57.4c31.7,38.9,62.6,78.5,94.1,117.5c15.8,19.5,31.7,38.9,48.2,57.7
						c16.5,18.9,33.8,37,52.4,53.8c9.3,8.4,18.9,16.5,28.9,24c10,7.5,20.4,14.5,31.3,20.5c10.9,6,22.4,11,34.5,13.9
						c6,1.4,12.2,2.3,18.4,2.2c3.1,0,6.2-0.3,9.2-0.9c1.5-0.3,3-0.7,4.4-1.2c1.4-0.5,2.9-1.1,4-1.8L1831.2,1059.1z"/>
				</g>
			</g>
			<g>
				<g>
					<path d="M1826.7,1057c-1.5,1-3,1.6-4.6,2.2c-1.6,0.5-3.1,1-4.7,1.3c-3.2,0.7-6.5,1-9.7,1c-6.5,0.1-13-0.9-19.2-2.5
						c-6.3-1.6-12.4-3.8-18.3-6.3c-5.9-2.6-11.6-5.5-17.2-8.7c-11.1-6.4-21.7-13.8-31.8-21.7c-10.1-7.9-19.7-16.4-29-25.2
						c-18.6-17.6-36-36.5-52.5-56c-16.5-19.6-32.4-39.6-48.1-59.7c-31.4-40.3-62.1-81.1-93.8-121.2c-15.8-20-31.8-39.9-48.6-59.1
						c-8.4-9.6-16.9-19.1-25.8-28.1c-4.4-4.5-9-9-13.7-13.2c-4.7-4.2-9.5-8.3-14.6-11.9c-2.5-1.8-5.2-3.5-7.8-4.9
						c-2.7-1.5-5.5-2.7-8.2-3.4c-1.4-0.3-2.8-0.5-4.1-0.5l-4.7,0.1l-4.7,0.3c-1.6,0.1-3.1,0.3-4.7,0.4c-12.5,1.1-24.9,3.8-36.5,8.3
						c-11.7,4.5-22.6,10.8-32.6,18.4c-10.1,7.5-19.6,16-29.2,24.4c-9.7,8.4-19.7,16.6-30.7,23.6c-11,7-22.8,12.7-35.2,16.7
						c-12.4,4-25.2,6.5-38.1,7.8c-3.2,0.3-6.4,0.6-9.7,0.8c-3.3,0.2-6.6,0.2-10,0c-6.6-0.4-13.2-1.6-19.5-3.5
						c-12.7-3.8-24.4-10.3-34.9-18.1c-10.5-7.8-19.8-17-28.4-26.7c-8.5-9.8-16.3-20.2-23.4-30.9c-7.1-10.7-13.7-21.8-19.9-33.1
						c-12.3-22.6-22.9-46.1-32.3-69.9c-4.7-11.9-9.2-24-13.3-36.1c-4.1-12.2-8.1-24.3-11.5-36.8l0,0l5.5,2.7
						c-6.9,2.8-13.7,5.2-20.5,7.7c-6.9,2.4-13.8,4.8-20.7,7c-13.8,4.5-27.8,8.6-41.8,12.4c-28.1,7.6-56.5,14-85.1,19.1
						c-28.6,5-57.5,8.7-86.5,10.7c-3.6,0.2-7.3,0.5-10.9,0.7l-10.9,0.5c-3.6,0.2-7.3,0.2-10.9,0.3l-5.5,0.1c-1.8,0-3.7,0-5.6,0
						c-3.7-0.1-7.4-0.4-11.2-1c-3.7-0.6-7.5-1.6-11-3.2c-3.6-1.6-6.9-3.8-9.7-6.7c-2.8-2.8-4.8-6.1-6.6-9.4
						c-1.8-3.3-3.4-6.5-5.1-9.6c-1.7-3-3.7-5.9-6-8.4c-4.6-5.1-10.6-8.6-17.2-11c-6.6-2.4-13.6-3.8-20.6-4.7
						c-7.1-0.9-14.2-1.3-21.4-1.3c-14.4,0-28.7,1.3-43.1,3c-14.3,1.8-28.6,4.1-42.8,6.7c-28.4,5.3-56.7,11.8-84.7,18.8
						c-28.1,7.1-56,14.8-83.7,23.3l0,0l-0.5,0.1l-0.4-0.3l-31.5-20.5l1.2-0.1L53,692l-1.2-1.6l215.3-170.8l0.6-0.4l0.6,0.4
						l31.5,20.5l-0.8-0.1l0,0c27.7-8.7,55.5-16.6,83.6-24c28-7.3,56.3-14.1,84.8-19.6c14.2-2.8,28.6-5.2,43-7.1
						c14.4-1.9,28.9-3.3,43.5-3.4c7.3,0,14.7,0.3,22,1.2c7.3,0.9,14.6,2.2,21.7,4.8c3.5,1.3,7,2.8,10.2,4.9c3.2,2,6.3,4.4,8.9,7.3
						c2.6,2.8,4.8,6,6.7,9.2c1.9,3.2,3.5,6.5,5.2,9.6c1.7,3.1,3.6,5.9,5.9,8.3c2.3,2.4,5.1,4.2,8.1,5.5c6.2,2.7,13.2,3.4,20.3,3.6
						c1.8,0,3.5,0,5.3,0l5.4-0.2c3.6-0.1,7.2-0.2,10.8-0.4l10.8-0.6c3.6-0.2,7.2-0.5,10.8-0.8c28.8-2.2,57.4-6.2,85.8-11.4
						c28.4-5.3,56.5-11.9,84.3-19.7c13.9-3.9,27.7-8.1,41.4-12.7c6.8-2.3,13.7-4.6,20.4-7.1c6.8-2.5,13.5-5,20.1-7.7l4.2-1.7
						l1.2,4.4l0,0c3.3,12.1,7.2,24.3,11.2,36.4c4.1,12,8.4,24,13,35.8c9.3,23.7,19.6,46.9,31.6,69.3c6,11.2,12.4,22.1,19.4,32.7
						c7,10.6,14.5,20.8,22.7,30.3c8.2,9.5,17.2,18.4,27.2,25.9c9.9,7.5,20.9,13.6,32.7,17.2c5.9,1.8,11.9,2.9,18.1,3.4
						c3.1,0.2,6.1,0.3,9.2,0.1c3.1-0.2,6.3-0.4,9.4-0.7c12.5-1.2,24.9-3.5,36.8-7.4c11.9-3.8,23.3-9.2,33.9-15.8
						c10.6-6.7,20.5-14.6,30.1-22.9c9.7-8.3,19.2-16.9,29.7-24.5c10.4-7.7,21.8-14.3,34.1-18.9c12.2-4.6,25.1-7.3,38-8.4
						c1.6-0.1,3.2-0.3,4.8-0.4l4.9-0.2l4.9-0.1c1.9,0,3.7,0.3,5.4,0.7c3.4,0.9,6.5,2.3,9.4,3.9c2.9,1.6,5.7,3.4,8.3,5.3
						c5.3,3.8,10.3,8,15,12.4c4.8,4.4,9.4,8.9,13.8,13.5c9,9.2,17.5,18.8,25.9,28.5c16.7,19.4,32.6,39.4,48.4,59.6
						c31.5,40.3,62,81.3,93.2,121.7c15.6,20.2,31.4,40.3,47.7,59.9c16.3,19.6,33.5,38.5,52,56.1c9.2,8.8,18.8,17.2,28.7,25.1
						c10,7.9,20.4,15.3,31.4,21.7c5.5,3.2,11.1,6.1,16.9,8.7c5.8,2.5,11.8,4.7,17.9,6.3c6.1,1.6,12.4,2.6,18.7,2.5
						c3.1,0,6.3-0.3,9.3-0.9c1.5-0.3,3-0.7,4.5-1.2c1.4-0.5,2.9-1.1,4.1-1.9L1826.7,1057z"/>
				</g>
			</g>
			<g>
				<path class="st1" d="M1821.6,1054c0,0-48.4,35.4-162.5-93.9c-88.5-100.3-240.2-344.2-288.7-343.5
					c-110.9,1.6-105.4,96.1-225.8,103.6S954.9,456.6,954.9,456.6S819.5,516,663.4,519.2c-65.9,1.4-19.4-51.3-102.2-56.7
					s-266.5,54.9-266.5,54.9L263.2,496l-215.4,178"/>
			</g>
			<g>
				<path class="st1" d="M1817,1051.8c0,0-48.4,36.8-162.5-97.8c-88.5-104.5-240.2-358.5-288.7-357.8
					c-110.9,1.7-105.4,99.5-225.8,107.3c-120.3,7.8-189.7-274.6-189.7-274.6S815,491.4,658.8,494.8c-65.9,1.4-19.4-53.4-102.2-59.1
					c-82.8-5.7-266.5,57.2-266.5,57.2l-31.5-22.3L43.3,656"/>
			</g>
			<g>
				<g>
					<path d="M1813.1,1050.2c-1.6,1.1-3.1,1.8-4.7,2.5c-1.6,0.6-3.3,1.1-5,1.5c-3.4,0.8-6.9,1.1-10.3,1.1
						c-6.9-0.1-13.8-1.4-20.3-3.4c-6.6-2-12.9-4.8-18.9-7.9c-6.1-3.1-11.9-6.7-17.6-10.5c-11.3-7.6-21.9-16.2-32-25.4
						c-10.1-9.1-19.7-18.8-28.9-28.8c-9.2-10-18.1-20.3-26.7-30.8c-8.6-10.5-16.9-21.3-25-32.2c-16.2-21.8-31.8-44-47.2-66.3
						c-30.9-44.6-61-89.7-92-134.1c-15.5-22.2-31.3-44.2-47.7-65.7c-8.2-10.7-16.6-21.3-25.4-31.5c-8.8-10.2-17.9-20.1-27.9-28.7
						c-2.5-2.1-5.1-4.1-7.8-5.9c-2.7-1.8-5.4-3.4-8.2-4.5c-1.4-0.5-2.8-0.9-4.1-1.1l-1-0.1c-0.3,0-0.6,0-1,0l-2.5,0.1l-2.5,0.1
						l-2.5,0.2c-1.7,0.1-3.3,0.2-4.9,0.4c-6.6,0.6-13.1,1.7-19.5,3.3c-6.4,1.6-12.6,3.7-18.6,6.3c-12,5.2-23,12.6-33.2,21.2
						c-10.2,8.5-19.6,18.2-29.5,27.6c-9.8,9.4-20.2,18.7-31.7,26.5c-11.5,7.8-24.2,14.1-37.5,18.5c-13.3,4.4-27.1,6.8-40.9,7.9
						c-1.7,0.2-3.5,0.3-5.3,0.3l-2.7,0l-2.7-0.1c-3.6-0.2-7.2-0.6-10.8-1.2c-7.1-1.3-14-3.6-20.5-6.6c-13-6-24.3-14.7-34.4-24.3
						c-10.1-9.7-18.9-20.4-27-31.6c-16.1-22.4-29.1-46.7-40.7-71.4c-11.5-24.8-21.5-50.2-30.5-76c-4.5-12.9-8.7-25.9-12.6-38.9
						c-2-6.5-3.9-13.1-5.7-19.6c-1.8-6.6-3.6-13.1-5.3-19.9l0,0l8.7,4.1c-6.9,3.2-13.6,6.1-20.5,8.9c-6.9,2.8-13.7,5.5-20.7,8.1
						c-13.8,5.2-27.8,10-41.9,14.4c-28.2,8.9-56.8,16.3-85.7,22.2c-29,5.8-58.2,10.1-87.7,12.3c-3.7,0.2-7.4,0.6-11,0.8l-11.1,0.6
						c-3.7,0.1-7.4,0.2-11.1,0.3c-1.9,0-3.7,0.1-5.6,0.1c-1.9,0-3.8,0-5.7-0.1c-3.8-0.2-7.7-0.6-11.5-1.5c-1.9-0.4-3.9-1-5.7-1.7
						c-1.9-0.7-3.8-1.5-5.6-2.5c-3.6-2-6.8-4.8-9.3-8c-2.5-3.2-4.4-6.7-6.1-10.1c-3.2-6.8-5.8-13.4-10-18.8
						c-4-5.5-9.5-9.6-15.8-12.5c-6.3-2.9-13.2-4.7-20.3-5.8c-7.1-1.1-14.3-1.7-21.5-1.8c-7.2-0.1-14.5,0.2-21.7,0.8
						c-7.3,0.6-14.5,1.4-21.7,2.4c-14.5,2-28.9,4.6-43.2,7.5c-28.7,5.9-57.1,13.2-85.3,21.2c-28.2,8-56.2,16.7-84,26.2l0,0l-0.5,0.2
						l-0.4-0.3l-31.5-23.2l1.3-0.1L39.5,638l-1.3-1.5l215.4-193.1l0.6-0.5l0.7,0.5l31.5,23.2l-0.9-0.1l0,0
						c27.7-9.9,55.6-19,83.7-27.4c28.1-8.4,56.5-16.1,85.2-22.5c14.4-3.2,28.8-6,43.4-8.2c7.3-1.1,14.6-2,22-2.7
						c7.4-0.7,14.8-1.1,22.2-1.1c7.5,0,14.9,0.5,22.4,1.5c7.4,1.1,14.9,2.9,22,6c3.5,1.6,7,3.5,10.1,5.9c3.1,2.4,6,5.2,8.4,8.4
						c4.9,6.3,7.8,13.5,10.9,19.8c1.6,3.2,3.3,6.2,5.3,8.7c2.1,2.5,4.5,4.6,7.3,6.1c5.7,3.1,12.6,4.2,19.6,4.4
						c1.8,0.1,3.5,0.1,5.3,0c1.8,0,3.6-0.1,5.4-0.2c3.6-0.2,7.3-0.3,10.9-0.5l10.9-0.7c3.6-0.2,7.3-0.6,10.9-0.9
						c29-2.6,57.9-7.3,86.4-13.5c28.5-6.2,56.6-14,84.3-23.2c13.8-4.6,27.6-9.5,41.1-14.8c6.8-2.6,13.5-5.4,20.2-8.2
						c3.3-1.4,6.7-2.9,10-4.4c3.3-1.5,6.6-3,9.8-4.5l6.8-3.3l1.9,7.5l0,0c1.5,6.4,3.2,13,5,19.5c1.8,6.5,3.6,13,5.5,19.4
						c3.8,12.9,7.8,25.8,12.2,38.5c8.6,25.5,18.3,50.7,29.5,75.1c11.2,24.4,23.8,48.2,39.1,70c7.7,10.9,16.1,21.2,25.5,30.4
						c9.4,9.2,19.9,17.2,31.5,22.7c5.8,2.7,11.9,4.8,18.1,6c3.1,0.6,6.3,1,9.4,1.1l2.4,0.1l2.4,0c1.6-0.1,3.2-0.1,4.8-0.3
						c13.2-1,26.3-3.2,38.8-7.2c12.5-4,24.4-9.8,35.4-17.1c11-7.3,21-16.1,30.8-25.3c9.8-9.2,19.4-18.9,30.1-27.7
						c10.6-8.8,22.4-16.7,35.3-22.1c6.4-2.7,13.1-4.9,19.9-6.6c6.8-1.6,13.7-2.7,20.6-3.3c1.7-0.2,3.5-0.3,5.2-0.4l2.6-0.1l2.6-0.1
						l2.6-0.1c0.4,0,1,0,1.6,0c0.5,0,1,0.1,1.6,0.2c2,0.3,3.9,0.9,5.7,1.6c3.5,1.4,6.7,3.3,9.6,5.3c2.9,2,5.7,4.2,8.3,6.5
						c5.3,4.5,10.2,9.4,14.9,14.4c4.7,5,9.2,10.1,13.6,15.3c8.8,10.4,17.2,21.1,25.4,32c16.4,21.7,32,43.9,47.4,66.3
						c30.7,44.7,60.5,90,91,134.8c15.2,22.4,30.6,44.7,46.6,66.5c8,10.9,16.2,21.7,24.6,32.2c8.5,10.5,17.2,20.8,26.3,30.8
						c9.1,10,18.5,19.7,28.5,28.8c9.9,9.1,20.4,17.8,31.5,25.4c5.6,3.8,11.3,7.3,17.2,10.5c6,3.1,12.1,5.8,18.5,7.9
						c6.4,2,13,3.4,19.6,3.5c3.3,0,6.6-0.2,9.9-0.9c1.6-0.4,3.2-0.8,4.7-1.4c1.5-0.6,3.1-1.3,4.2-2.2L1813.1,1050.2z"/>
				</g>
			</g>
			<g>
				<g>
					<path d="M1808.6,1047.8c-1.6,1.2-3.1,1.9-4.8,2.6c-1.7,0.7-3.4,1.2-5.1,1.6c-3.5,0.8-7,1.1-10.6,1c-7.1-0.1-14-1.6-20.6-3.8
						c-6.6-2.2-13-5.2-19.1-8.5c-6.1-3.4-12-7.1-17.6-11.2c-11.3-8.1-21.9-17.2-31.9-26.8c-5-4.8-9.9-9.7-14.7-14.8
						c-4.8-5-9.4-10.2-14-15.4c-9.1-10.4-18-21.1-26.5-32.1c-8.5-10.9-16.7-22.1-24.7-33.4c-16-22.6-31.4-45.6-46.7-68.7
						c-30.5-46.2-60.3-92.9-91-139c-15.4-23-31-45.9-47.3-68.2c-8.2-11.2-16.5-22.2-25.2-32.9c-4.4-5.3-8.8-10.6-13.5-15.7
						c-4.6-5.1-9.4-10-14.5-14.6c-2.5-2.3-5.2-4.5-7.9-6.5c-2.7-2-5.6-3.8-8.6-5.2c-1.5-0.7-3-1.2-4.6-1.5c-0.8-0.2-1.5-0.3-2.3-0.3
						l-0.6,0l-0.6,0l-1.3,0c-1.7,0.1-3.4,0.1-5.1,0.2c-1.7,0.1-3.4,0.2-5.1,0.4c-6.8,0.6-13.6,1.7-20.2,3.4
						c-6.6,1.7-13.1,3.9-19.3,6.7c-12.5,5.6-23.8,13.5-34.1,22.5c-10.4,9-19.9,19-29.8,28.8c-9.9,9.7-20.2,19.2-31.8,27.1
						c-5.8,4-11.8,7.6-18.1,10.7c-6.3,3.1-12.8,5.7-19.5,7.9c-13.3,4.3-27.2,6.7-41.2,7.7c-7.1,0.5-14.3-0.2-21.2-1.8
						c-6.9-1.6-13.6-4.2-19.8-7.5c-12.5-6.6-23.4-15.8-33-25.9c-9.7-10.1-18.2-21.3-25.9-32.8c-7.7-11.6-14.8-23.6-21.2-35.9
						c-6.5-12.3-12.5-24.8-18-37.6c-11.2-25.4-20.8-51.5-29.5-77.8c-4.3-13.2-8.4-26.4-12.2-39.8c-3.8-13.3-7.4-26.7-10.6-40.3l0,0
						l3.2,1.5c-6.7,3.3-13.4,6.4-20.2,9.3c-6.8,3-13.6,5.8-20.5,8.6c-13.7,5.5-27.6,10.6-41.6,15.3c-28,9.5-56.5,17.4-85.4,23.8
						c-28.9,6.2-58.1,11-87.6,13.4c-7.4,0.7-14.7,1.1-22.1,1.5l-11.1,0.4c-3.7,0.1-7.4,0.2-11.2,0c-3.8-0.2-7.5-0.6-11.2-1.5
						c-3.7-0.9-7.4-2.2-10.7-4.3c-3.3-2-6.2-4.7-8.6-7.8c-2.3-3.1-4.1-6.5-5.7-9.9c-3.1-6.8-5.7-13.6-9.9-19.4
						c-4.1-5.8-9.7-10.5-16.2-13.6c-6.4-3.2-13.5-5.1-20.7-6.3c-3.6-0.6-7.2-1.1-10.8-1.4c-1.8-0.2-3.6-0.2-5.5-0.4
						c-1.8,0-3.6-0.2-5.5-0.1c-14.6-0.1-29.3,1.4-43.8,3.5c-14.5,2.1-29,4.9-43.4,8.1c-28.8,6.4-57.2,14.1-85.4,22.6
						c-28.2,8.5-56.2,17.7-83.9,27.8l0,0l-0.5,0.2l-0.4-0.3l-31.5-24.2l1.3-0.1L35,618.5l-1.4-1.5L249,415.9l0.6-0.6l0.7,0.5
						l31.5,24.2l-1-0.1l0,0c27.7-10.2,55.7-19.5,83.9-28.1c28.2-8.6,56.7-16.5,85.5-23c14.4-3.2,28.9-6.1,43.5-8.3
						c14.6-2.1,29.4-3.8,44.3-3.7c1.9,0,3.7,0.1,5.6,0.1c1.9,0.1,3.7,0.2,5.6,0.4c3.7,0.3,7.4,0.7,11.1,1.3
						c7.4,1.2,14.7,3.1,21.5,6.5c6.8,3.3,13,8.3,17.4,14.5c4.5,6.2,7.2,13.3,10.3,19.9c1.6,3.3,3.2,6.5,5.4,9.3
						c2.1,2.8,4.7,5.2,7.7,7c3,1.8,6.3,3,9.8,3.8c3.5,0.8,7,1.2,10.7,1.4c3.6,0.2,7.2,0.1,10.9-0.1l11-0.4c7.3-0.5,14.7-0.9,22-1.6
						c29.3-2.6,58.4-7.4,87.1-13.7c28.7-6.4,57-14.5,84.9-24c13.9-4.8,27.7-9.9,41.3-15.4c6.8-2.7,13.6-5.6,20.3-8.6
						c6.7-3,13.4-6,19.9-9.3l2.6-1.3l0.6,2.8l0,0c3.1,13.4,6.7,26.8,10.5,40.1c3.8,13.3,7.8,26.5,12.1,39.6
						c8.6,26.3,18.2,52.2,29.2,77.5c5.5,12.6,11.4,25.1,17.8,37.3c6.4,12.2,13.3,24.1,21,35.6c7.6,11.4,16,22.4,25.4,32.3
						c9.4,9.9,20,18.8,32,25.2c6,3.2,12.3,5.7,18.9,7.2c6.6,1.6,13.3,2.2,20.1,1.7c13.7-0.9,27.3-3.2,40.3-7.4
						c6.5-2.1,12.8-4.7,19-7.7c6.1-3,12-6.5,17.7-10.4c11.3-7.7,21.5-17,31.4-26.7c9.9-9.7,19.5-19.7,30-28.9
						c10.5-9.1,22.1-17.3,35-23c6.4-2.9,13.1-5.1,19.9-6.9c6.8-1.7,13.8-2.8,20.7-3.4c1.7-0.2,3.5-0.3,5.2-0.4
						c1.7-0.1,3.5-0.2,5.2-0.2l1.3,0l0.7,0l0.7,0c1,0,1.9,0.2,2.8,0.3c1.9,0.4,3.6,1,5.3,1.8c3.3,1.5,6.3,3.4,9.2,5.5
						c2.9,2.1,5.5,4.4,8.1,6.7c5.2,4.7,10,9.7,14.7,14.9c4.7,5.2,9.1,10.5,13.5,15.9c8.8,10.8,17.1,21.9,25.3,33.1
						c16.3,22.4,31.9,45.4,47.2,68.4c30.6,46.1,60.3,92.9,90.7,139.2c15.2,23.1,30.6,46.2,46.5,68.8c8,11.3,16.1,22.5,24.6,33.4
						c8.5,10.9,17.2,21.6,26.3,32c4.6,5.2,9.2,10.3,13.9,15.3c4.8,5,9.6,9.9,14.6,14.7c10,9.6,20.4,18.6,31.6,26.6
						c5.6,4,11.4,7.8,17.4,11.1c6,3.3,12.3,6.2,18.7,8.4c6.5,2.2,13.2,3.7,20,3.8c3.4,0.1,6.8-0.2,10.1-1c1.6-0.4,3.3-0.9,4.8-1.5
						c1.5-0.6,3.1-1.4,4.3-2.3L1808.6,1047.8z"/>
				</g>
			</g>
			<g>
				<path class="st1" d="M1803.4,1044.5c0,0-48.4,41.6-162.4-110.5c-88.5-118.1-240.1-405.1-288.6-404.3
					c-110.9,1.9-105.5,110.5-225.8,119.4S936.9,338.6,936.9,338.6s-135.4,72.7-291.6,76.5c-65.9,1.6-19.4-60.3-102.2-66.8
					c-82.8-6.4-266.5,64.7-266.5,64.7l-31.5-25.2L29.8,597.5"/>
			</g>
			<g>
				<g>
					<path d="M1799.5,1042.6c-1.6,1.3-3.2,2.1-4.9,2.9c-1.7,0.8-3.5,1.3-5.3,1.8c-3.6,0.9-7.4,1.2-11.1,1.1
						c-7.4-0.2-14.6-2.1-21.5-4.7c-13.7-5.3-26-13.4-37.4-22.4c-11.4-9-22-19.1-32-29.6c-5-5.2-9.9-10.6-14.7-16.1
						c-4.8-5.5-9.4-11-14-16.7c-9.1-11.3-17.8-22.9-26.3-34.7c-8.4-11.8-16.5-23.8-24.5-35.9c-15.9-24.2-31.2-48.9-46.3-73.6
						c-30.2-49.4-59.7-99.2-90.1-148.4c-15.2-24.6-30.7-49-46.8-73c-8.1-12-16.3-23.8-25-35.3c-8.7-11.5-17.6-22.8-27.6-32.8
						c-2.5-2.5-5.1-4.9-7.7-7.1c-2.7-2.2-5.4-4.3-8.3-5.9c-2.8-1.6-5.8-2.7-8.3-2.7l-5.3,0.2c-1.8,0.1-3.5,0.2-5.3,0.4
						c-7,0.7-13.9,1.9-20.7,3.6c-6.7,1.8-13.3,4.3-19.6,7.3c-12.6,6.1-23.8,14.8-34.1,24.6c-10.3,9.8-19.8,20.6-29.8,31.2
						c-10,10.6-20.7,20.9-32.8,29.7c-12,8.8-25.6,15.7-39.8,20.3c-7.1,2.3-14.4,4.1-21.7,5.3l-5.5,0.9l-5.5,0.7l-5.5,0.5l-2.9,0.2
						l-2.9,0c-7.8,0-15.6-1.5-22.9-4c-7.3-2.5-14.1-6.1-20.5-10.3c-6.3-4.2-12.1-9-17.6-14.2c-5.4-5.2-10.4-10.7-15.1-16.4
						c-9.4-11.5-17.6-23.7-25.1-36.3c-15-25.3-27.2-51.9-38-78.9c-10.8-27.1-20.2-54.6-28.7-82.5c-4.2-13.9-8.2-27.9-11.9-42
						c-3.7-14.1-7.2-28.1-10.4-42.5l0,0l9.3,4.2c-3.5,1.9-6.8,3.6-10.1,5.3c-3.4,1.7-6.8,3.3-10.2,5c-6.8,3.2-13.6,6.3-20.5,9.3
						c-13.8,6-27.7,11.6-41.8,16.7c-28.2,10.3-57,19.1-86.2,26c-29.2,6.8-58.9,11.9-88.8,14.5c-7.5,0.7-15,1.1-22.5,1.5l-11.3,0.4
						c-3.7,0.2-7.7,0.2-11.6-0.1c-3.9-0.3-7.9-0.9-11.8-2c-2-0.6-3.9-1.3-5.8-2.2c-1.9-0.9-3.7-1.9-5.4-3.2
						c-1.7-1.2-3.3-2.6-4.7-4.2c-1.4-1.5-2.7-3.2-3.8-4.9c-2.2-3.4-3.9-7-5.4-10.5c-2.9-7-5.3-13.9-9-19.8
						c-3.6-6-8.6-10.9-14.6-14.4c-6-3.5-12.9-5.7-20-7.2c-7.1-1.4-14.4-2.2-21.7-2.4c-14.6-0.3-29.4,1.2-44,3.4
						c-14.6,2.2-29.2,5.2-43.7,8.5c-28.9,6.8-57.5,15.1-85.9,24.2c-28.3,9.1-56.5,19-84.2,29.7l0,0l-0.6,0.2l-0.5-0.4L240,358.8
						l1.4-0.1L26,577.1l-1.4-1.4L240,357.3l0.6-0.7l0.7,0.6l31.5,26.2l-1-0.2l0,0c27.7-11.2,55.7-21.5,83.9-31
						c28.3-9.5,56.8-18.3,85.8-25.5c14.5-3.6,29.1-6.8,43.9-9.2c14.8-2.4,29.8-4.2,45-4.1c7.6,0.1,15.2,0.8,22.8,2.2
						c7.5,1.5,15.1,3.7,22,7.6c3.4,2,6.7,4.3,9.6,7.1c1.5,1.4,2.8,2.9,4.1,4.4c1.3,1.5,2.4,3.2,3.5,4.9c4.3,6.7,6.9,14,9.8,20.6
						c2.9,6.7,6.3,12.7,11.7,16.3c5.3,3.7,12.1,5.3,19.2,5.7c3.5,0.2,7,0.2,10.8-0.1l11.1-0.5c7.4-0.6,14.8-1,22.1-1.9
						c29.4-3,58.6-8.5,87.3-15.6c28.7-7.3,56.9-16.3,84.5-26.9c13.8-5.3,27.5-11,40.9-17.1c6.7-3,13.4-6.2,20-9.5
						c3.3-1.6,6.6-3.3,9.9-5c3.2-1.7,6.5-3.4,9.6-5.2l7.5-4.2l1.9,8.5l0,0c2.9,13.9,6.3,28,9.9,41.9c3.6,13.9,7.4,27.8,11.5,41.6
						c8.2,27.6,17.3,55,27.7,81.7c10.5,26.7,22.3,53,36.7,77.7c7.2,12.3,15.1,24.2,24,35.2c8.9,10.9,18.8,21.1,30.2,28.8
						c5.7,3.9,11.8,7.1,18.1,9.3c6.4,2.3,13,3.5,19.7,3.6l2.5,0l2.5-0.1l5.3-0.5l5.2-0.6l5.2-0.8c6.9-1.1,13.8-2.7,20.4-4.9
						c13.4-4.2,26-10.5,37.4-18.7c11.5-8.1,21.8-18,31.7-28.3c10-10.3,19.6-21.2,30.4-31.3c5.4-5,11-9.8,17.1-14.2
						c3-2.2,6.1-4.2,9.3-6.2c3.2-1.9,6.5-3.7,9.9-5.3c6.8-3.3,13.8-5.8,21.1-7.7c7.2-1.9,14.6-3.1,22-3.7c1.9-0.2,3.7-0.2,5.6-0.4
						l5.6-0.2c2.4,0,4.6,0.5,6.6,1.2c2,0.7,3.8,1.6,5.6,2.6c3.4,2,6.5,4.3,9.3,6.8c2.9,2.4,5.6,5,8.1,7.7
						c10.3,10.6,19.3,22.1,28,33.8c8.6,11.7,16.9,23.7,24.9,35.8c16,24.2,31.3,48.8,46.4,73.6c30.1,49.5,59.2,99.6,89,149.2
						c14.9,24.8,30,49.5,45.6,73.8c7.8,12.1,15.8,24.2,24.1,36c8.3,11.8,16.9,23.4,25.9,34.7c4.5,5.7,9.1,11.2,13.8,16.7
						c4.7,5.5,9.5,10.9,14.4,16.1c9.9,10.5,20.3,20.5,31.5,29.5c11.2,9,23.3,17.1,36.6,22.3c6.6,2.6,13.6,4.4,20.7,4.7
						c3.5,0.2,7.1-0.1,10.5-0.9c1.7-0.4,3.4-0.9,5-1.6c1.6-0.7,3.2-1.5,4.4-2.5L1799.5,1042.6z"/>
				</g>
			</g>
			<g>
				<path class="st1" d="M1794.3,1039.1c0,0-48.4,45.2-162.4-119.9c-88.5-128.1-240.1-439.6-288.5-438.7
					c-110.9,2.1-105.5,118.6-225.8,128.3C997.2,618.4,928,272,928,272s-135.4,80.1-291.6,84.3c-65.9,1.8-19.4-65.5-102.2-72.4
					s-266.5,70.3-266.5,70.3l-31.5-27.3L20.7,554.3"/>
			</g>
			<g>
				<g>
					<path d="M1790.5,1036.9c-1.6,1.4-3.3,2.4-5.1,3.3c-1.8,0.9-3.7,1.5-5.6,2c-3.9,1-7.9,1.2-11.8,1c-7.9-0.5-15.5-2.8-22.6-6
						c-14.3-6.4-26.8-15.8-38.4-26c-11.6-10.3-22.3-21.5-32.4-33.2c-10.1-11.7-19.6-23.9-28.8-36.3c-9.1-12.5-17.9-25.1-26.3-38.1
						c-8.4-12.9-16.5-26-24.5-39.2c-15.9-26.4-31.2-53.1-46.4-79.9c-30.3-53.6-59.9-107.6-90.6-160.9
						c-15.3-26.6-30.9-53.1-47.3-79.1c-8.2-12.9-16.6-25.8-25.4-38.2c-4.4-6.2-9-12.3-13.7-18.2c-4.7-5.9-9.6-11.6-14.9-16.7
						c-2.6-2.6-5.3-4.9-8.1-6.9c-2.7-2-5.7-3.6-8-4c-0.3-0.1-0.5-0.1-0.8-0.1c-0.1,0-0.2,0-0.4,0l-0.2,0c0,0-0.1,0-0.3,0l-2.8,0.1
						c-1.8,0.1-3.7,0.2-5.5,0.4c-1.8,0.1-3.7,0.4-5.5,0.6c-1.8,0.3-3.6,0.5-5.4,0.8c-14.4,2.5-28.1,8-40.2,16.2
						c-12.1,8.1-22.7,18.7-32.8,30c-10.1,11.3-19.8,23.4-30.6,34.8c-10.8,11.4-22.8,22.2-36.7,30.7c-13.8,8.5-29.2,14.6-45,17.9
						c-2,0.4-3.9,0.8-5.9,1.2c-2,0.4-4,0.7-6,0.9l-3,0.4l-3,0.3l-3,0.3c-1.1,0.1-2.2,0.2-3.3,0.2c-8.7,0.3-17.5-1.2-25.5-4.1
						c-8-2.9-15.4-7-22.2-11.8c-6.7-4.8-12.9-10.1-18.6-15.8c-11.4-11.4-21.1-24-29.9-37.1c-8.8-13.1-16.7-26.6-24.1-40.4
						c-14.7-27.6-27.2-56.1-38.5-85c-11.3-28.9-21.5-58.2-30.8-87.7c-4.7-14.8-9.1-29.6-13.3-44.5c-2.1-7.4-4.2-14.9-6.2-22.4
						c-2-7.5-3.9-14.9-5.8-22.6l0,0l16.6,5.5l-2.4,1.9l-2.3,1.8c-1.5,1.2-3.1,2.3-4.6,3.4c-3.1,2.3-6.2,4.5-9.3,6.6
						c-6.3,4.3-12.6,8.5-19,12.5c-12.9,8-26,15.5-39.5,22.4c-26.9,13.8-55,25.3-83.9,34.2c-28.9,8.9-58.7,15-88.8,17.7
						c-7.5,0.7-15.1,1.1-22.6,1.4c-3.8,0.1-7.5,0.3-11.5,0.2c-4-0.1-8.1-0.5-12.2-1.4c-4.1-0.8-8.3-2.3-12.1-4.5
						c-3.9-2.2-7.4-5.2-10.1-8.6c-2.8-3.4-4.8-7.1-6.4-10.8c-1.6-3.7-3-7.3-4.2-10.8c-2.5-7-5-13.5-8.7-19.1
						c-1.8-2.8-3.9-5.3-6.3-7.6c-2.4-2.2-5.1-4.2-8-5.9c-5.9-3.3-12.6-5.5-19.5-6.9c-3.5-0.7-7-1.2-10.6-1.6
						c-3.6-0.3-7.1-0.6-10.7-0.6c-7.2-0.1-14.5,0.3-21.8,1c-7.3,0.7-14.6,1.7-21.8,2.9c-14.5,2.4-29,5.6-43.3,9.1
						c-28.7,7.2-57.1,16.1-85.1,25.7c-28.1,9.7-55.9,20.1-83.3,31.5l0,0l-0.6,0.3l-0.5-0.4L231,295.2l1.4-0.1L17,532.1l-1.5-1.3
						l215.5-237l0.7-0.7l0.7,0.7l31.5,28.4l-1.1-0.2l0,0c27.2-12.1,54.8-23.3,82.7-33.7c27.9-10.4,56.1-20,84.9-28
						c14.4-4,28.9-7.6,43.7-10.4c7.4-1.4,14.8-2.6,22.3-3.5c7.5-0.9,15.1-1.5,22.7-1.6c3.8-0.1,7.7,0.1,11.5,0.4
						c3.8,0.3,7.7,0.8,11.5,1.4c7.6,1.3,15.4,3.6,22.6,7.4c3.6,1.9,7,4.3,10.1,7c3.1,2.8,5.8,5.9,8.1,9.3
						c4.7,6.8,7.6,14.2,10.3,21.1c2.7,6.9,5.3,13.5,9.3,18.1c2,2.4,4.3,4.2,6.9,5.6c2.6,1.4,5.6,2.4,8.8,2.9c3.2,0.6,6.5,0.8,10,0.8
						c3.4,0,7.1-0.3,10.7-0.4c7.3-0.5,14.6-1.1,21.8-2c29-3.5,57.7-10.1,85.4-19.5c27.7-9.3,54.5-21.3,80.2-35.3
						c12.8-7,25.4-14.5,37.5-22.6c6.1-4,12.1-8.2,17.9-12.5c2.9-2.1,5.8-4.3,8.7-6.5c1.4-1.1,2.8-2.2,4.2-3.3l2.1-1.7l1.9-1.6
						l12.6-10.6l4,16.1l0,0c1.7,7.3,3.5,14.8,5.4,22.2c1.9,7.4,3.8,14.8,5.8,22.2c4,14.8,8.2,29.5,12.6,44.1
						c8.8,29.3,18.5,58.3,29.3,86.9c10.8,28.5,22.7,56.7,36.6,83.6c7,13.5,14.4,26.6,22.7,39.2c8.3,12.5,17.3,24.5,27.5,35
						c5.1,5.2,10.6,10.1,16.3,14.3c5.8,4.2,11.9,7.7,18.4,10.1c6.4,2.4,13.1,3.6,19.8,3.5l2.5-0.1l2.7-0.2l2.8-0.3l2.7-0.3
						c1.8-0.2,3.6-0.5,5.4-0.8c1.8-0.3,3.6-0.6,5.4-1c7.2-1.4,14.2-3.4,21-6c6.8-2.6,13.4-5.8,19.6-9.5c12.5-7.5,23.8-17.2,34.2-28
						c10.5-10.8,20.2-22.6,30.8-34.1c10.5-11.5,22-22.8,35.6-31.6c6.8-4.4,14-8.2,21.6-11.1c7.6-3,15.5-5,23.4-6.4
						c2-0.3,4-0.6,6-0.9c2-0.2,4-0.5,6-0.6c2-0.1,4-0.3,6-0.3l3-0.1c0.1,0,0.3,0,0.5,0l0.5,0c0.4,0,0.7,0,1.1,0.1
						c0.7,0.1,1.4,0.2,2,0.3c2.6,0.6,4.9,1.5,6.9,2.6c2,1.1,3.9,2.3,5.6,3.5c3.4,2.5,6.5,5.3,9.3,8.2c5.7,5.7,10.8,11.8,15.6,17.9
						c4.8,6.2,9.4,12.5,13.8,18.9c8.9,12.8,17.2,25.8,25.3,39c16.2,26.3,31.5,53.1,46.5,80c30,53.8,59,108.2,88.6,162.1
						c14.8,27,29.8,53.8,45.3,80.4c7.8,13.3,15.7,26.4,23.9,39.4c8.2,12.9,16.8,25.7,25.7,38.2c8.9,12.5,18.3,24.7,28.1,36.4
						c9.9,11.7,20.3,23,31.6,33.3c11.3,10.2,23.6,19.6,37.4,26c6.9,3.2,14.2,5.5,21.7,6c3.7,0.3,7.5,0.1,11.1-0.8
						c1.8-0.4,3.6-1,5.3-1.8c1.7-0.7,3.3-1.7,4.6-2.8L1790.5,1036.9z"/>
				</g>
			</g>
		</g>
	</g>
	<g>
		<g>
			<path class="st1" d="M2209,2463.8c0,0-53.1,3-178.7-7.8c-97.5-8.4-264.7-28.8-317.9-28.7c-121.9,0.1-102,6.8-234.2,7.4
				c-132.2,0.6-209-22-209-22s-162.4,6.2-334,6.5c-72.4,0.1-21.4-4.3-112.4-4.7s-292.7,4.6-292.7,4.6l-34.7-1.8L259,2432.3"/>
		</g>
		<g>
			<path class="st1" d="M2204,2463.6c0,0-53.1,3.1-178.7-8.2c-97.5-8.7-264.7-30-317.9-29.9c-121.9,0.2-102,7.1-234.2,7.8
				c-132.2,0.7-209-23-209-23s-162.4,6.5-334,6.8c-72.4,0.1-21.4-4.5-112.4-4.9c-91-0.5-292.7,4.8-292.7,4.8l-34.7-1.9L254,2430.7"
				/>
		</g>
		<g>
			<path class="st1" d="M2199,2463.4c0,0-53.1,3.2-178.7-8.5c-97.5-9.1-264.7-31.2-317.9-31.1c-121.9,0.2-102,7.4-234.2,8.1
				c-132.2,0.7-209-23.9-209-23.9s-162.4,6.8-334,7.1c-72.4,0.1-21.4-4.7-112.4-5.1c-91-0.5-292.7,5-292.7,5l-34.7-1.9L249,2429.2"
				/>
		</g>
		<g>
			<path class="st1" d="M2194,2463.2c0,0-53.1,3.4-178.7-8.9c-97.5-9.5-264.7-32.5-317.9-32.4c-121.9,0.2-102,7.7-234.2,8.4
				c-132.2,0.7-209-24.9-209-24.9s-162.4,7.1-334,7.4c-72.4,0.1-21.4-4.8-112.4-5.3s-292.7,5.2-292.7,5.2l-34.7-2L244,2427.6"/>
		</g>
		<g>
			<path class="st1" d="M2189,2463c0,0-53.1,3.5-178.7-9.2c-97.5-9.9-264.7-33.9-317.9-33.8c-121.9,0.2-102,8-234.2,8.8
				s-209-25.9-209-25.9s-162.4,7.4-334,7.7c-72.4,0.1-21.4-5-112.4-5.6s-292.7,5.5-292.7,5.5l-34.7-2.1L239,2425.9"/>
		</g>
		<g>
			<path class="st1" d="M2184,2462.8c0,0-53.1,3.6-178.7-9.6c-97.5-10.3-264.7-35.3-317.9-35.2c-121.9,0.2-102,8.3-234.2,9.1
				c-132.2,0.8-209-27-209-27s-162.4,7.7-334,8c-72.4,0.2-21.4-5.3-112.4-5.8S505,2408,505,2408l-34.7-2.2L234,2424.1"/>
		</g>
		<g>
			<path class="st1" d="M2179,2462.5c0,0-53.1,3.8-178.7-10c-97.5-10.7-264.7-36.8-317.9-36.7c-121.9,0.2-102,8.7-234.2,9.5
				s-209-28.2-209-28.2s-162.4,8-334,8.4c-72.4,0.2-21.4-5.5-112.4-6c-91-0.6-292.7,5.9-292.7,5.9l-34.7-2.3L229,2422.2"/>
		</g>
		<g>
			<path class="st1" d="M2174,2462.3c0,0-53.1,3.9-178.7-10.4c-97.5-11.2-264.7-38.3-317.9-38.2c-121.9,0.2-102,9.1-234.2,9.9
				s-209-29.3-209-29.3s-162.4,8.3-334,8.7c-72.4,0.2-21.4-5.7-112.4-6.3s-292.7,6.2-292.7,6.2l-34.7-2.4L224,2420.3"/>
		</g>
		<g>
			<path class="st1" d="M2169,2462.1c0,0-53.1,4.1-178.7-10.9c-97.5-11.6-264.7-39.9-317.9-39.8c-121.9,0.2-102,9.4-234.2,10.3
				c-132.2,0.9-209-30.6-209-30.6s-162.4,8.7-334,9.1c-72.4,0.2-21.4-5.9-112.4-6.6s-292.7,6.4-292.7,6.4l-34.7-2.5L219,2418.3"/>
		</g>
		<g>
			<path class="st1" d="M2164,2461.8c0,0-53.1,4.3-178.7-11.3c-97.5-12.1-264.7-41.5-317.9-41.4c-121.9,0.2-102,9.8-234.2,10.8
				s-209-31.8-209-31.8s-162.4,9-334,9.4c-72.4,0.2-21.4-6.2-112.4-6.8s-292.7,6.7-292.7,6.7l-34.7-2.6L214,2416.2"/>
		</g>
		<g>
			<path class="st1" d="M2159,2461.5c0,0-53.1,4.5-178.7-11.8c-97.5-12.6-264.7-43.3-317.9-43.2c-121.9,0.2-102,10.2-234.2,11.2
				s-209-33.2-209-33.2s-162.4,9.4-334,9.8c-72.4,0.2-21.4-6.4-112.4-7.1c-91-0.7-292.7,7-292.7,7l-34.7-2.7L209,2414.1"/>
		</g>
		<g>
			<path class="st1" d="M2154,2461.2c0,0-53.1,4.6-178.7-12.3c-97.5-13.1-264.7-45.1-317.9-45c-121.9,0.2-102,10.7-234.2,11.7
				s-209-34.5-209-34.5s-162.4,9.8-334,10.2c-72.4,0.2-21.4-6.7-112.4-7.4s-292.7,7.3-292.7,7.3l-34.7-2.8L204,2411.8"/>
		</g>
		<g>
			<path class="st1" d="M2149,2461c0,0-53.1,4.8-178.7-12.8c-97.5-13.7-264.7-47-317.9-46.8c-121.9,0.2-102,11.1-234.2,12.2
				s-209-36-209-36s-162.4,10.2-334,10.7c-72.4,0.2-21.4-7-112.4-7.7c-91-0.7-292.7,7.6-292.7,7.6l-34.7-2.9L199,2409.5"/>
		</g>
		<g>
			<path class="st1" d="M2144,2460.6c0,0-53.1,5-178.7-13.3c-97.5-14.2-264.7-48.9-317.9-48.8c-121.9,0.3-102,11.6-234.2,12.7
				c-132.2,1.1-209-37.5-209-37.5s-162.4,10.6-334,11.1c-72.4,0.2-21.4-7.3-112.4-8s-292.7,7.9-292.7,7.9l-34.7-3L194,2407"/>
		</g>
		<g>
			<path class="st1" d="M2139,2460.3c0,0-53.1,5.3-178.7-13.9c-97.5-14.8-264.7-50.9-317.9-50.8c-121.9,0.3-102,12-234.2,13.2
				c-132.2,1.1-209-39-209-39s-162.4,11.1-334,11.6c-72.4,0.2-21.4-7.6-112.4-8.4c-91-0.8-292.7,8.2-292.7,8.2l-34.7-3.2L189,2404.5
				"/>
		</g>
		<g>
			<path class="st1" d="M2134,2460c0,0-53.1,5.5-178.7-14.5c-97.5-15.5-264.7-53.1-317.9-53c-121.9,0.3-102,12.5-234.2,13.7
				s-209-40.7-209-40.7s-162.4,11.5-334,12.1c-72.4,0.2-21.4-7.9-112.4-8.7s-292.7,8.5-292.7,8.5l-34.7-3.3L184,2401.8"/>
		</g>
		<g>
			<path class="st1" d="M2129,2459.6c0,0-53.1,5.7-178.7-15.1c-97.5-16.1-264.7-55.3-317.9-55.2c-121.9,0.3-102,13.1-234.2,14.3
				s-209-42.4-209-42.4s-162.4,12-334,12.6c-72.4,0.2-21.4-8.2-112.4-9.1s-292.7,8.9-292.7,8.9l-34.7-3.4L179,2399"/>
		</g>
		<g>
			<path class="st1" d="M2124,2459.3c0,0-53.1,5.9-178.7-15.7c-97.5-16.8-264.7-57.6-317.9-57.5c-121.9,0.3-102,13.6-234.2,14.9
				c-132.2,1.3-209-44.1-209-44.1s-162.4,12.5-334,13.1c-72.4,0.2-21.4-8.6-112.4-9.5c-91-0.9-292.7,9.3-292.7,9.3l-34.7-3.6
				L174,2396.1"/>
		</g>
		<g>
			<path class="st1" d="M2119,2458.9c0,0-53.1,6.2-178.7-16.3c-97.5-17.5-264.7-60-317.9-59.8c-121.9,0.3-102,14.2-234.2,15.5
				c-132.2,1.3-209-46-209-46s-162.4,13-334,13.6c-72.4,0.3-21.4-8.9-112.4-9.9s-292.7,9.7-292.7,9.7l-34.7-3.7L169,2393.1"/>
		</g>
		<g>
			<path class="st1" d="M2114,2458.5c0,0-53.1,6.4-178.7-17c-97.5-18.2-264.7-62.5-317.9-62.3c-121.9,0.3-102,14.8-234.2,16.2
				s-209-47.9-209-47.9s-162.4,13.6-334,14.2c-72.4,0.3-21.4-9.3-112.4-10.3S435,2361.5,435,2361.5l-34.7-3.9L164,2390"/>
		</g>
		<g>
			<path class="st1" d="M2109,2458.1c0,0-53.1,6.7-178.7-17.7c-97.5-19-264.7-65.1-317.9-64.9c-121.9,0.3-102,15.4-234.2,16.8
				s-209-49.9-209-49.9s-162.4,14.1-334,14.8c-72.4,0.3-21.4-9.7-112.4-10.7S430,2357,430,2357l-34.7-4L159,2386.7"/>
		</g>
		<g>
			<path class="st1" d="M2104,2457.7c0,0-53.1,7-178.7-18.5c-97.5-19.8-264.7-67.8-317.9-67.6c-121.9,0.4-102,16-234.2,17.6
				s-209-51.9-209-51.9s-162.4,14.7-334,15.4c-72.4,0.3-21.4-10.1-112.4-11.2c-91-1.1-292.7,10.9-292.7,10.9l-34.7-4.2L154,2383.3"
				/>
		</g>
		<g>
			<path class="st1" d="M2099,2457.2c0,0-53.1,7.3-178.7-19.2c-97.5-20.6-264.7-70.6-317.9-70.5c-121.9,0.4-102,16.7-234.2,18.3
				c-132.2,1.6-209-54.1-209-54.1s-162.4,15.3-334,16.1c-72.4,0.3-21.4-10.5-112.4-11.6c-91-1.1-292.7,11.4-292.7,11.4l-34.7-4.4
				L149,2379.8"/>
		</g>
		<g>
			<path class="st1" d="M2094,2456.8c0,0-53.1,7.6-178.7-20c-97.5-21.4-264.7-73.6-317.9-73.4c-121.9,0.4-102,17.4-234.2,19
				c-132.2,1.6-209-56.4-209-56.4s-162.4,16-334,16.7c-72.4,0.3-21.4-11-112.4-12.1S415,2342.5,415,2342.5l-34.7-4.6L144,2376.1"/>
		</g>
		<g>
			<path class="st1" d="M2089,2456.3c0,0-53.1,7.9-178.7-20.9c-97.5-22.3-264.7-76.6-317.9-76.5c-121.9,0.4-102,18.1-234.2,19.8
				s-209-58.7-209-58.7s-162.4,16.6-334,17.4c-72.4,0.3-21.4-11.4-112.4-12.6c-91-1.2-292.7,12.3-292.7,12.3l-34.7-4.8L139,2372.3"
				/>
		</g>
		<g>
			<path class="st1" d="M2084,2455.8c0,0-53.1,8.2-178.7-21.7c-97.5-23.3-264.7-79.8-317.9-79.6c-121.9,0.4-102,18.9-234.2,20.7
				s-209-61.2-209-61.2s-162.4,17.3-334,18.1c-72.4,0.3-21.4-11.9-112.4-13.1c-91-1.2-292.7,12.9-292.7,12.9l-34.7-5L134,2368.3"/>
		</g>
		<g>
			<path class="st1" d="M2079,2455.3c0,0-53.1,8.6-178.7-22.6c-97.5-24.2-264.7-83.2-317.9-83c-121.9,0.4-102,19.7-234.2,21.5
				c-132.2,1.9-209-63.7-209-63.7s-162.4,18.1-334,18.9c-72.4,0.4-21.4-12.4-112.4-13.7S400,2326.1,400,2326.1l-34.7-5.2L129,2364.1
				"/>
		</g>
		<g>
			<path class="st1" d="M2074,2454.7c0,0-53.1,8.9-178.7-23.6c-97.5-25.2-264.7-86.6-317.9-86.4c-121.9,0.4-102,20.5-234.2,22.4
				s-209-66.4-209-66.4s-162.4,18.8-334,19.7c-72.4,0.4-21.4-12.9-112.4-14.2c-91-1.3-292.7,14-292.7,14l-34.7-5.4L124,2359.8"/>
		</g>
		<g>
			<path class="st1" d="M2069,2454.2c0,0-53.1,9.3-178.7-24.6c-97.5-26.3-264.7-90.2-317.9-90c-121.9,0.5-102,21.3-234.2,23.4
				s-209-69.1-209-69.1s-162.4,19.6-334,20.5c-72.4,0.4-21.4-13.4-112.4-14.8S390,2314,390,2314l-34.7-5.6L119,2355.2"/>
		</g>
		<g>
			<path class="st1" d="M2064,2453.6c0,0-53.1,9.7-178.7-25.6c-97.5-27.4-264.7-94-317.9-93.8c-121.9,0.5-102,22.2-234.2,24.3
				c-132.2,2.1-209-72-209-72s-162.4,20.4-334,21.4c-72.4,0.4-21.4-14-112.4-15.5S385,2307.6,385,2307.6l-34.7-5.8L114,2350.5"/>
		</g>
		<g>
			<path class="st1" d="M2059,2453c0,0-53.1,10.1-178.7-26.7c-97.5-28.5-264.7-97.9-317.9-97.7c-121.9,0.5-102,23.1-234.2,25.3
				c-132.2,2.2-209-75-209-75s-162.4,21.3-334,22.3c-72.4,0.4-21.4-14.6-112.4-16.1S380,2300.9,380,2300.9l-34.7-6.1L109,2345.6"/>
		</g>
		<g>
			<path class="st1" d="M2054,2452.3c0,0-53.1,10.5-178.7-27.8c-97.5-29.7-264.7-102-317.9-101.8c-121.9,0.5-102,24.1-234.2,26.4
				c-132.2,2.3-209-78.1-209-78.1s-162.4,22.1-334,23.2c-72.4,0.4-21.4-15.2-112.4-16.8S375,2293.9,375,2293.9l-34.7-6.3L104,2340.5
				"/>
		</g>
		<g>
			<path class="st1" d="M2049,2451.7c0,0-53.1,11-178.7-28.9c-97.5-30.9-264.7-106.2-317.9-106c-121.9,0.5-102,25.1-234.2,27.5
				s-209-81.4-209-81.4s-162.4,23.1-334,24.2c-72.4,0.5-21.4-15.8-112.4-17.5c-91-1.6-292.7,17.1-292.7,17.1l-34.7-6.6L99,2335.2"/>
		</g>
		<g>
			<path class="st1" d="M2044,2451c0,0-53.1,11.4-178.7-30.1c-97.5-32.2-264.7-110.7-317.9-110.4c-121.9,0.6-102,26.2-234.2,28.6
				c-132.2,2.5-209-84.8-209-84.8s-162.4,24-334,25.2c-72.4,0.5-21.4-16.5-112.4-18.2c-91-1.7-292.7,17.8-292.7,17.8l-34.7-6.9
				L94,2329.6"/>
		</g>
		<g>
			<path class="st1" d="M2039,2450.3c0,0-53.1,11.9-178.7-31.4c-97.5-33.6-264.7-115.3-317.9-115c-121.9,0.6-102,27.3-234.2,29.8
				s-209-88.3-209-88.3s-162.4,25-334,26.2c-72.4,0.5-21.4-17.2-112.4-19c-91-1.8-292.7,18.6-292.7,18.6l-34.7-7.2L89,2323.9"/>
		</g>
		<g>
			<path class="st1" d="M2034,2449.5c0,0-53.1,12.4-178.7-32.7c-97.5-35-264.7-120.1-317.9-119.8c-121.9,0.6-102,28.4-234.2,31.1
				c-132.2,2.7-209-92-209-92s-162.4,26.1-334,27.3c-72.4,0.5-21.4-17.9-112.4-19.8c-91-1.9-292.7,19.3-292.7,19.3l-34.7-7.5
				L84,2317.8"/>
		</g>
		<g>
			<path class="st1" d="M2029,2448.7c0,0-53.1,12.9-178.7-34.1c-97.5-36.4-264.7-125.1-317.9-124.8c-121.9,0.6-102,29.6-234.2,32.4
				c-132.2,2.8-209-95.8-209-95.8s-162.4,27.2-334,28.4c-72.4,0.5-21.4-18.6-112.4-20.6c-91-1.9-292.7,20.1-292.7,20.1l-34.7-7.8
				L79,2311.6"/>
		</g>
		<g>
			<path class="st1" d="M2024,2447.9c0,0-53.1,13.4-178.7-35.5c-97.5-38-264.7-130.3-317.9-130c-121.9,0.7-102,30.8-234.2,33.7
				s-209-99.8-209-99.8s-162.4,28.3-334,29.6c-72.4,0.6-21.4-19.4-112.4-21.4c-91-2-292.7,21-292.7,21l-34.7-8.1L74,2305"/>
		</g>
		<g>
			<path class="st1" d="M2019,2447.1c0,0-53.1,14-178.7-37c-97.5-39.5-264.7-135.7-317.9-135.4c-121.9,0.7-102,32.1-234.2,35.1
				c-132.2,3-209-104-209-104s-162.4,29.5-334,30.9c-72.4,0.6-21.4-20.2-112.4-22.3c-91-2.1-292.7,21.9-292.7,21.9l-34.7-8.4
				L69,2298.2"/>
		</g>
		<g>
			<path class="st1" d="M2014,2446.2c0,0-53.1,14.6-178.7-38.5c-97.5-41.2-264.7-141.4-317.9-141c-121.9,0.7-102,33.4-234.2,36.6
				c-132.2,3.2-209-108.3-209-108.3s-162.4,30.7-334,32.1c-72.4,0.6-21.4-21.1-112.4-23.3S335,2226.6,335,2226.6l-34.7-8.8
				L64,2291.2"/>
		</g>
		<g>
			<path class="st1" d="M2009,2445.3c0,0-53.1,15.2-178.7-40.1c-97.5-42.9-264.7-147.3-317.9-146.9c-121.9,0.8-102,34.8-234.2,38.1
				s-209-112.8-209-112.8s-162.4,32-334,33.5c-72.4,0.6-21.4-21.9-112.4-24.2S330,2216.5,330,2216.5l-34.7-9.1L59,2283.8"/>
		</g>
		<g>
			<path class="st1" d="M2004,2444.3c0,0-53.1,15.8-178.7-41.8c-97.5-44.7-264.7-153.4-317.9-153c-121.9,0.8-102,36.3-234.2,39.7
				c-132.2,3.4-209-117.5-209-117.5s-162.4,33.3-334,34.9c-72.4,0.7-21.4-22.9-112.4-25.2S325,2206,325,2206l-34.7-9.5L54,2276.1"/>
		</g>
		<g>
			<path class="st1" d="M1999,2443.3c0,0-53.1,16.5-178.7-43.5c-97.5-46.5-264.7-159.8-317.9-159.4c-121.9,0.8-102,37.8-234.2,41.4
				c-132.2,3.6-209-122.4-209-122.4s-162.4,34.7-334,36.3c-72.4,0.7-21.4-23.8-112.4-26.3S320,2195.1,320,2195.1l-34.7-9.9
				L49,2268.1"/>
		</g>
		<g>
			<path class="st1" d="M1994,2442.2c0,0-53.1,17.2-178.7-45.3c-97.5-48.5-264.7-166.4-317.9-166.1c-121.9,0.9-102,39.4-234.2,43.1
				s-209-127.5-209-127.5s-162.4,36.2-334,37.8c-72.4,0.7-21.4-24.8-112.4-27.4S315,2183.7,315,2183.7l-34.7-10.3L44,2259.7"/>
		</g>
		<g>
			<path class="st1" d="M1989,2441.2c0,0-53.1,17.9-178.7-47.2c-97.5-50.5-264.7-173.4-317.9-173c-121.9,0.9-102,41-234.2,44.9
				s-209-132.8-209-132.8s-162.4,37.7-334,39.4c-72.4,0.7-21.4-25.8-112.4-28.5S310,2171.8,310,2171.8l-34.7-10.8L39,2251"/>
		</g>
		<g>
			<path class="st1" d="M1984,2440c0,0-53.1,18.6-178.7-49.2c-97.5-52.6-264.7-180.6-317.9-180.2c-121.9,0.9-102,42.7-234.2,46.8
				c-132.2,4-209-138.4-209-138.4s-162.4,39.2-334,41.1c-72.4,0.8-21.4-26.9-112.4-29.7S305,2159.5,305,2159.5l-34.7-11.2L34,2242"
				/>
		</g>
		<g>
			<path class="st1" d="M1979,2438.9c0,0-53.1,19.4-178.7-51.2c-97.5-54.8-264.7-188.1-317.9-187.7c-121.9,1-102,44.5-234.2,48.7
				c-132.2,4.2-209-144.1-209-144.1s-162.4,40.9-334,42.8c-72.4,0.8-21.4-28-112.4-30.9S300,2146.6,300,2146.6l-34.7-11.7L29,2232.6
				"/>
		</g>
		<g>
			<path class="st1" d="M1974,2437.6c0,0-53.1,20.2-178.7-53.4c-97.5-57.1-264.7-196-317.9-195.5c-121.9,1-102,46.3-234.2,50.7
				c-132.2,4.4-209-150.1-209-150.1s-162.4,42.6-334,44.6c-72.4,0.8-21.4-29.2-112.4-32.2c-91-3-292.7,31.6-292.7,31.6l-34.7-12.2
				L24,2222.7"/>
		</g>
		<g>
			<path class="st1" d="M1969,2436.3c0,0-53.1,21-178.7-55.6c-97.5-59.5-264.7-204.1-317.9-203.7c-121.9,1.1-102,48.3-234.2,52.8
				s-209-156.4-209-156.4s-162.4,44.3-334,46.4c-72.4,0.9-21.4-30.4-112.4-33.6S290,2119.3,290,2119.3l-34.7-12.7L19,2212.5"/>
		</g>
		<g>
			<path class="st1" d="M1964,2435c0,0-53.1,21.9-178.7-57.9c-97.5-61.9-264.7-212.6-317.9-212.2c-121.9,1.1-102,50.3-234.2,55
				s-209-162.9-209-162.9s-162.4,46.2-334,48.3c-72.4,0.9-21.4-31.7-112.4-35S285,2104.7,285,2104.7l-34.7-13.2L14,2201.8"/>
		</g>
		<g>
			<path class="st1" d="M1959,2433.6c0,0-53.1,22.8-178.7-60.3c-97.5-64.5-264.7-221.5-317.9-221c-121.9,1.1-102,52.4-234.2,57.3
				s-209-169.7-209-169.7s-162.4,48.1-334,50.4c-72.4,0.9-21.4-33-112.4-36.4c-91-3.4-292.7,35.7-292.7,35.7l-34.7-13.7L9,2190.7"/>
		</g>
		<g>
			<path class="st1" d="M1954,2432.2c0,0-53.1,23.8-178.7-62.8c-97.5-67.2-264.7-230.7-317.9-230.2c-121.9,1.2-102,54.6-234.2,59.7
				s-209-176.8-209-176.8s-162.4,50.1-334,52.5c-72.4,1-21.4-34.4-112.4-38S275,2073.8,275,2073.8l-34.7-14.3L4,2179.2"/>
		</g>
		<g>
			<path class="st1" d="M1949,2430.7c0,0-53.1,24.8-178.7-65.4c-97.5-70-264.7-240.3-317.9-239.8c-121.9,1.2-102,56.8-234.2,62.2
				c-132.2,5.4-209-184.1-209-184.1s-162.4,52.2-334,54.6c-72.4,1-21.4-35.8-112.4-39.5S270,2057.3,270,2057.3l-34.7-14.9L-1,2167.1
				"/>
		</g>
		<g>
			<path class="st1" d="M1944,2429.1c0,0-53.1,25.8-178.7-68.2c-97.5-72.9-264.7-250.4-317.9-249.8c-121.9,1.3-102,59.2-234.2,64.8
				c-132.2,5.6-209-191.8-209-191.8s-162.4,54.4-334,56.9c-72.4,1.1-21.4-37.3-112.4-41.2c-91-3.9-292.7,40.3-292.7,40.3l-34.7-15.5
				L-6,2154.6"/>
		</g>
		<g>
			<path class="st1" d="M1939,2427.5c0,0-53.1,26.9-178.7-71c-97.5-76-264.7-260.8-317.9-260.2c-121.9,1.3-102,61.7-234.2,67.5
				s-209-199.8-209-199.8s-162.4,56.6-334,59.3c-72.4,1.1-21.4-38.9-112.4-42.9s-292.7,42-292.7,42l-34.7-16.2L-11,2141.5"/>
		</g>
		<g>
			<path class="st1" d="M1934,2425.8c0,0-53.1,28-178.7-74c-97.5-79.1-264.7-271.6-317.9-271c-121.9,1.4-102,64.2-234.2,70.3
				c-132.2,6.1-209-208.1-209-208.1s-162.4,59-334,61.8c-72.4,1.2-21.4-40.5-112.4-44.7S255,2003.8,255,2003.8l-34.7-16.9
				L-16,2127.9"/>
		</g>
		<g>
			<path class="st1" d="M1929,2424c0,0-53.1,29.2-178.7-77.1c-97.5-82.4-264.7-283-317.9-282.3c-121.9,1.5-102,66.9-234.2,73.2
				s-209-216.8-209-216.8s-162.4,61.5-334,64.3c-72.4,1.2-21.4-42.2-112.4-46.6c-91-4.4-292.7,45.6-292.7,45.6l-34.7-17.6
				L-21,2113.7"/>
		</g>
		<g>
			<path class="st1" d="M1924,2422.2c0,0-53.1,30.4-178.7-80.3c-97.5-85.9-264.7-294.8-317.9-294.1c-121.9,1.5-102,69.7-234.2,76.3
				s-209-225.8-209-225.8s-162.4,64-334,67c-72.4,1.3-21.4-43.9-112.4-48.5c-91-4.6-292.7,47.5-292.7,47.5l-34.7-18.3L-26,2098.9"/>
		</g>
		<g>
			<path class="st1" d="M1919,2420.2c0,0-53.1,31.7-178.7-83.6c-97.5-89.4-264.7-307-317.9-306.3c-121.9,1.6-102,72.6-234.2,79.5
				c-132.2,6.9-209-235.2-209-235.2s-162.4,66.7-334,69.8c-72.4,1.3-21.4-45.7-112.4-50.5c-91-4.8-292.7,49.5-292.7,49.5l-34.7-19.1
				L-31,2083.5"/>
		</g>
		<g>
			<path class="st1" d="M1914,2418.2c0,0-53.1,33-178.7-87.1c-97.5-93.2-264.7-319.8-317.9-319.1c-121.9,1.7-102,75.6-234.2,82.8
				c-132.2,7.2-209-245-209-245s-162.4,69.5-334,72.7c-72.4,1.4-21.4-47.7-112.4-52.6c-91-5-292.7,51.5-292.7,51.5l-34.7-19.8
				L-36,2067.5"/>
		</g>
		<g>
			<path class="st1" d="M1909,2416.2c0,0-53.1,34.4-178.7-90.7c-97.5-97.1-264.7-333.2-317.9-332.4c-121.9,1.7-102,78.8-234.2,86.2
				s-209-255.2-209-255.2s-162.4,72.4-334,75.7c-72.4,1.4-21.4-49.6-112.4-54.8S230,1898.6,230,1898.6l-34.7-20.7L-41,2050.8"/>
		</g>
		<g>
			<path class="st1" d="M1904,2414c0,0-53.1,35.8-178.7-94.5c-97.5-101.1-264.7-347-317.9-346.3c-121.9,1.8-102,82.1-234.2,89.8
				c-132.2,7.8-209-265.9-209-265.9s-162.4,75.4-334,78.9c-72.4,1.5-21.4-51.7-112.4-57.1c-91-5.4-292.7,55.9-292.7,55.9l-34.7-21.5
				L-46,2033.4"/>
		</g>
		<g>
			<path class="st1" d="M1899,2411.7c0,0-53.1,37.3-178.7-98.4c-97.5-105.3-264.7-361.5-317.9-360.7c-121.9,1.9-102,85.5-234.2,93.6
				c-132.2,8.1-209-276.9-209-276.9s-162.4,78.5-334,82.2c-72.4,1.6-21.4-53.9-112.4-59.5S220,1850.2,220,1850.2l-34.7-22.4
				L-51,2015.3"/>
		</g>
		<g>
			<path class="st1" d="M1894,2409.4c0,0-53.1,38.8-178.7-102.5c-97.5-109.7-264.7-376.6-317.9-375.7c-121.9,1.9-102,89-234.2,97.5
				s-209-288.5-209-288.5s-162.4,81.8-334,85.6c-72.4,1.6-21.4-56.1-112.4-61.9S215,1824.4,215,1824.4l-34.7-23.4L-56,1996.4"/>
		</g>
		<g>
			<path class="st1" d="M1889,2406.9c0,0-53.1,40.4-178.7-106.8c-97.5-114.3-264.7-392.3-317.9-391.4c-121.9,2-102,92.7-234.2,101.5
				s-209-300.5-209-300.5s-162.4,85.2-334,89.2c-72.4,1.7-21.4-58.4-112.4-64.5c-91-6.1-292.7,63.2-292.7,63.2l-34.7-24.3
				L-61,1976.8"/>
		</g>
		<g>
			<path class="st1" d="M1884,2404.3c0,0-53.1,42.1-178.7-111.3c-97.5-119-264.7-408.6-317.9-407.7c-121.9,2.1-102,96.6-234.2,105.8
				c-132.2,9.2-209-313-209-313s-162.4,88.7-334,92.9c-72.4,1.8-21.4-60.9-112.4-67.2c-91-6.3-292.7,65.8-292.7,65.8l-34.7-25.4
				l-236.3,212"/>
		</g>
		<g>
			<path class="st1" d="M1879,2401.7c0,0-53.1,43.9-178.7-115.9c-97.5-124-264.7-425.6-317.9-424.7
				c-121.9,2.2-102,100.6-234.2,110.2c-132.2,9.5-209-326.1-209-326.1s-162.4,92.4-334,96.8c-72.4,1.8-21.4-63.4-112.4-70
				S200,1740.5,200,1740.5l-34.7-26.4L-71,1934.9"/>
		</g>
		<g>
			<path class="st1" d="M1874,2398.9c0,0-53.1,45.7-178.7-120.7c-97.5-129.2-264.7-443.4-317.9-442.4
				c-121.9,2.3-102,104.8-234.2,114.8s-209-339.7-209-339.7s-162.4,96.3-334,100.8c-72.4,1.9-21.4-66.1-112.4-72.9
				c-91-6.9-292.7,71.4-292.7,71.4l-34.7-27.5l-236.3,230"/>
		</g>
		<g>
			<path class="st1" d="M1869,2396c0,0-53.1,47.6-178.7-125.8c-97.5-134.5-264.7-461.8-317.9-460.8
				c-121.9,2.4-102,109.2-234.2,119.5s-209-353.8-209-353.8s-162.4,100.3-334,105c-72.4,2-21.4-68.8-112.4-76
				c-91-7.2-292.7,74.4-292.7,74.4l-34.7-28.7L-81,1889.6"/>
		</g>
		<g>
			<path class="st1" d="M1864,2393c0,0-53.1,49.6-178.7-131c-97.5-140.1-264.7-481.1-317.9-480c-121.9,2.5-102,113.7-234.2,124.5
				c-132.2,10.8-209-368.5-209-368.5s-162.4,104.5-334,109.4c-72.4,2.1-21.4-71.7-112.4-79.1S185,1645.7,185,1645.7l-34.7-29.9
				L-86,1865.5"/>
		</g>
	</g>
</g>
</svg>
