<?xml version="1.0" encoding="utf-8"?>
<!-- Generator: Adobe Illustrator 22.1.0, SVG Export Plug-In . SVG Version: 6.00 Build 0)  -->
<svg version="1.1" xmlns="http://www.w3.org/2000/svg" xmlns:xlink="http://www.w3.org/1999/xlink" x="0px" y="0px"
	 viewBox="0 0 1077.6 205.6" style="enable-background:new 0 0 1077.6 205.6;" xml:space="preserve">
<style type="text/css">
	.st0{fill:#FFFFFF;}
	.st1{fill:none;stroke:#000000;stroke-width:6;stroke-miterlimit:10;}
</style>
<g id="圖層_2">
	<rect class="st0" width="1073.2" height="205.6"/>
	<g>
		<path d="M1071.6,6v193.6H6V6H1071.6 M1077.6,0H0v205.6h1077.6V0L1077.6,0z"/>
	</g>
	<line class="st1" x1="89.3" y1="0" x2="89.3" y2="205.6"/>
</g>
<g id="圖層_1">
	<g>
		<path d="M124.4,121.5l20.9-22c0.9-0.9,1.9-1.9,2.8-3c0.9-1.1,1.8-2.2,2.5-3.4c0.8-1.2,1.4-2.4,1.8-3.7c0.5-1.3,0.7-2.7,0.7-4.2
			c0-3.2-1-5.8-3.1-7.6c-2.1-1.8-4.7-2.7-7.9-2.7c-2.9,0-5.3,0.8-7.3,2.5c-2,1.7-3.3,3.9-3.8,6.6l-5.5-0.5c0.9-4.3,2.8-7.5,5.9-9.6
			c3-2.1,6.7-3.2,11-3.2c2.1,0,4.2,0.3,6.1,1c1.9,0.7,3.6,1.6,5.1,2.8c1.5,1.2,2.6,2.7,3.5,4.4c0.9,1.8,1.3,3.8,1.3,6
			c0,2.1-0.3,4.1-1,6c-0.7,1.8-1.5,3.6-2.6,5.2c-1.1,1.6-2.3,3.2-3.7,4.7c-1.4,1.5-2.8,2.9-4.2,4.4l-17.3,17.8h29.2v4.2h-34.3V121.5
			z"/>
		<path d="M169.9,99.3c0-2,0.1-4.1,0.3-6.3c0.2-2.2,0.5-4.4,1-6.5c0.5-2.1,1.2-4.1,2-6c0.9-1.9,2-3.6,3.3-5.1c1.4-1.5,3-2.6,4.9-3.5
			c1.9-0.9,4.2-1.3,6.8-1.3c2.6,0,4.9,0.4,6.8,1.3c1.9,0.9,3.5,2,4.9,3.5c1.4,1.5,2.5,3.2,3.3,5.1c0.9,1.9,1.5,3.9,2,6
			c0.5,2.1,0.8,4.3,1,6.5c0.2,2.2,0.3,4.3,0.3,6.3c0,2-0.1,4.2-0.3,6.4c-0.2,2.2-0.5,4.4-1,6.5c-0.5,2.1-1.2,4.1-2,6
			c-0.9,1.9-2,3.6-3.3,5.1c-1.4,1.5-3,2.6-4.9,3.5c-1.9,0.9-4.2,1.3-6.8,1.3c-2.6,0-4.9-0.4-6.8-1.3c-1.9-0.9-3.5-2-4.9-3.5
			c-1.4-1.5-2.5-3.1-3.3-5.1c-0.9-1.9-1.5-3.9-2-6c-0.5-2.1-0.8-4.3-1-6.5C170,103.4,169.9,101.3,169.9,99.3z M175,99.3
			c0,1.5,0.1,3.1,0.2,4.8c0.1,1.8,0.3,3.5,0.6,5.3c0.3,1.8,0.8,3.6,1.4,5.3c0.6,1.7,1.4,3.3,2.4,4.6c1,1.3,2.2,2.4,3.6,3.2
			c1.4,0.8,3.1,1.2,5.1,1.2c1.9,0,3.6-0.4,5.1-1.2c1.4-0.8,2.6-1.9,3.6-3.2c1-1.3,1.8-2.9,2.4-4.6c0.6-1.7,1.1-3.5,1.4-5.3
			c0.3-1.8,0.5-3.6,0.6-5.3c0.1-1.8,0.2-3.4,0.2-4.8c0-1.4-0.1-3-0.2-4.8c-0.1-1.8-0.3-3.6-0.6-5.4c-0.3-1.8-0.8-3.6-1.4-5.3
			c-0.6-1.7-1.4-3.3-2.4-4.6c-1-1.3-2.2-2.4-3.6-3.2c-1.4-0.8-3.1-1.2-5.1-1.2c-1.9,0-3.6,0.4-5.1,1.2c-1.4,0.8-2.6,1.9-3.6,3.2
			c-1,1.3-1.8,2.9-2.4,4.6c-0.6,1.7-1.1,3.5-1.4,5.3c-0.3,1.8-0.5,3.6-0.6,5.4C175.1,96.3,175,97.9,175,99.3z"/>
		<path d="M234.9,78.1L234.9,78.1l-10.1,8.2l-2.9-3.6l13.7-11.2h4V127h-4.7V78.1z"/>
		<path d="M266.3,85c0-2.1,0.4-4.1,1.2-5.9c0.8-1.8,1.9-3.3,3.2-4.5c1.4-1.3,3-2.2,4.8-2.9c1.9-0.7,3.9-1.1,6-1.1
			c2.1,0,4.1,0.4,6,1.1c1.9,0.7,3.5,1.7,4.8,2.9c1.4,1.3,2.4,2.8,3.2,4.5c0.8,1.8,1.2,3.7,1.2,5.9c0,1.3-0.2,2.6-0.6,3.9
			c-0.4,1.3-1,2.5-1.8,3.6c-0.8,1.1-1.7,2.1-2.8,2.9c-1.1,0.8-2.3,1.4-3.7,1.8v0.1c1.8,0.4,3.3,1,4.7,1.9c1.3,0.9,2.5,2,3.4,3.3
			c0.9,1.3,1.6,2.7,2.1,4.2c0.5,1.5,0.7,3.2,0.7,4.8c0,2.5-0.4,4.8-1.3,6.8c-0.9,2-2.1,3.7-3.6,5.1c-1.5,1.4-3.4,2.5-5.4,3.3
			c-2.1,0.8-4.4,1.2-6.8,1.2c-2.5,0-4.7-0.4-6.8-1.2c-2.1-0.8-3.9-1.9-5.4-3.3c-1.5-1.4-2.7-3.1-3.6-5.1c-0.9-2-1.3-4.3-1.3-6.8
			c0-1.7,0.2-3.3,0.7-4.8c0.5-1.5,1.2-3,2.1-4.2c0.9-1.3,2-2.4,3.4-3.3c1.3-0.9,2.9-1.6,4.7-1.9v-0.1c-1.4-0.4-2.6-1-3.7-1.8
			c-1.1-0.8-2-1.8-2.8-2.9c-0.8-1.1-1.3-2.3-1.8-3.6C266.5,87.6,266.3,86.3,266.3,85z M269.5,111.6c0,1.7,0.3,3.2,0.9,4.7
			c0.6,1.5,1.4,2.7,2.4,3.8c1,1.1,2.3,2,3.8,2.6c1.5,0.7,3.1,1,4.9,1c1.8,0,3.5-0.3,4.9-1c1.5-0.7,2.7-1.5,3.8-2.6
			c1-1.1,1.9-2.4,2.4-3.8c0.6-1.5,0.9-3,0.9-4.7c0-1.8-0.3-3.5-0.9-5c-0.6-1.5-1.5-2.8-2.5-3.8c-1.1-1.1-2.3-1.9-3.8-2.5
			c-1.5-0.6-3-0.9-4.7-0.9c-1.7,0-3.2,0.3-4.7,0.9c-1.5,0.6-2.7,1.4-3.8,2.5c-1.1,1.1-1.9,2.4-2.5,3.8
			C269.8,108.1,269.5,109.8,269.5,111.6z M271.5,85c0,1.4,0.2,2.7,0.7,4c0.5,1.2,1.2,2.3,2,3.2c0.9,0.9,1.9,1.6,3.1,2.2
			c1.2,0.5,2.6,0.8,4.1,0.8c1.5,0,2.8-0.3,4.1-0.8c1.3-0.5,2.3-1.3,3.2-2.2c0.9-0.9,1.5-2,2-3.2c0.5-1.2,0.7-2.5,0.7-4
			c0-3.1-1-5.6-2.9-7.4c-1.9-1.9-4.3-2.8-7.2-2.8c-2.9,0-5.3,0.9-7.2,2.8C272.4,79.5,271.5,81.9,271.5,85z"/>
		<path d="M314.2,123.7c0-1,0.4-1.9,1.1-2.7c0.7-0.7,1.6-1.1,2.7-1.1c1,0,1.9,0.4,2.7,1.1c0.7,0.7,1.1,1.6,1.1,2.7
			c0,1-0.4,1.9-1.1,2.7c-0.7,0.7-1.6,1.1-2.7,1.1c-1,0-1.9-0.4-2.7-1.1C314.6,125.7,314.2,124.8,314.2,123.7z"/>
		<path d="M354.5,78.1L354.5,78.1l-10.1,8.2l-2.9-3.6l13.7-11.2h4V127h-4.7V78.1z"/>
		<path d="M382.7,99.3c0-2,0.1-4.1,0.3-6.3c0.2-2.2,0.5-4.4,1-6.5c0.5-2.1,1.2-4.1,2-6c0.9-1.9,2-3.6,3.3-5.1c1.4-1.5,3-2.6,4.9-3.5
			c1.9-0.9,4.2-1.3,6.8-1.3c2.6,0,4.9,0.4,6.8,1.3c1.9,0.9,3.5,2,4.9,3.5c1.4,1.5,2.5,3.2,3.3,5.1c0.9,1.9,1.5,3.9,2,6
			c0.5,2.1,0.8,4.3,1,6.5c0.2,2.2,0.3,4.3,0.3,6.3c0,2-0.1,4.2-0.3,6.4c-0.2,2.2-0.5,4.4-1,6.5c-0.5,2.1-1.2,4.1-2,6
			c-0.9,1.9-2,3.6-3.3,5.1c-1.4,1.5-3,2.6-4.9,3.5c-1.9,0.9-4.2,1.3-6.8,1.3c-2.6,0-4.9-0.4-6.8-1.3c-1.9-0.9-3.5-2-4.9-3.5
			c-1.4-1.5-2.5-3.1-3.3-5.1c-0.9-1.9-1.5-3.9-2-6c-0.5-2.1-0.8-4.3-1-6.5C382.8,103.4,382.7,101.3,382.7,99.3z M387.9,99.3
			c0,1.5,0.1,3.1,0.2,4.8c0.1,1.8,0.3,3.5,0.6,5.3c0.3,1.8,0.8,3.6,1.4,5.3c0.6,1.7,1.4,3.3,2.4,4.6c1,1.3,2.2,2.4,3.6,3.2
			c1.4,0.8,3.1,1.2,5.1,1.2c1.9,0,3.6-0.4,5.1-1.2c1.4-0.8,2.6-1.9,3.6-3.2c1-1.3,1.8-2.9,2.4-4.6c0.6-1.7,1.1-3.5,1.4-5.3
			c0.3-1.8,0.5-3.6,0.6-5.3c0.1-1.8,0.2-3.4,0.2-4.8c0-1.4-0.1-3-0.2-4.8c-0.1-1.8-0.3-3.6-0.6-5.4c-0.3-1.8-0.8-3.6-1.4-5.3
			c-0.6-1.7-1.4-3.3-2.4-4.6c-1-1.3-2.2-2.4-3.6-3.2c-1.4-0.8-3.1-1.2-5.1-1.2c-1.9,0-3.6,0.4-5.1,1.2c-1.4,0.8-2.6,1.9-3.6,3.2
			c-1,1.3-1.8,2.9-2.4,4.6c-0.6,1.7-1.1,3.5-1.4,5.3c-0.3,1.8-0.5,3.6-0.6,5.4C388,96.3,387.9,97.9,387.9,99.3z"/>
		<path d="M433.8,123.7c0-1,0.4-1.9,1.1-2.7c0.7-0.7,1.6-1.1,2.7-1.1c1,0,1.9,0.4,2.7,1.1c0.7,0.7,1.1,1.6,1.1,2.7
			c0,1-0.4,1.9-1.1,2.7c-0.7,0.7-1.6,1.1-2.7,1.1c-1,0-1.9-0.4-2.7-1.1C434.2,125.7,433.8,124.8,433.8,123.7z"/>
		<path d="M456.8,121.5l20.9-22c0.9-0.9,1.9-1.9,2.8-3c0.9-1.1,1.8-2.2,2.5-3.4c0.8-1.2,1.4-2.4,1.8-3.7c0.5-1.3,0.7-2.7,0.7-4.2
			c0-3.2-1-5.8-3.1-7.6c-2.1-1.8-4.7-2.7-7.9-2.7c-2.9,0-5.3,0.8-7.3,2.5c-2,1.7-3.3,3.9-3.8,6.6l-5.5-0.5c0.9-4.3,2.8-7.5,5.9-9.6
			c3-2.1,6.7-3.2,11-3.2c2.1,0,4.2,0.3,6.1,1c1.9,0.7,3.6,1.6,5.1,2.8c1.5,1.2,2.6,2.7,3.5,4.4c0.9,1.8,1.3,3.8,1.3,6
			c0,2.1-0.3,4.1-1,6c-0.7,1.8-1.5,3.6-2.6,5.2c-1.1,1.6-2.3,3.2-3.7,4.7c-1.4,1.5-2.8,2.9-4.2,4.4L462,122.8h29.2v4.2h-34.3V121.5z
			"/>
		<path d="M513.5,96h0.2c0.9-0.8,2.2-1.4,3.8-1.8c1.6-0.4,3.1-0.6,4.4-0.6c2.5,0,4.7,0.4,6.8,1.3c2.1,0.9,3.9,2.1,5.4,3.6
			c1.5,1.5,2.7,3.3,3.5,5.4c0.8,2.1,1.3,4.3,1.3,6.7c0,2.5-0.5,4.8-1.4,6.9c-0.9,2.1-2.2,3.9-3.8,5.4c-1.6,1.5-3.5,2.7-5.8,3.6
			c-2.2,0.9-4.6,1.3-7.3,1.3c-2.6,0-5-0.4-7.3-1.3c-2.2-0.9-4.1-2.1-5.8-3.6c-1.6-1.5-2.9-3.3-3.8-5.4c-0.9-2.1-1.4-4.4-1.4-6.9
			c0-1.5,0.2-2.8,0.5-4.2c0.3-1.3,0.7-2.5,1.3-3.7c0.5-1.2,1.1-2.3,1.6-3.3c0.6-1,1.1-2,1.7-3l15.1-25h6L513.5,96z M520.7,97.7
			c-1.8,0-3.5,0.3-5.1,1c-1.6,0.7-2.9,1.6-4.1,2.8c-1.2,1.2-2.1,2.6-2.8,4.2c-0.7,1.6-1,3.3-1,5.1c0,1.9,0.3,3.7,0.9,5.3
			c0.6,1.6,1.5,3,2.7,4.1c1.1,1.2,2.5,2,4.1,2.7c1.6,0.6,3.4,0.9,5.3,0.9c1.9,0,3.7-0.3,5.3-0.9c1.6-0.6,3-1.5,4.1-2.7
			c1.1-1.1,2-2.5,2.7-4.1c0.6-1.6,0.9-3.4,0.9-5.3c0-1.8-0.3-3.5-1-5.1c-0.7-1.6-1.6-3-2.8-4.2c-1.2-1.2-2.6-2.1-4.2-2.8
			C524.1,98.1,522.4,97.7,520.7,97.7z"/>
		<path d="M576.6,106.3h19.4v4.2h-19.4V106.3z"/>
		<path d="M634.7,121.5l20.9-22c0.9-0.9,1.9-1.9,2.8-3c0.9-1.1,1.8-2.2,2.5-3.4c0.8-1.2,1.4-2.4,1.8-3.7c0.5-1.3,0.7-2.7,0.7-4.2
			c0-3.2-1-5.8-3.1-7.6c-2.1-1.8-4.7-2.7-7.9-2.7c-2.9,0-5.3,0.8-7.3,2.5c-2,1.7-3.3,3.9-3.8,6.6l-5.5-0.5c0.9-4.3,2.8-7.5,5.9-9.6
			c3-2.1,6.7-3.2,11-3.2c2.1,0,4.2,0.3,6.1,1c1.9,0.7,3.6,1.6,5.1,2.8c1.5,1.2,2.6,2.7,3.5,4.4c0.9,1.8,1.3,3.8,1.3,6
			c0,2.1-0.3,4.1-1,6c-0.7,1.8-1.5,3.6-2.6,5.2c-1.1,1.6-2.3,3.2-3.7,4.7c-1.4,1.5-2.8,2.9-4.2,4.4l-17.3,17.8H669v4.2h-34.3V121.5z
			"/>
		<path d="M680.2,99.3c0-2,0.1-4.1,0.3-6.3c0.2-2.2,0.5-4.4,1-6.5c0.5-2.1,1.2-4.1,2-6c0.9-1.9,2-3.6,3.3-5.1c1.4-1.5,3-2.6,4.9-3.5
			c1.9-0.9,4.2-1.3,6.8-1.3c2.6,0,4.9,0.4,6.8,1.3c1.9,0.9,3.5,2,4.9,3.5c1.4,1.5,2.5,3.2,3.3,5.1c0.9,1.9,1.5,3.9,2,6
			c0.5,2.1,0.8,4.3,1,6.5c0.2,2.2,0.3,4.3,0.3,6.3c0,2-0.1,4.2-0.3,6.4c-0.2,2.2-0.5,4.4-1,6.5c-0.5,2.1-1.2,4.1-2,6
			c-0.9,1.9-2,3.6-3.3,5.1c-1.4,1.5-3,2.6-4.9,3.5c-1.9,0.9-4.2,1.3-6.8,1.3c-2.6,0-4.9-0.4-6.8-1.3c-1.9-0.9-3.5-2-4.9-3.5
			c-1.4-1.5-2.5-3.1-3.3-5.1c-0.9-1.9-1.5-3.9-2-6c-0.5-2.1-0.8-4.3-1-6.5C680.2,103.4,680.2,101.3,680.2,99.3z M685.3,99.3
			c0,1.5,0.1,3.1,0.2,4.8c0.1,1.8,0.3,3.5,0.6,5.3s0.8,3.6,1.4,5.3c0.6,1.7,1.4,3.3,2.4,4.6c1,1.3,2.2,2.4,3.6,3.2
			c1.4,0.8,3.1,1.2,5.1,1.2c1.9,0,3.6-0.4,5.1-1.2c1.4-0.8,2.6-1.9,3.6-3.2c1-1.3,1.8-2.9,2.4-4.6c0.6-1.7,1.1-3.5,1.4-5.3
			c0.3-1.8,0.5-3.6,0.6-5.3c0.1-1.8,0.2-3.4,0.2-4.8c0-1.4-0.1-3-0.2-4.8c-0.1-1.8-0.3-3.6-0.6-5.4c-0.3-1.8-0.8-3.6-1.4-5.3
			c-0.6-1.7-1.4-3.3-2.4-4.6c-1-1.3-2.2-2.4-3.6-3.2c-1.4-0.8-3.1-1.2-5.1-1.2s-3.6,0.4-5.1,1.2c-1.4,0.8-2.6,1.9-3.6,3.2
			c-1,1.3-1.8,2.9-2.4,4.6c-0.6,1.7-1.1,3.5-1.4,5.3c-0.3,1.8-0.5,3.6-0.6,5.4C685.4,96.3,685.3,97.9,685.3,99.3z"/>
		<path d="M745.2,78.1L745.2,78.1l-10.1,8.2l-2.9-3.6l13.7-11.2h4V127h-4.7V78.1z"/>
		<path d="M776.6,85c0-2.1,0.4-4.1,1.2-5.9c0.8-1.8,1.9-3.3,3.2-4.5s3-2.2,4.8-2.9c1.9-0.7,3.9-1.1,6-1.1c2.1,0,4.1,0.4,6,1.1
			c1.9,0.7,3.5,1.7,4.8,2.9c1.4,1.3,2.4,2.8,3.2,4.5c0.8,1.8,1.2,3.7,1.2,5.9c0,1.3-0.2,2.6-0.6,3.9c-0.4,1.3-1,2.5-1.8,3.6
			c-0.8,1.1-1.7,2.1-2.8,2.9c-1.1,0.8-2.3,1.4-3.7,1.8v0.1c1.8,0.4,3.3,1,4.7,1.9c1.3,0.9,2.5,2,3.4,3.3c0.9,1.3,1.6,2.7,2.1,4.2
			c0.5,1.5,0.7,3.2,0.7,4.8c0,2.5-0.4,4.8-1.3,6.8c-0.9,2-2.1,3.7-3.6,5.1c-1.5,1.4-3.4,2.5-5.4,3.3c-2.1,0.8-4.4,1.2-6.8,1.2
			c-2.5,0-4.7-0.4-6.8-1.2c-2.1-0.8-3.9-1.9-5.4-3.3c-1.5-1.4-2.7-3.1-3.6-5.1c-0.9-2-1.3-4.3-1.3-6.8c0-1.7,0.2-3.3,0.7-4.8
			c0.5-1.5,1.2-3,2.1-4.2c0.9-1.3,2-2.4,3.4-3.3c1.3-0.9,2.9-1.6,4.7-1.9v-0.1c-1.4-0.4-2.6-1-3.7-1.8c-1.1-0.8-2-1.8-2.8-2.9
			c-0.8-1.1-1.3-2.3-1.8-3.6C776.8,87.6,776.6,86.3,776.6,85z M779.8,111.6c0,1.7,0.3,3.2,0.9,4.7c0.6,1.5,1.4,2.7,2.4,3.8
			c1,1.1,2.3,2,3.8,2.6c1.5,0.7,3.1,1,4.9,1c1.8,0,3.5-0.3,4.9-1c1.5-0.7,2.7-1.5,3.8-2.6c1-1.1,1.9-2.4,2.4-3.8
			c0.6-1.5,0.9-3,0.9-4.7c0-1.8-0.3-3.5-0.9-5c-0.6-1.5-1.5-2.8-2.5-3.8c-1.1-1.1-2.3-1.9-3.8-2.5c-1.5-0.6-3-0.9-4.7-0.9
			c-1.7,0-3.2,0.3-4.7,0.9c-1.5,0.6-2.7,1.4-3.8,2.5c-1.1,1.1-1.9,2.4-2.5,3.8C780.1,108.1,779.8,109.8,779.8,111.6z M781.8,85
			c0,1.4,0.2,2.7,0.7,4c0.5,1.2,1.2,2.3,2,3.2c0.9,0.9,1.9,1.6,3.1,2.2c1.2,0.5,2.6,0.8,4.1,0.8c1.5,0,2.8-0.3,4.1-0.8
			c1.3-0.5,2.3-1.3,3.2-2.2c0.9-0.9,1.5-2,2-3.2c0.5-1.2,0.7-2.5,0.7-4c0-3.1-1-5.6-2.9-7.4c-1.9-1.9-4.3-2.8-7.2-2.8
			c-2.9,0-5.3,0.9-7.2,2.8C782.7,79.5,781.8,81.9,781.8,85z"/>
		<path d="M824.5,123.7c0-1,0.4-1.9,1.1-2.7c0.7-0.7,1.6-1.1,2.7-1.1c1,0,1.9,0.4,2.7,1.1c0.7,0.7,1.1,1.6,1.1,2.7
			c0,1-0.4,1.9-1.1,2.7c-0.7,0.7-1.6,1.1-2.7,1.1c-1,0-1.9-0.4-2.7-1.1C824.9,125.7,824.5,124.8,824.5,123.7z"/>
		<path d="M864.8,78.1L864.8,78.1l-10.1,8.2l-2.9-3.6l13.7-11.2h4V127h-4.7V78.1z"/>
		<path d="M893,99.3c0-2,0.1-4.1,0.3-6.3c0.2-2.2,0.5-4.4,1-6.5c0.5-2.1,1.2-4.1,2-6c0.9-1.9,2-3.6,3.3-5.1c1.4-1.5,3-2.6,4.9-3.5
			c1.9-0.9,4.2-1.3,6.8-1.3c2.6,0,4.9,0.4,6.8,1.3c1.9,0.9,3.5,2,4.9,3.5c1.4,1.5,2.5,3.2,3.3,5.1c0.9,1.9,1.5,3.9,2,6
			c0.5,2.1,0.8,4.3,1,6.5c0.2,2.2,0.3,4.3,0.3,6.3c0,2-0.1,4.2-0.3,6.4c-0.2,2.2-0.5,4.4-1,6.5s-1.2,4.1-2,6c-0.9,1.9-2,3.6-3.3,5.1
			c-1.4,1.5-3,2.6-4.9,3.5c-1.9,0.9-4.2,1.3-6.8,1.3c-2.6,0-4.9-0.4-6.8-1.3c-1.9-0.9-3.5-2-4.9-3.5c-1.4-1.5-2.5-3.1-3.3-5.1
			c-0.9-1.9-1.5-3.9-2-6c-0.5-2.1-0.8-4.3-1-6.5C893.1,103.4,893,101.3,893,99.3z M898.2,99.3c0,1.5,0.1,3.1,0.2,4.8
			c0.1,1.8,0.3,3.5,0.6,5.3c0.3,1.8,0.8,3.6,1.4,5.3c0.6,1.7,1.4,3.3,2.4,4.6c1,1.3,2.2,2.4,3.6,3.2c1.4,0.8,3.1,1.2,5.1,1.2
			c1.9,0,3.6-0.4,5.1-1.2c1.4-0.8,2.6-1.9,3.6-3.2c1-1.3,1.8-2.9,2.4-4.6c0.6-1.7,1.1-3.5,1.4-5.3c0.3-1.8,0.5-3.6,0.6-5.3
			c0.1-1.8,0.2-3.4,0.2-4.8c0-1.4-0.1-3-0.2-4.8c-0.1-1.8-0.3-3.6-0.6-5.4c-0.3-1.8-0.8-3.6-1.4-5.3c-0.6-1.7-1.4-3.3-2.4-4.6
			c-1-1.3-2.2-2.4-3.6-3.2c-1.4-0.8-3.1-1.2-5.1-1.2c-1.9,0-3.6,0.4-5.1,1.2c-1.4,0.8-2.6,1.9-3.6,3.2c-1,1.3-1.8,2.9-2.4,4.6
			c-0.6,1.7-1.1,3.5-1.4,5.3c-0.3,1.8-0.5,3.6-0.6,5.4C898.3,96.3,898.2,97.9,898.2,99.3z"/>
		<path d="M944.1,123.7c0-1,0.4-1.9,1.1-2.7c0.7-0.7,1.6-1.1,2.7-1.1c1,0,1.9,0.4,2.7,1.1c0.7,0.7,1.1,1.6,1.1,2.7
			c0,1-0.4,1.9-1.1,2.7c-0.7,0.7-1.6,1.1-2.7,1.1c-1,0-1.9-0.4-2.7-1.1C944.4,125.7,944.1,124.8,944.1,123.7z"/>
		<path d="M967.1,121.5l20.9-22c0.9-0.9,1.9-1.9,2.8-3c0.9-1.1,1.8-2.2,2.5-3.4c0.8-1.2,1.4-2.4,1.8-3.7c0.5-1.3,0.7-2.7,0.7-4.2
			c0-3.2-1-5.8-3.1-7.6c-2.1-1.8-4.7-2.7-7.9-2.7c-2.9,0-5.3,0.8-7.3,2.5c-2,1.7-3.3,3.9-3.8,6.6l-5.5-0.5c0.9-4.3,2.8-7.5,5.9-9.6
			c3-2.1,6.7-3.2,11-3.2c2.1,0,4.2,0.3,6.1,1c1.9,0.7,3.6,1.6,5.1,2.8c1.5,1.2,2.6,2.7,3.5,4.4c0.9,1.8,1.3,3.8,1.3,6
			c0,2.1-0.3,4.1-1,6c-0.7,1.8-1.5,3.6-2.6,5.2c-1.1,1.6-2.3,3.2-3.7,4.7c-1.4,1.5-2.8,2.9-4.2,4.4l-17.3,17.8h29.2v4.2h-34.3V121.5
			z"/>
		<path d="M1015.7,85c0-2.1,0.4-4.1,1.2-5.9c0.8-1.8,1.9-3.3,3.2-4.5c1.4-1.3,3-2.2,4.8-2.9c1.9-0.7,3.9-1.1,6-1.1
			c2.1,0,4.1,0.4,6,1.1c1.9,0.7,3.5,1.7,4.8,2.9c1.4,1.3,2.4,2.8,3.2,4.5c0.8,1.8,1.2,3.7,1.2,5.9c0,1.3-0.2,2.6-0.6,3.9
			c-0.4,1.3-1,2.5-1.8,3.6c-0.8,1.1-1.7,2.1-2.8,2.9c-1.1,0.8-2.3,1.4-3.7,1.8v0.1c1.8,0.4,3.3,1,4.7,1.9c1.3,0.9,2.5,2,3.4,3.3
			c0.9,1.3,1.6,2.7,2.1,4.2c0.5,1.5,0.7,3.2,0.7,4.8c0,2.5-0.4,4.8-1.3,6.8c-0.9,2-2.1,3.7-3.6,5.1c-1.5,1.4-3.4,2.5-5.4,3.3
			c-2.1,0.8-4.4,1.2-6.8,1.2c-2.5,0-4.7-0.4-6.8-1.2s-3.9-1.9-5.4-3.3c-1.5-1.4-2.7-3.1-3.6-5.1c-0.9-2-1.3-4.3-1.3-6.8
			c0-1.7,0.2-3.3,0.7-4.8c0.5-1.5,1.2-3,2.1-4.2c0.9-1.3,2-2.4,3.4-3.3c1.3-0.9,2.9-1.6,4.7-1.9v-0.1c-1.4-0.4-2.6-1-3.7-1.8
			c-1.1-0.8-2-1.8-2.8-2.9c-0.8-1.1-1.3-2.3-1.8-3.6C1016,87.6,1015.7,86.3,1015.7,85z M1019,111.6c0,1.7,0.3,3.2,0.9,4.7
			c0.6,1.5,1.4,2.7,2.4,3.8c1,1.1,2.3,2,3.8,2.6c1.5,0.7,3.1,1,4.9,1c1.8,0,3.5-0.3,4.9-1c1.5-0.7,2.7-1.5,3.8-2.6
			c1-1.1,1.9-2.4,2.4-3.8c0.6-1.5,0.9-3,0.9-4.7c0-1.8-0.3-3.5-0.9-5c-0.6-1.5-1.5-2.8-2.5-3.8c-1.1-1.1-2.3-1.9-3.8-2.5
			c-1.5-0.6-3-0.9-4.7-0.9c-1.7,0-3.2,0.3-4.7,0.9c-1.5,0.6-2.7,1.4-3.8,2.5c-1.1,1.1-1.9,2.4-2.5,3.8
			C1019.3,108.1,1019,109.8,1019,111.6z M1020.9,85c0,1.4,0.2,2.7,0.7,4c0.5,1.2,1.2,2.3,2,3.2c0.9,0.9,1.9,1.6,3.1,2.2
			c1.2,0.5,2.6,0.8,4.1,0.8c1.5,0,2.8-0.3,4.1-0.8c1.3-0.5,2.3-1.3,3.2-2.2c0.9-0.9,1.5-2,2-3.2c0.5-1.2,0.7-2.5,0.7-4
			c0-3.1-1-5.6-2.9-7.4c-1.9-1.9-4.3-2.8-7.2-2.8c-2.9,0-5.3,0.9-7.2,2.8C1021.9,79.5,1020.9,81.9,1020.9,85z"/>
	</g>
</g>
</svg>
