<?xml version="1.0" encoding="utf-8"?>
<!-- Generator: Adobe Illustrator 22.1.0, SVG Export Plug-In . SVG Version: 6.00 Build 0)  -->
<svg version="1.1" id="圖層_1" xmlns="http://www.w3.org/2000/svg" xmlns:xlink="http://www.w3.org/1999/xlink" x="0px" y="0px"
	 viewBox="0 0 305.1 548.8" style="enable-background:new 0 0 305.1 548.8;" xml:space="preserve">
<style type="text/css">
	.st0{fill:#040000;}
</style>
<g>
	<g>
		<path class="st0" d="M235.8,5.2c7.9,5.3,15.6,10.9,23,16.8c7.4,6,14.6,12.2,21.3,19.1c3.3,3.4,6.6,7,9.6,10.8
			c3,3.8,5.8,7.9,8,12.3c1.1,2.2,2,4.6,2.7,7.1c0.6,2.5,1,5.2,0.7,7.9c-0.3,2.7-1.2,5.5-2.7,7.9c-1.5,2.4-3.5,4.3-5.7,5.9l0.8-0.8
			c-5.1,8.4-9.6,17.2-13.1,26.4c-3.6,9.2-6.3,18.7-8.8,28.3c-2.5,9.6-4.8,19.4-7.2,29.1c-2.4,9.7-4.7,19.5-7.2,29.2
			c-5,19.5-10.4,38.8-16.2,58.1c-5.8,19.2-12.2,38.3-18.6,57.3l-4.9,14.2l-5.1,14.2l-2.6,7.1l-2.6,7.1l-5.3,14.1
			c-7.1,18.8-14.5,37.4-22.1,56c-15.2,37.1-31.2,74-48.1,110.3c14.1-37.6,28.5-75,42.3-112.6c14-37.6,27.4-75.3,40.1-113.2
			c6.4-19,12.5-38,18.3-57.1c5.9-19.1,11.4-38.3,16.5-57.7c2.6-9.7,5.1-19.3,7.6-29c2.5-9.7,5-19.4,7.7-29.2
			c2.8-9.7,5.9-19.4,9.9-28.8c4-9.4,8.8-18.5,14.5-27l0.4-0.5l0.4-0.3c3.5-2.3,6-5.5,6.4-9.5c0.5-4-0.6-8.4-2.4-12.4
			c-1.8-4.1-4.3-8.1-7-11.9c-2.7-3.8-5.7-7.4-8.8-10.9c-3.1-3.5-6.4-6.9-9.7-10.2c-3.3-3.3-6.8-6.6-10.3-9.8
			C250.5,17.2,243.3,11,235.8,5.2z"/>
	</g>
	<g>
		<path class="st0" d="M235.8,5.2c-0.3,0.1-0.3,0.5-0.2,0.7c0.1,0.3,0.3,0.5,0.4,0.8c0.3,0.5,0.7,0.9,1.1,1.4
			c0.7,0.9,1.5,1.8,2.3,2.6c1.6,1.7,3.2,3.4,4.9,5.1c3.3,3.4,6.5,6.8,9.7,10.2c3.2,3.5,6.3,7,9.3,10.6c3,3.6,5.9,7.4,8.6,11.3
			c2.7,3.9,5.3,7.9,7.5,12.2c2.2,4.3,4.1,8.8,5.2,13.7c1.1,4.8,1.4,10.2-0.2,15.2c-0.8,2.5-2,4.9-3.6,7.1c-1.6,2.1-3.5,4-5.5,5.6
			l0.7-0.7c-5.2,8.1-9.8,16.5-13.6,25.2c-3.8,8.8-6.7,17.9-9.4,27.2c-5.2,18.6-9.1,37.7-13.5,56.7c-4.4,19-8.9,38-13.8,56.9
			c-4.9,18.9-10.2,37.7-15.7,56.4c-2.8,9.4-5.6,18.7-8.6,28l-4.4,14l-4.5,13.9c-3,9.3-6.2,18.5-9.3,27.8l-9.7,27.6
			c-13.2,36.7-27.1,73.2-42.1,109.2c12.1-37.1,24.4-74.1,36.2-111.2l8.8-27.8l8.6-27.9c5.8-18.6,11.1-37.3,16.6-56
			c5.4-18.7,10.5-37.5,15.4-56.3c5-18.8,9.6-37.7,14.1-56.6c2.2-9.5,4.6-18.9,6.9-28.4c2.4-9.5,4.8-19,7.7-28.4
			c2.8-9.4,6.2-18.8,10.4-27.8c4.2-9,9.2-17.7,14.9-25.8l0.3-0.5l0.4-0.3c3.4-2.4,6.2-5.7,7.5-9.5c1.4-3.8,1.4-8.2,0.6-12.5
			c-0.8-4.3-2.4-8.6-4.3-12.8c-1.9-4.2-4.2-8.2-6.6-12.1c-2.5-3.9-5.1-7.7-7.9-11.5c-2.8-3.8-5.6-7.4-8.6-11.1c-3-3.6-6-7.2-9-10.8
			c-1.5-1.8-3-3.6-4.5-5.4c-0.7-0.9-1.5-1.8-2.1-2.8c-0.3-0.5-0.7-1-1-1.5c-0.1-0.3-0.3-0.5-0.4-0.8c0-0.1-0.1-0.3-0.1-0.4
			C235.5,5.4,235.6,5.3,235.8,5.2z"/>
	</g>
	<g>
		<path class="st0" d="M235.8,5.2c-0.6,0.2-1.1,0.6-1.1,1.2c-0.1,0.6,0,1.2,0.2,1.7c0.3,1.1,0.9,2.2,1.4,3.2
			c1.1,2.1,2.4,4.1,3.7,6.1l7.9,11.9c5.3,8,10.4,16.2,14.6,24.9c2.1,4.4,4,8.9,5.4,13.6c1.4,4.7,2.4,9.6,2.6,14.7
			c0.1,5.1-0.7,10.3-2.8,15.1c-2.1,4.8-5.6,9-9.6,12.3l0.6-0.6c-5.3,7.7-10,15.8-13.9,24.2c-4,8.4-7.2,17.1-9.9,26
			c-5.4,17.9-9.1,36.4-13,55c-3.8,18.5-7.6,37.2-11.6,55.7c-4.1,18.5-8.4,37.1-12.9,55.5c-4.5,18.4-9.4,36.8-14.4,55.1
			c-5,18.3-10.4,36.5-15.8,54.7c-11.1,36.3-22.8,72.4-35.6,108.1c9.9-36.6,20.1-73.2,29.7-109.8c2.4-9.2,4.9-18.3,7.2-27.5l7-27.5
			c4.7-18.3,9.1-36.8,13.5-55.2c4.4-18.4,8.5-36.9,12.5-55.4c4.1-18.5,7.9-37,11.9-55.6c2-9.3,4.1-18.6,6.3-27.8
			c2.3-9.3,4.7-18.5,7.7-27.7c3-9.2,6.6-18.2,11-26.8c4.4-8.6,9.5-16.9,15.2-24.6l0.3-0.4l0.3-0.3c3.5-2.7,6.4-5.9,8.3-9.8
			c1.9-3.9,2.8-8.2,2.9-12.7c0.1-4.5-0.7-9.1-1.8-13.5c-1.1-4.5-2.7-8.9-4.5-13.3c-3.6-8.7-8.2-17.1-13-25.3
			c-2.4-4.1-4.8-8.2-7.1-12.4c-1.1-2.1-2.3-4.2-3.3-6.4c-0.5-1.1-0.9-2.2-1.2-3.4c-0.1-0.6-0.2-1.2-0.1-1.8
			C234.6,5.8,235.2,5.3,235.8,5.2z"/>
	</g>
	<g>
		<path class="st0" d="M235.8,5.2c-1.2,0.3-2.2,1.2-2.5,2.4c-0.3,1.2-0.3,2.4-0.1,3.6c0.4,2.4,1.2,4.8,2.1,7.1
			c1.8,4.6,3.8,9.2,5.8,13.8c4.1,9.1,8,18.4,10.9,28.1c2.9,9.7,4.8,20,3.6,30.5c-0.6,5.2-2.1,10.5-4.7,15.2
			c-1.3,2.4-2.8,4.6-4.5,6.7c-1.7,2.1-3.6,4-5.7,5.7l0.5-0.6c-5.3,7.4-10.1,15.1-14.2,23.2c-1.1,2-2,4.1-3,6.1c-1,2-1.8,4.1-2.7,6.2
			c-0.4,1-0.9,2.1-1.3,3.1l-1.2,3.2l-1.2,3.2l-1.1,3.2c-2.9,8.6-5.3,17.4-7.3,26.3c-1,4.5-2,8.9-2.9,13.4c-0.9,4.5-1.8,9-2.7,13.5
			c-3.4,18.1-6.4,36.3-9.6,54.5c-3.3,18.2-6.6,36.4-10.1,54.5c-3.5,18.2-7.3,36.2-11.2,54.3c-1.9,9-4,18-6.1,27.1
			c-2.1,9-4.2,18-6.4,27c-8.8,35.9-18.3,71.6-28.8,107.1c7.6-36.2,15.5-72.2,22.8-108.4c3.7-18.1,7.4-36.2,10.9-54.3
			c3.6-18.1,7-36.2,10.3-54.4c3.4-18.1,6.6-36.3,9.7-54.5c3.2-18.2,6.4-36.4,9.9-54.6c3.6-18.2,7.7-36.4,14-54.2l1.2-3.3l1.3-3.3
			l1.3-3.3c0.4-1.1,1-2.2,1.4-3.2c1-2.2,1.9-4.3,3-6.4c1.1-2.1,2.1-4.2,3.3-6.3c4.5-8.3,9.8-16.1,15.4-23.6l0.3-0.3l0.3-0.2
			c3.6-2.9,6.8-6.4,9.1-10.4c2.4-4,3.9-8.4,4.6-13.1c0.8-4.7,0.8-9.5,0.4-14.3c-0.4-4.8-1.3-9.7-2.5-14.5
			c-2.3-9.6-5.8-18.9-9.2-28.3c-1.7-4.7-3.5-9.4-4.9-14.2c-0.7-2.4-1.3-4.9-1.5-7.4c-0.1-1.3-0.1-2.6,0.4-3.8
			C233.4,6.3,234.5,5.5,235.8,5.2z"/>
	</g>
	<g>
		<path class="st0" d="M235.8,5.2c-1.3,0.4-2.5,1-3.3,2c-0.9,1-1.4,2.2-1.7,3.5c-0.3,1.3-0.4,2.6-0.4,3.9c0,1.3,0.1,2.6,0.3,3.9
			c0.7,5.2,2,10.4,3.3,15.6c2.7,10.3,5.4,20.7,7,31.4c0.4,2.7,0.7,5.4,1,8.1c0.2,2.7,0.3,5.4,0.3,8.2c0,5.5-0.5,11-1.8,16.5
			c-1.3,5.4-3.3,10.8-6.2,15.7c-1.5,2.4-3.1,4.8-4.9,6.9c-1.8,2.2-3.8,4.2-5.9,6.1l0.5-0.5c-10.6,14.3-19.3,29.7-25.4,46.3
			c-3.1,8.3-5.5,16.8-7.6,25.4c-1.1,4.3-2,8.7-2.9,13l-1.3,6.6c-0.4,2.2-0.8,4.4-1.2,6.6c-1.6,8.8-2.9,17.7-4.3,26.5l-3.7,26.7
			L170,331c-2.6,17.8-5.3,35.7-8,53.5c-1.4,8.9-2.9,17.8-4.4,26.7c-1.5,8.9-3,17.8-4.6,26.6c-6.4,35.5-13.4,70.8-21.5,106
			c5.2-35.7,10.5-71.3,15.5-106.9c2.6-17.8,5-35.6,7.4-53.5c2.4-17.8,4.8-35.7,7-53.5c4.8-35.7,8.8-71.5,15.3-107.1
			c3.2-17.8,7.6-35.7,14.2-52.8c3.4-8.5,7.4-16.9,12-24.8c4.7-7.9,9.9-15.4,15.6-22.6l0.2-0.3l0.2-0.2c7.8-6.4,13.3-15.2,16-25
			c2.7-9.9,2.7-20.5,1.7-30.9c-1-10.5-3.2-20.9-5.2-31.4c-1-5.3-2-10.5-2.3-16c-0.1-1.3-0.1-2.7,0-4.1c0.1-1.4,0.3-2.7,0.7-4
			c0.4-1.3,1.1-2.6,2.1-3.5C233.2,6.1,234.4,5.5,235.8,5.2z"/>
	</g>
	<g>
		<path class="st0" d="M235.8,5.2c-1.4,0.4-2.7,1-3.8,1.9c-1.1,0.8-2.1,1.9-2.8,3.1c-1.4,2.4-2.1,5.2-2.5,8
			c-0.7,5.6-0.3,11.4,0.2,17.1c1,11.5,2.4,23,2.7,34.7c0.1,5.8,0,11.7-0.7,17.6c-0.6,5.9-1.8,11.7-3.5,17.5
			c-3.5,11.5-10.2,22.2-19.2,30.3l0.4-0.4c-10.5,13.8-19.7,28.5-26,44.5c-3.2,8-5.9,16.1-8.1,24.5c-2.2,8.4-4,16.8-5.5,25.4
			c-3,17.1-4.8,34.6-6.7,52c-1.8,17.4-3.3,35-4.8,52.5l-4.8,52.6c-1.8,17.5-3.5,35-5.4,52.5c-3.9,35-8.3,69.9-13.7,104.7l7.8-105.3
			l7.6-105.2c1.3-17.5,2.8-35.1,4.4-52.7c0.9-8.8,1.7-17.6,2.9-26.3c1.1-8.8,2.4-17.6,4-26.3c1.6-8.8,3.5-17.5,5.8-26.1
			c2.4-8.6,5.4-17.1,8.9-25.4c3.5-8.3,7.7-16.3,12.4-23.9c4.7-7.6,10.1-14.8,15.7-21.8l0.2-0.3l0.2-0.2c2.1-1.8,4-3.7,5.9-5.7
			c1.8-2,3.5-4.2,5-6.5c1.5-2.3,2.9-4.7,4.1-7.1c1.2-2.5,2.3-5,3.3-7.6c3.8-10.5,5.1-21.9,5.4-33.2c0.2-5.7,0-11.4-0.2-17.2
			c-0.2-5.8-0.5-11.5-0.6-17.3c-0.1-2.9-0.1-5.8,0-8.7c0.1-2.9,0.3-5.8,0.9-8.7c0.6-2.9,1.5-5.8,3.2-8.2c0.9-1.2,1.9-2.3,3.2-3
			C233,6.1,234.3,5.6,235.8,5.2z"/>
	</g>
	<g>
		<path class="st0" d="M235.8,5.2c-1.5,0.5-3,1.1-4.3,1.9c-1.3,0.8-2.5,1.8-3.6,2.9c-1.1,1.1-1.9,2.4-2.7,3.7
			c-0.8,1.3-1.4,2.8-1.9,4.2c-1,2.9-1.7,5.9-2.2,9c-0.5,3.1-0.8,6.2-1,9.3c-0.9,12.5-0.8,25.1-1.9,37.7c-1.1,12.6-3.3,25.4-7.8,37.6
			c-2.3,6.1-5.2,11.9-8.9,17.4c-1.8,2.7-3.8,5.4-5.9,7.9c-2.1,2.5-4.4,4.9-6.8,7.1l0.4-0.4c-5.2,6.7-10.2,13.5-14.8,20.7
			c-4.5,7.2-8.4,14.6-11.9,22.3c-6.8,15.4-11.4,31.7-14.3,48.4l-1.1,6.3l-0.9,6.3c-0.6,4.2-1,8.5-1.6,12.7
			c-0.4,4.2-0.9,8.5-1.3,12.7c-0.3,4.3-0.7,8.5-1,12.8c-1.2,17.1-1.8,34.3-2.4,51.4c-0.6,17.2-1,34.4-1.6,51.6
			c-0.6,17.2-1,34.4-1.7,51.7c-0.6,17.2-1.3,34.4-2.2,51.6c-0.8,17.2-1.9,34.4-3.1,51.6c-0.1-8.6-0.2-17.2-0.2-25.9l-0.1-25.8
			l-0.1-51.7l0-51.7c0.1-17.2,0.3-34.5,0.6-51.7c0.1-8.6,0.4-17.3,0.7-25.9c0.3-8.6,0.7-17.3,1.3-25.9c0.2-4.3,0.6-8.6,0.9-13
			c0.2-2.2,0.4-4.3,0.6-6.5c0.2-2.2,0.4-4.3,0.6-6.5c0.6-4.3,1-8.6,1.7-13l1-6.5l1.1-6.5c1.6-8.6,3.5-17.2,6.1-25.6
			c2.5-8.4,5.5-16.7,9.3-24.7c3.7-8,8.1-15.7,12.8-23.1c4.9-7.3,10.1-14.3,15.7-21l0.2-0.2l0.2-0.1c9.1-7.9,16-18.1,20.7-29.3
			c4.8-11.2,7.4-23.4,9-35.8c0.8-6.2,1.4-12.4,2-18.7c0.6-6.3,1.1-12.6,1.9-18.8c0.4-3.1,0.9-6.3,1.6-9.4c0.7-3.1,1.6-6.2,2.9-9.2
			c0.6-1.5,1.4-2.9,2.3-4.2c0.9-1.3,1.9-2.6,3.1-3.7c1.2-1.1,2.5-2,3.9-2.7C232.7,6.1,234.2,5.6,235.8,5.2z"/>
	</g>
	<g>
		<path class="st0" d="M235.8,5.2c-3.3,1-6.4,2.6-9,4.8c-2.6,2.2-4.6,4.9-6.3,7.8c-3.3,5.9-5.1,12.5-6.6,19.1
			c-2.9,13.3-4.3,27-6.9,40.6c-2.5,13.6-5.8,27.2-11.5,40.1c-5.6,12.9-13.6,25-23.9,34.9l0.3-0.3l-3.9,4.9c-0.6,0.8-1.3,1.6-1.9,2.4
			l-1.9,2.5c-1.2,1.7-2.5,3.3-3.7,5l-3.5,5.1c-0.6,0.8-1.2,1.7-1.7,2.6l-1.6,2.6l-1.6,2.6c-0.5,0.9-1,1.8-1.5,2.7
			c-1,1.8-2,3.6-3,5.4l-2.8,5.5c-3.5,7.5-6.7,15.1-9.1,23c-0.7,2-1.2,4-1.8,5.9l-0.9,3l-0.7,3c-0.5,2-1,4-1.4,6l-1.2,6.1
			c-0.4,2-0.7,4.1-1.1,6.1c-0.3,2.1-0.7,4.1-0.9,6.2c-0.5,4.1-1.1,8.3-1.4,12.4l-0.6,6.2l-0.4,6.3c-0.3,4.2-0.5,8.4-0.7,12.5
			c-0.7,16.8-0.5,33.6-0.3,50.5c0.3,16.9,1,33.7,1.6,50.6c0.6,16.9,1.5,33.8,2.2,50.7l1.1,25.3l1,25.4c0.6,16.9,1.1,33.8,1.5,50.7
			c-1.7-16.8-3.3-33.7-4.8-50.5l-2.2-25.3l-2.1-25.3c-2.7-33.7-5.2-67.5-6.5-101.4c-0.7-17-0.8-34-0.2-51c0.6-17,1.9-34.2,5.3-51.1
			l1.3-6.3c0.5-2.1,1-4.2,1.5-6.3l0.8-3.1l0.9-3.1c0.6-2.1,1.2-4.2,1.9-6.2l2.1-6.1c0.7-2,1.6-4,2.4-6.1l1.2-3l1.3-3l1.4-3
			c0.4-1,0.9-2,1.4-2.9l3-5.8c1-1.9,2.2-3.7,3.2-5.6c0.6-0.9,1.1-1.9,1.7-2.8l1.8-2.7l1.8-2.7c0.6-0.9,1.2-1.8,1.8-2.7l3.7-5.3
			c1.3-1.7,2.6-3.4,3.9-5.1l2-2.6c0.7-0.8,1.4-1.7,2-2.5l4.1-5l0.2-0.2l0.2-0.1c9.8-8.9,17.6-19.9,23.3-32
			c2.8-6.1,5.3-12.4,7.3-18.8c2.1-6.4,3.8-13,5.3-19.7c1.5-6.7,2.9-13.4,4.3-20.1c1.4-6.7,2.8-13.5,4.7-20.2
			c1.9-6.6,4.2-13.3,8-19.2c1.9-2.9,4.3-5.6,7.1-7.6C229.1,7.3,232.4,6,235.8,5.2z"/>
	</g>
	<g>
		<path class="st0" d="M235.8,5.2c-3.6,1.1-7,2.7-10,4.9c-3,2.1-5.6,4.9-7.8,7.8c-4.4,5.9-7.4,12.8-9.9,19.7
			c-2.5,7-4.4,14.2-6.3,21.4c-1.9,7.2-3.7,14.5-5.7,21.8c-2,7.3-4.1,14.5-6.6,21.7c-2.5,7.2-5.3,14.2-8.7,21.1
			c-6.6,13.7-15.4,26.8-26.5,37.5l0.3-0.3c-10.6,12.6-20.2,25.9-27.6,40.4c-2,3.6-3.5,7.3-5.3,11c-1.5,3.8-3.1,7.5-4.4,11.4l-1,2.9
			l-0.5,1.4l-0.4,1.5l-1.7,5.9c-0.6,2-1,4-1.5,5.9l-0.7,3c-0.2,1-0.4,2-0.6,3l-1.1,6l-0.9,6.1l-0.5,3c-0.1,1-0.2,2-0.4,3l-0.7,6.1
			c-0.2,2-0.3,4.1-0.5,6.1c-0.1,2-0.4,4.1-0.4,6.1c-0.1,4.1-0.4,8.2-0.4,12.3l-0.1,6.2c0,2.1,0,4.1,0.1,6.2l0.1,6.2l0.2,6.2l0.2,6.2
			l0.3,6.2l0.3,6.2l0.4,6.2c1.2,16.5,3,33.1,4.8,49.6c1.9,16.5,4,33,6.1,49.6l6.5,49.6c2.2,16.5,4.3,33.1,6.4,49.6
			c-3.3-16.3-6.5-32.7-9.6-49.1l-4.5-24.6l-4.3-24.7c-5.5-32.9-10.6-65.9-13.6-99.3l-0.6-6.3l-0.5-6.3l-0.4-6.3
			c-0.1-2.1-0.2-4.2-0.3-6.3l-0.3-6.3l-0.1-6.3c0-2.1-0.1-4.2-0.1-6.3l0-6.3c0-4.2,0.2-8.4,0.3-12.7c0-2.1,0.2-4.2,0.4-6.3
			c0.2-2.1,0.3-4.2,0.5-6.3l0.7-6.3c0.1-1.1,0.2-2.1,0.3-3.2l0.5-3.2c0.3-2.1,0.6-4.2,1-6.3l1.2-6.3c0.2-1,0.4-2.1,0.6-3.1l0.8-3.1
			c0.5-2.1,1-4.2,1.6-6.2l1.8-6.1l0.5-1.5l0.5-1.5l1.1-3c1.3-4.1,3.1-8,4.7-11.9c1.8-3.9,3.5-7.8,5.6-11.5l1.5-2.8
			c0.5-1,1-1.9,1.6-2.8l3.3-5.5c1.1-1.8,2.3-3.6,3.5-5.3l1.8-2.7c0.6-0.9,1.2-1.7,1.9-2.6l3.8-5.1l3.9-5l2-2.5l2.1-2.4l4.1-4.8
			l0.1-0.1l0.1-0.1c10.6-9.9,19.2-21.8,26-34.9c6.8-13,11.8-27,16.3-41.2l6.6-21.5c2.3-7.2,4.6-14.3,7.5-21.3
			c2.9-7,6.4-13.8,11.4-19.7c2.5-2.9,5.4-5.5,8.6-7.4C228.5,7.4,232.1,6.1,235.8,5.2z"/>
	</g>
	<g>
		<path class="st0" d="M235.8,5.2c-7.8,2.4-14.8,6.8-20.2,12.8c-5.4,5.9-9.5,12.9-13,20.2c-3.5,7.3-6.4,14.8-9.1,22.5
			c-2.8,7.6-5.4,15.3-8.1,23c-2.7,7.7-5.5,15.4-8.7,23c-3.1,7.6-6.6,15.1-10.4,22.4c-3.9,7.3-8.1,14.5-13,21.2
			c-4.9,6.8-10.3,13.2-16.2,19.1l0.2-0.2c-5.3,6.2-10.5,12.4-15.1,19c-2.4,3.2-4.6,6.7-6.8,10c-1.1,1.7-2.1,3.4-3.2,5.2
			c-1,1.7-2.1,3.4-3,5.2l-2.9,5.3l-2.6,5.4c-0.4,0.9-0.9,1.8-1.3,2.7l-1.1,2.8c-0.7,1.9-1.6,3.7-2.3,5.6c-1.3,3.8-2.7,7.5-3.8,11.4
			l-0.8,2.9l-0.4,1.4l-0.3,1.5l-1.4,5.9c-3.5,15.7-4.8,31.9-4.7,48.1c0.1,4.1,0.2,8.1,0.3,12.2l0.4,6.1c0.1,2,0.2,4.1,0.4,6.1
			c0.6,8.1,1.4,16.3,2.5,24.4c2.1,16.2,4.8,32.4,7.9,48.6c3.1,16.1,6.5,32.2,10.1,48.3c1.8,8,3.6,16.1,5.5,24.1
			c1.9,8,3.7,16.1,5.7,24.1l11.5,48.1c-5-15.7-9.9-31.5-14.6-47.3c-2.3-7.9-4.6-15.8-6.9-23.8c-1.1-4-2.2-8-3.3-11.9
			c-1.1-4-2.2-8-3.2-12c-4.3-16-8.1-32-11.7-48.2c-3.6-16.1-6.7-32.5-9-48.9c-2.4-16.4-4.1-33.1-4.2-49.8c0-8.4,0.1-16.8,1-25.1
			c0.7-8.4,2-16.7,3.7-25l1.5-6.2l0.4-1.5l0.5-1.5l0.9-3c1.1-4.1,2.6-8,4.1-12c0.7-2,1.6-3.9,2.4-5.9l1.2-2.9c0.4-1,0.9-1.9,1.4-2.9
			l2.8-5.7l3-5.6c1-1.9,2.1-3.7,3.2-5.5c1.1-1.8,2.2-3.6,3.3-5.4c2.4-3.5,4.7-7,7.3-10.3c5-6.8,10.4-13.1,16-19.4l0.1-0.1l0.1-0.1
			c5.7-5.5,10.9-11.5,15.7-17.8c1.2-1.6,2.4-3.2,3.5-4.8l3.4-5l3.2-5.1c1.1-1.7,2-3.5,3-5.2c7.9-14,14.2-28.9,20.2-44
			c6-15.1,11.6-30.5,19.5-45.1c1-1.8,2-3.6,3.1-5.4l1.7-2.6c0.6-0.9,1.1-1.7,1.8-2.6c1.2-1.7,2.4-3.4,3.8-4.9c0.7-0.8,1.3-1.6,2-2.3
			l2.2-2.2c0.7-0.8,1.5-1.4,2.3-2.1c0.8-0.7,1.6-1.4,2.4-2l2.6-1.7c0.4-0.3,0.8-0.6,1.3-0.8l1.4-0.7c0.9-0.5,1.8-1,2.7-1.4l2.9-1.1
			c0.5-0.2,0.9-0.4,1.4-0.5l1.5-0.4L235.8,5.2z"/>
	</g>
	<g>
		<path class="st0" d="M235.8,5.2C229.7,7,224,9.9,219,13.6c-5,3.7-9.4,8.1-13.3,13c-3.9,4.9-7.2,10.2-10.3,15.6
			c-3.1,5.4-5.9,11-8.5,16.7c-5.3,11.4-10.1,23-15.1,34.6c-2.5,5.8-5.1,11.6-7.8,17.3c-1.3,2.9-2.8,5.7-4.1,8.6
			c-1.4,2.8-2.9,5.7-4.4,8.5c-6,11.2-12.7,22.2-20.6,32.4l-3,3.8l-1.5,1.9l-1.6,1.8l-3.2,3.7c-1.1,1.2-2.2,2.3-3.3,3.5
			c-1.1,1.2-2.2,2.3-3.2,3.5l-3,3.5l-3,3.5l-2.9,3.6c-7.8,9.7-15,19.8-20.9,30.5c-6,10.8-10.8,22.1-14.2,33.9
			c-3.4,11.8-5.5,23.9-6.3,36.3c-0.8,12.3-0.4,24.7,0.7,37.1l0.4,4.6l0.2,2.3l0.3,2.3l1.2,9.3c1,6.2,2,12.3,3.3,18.4
			c1.1,6.1,2.6,12.2,4,18.3l2.2,9.1l1.1,4.6l1.2,4.5l2.5,9.1l2.6,9c1.7,6,3.7,12,5.5,18c1.8,6,3.8,12,5.7,18l6,17.9
			c8.1,23.9,16.9,47.5,25.5,71.2c-10.5-23-20.4-46.2-29.7-69.7c-2.3-5.9-4.5-11.8-6.8-17.7c-2.2-5.9-4.4-11.9-6.5-17.8
			c-2.1-6-4.2-11.9-6.1-18l-2.9-9l-2.7-9.1l-1.4-4.6l-1.3-4.6l-2.5-9.2c-1.5-6.2-3.1-12.3-4.4-18.6c-1.4-6.2-2.5-12.5-3.7-18.8
			l-1.4-9.5l-0.3-2.4l-0.3-2.4l-0.5-4.8c-1.3-12.7-1.8-25.6-1-38.5c0.8-12.9,2.8-25.7,6.4-38.2c3.6-12.4,8.8-24.4,15.1-35.7
			c6.4-11.3,13.8-21.8,22-31.6l3.1-3.7l3.2-3.6l3.2-3.6c1.1-1.2,2.2-2.3,3.3-3.4c1.1-1.1,2.2-2.2,3.2-3.4l3.1-3.4l1.5-1.7l1.5-1.8
			l2.9-3.6c1-1.2,1.9-2.5,2.8-3.7c0.9-1.2,1.9-2.4,2.8-3.7c1.8-2.6,3.6-5,5.3-7.7l2.6-3.9l2.5-4c1.7-2.6,3.2-5.3,4.8-8
			c6.2-10.8,11.7-22.1,17.1-33.5c5.5-11.3,10.7-22.9,16.5-34.1c2.9-5.6,6-11.2,9.4-16.6c3.4-5.4,7.1-10.7,11.4-15.4
			c4.3-4.8,9-9.1,14.4-12.5C223.6,9,229.6,6.6,235.8,5.2z"/>
	</g>
	<g>
		<path class="st0" d="M235.8,5.2c-6.2,1.9-12.1,4.6-17.5,8.1l-2,1.3l-1,0.7c-0.3,0.2-0.6,0.5-1,0.7c-1.3,1-2.5,2-3.8,3l-3.6,3.2
			c-1.2,1.1-2.2,2.3-3.4,3.4c-8.8,9.3-15.8,20.2-22.2,31.3c-6.4,11.2-12.1,22.8-17.9,34.4c-5.8,11.6-11.6,23.2-17.9,34.6
			c-6.3,11.4-13.1,22.6-20.8,33.3c-1.9,2.7-3.9,5.3-5.9,7.9c-2.1,2.6-4.1,5.2-6.2,7.7c-2.2,2.5-4.3,5-6.6,7.4l-3.4,3.6
			c-1.1,1.2-2.1,2.4-3.2,3.6c-8.4,9.5-16.5,19.5-23.4,30.1c-6.9,10.6-12.8,21.9-17.1,33.7c-4.4,11.8-7.4,24.1-8.7,36.6
			c-1.4,12.5-1.2,25.3,0,37.9c1.2,12.7,3.4,25.3,6.5,37.7c0.7,3.1,1.6,6.2,2.4,9.3c0.4,1.5,0.8,3.1,1.3,4.6l1.4,4.6l1.4,4.6l0.7,2.3
			l0.8,2.3l3,9.2c4.3,12.1,8.8,24.2,13.8,36.1c4.9,12,10.2,23.7,15.6,35.5c10.8,23.5,22.6,46.6,34.4,69.7
			c-13.6-22.1-26.4-44.7-38.4-67.7c-11.9-23.1-22.9-46.7-32.1-71.2c-4.6-12.2-8.6-24.7-12-37.4c-3.3-12.7-5.8-25.6-7.3-38.8
			c-1.4-13.1-1.6-26.5-0.2-39.7c1.4-13.2,4.4-26.3,9-38.8c4.7-12.5,10.9-24.3,18.2-35.4c3.6-5.5,7.5-10.9,11.6-16
			c2-2.6,4.2-5.1,6.3-7.6c2.1-2.6,4.4-4.9,6.6-7.4c1.1-1.2,2.2-2.5,3.3-3.6l3.3-3.4c2.3-2.3,4.3-4.7,6.5-7c2.1-2.4,4.1-4.9,6.1-7.3
			c1.9-2.5,3.9-5,5.8-7.6c7.6-10.3,14.5-21.1,21.1-32.2c13.1-22.2,24.4-45.6,38.1-67.8c7-11,14.6-21.8,24.2-30.8
			c1.2-1.1,2.4-2.3,3.7-3.3l3.8-3.1c1.3-1,2.7-1.9,4-2.8c0.3-0.2,0.7-0.5,1-0.7l1.1-0.6l2.1-1.2C223.3,9,229.4,6.7,235.8,5.2z"/>
	</g>
	<g>
		<path class="st0" d="M235.8,5.2c-6.4,1.9-12.5,4.6-18.3,8l-4.2,2.6c-1.4,0.9-2.7,1.9-4,2.9c-1.4,0.9-2.6,2-3.9,3.1
			c-1.3,1.1-2.6,2.1-3.7,3.3c-9.7,9-17.9,19.5-25.2,30.5c-7.4,11-14.1,22.5-20.6,34.1c-6.5,11.6-13.1,23.3-19.8,34.9
			c-6.8,11.6-13.8,23-21.6,34.1c-7.7,11.1-16.1,21.8-25.3,31.8l-3.5,3.7l-3.3,3.7c-2.2,2.4-4.5,4.8-6.6,7.3
			c-4.3,5-8.4,10.1-12.3,15.4c-7.8,10.5-14.6,21.7-20,33.6c-5.4,11.8-9.3,24.3-11.4,37c-2.1,12.8-2.4,25.9-1.2,38.8
			c1.1,13,3.7,25.9,7.3,38.5l1.4,4.7l0.7,2.4c0.2,0.8,0.5,1.6,0.8,2.3l3.2,9.4c2.3,6.2,4.6,12.4,7.2,18.5c2.5,6.1,5.4,12.1,8.1,18.1
			c1.4,3,3,5.9,4.4,8.9l2.2,4.5l2.3,4.4l4.7,8.8c1.6,2.9,3.2,5.8,4.9,8.7c3.2,5.8,6.7,11.5,10,17.3c13.6,22.9,28.4,45.2,43.5,67.2
			c-16.7-20.9-32.5-42.5-47.3-64.9c-3.6-5.6-7.3-11.2-10.8-17c-1.7-2.9-3.5-5.7-5.2-8.6l-5-8.7l-2.5-4.4l-2.4-4.4
			c-1.6-3-3.2-5.9-4.7-8.9c-3-6-6.1-12-8.7-18.2c-2.9-6.1-5.3-12.4-7.9-18.6l-3.4-9.6c-0.3-0.8-0.6-1.6-0.8-2.4l-0.7-2.4l-1.5-4.9
			c-3.9-13-6.8-26.3-8.2-40c-1.4-13.6-1.1-27.5,1-41c2.2-13.6,6.2-26.9,11.9-39.4c5.7-12.5,13-24.2,21.1-35.1
			c4.1-5.4,8.4-10.7,12.8-15.8c2.2-2.6,4.5-5,6.8-7.5c2.3-2.5,4.6-4.9,6.9-7.3c18.2-19,33-41.1,47.1-63.7
			c14-22.6,27.1-46.1,42.9-67.9c8-10.8,16.8-21.2,27.2-29.9c1.3-1.1,2.6-2.1,4-3.1c1.4-1,2.7-2,4.1-2.9c1.4-0.9,2.8-1.9,4.3-2.7
			l4.4-2.4C222.9,9,229.2,6.7,235.8,5.2z"/>
	</g>
	<g>
		<path class="st0" d="M235.8,5.2c-3.3,1-6.5,2.2-9.7,3.5c-3.1,1.4-6.2,2.9-9.2,4.6c-3,1.7-5.9,3.5-8.7,5.5c-2.8,2-5.5,4-8.1,6.2
			c-5.2,4.4-10.1,9.2-14.7,14.2c-4.6,5-8.9,10.3-13.1,15.7c-2.1,2.7-4.1,5.5-6.1,8.3c-2,2.8-4,5.6-5.9,8.4
			c-3.9,5.7-7.6,11.4-11.3,17.2L127.1,124c-7.3,11.8-14.9,23.4-22.9,34.7c-8,11.4-16.5,22.5-25.8,33c-2.3,2.6-4.7,5.2-7.1,7.8
			l-7.2,7.5c-4.7,5-9.2,10-13.5,15.3c-8.6,10.5-16.4,21.6-22.9,33.5c-3.2,5.9-6.1,12-8.5,18.3c-2.4,6.3-4.4,12.7-5.8,19.2
			c-3,13.1-3.8,26.6-2.9,40c1,13.4,3.8,26.8,7.9,39.7c4.2,12.9,9.5,25.5,15.7,37.8c3.1,6.1,6.4,12.1,9.8,18.1
			c3.4,5.9,7.1,11.8,10.8,17.5c7.5,11.5,15.4,22.8,23.7,33.8c16.6,22,34.5,43,53,63.5c-19.5-19.6-38.3-39.9-55.7-61.5
			c-17.4-21.5-33.5-44.2-46.7-68.8c-6.6-12.3-12.4-25.1-16.9-38.3c-4.5-13.3-7.7-27.1-9-41.2c-1.3-14.1-0.5-28.4,2.5-42.3
			c1.5-6.9,3.5-13.8,6-20.4c2.5-6.6,5.4-13.1,8.7-19.4c6.6-12.5,14.7-24.2,23.5-35c4.4-5.4,9.1-10.7,13.9-15.8l7.1-7.5
			c2.3-2.5,4.6-5,6.8-7.6c8.9-10.3,17.3-21.1,25.3-32.3c8-11.1,15.5-22.6,23.1-34.1l11.3-17.3c3.8-5.8,7.6-11.6,11.5-17.3
			c3.9-5.7,7.9-11.4,12-17c4.1-5.6,8.4-11.1,12.9-16.5c4.5-5.3,9.2-10.5,14.2-15.4c5-4.9,10.3-9.5,16-13.6
			C209.2,14.1,222.2,7.9,235.8,5.2z"/>
	</g>
</g>
</svg>
